<svg xmlns="http://www.w3.org/2000/svg" xmlns:xlink="http://www.w3.org/1999/xlink" xmlns:s="https://github.com/nturley/netlistsvg" width="567" height="1406.5">
  <style>svg {
    stroke:#000;
    fill:none;
  }
  text {
    fill:#000;
    stroke:none;
    font-size:10px;
    font-weight: bold;
    font-family: "Courier New", monospace;
  }
  .nodelabel {
    text-anchor: middle;
  }
  .inputPortLabel {
    text-anchor: end;
  }
  .splitjoinBody {
    fill:#000;
  }</style>
  <g s:type="generic" transform="translate(209,110)" s:width="30" s:height="40" id="cell_gen_inst_match[0].u_match">
    <text x="15" y="-4" class="nodelabel cell_gen_inst_match[0].u_match" s:attribute="ref">control_unit_op_match</text>
    <rect width="30" height="40" s:generic="body" class="cell_gen_inst_match[0].u_match"/>
    <g transform="translate(0,10)" s:x="0" s:y="10" s:pid="in0" id="port_gen_inst_match[0].u_match~i_opcode">
      <text x="-3" y="-4" class="inputPortLabel cell_gen_inst_match[0].u_match">i_opcode</text>
    </g>
    <g transform="translate(0,30)" s:x="0" s:y="10" s:pid="in0" id="port_gen_inst_match[0].u_match~i_target">
      <text x="-3" y="-4" class="inputPortLabel cell_gen_inst_match[0].u_match">i_target</text>
    </g>
    <g transform="translate(30,10)" s:x="30" s:y="10" s:pid="out0" id="port_gen_inst_match[0].u_match~o_match">
      <text x="5" y="-4" style="fill:#000; stroke:none" class="cell_gen_inst_match[0].u_match">o_match</text>
    </g>
  </g>
  <g s:type="generic" transform="translate(203,911.5)" s:width="30" s:height="40" id="cell_gen_inst_match[10].u_match">
    <text x="15" y="-4" class="nodelabel cell_gen_inst_match[10].u_match" s:attribute="ref">control_unit_op_match</text>
    <rect width="30" height="40" s:generic="body" class="cell_gen_inst_match[10].u_match"/>
    <g transform="translate(0,10)" s:x="0" s:y="10" s:pid="in0" id="port_gen_inst_match[10].u_match~i_opcode">
      <text x="-3" y="-4" class="inputPortLabel cell_gen_inst_match[10].u_match">i_opcode</text>
    </g>
    <g transform="translate(0,30)" s:x="0" s:y="10" s:pid="in0" id="port_gen_inst_match[10].u_match~i_target">
      <text x="-3" y="-4" class="inputPortLabel cell_gen_inst_match[10].u_match">i_target</text>
    </g>
    <g transform="translate(30,10)" s:x="30" s:y="10" s:pid="out0" id="port_gen_inst_match[10].u_match~o_match">
      <text x="5" y="-4" style="fill:#000; stroke:none" class="cell_gen_inst_match[10].u_match">o_match</text>
    </g>
  </g>
  <g s:type="generic" transform="translate(203,999.5)" s:width="30" s:height="40" id="cell_gen_inst_match[11].u_match">
    <text x="15" y="-4" class="nodelabel cell_gen_inst_match[11].u_match" s:attribute="ref">control_unit_op_match</text>
    <rect width="30" height="40" s:generic="body" class="cell_gen_inst_match[11].u_match"/>
    <g transform="translate(0,10)" s:x="0" s:y="10" s:pid="in0" id="port_gen_inst_match[11].u_match~i_opcode">
      <text x="-3" y="-4" class="inputPortLabel cell_gen_inst_match[11].u_match">i_opcode</text>
    </g>
    <g transform="translate(0,30)" s:x="0" s:y="10" s:pid="in0" id="port_gen_inst_match[11].u_match~i_target">
      <text x="-3" y="-4" class="inputPortLabel cell_gen_inst_match[11].u_match">i_target</text>
    </g>
    <g transform="translate(30,10)" s:x="30" s:y="10" s:pid="out0" id="port_gen_inst_match[11].u_match~o_match">
      <text x="5" y="-4" style="fill:#000; stroke:none" class="cell_gen_inst_match[11].u_match">o_match</text>
    </g>
  </g>
  <g s:type="generic" transform="translate(203,1087.5)" s:width="30" s:height="40" id="cell_gen_inst_match[12].u_match">
    <text x="15" y="-4" class="nodelabel cell_gen_inst_match[12].u_match" s:attribute="ref">control_unit_op_match</text>
    <rect width="30" height="40" s:generic="body" class="cell_gen_inst_match[12].u_match"/>
    <g transform="translate(0,10)" s:x="0" s:y="10" s:pid="in0" id="port_gen_inst_match[12].u_match~i_opcode">
      <text x="-3" y="-4" class="inputPortLabel cell_gen_inst_match[12].u_match">i_opcode</text>
    </g>
    <g transform="translate(0,30)" s:x="0" s:y="10" s:pid="in0" id="port_gen_inst_match[12].u_match~i_target">
      <text x="-3" y="-4" class="inputPortLabel cell_gen_inst_match[12].u_match">i_target</text>
    </g>
    <g transform="translate(30,10)" s:x="30" s:y="10" s:pid="out0" id="port_gen_inst_match[12].u_match~o_match">
      <text x="5" y="-4" style="fill:#000; stroke:none" class="cell_gen_inst_match[12].u_match">o_match</text>
    </g>
  </g>
  <g s:type="generic" transform="translate(203,1175.5)" s:width="30" s:height="40" id="cell_gen_inst_match[13].u_match">
    <text x="15" y="-4" class="nodelabel cell_gen_inst_match[13].u_match" s:attribute="ref">control_unit_op_match</text>
    <rect width="30" height="40" s:generic="body" class="cell_gen_inst_match[13].u_match"/>
    <g transform="translate(0,10)" s:x="0" s:y="10" s:pid="in0" id="port_gen_inst_match[13].u_match~i_opcode">
      <text x="-3" y="-4" class="inputPortLabel cell_gen_inst_match[13].u_match">i_opcode</text>
    </g>
    <g transform="translate(0,30)" s:x="0" s:y="10" s:pid="in0" id="port_gen_inst_match[13].u_match~i_target">
      <text x="-3" y="-4" class="inputPortLabel cell_gen_inst_match[13].u_match">i_target</text>
    </g>
    <g transform="translate(30,10)" s:x="30" s:y="10" s:pid="out0" id="port_gen_inst_match[13].u_match~o_match">
      <text x="5" y="-4" style="fill:#000; stroke:none" class="cell_gen_inst_match[13].u_match">o_match</text>
    </g>
  </g>
  <g s:type="generic" transform="translate(203,1351.5)" s:width="30" s:height="40" id="cell_gen_inst_match[14].u_match">
    <text x="15" y="-4" class="nodelabel cell_gen_inst_match[14].u_match" s:attribute="ref">control_unit_op_match</text>
    <rect width="30" height="40" s:generic="body" class="cell_gen_inst_match[14].u_match"/>
    <g transform="translate(0,10)" s:x="0" s:y="10" s:pid="in0" id="port_gen_inst_match[14].u_match~i_opcode">
      <text x="-3" y="-4" class="inputPortLabel cell_gen_inst_match[14].u_match">i_opcode</text>
    </g>
    <g transform="translate(0,30)" s:x="0" s:y="10" s:pid="in0" id="port_gen_inst_match[14].u_match~i_target">
      <text x="-3" y="-4" class="inputPortLabel cell_gen_inst_match[14].u_match">i_target</text>
    </g>
    <g transform="translate(30,10)" s:x="30" s:y="10" s:pid="out0" id="port_gen_inst_match[14].u_match~o_match">
      <text x="5" y="-4" style="fill:#000; stroke:none" class="cell_gen_inst_match[14].u_match">o_match</text>
    </g>
  </g>
  <g s:type="generic" transform="translate(203,1263.5)" s:width="30" s:height="40" id="cell_gen_inst_match[15].u_match">
    <text x="15" y="-4" class="nodelabel cell_gen_inst_match[15].u_match" s:attribute="ref">control_unit_op_match</text>
    <rect width="30" height="40" s:generic="body" class="cell_gen_inst_match[15].u_match"/>
    <g transform="translate(0,10)" s:x="0" s:y="10" s:pid="in0" id="port_gen_inst_match[15].u_match~i_opcode">
      <text x="-3" y="-4" class="inputPortLabel cell_gen_inst_match[15].u_match">i_opcode</text>
    </g>
    <g transform="translate(0,30)" s:x="0" s:y="10" s:pid="in0" id="port_gen_inst_match[15].u_match~i_target">
      <text x="-3" y="-4" class="inputPortLabel cell_gen_inst_match[15].u_match">i_target</text>
    </g>
    <g transform="translate(30,10)" s:x="30" s:y="10" s:pid="out0" id="port_gen_inst_match[15].u_match~o_match">
      <text x="5" y="-4" style="fill:#000; stroke:none" class="cell_gen_inst_match[15].u_match">o_match</text>
    </g>
  </g>
  <g s:type="generic" transform="translate(209,22)" s:width="30" s:height="40" id="cell_gen_inst_match[1].u_match">
    <text x="15" y="-4" class="nodelabel cell_gen_inst_match[1].u_match" s:attribute="ref">control_unit_op_match</text>
    <rect width="30" height="40" s:generic="body" class="cell_gen_inst_match[1].u_match"/>
    <g transform="translate(0,10)" s:x="0" s:y="10" s:pid="in0" id="port_gen_inst_match[1].u_match~i_opcode">
      <text x="-3" y="-4" class="inputPortLabel cell_gen_inst_match[1].u_match">i_opcode</text>
    </g>
    <g transform="translate(0,30)" s:x="0" s:y="10" s:pid="in0" id="port_gen_inst_match[1].u_match~i_target">
      <text x="-3" y="-4" class="inputPortLabel cell_gen_inst_match[1].u_match">i_target</text>
    </g>
    <g transform="translate(30,10)" s:x="30" s:y="10" s:pid="out0" id="port_gen_inst_match[1].u_match~o_match">
      <text x="5" y="-4" style="fill:#000; stroke:none" class="cell_gen_inst_match[1].u_match">o_match</text>
    </g>
  </g>
  <g s:type="generic" transform="translate(209,198)" s:width="30" s:height="40" id="cell_gen_inst_match[2].u_match">
    <text x="15" y="-4" class="nodelabel cell_gen_inst_match[2].u_match" s:attribute="ref">control_unit_op_match</text>
    <rect width="30" height="40" s:generic="body" class="cell_gen_inst_match[2].u_match"/>
    <g transform="translate(0,10)" s:x="0" s:y="10" s:pid="in0" id="port_gen_inst_match[2].u_match~i_opcode">
      <text x="-3" y="-4" class="inputPortLabel cell_gen_inst_match[2].u_match">i_opcode</text>
    </g>
    <g transform="translate(0,30)" s:x="0" s:y="10" s:pid="in0" id="port_gen_inst_match[2].u_match~i_target">
      <text x="-3" y="-4" class="inputPortLabel cell_gen_inst_match[2].u_match">i_target</text>
    </g>
    <g transform="translate(30,10)" s:x="30" s:y="10" s:pid="out0" id="port_gen_inst_match[2].u_match~o_match">
      <text x="5" y="-4" style="fill:#000; stroke:none" class="cell_gen_inst_match[2].u_match">o_match</text>
    </g>
  </g>
  <g s:type="generic" transform="translate(209,286)" s:width="30" s:height="40" id="cell_gen_inst_match[3].u_match">
    <text x="15" y="-4" class="nodelabel cell_gen_inst_match[3].u_match" s:attribute="ref">control_unit_op_match</text>
    <rect width="30" height="40" s:generic="body" class="cell_gen_inst_match[3].u_match"/>
    <g transform="translate(0,10)" s:x="0" s:y="10" s:pid="in0" id="port_gen_inst_match[3].u_match~i_opcode">
      <text x="-3" y="-4" class="inputPortLabel cell_gen_inst_match[3].u_match">i_opcode</text>
    </g>
    <g transform="translate(0,30)" s:x="0" s:y="10" s:pid="in0" id="port_gen_inst_match[3].u_match~i_target">
      <text x="-3" y="-4" class="inputPortLabel cell_gen_inst_match[3].u_match">i_target</text>
    </g>
    <g transform="translate(30,10)" s:x="30" s:y="10" s:pid="out0" id="port_gen_inst_match[3].u_match~o_match">
      <text x="5" y="-4" style="fill:#000; stroke:none" class="cell_gen_inst_match[3].u_match">o_match</text>
    </g>
  </g>
  <g s:type="generic" transform="translate(209,374)" s:width="30" s:height="40" id="cell_gen_inst_match[4].u_match">
    <text x="15" y="-4" class="nodelabel cell_gen_inst_match[4].u_match" s:attribute="ref">control_unit_op_match</text>
    <rect width="30" height="40" s:generic="body" class="cell_gen_inst_match[4].u_match"/>
    <g transform="translate(0,10)" s:x="0" s:y="10" s:pid="in0" id="port_gen_inst_match[4].u_match~i_opcode">
      <text x="-3" y="-4" class="inputPortLabel cell_gen_inst_match[4].u_match">i_opcode</text>
    </g>
    <g transform="translate(0,30)" s:x="0" s:y="10" s:pid="in0" id="port_gen_inst_match[4].u_match~i_target">
      <text x="-3" y="-4" class="inputPortLabel cell_gen_inst_match[4].u_match">i_target</text>
    </g>
    <g transform="translate(30,10)" s:x="30" s:y="10" s:pid="out0" id="port_gen_inst_match[4].u_match~o_match">
      <text x="5" y="-4" style="fill:#000; stroke:none" class="cell_gen_inst_match[4].u_match">o_match</text>
    </g>
  </g>
  <g s:type="generic" transform="translate(209,462)" s:width="30" s:height="40" id="cell_gen_inst_match[5].u_match">
    <text x="15" y="-4" class="nodelabel cell_gen_inst_match[5].u_match" s:attribute="ref">control_unit_op_match</text>
    <rect width="30" height="40" s:generic="body" class="cell_gen_inst_match[5].u_match"/>
    <g transform="translate(0,10)" s:x="0" s:y="10" s:pid="in0" id="port_gen_inst_match[5].u_match~i_opcode">
      <text x="-3" y="-4" class="inputPortLabel cell_gen_inst_match[5].u_match">i_opcode</text>
    </g>
    <g transform="translate(0,30)" s:x="0" s:y="10" s:pid="in0" id="port_gen_inst_match[5].u_match~i_target">
      <text x="-3" y="-4" class="inputPortLabel cell_gen_inst_match[5].u_match">i_target</text>
    </g>
    <g transform="translate(30,10)" s:x="30" s:y="10" s:pid="out0" id="port_gen_inst_match[5].u_match~o_match">
      <text x="5" y="-4" style="fill:#000; stroke:none" class="cell_gen_inst_match[5].u_match">o_match</text>
    </g>
  </g>
  <g s:type="generic" transform="translate(209,550)" s:width="30" s:height="40" id="cell_gen_inst_match[6].u_match">
    <text x="15" y="-4" class="nodelabel cell_gen_inst_match[6].u_match" s:attribute="ref">control_unit_op_match</text>
    <rect width="30" height="40" s:generic="body" class="cell_gen_inst_match[6].u_match"/>
    <g transform="translate(0,10)" s:x="0" s:y="10" s:pid="in0" id="port_gen_inst_match[6].u_match~i_opcode">
      <text x="-3" y="-4" class="inputPortLabel cell_gen_inst_match[6].u_match">i_opcode</text>
    </g>
    <g transform="translate(0,30)" s:x="0" s:y="10" s:pid="in0" id="port_gen_inst_match[6].u_match~i_target">
      <text x="-3" y="-4" class="inputPortLabel cell_gen_inst_match[6].u_match">i_target</text>
    </g>
    <g transform="translate(30,10)" s:x="30" s:y="10" s:pid="out0" id="port_gen_inst_match[6].u_match~o_match">
      <text x="5" y="-4" style="fill:#000; stroke:none" class="cell_gen_inst_match[6].u_match">o_match</text>
    </g>
  </g>
  <g s:type="generic" transform="translate(209,638)" s:width="30" s:height="40" id="cell_gen_inst_match[7].u_match">
    <text x="15" y="-4" class="nodelabel cell_gen_inst_match[7].u_match" s:attribute="ref">control_unit_op_match</text>
    <rect width="30" height="40" s:generic="body" class="cell_gen_inst_match[7].u_match"/>
    <g transform="translate(0,10)" s:x="0" s:y="10" s:pid="in0" id="port_gen_inst_match[7].u_match~i_opcode">
      <text x="-3" y="-4" class="inputPortLabel cell_gen_inst_match[7].u_match">i_opcode</text>
    </g>
    <g transform="translate(0,30)" s:x="0" s:y="10" s:pid="in0" id="port_gen_inst_match[7].u_match~i_target">
      <text x="-3" y="-4" class="inputPortLabel cell_gen_inst_match[7].u_match">i_target</text>
    </g>
    <g transform="translate(30,10)" s:x="30" s:y="10" s:pid="out0" id="port_gen_inst_match[7].u_match~o_match">
      <text x="5" y="-4" style="fill:#000; stroke:none" class="cell_gen_inst_match[7].u_match">o_match</text>
    </g>
  </g>
  <g s:type="generic" transform="translate(209,735.5)" s:width="30" s:height="40" id="cell_gen_inst_match[8].u_match">
    <text x="15" y="-4" class="nodelabel cell_gen_inst_match[8].u_match" s:attribute="ref">control_unit_op_match</text>
    <rect width="30" height="40" s:generic="body" class="cell_gen_inst_match[8].u_match"/>
    <g transform="translate(0,10)" s:x="0" s:y="10" s:pid="in0" id="port_gen_inst_match[8].u_match~i_opcode">
      <text x="-3" y="-4" class="inputPortLabel cell_gen_inst_match[8].u_match">i_opcode</text>
    </g>
    <g transform="translate(0,30)" s:x="0" s:y="10" s:pid="in0" id="port_gen_inst_match[8].u_match~i_target">
      <text x="-3" y="-4" class="inputPortLabel cell_gen_inst_match[8].u_match">i_target</text>
    </g>
    <g transform="translate(30,10)" s:x="30" s:y="10" s:pid="out0" id="port_gen_inst_match[8].u_match~o_match">
      <text x="5" y="-4" style="fill:#000; stroke:none" class="cell_gen_inst_match[8].u_match">o_match</text>
    </g>
  </g>
  <g s:type="generic" transform="translate(209,823.5)" s:width="30" s:height="40" id="cell_gen_inst_match[9].u_match">
    <text x="15" y="-4" class="nodelabel cell_gen_inst_match[9].u_match" s:attribute="ref">control_unit_op_match</text>
    <rect width="30" height="40" s:generic="body" class="cell_gen_inst_match[9].u_match"/>
    <g transform="translate(0,10)" s:x="0" s:y="10" s:pid="in0" id="port_gen_inst_match[9].u_match~i_opcode">
      <text x="-3" y="-4" class="inputPortLabel cell_gen_inst_match[9].u_match">i_opcode</text>
    </g>
    <g transform="translate(0,30)" s:x="0" s:y="10" s:pid="in0" id="port_gen_inst_match[9].u_match~i_target">
      <text x="-3" y="-4" class="inputPortLabel cell_gen_inst_match[9].u_match">i_target</text>
    </g>
    <g transform="translate(30,10)" s:x="30" s:y="10" s:pid="out0" id="port_gen_inst_match[9].u_match~o_match">
      <text x="5" y="-4" style="fill:#000; stroke:none" class="cell_gen_inst_match[9].u_match">o_match</text>
    </g>
  </g>
  <g s:type="inputExt" transform="translate(12,661)" s:width="30" s:height="20" id="cell_i_instr">
    <text x="15" y="-4" class="nodelabel cell_i_instr" s:attribute="ref">i_instr</text>
    <s:alias val="$_inputExt_"/>
    <path d="M0,0 L0,20 L15,20 L30,10 L15,0 Z" class="cell_i_instr"/>
    <g s:x="28" s:y="10" s:pid="Y"/>
  </g>
  <g s:type="outputExt" transform="translate(477,508.5)" s:width="30" s:height="20" id="cell_o_inst_onehot">
    <text x="15" y="-4" class="nodelabel cell_o_inst_onehot" s:attribute="ref">o_inst_onehot</text>
    <s:alias val="$_outputExt_"/>
    <path d="M30,0 L30,20 L15,20 L0,10 L15,0 Z" class="cell_o_inst_onehot"/>
    <g s:x="0" s:y="10" s:pid="A"/>
  </g>
  <g s:type="constant" transform="translate(89,130.5)" s:width="30" s:height="20" id="cell_00000000">
    <text x="15" y="-4" class="nodelabel cell_00000000" s:attribute="ref">0x0</text>
    <s:alias val="$_constant_"/>
    <rect width="30" height="20" class="cell_00000000"/>
    <g s:x="30" s:y="10" s:pid="Y"/>
  </g>
  <g s:type="constant" transform="translate(89,932)" s:width="30" s:height="20" id="cell_00001010">
    <text x="15" y="-4" class="nodelabel cell_00001010" s:attribute="ref">0xa</text>
    <s:alias val="$_constant_"/>
    <rect width="30" height="20" class="cell_00001010"/>
    <g s:x="30" s:y="10" s:pid="Y"/>
  </g>
  <g s:type="constant" transform="translate(89,1020)" s:width="30" s:height="20" id="cell_00001011">
    <text x="15" y="-4" class="nodelabel cell_00001011" s:attribute="ref">0xb</text>
    <s:alias val="$_constant_"/>
    <rect width="30" height="20" class="cell_00001011"/>
    <g s:x="30" s:y="10" s:pid="Y"/>
  </g>
  <g s:type="constant" transform="translate(89,1108)" s:width="30" s:height="20" id="cell_00001100">
    <text x="15" y="-4" class="nodelabel cell_00001100" s:attribute="ref">0xc</text>
    <s:alias val="$_constant_"/>
    <rect width="30" height="20" class="cell_00001100"/>
    <g s:x="30" s:y="10" s:pid="Y"/>
  </g>
  <g s:type="constant" transform="translate(89,1196)" s:width="30" s:height="20" id="cell_00001101">
    <text x="15" y="-4" class="nodelabel cell_00001101" s:attribute="ref">0xd</text>
    <s:alias val="$_constant_"/>
    <rect width="30" height="20" class="cell_00001101"/>
    <g s:x="30" s:y="10" s:pid="Y"/>
  </g>
  <g s:type="constant" transform="translate(89,1372)" s:width="30" s:height="20" id="cell_00001110">
    <text x="15" y="-4" class="nodelabel cell_00001110" s:attribute="ref">0xe</text>
    <s:alias val="$_constant_"/>
    <rect width="30" height="20" class="cell_00001110"/>
    <g s:x="30" s:y="10" s:pid="Y"/>
  </g>
  <g s:type="constant" transform="translate(89,1284)" s:width="30" s:height="20" id="cell_00001111">
    <text x="15" y="-4" class="nodelabel cell_00001111" s:attribute="ref">0xf</text>
    <s:alias val="$_constant_"/>
    <rect width="30" height="20" class="cell_00001111"/>
    <g s:x="30" s:y="10" s:pid="Y"/>
  </g>
  <g s:type="constant" transform="translate(89,42.5)" s:width="30" s:height="20" id="cell_00000001">
    <text x="15" y="-4" class="nodelabel cell_00000001" s:attribute="ref">0x1</text>
    <s:alias val="$_constant_"/>
    <rect width="30" height="20" class="cell_00000001"/>
    <g s:x="30" s:y="10" s:pid="Y"/>
  </g>
  <g s:type="constant" transform="translate(89,218.5)" s:width="30" s:height="20" id="cell_00000010">
    <text x="15" y="-4" class="nodelabel cell_00000010" s:attribute="ref">0x2</text>
    <s:alias val="$_constant_"/>
    <rect width="30" height="20" class="cell_00000010"/>
    <g s:x="30" s:y="10" s:pid="Y"/>
  </g>
  <g s:type="constant" transform="translate(89,306.5)" s:width="30" s:height="20" id="cell_00000011">
    <text x="15" y="-4" class="nodelabel cell_00000011" s:attribute="ref">0x3</text>
    <s:alias val="$_constant_"/>
    <rect width="30" height="20" class="cell_00000011"/>
    <g s:x="30" s:y="10" s:pid="Y"/>
  </g>
  <g s:type="constant" transform="translate(89,394.5)" s:width="30" s:height="20" id="cell_00000100">
    <text x="15" y="-4" class="nodelabel cell_00000100" s:attribute="ref">0x4</text>
    <s:alias val="$_constant_"/>
    <rect width="30" height="20" class="cell_00000100"/>
    <g s:x="30" s:y="10" s:pid="Y"/>
  </g>
  <g s:type="constant" transform="translate(89,482.5)" s:width="30" s:height="20" id="cell_00000101">
    <text x="15" y="-4" class="nodelabel cell_00000101" s:attribute="ref">0x5</text>
    <s:alias val="$_constant_"/>
    <rect width="30" height="20" class="cell_00000101"/>
    <g s:x="30" s:y="10" s:pid="Y"/>
  </g>
  <g s:type="constant" transform="translate(89,570.5)" s:width="30" s:height="20" id="cell_00000110">
    <text x="15" y="-4" class="nodelabel cell_00000110" s:attribute="ref">0x6</text>
    <s:alias val="$_constant_"/>
    <rect width="30" height="20" class="cell_00000110"/>
    <g s:x="30" s:y="10" s:pid="Y"/>
  </g>
  <g s:type="constant" transform="translate(89,691)" s:width="30" s:height="20" id="cell_00000111">
    <text x="15" y="-4" class="nodelabel cell_00000111" s:attribute="ref">0x7</text>
    <s:alias val="$_constant_"/>
    <rect width="30" height="20" class="cell_00000111"/>
    <g s:x="30" s:y="10" s:pid="Y"/>
  </g>
  <g s:type="constant" transform="translate(89,756)" s:width="30" s:height="20" id="cell_00001000">
    <text x="15" y="-4" class="nodelabel cell_00001000" s:attribute="ref">0x8</text>
    <s:alias val="$_constant_"/>
    <rect width="30" height="20" class="cell_00001000"/>
    <g s:x="30" s:y="10" s:pid="Y"/>
  </g>
  <g s:type="constant" transform="translate(89,844)" s:width="30" s:height="20" id="cell_00001001">
    <text x="15" y="-4" class="nodelabel cell_00001001" s:attribute="ref">0x9</text>
    <s:alias val="$_constant_"/>
    <rect width="30" height="20" class="cell_00001001"/>
    <g s:x="30" s:y="10" s:pid="Y"/>
  </g>
  <g s:type="join" transform="translate(436,498)" s:width="4" s:height="40" id="cell_$join$,18,19,20,21,22,23,24,25,26,27,28,29,30,31,32,33,">
    <rect width="5" height="320" class="splitjoinBody" s:generic="body"/>
    <s:alias val="$_join_"/>
    <g s:x="5" s:y="20" s:pid="out"/>
    <g transform="translate(0,10)" s:x="0" s:y="10" s:pid="in0">
      <text x="-3" y="-4" class="inputPortLabel">0</text>
    </g>
    <g transform="translate(0,30)" s:x="0" s:y="10" s:pid="in0">
      <text x="-3" y="-4" class="inputPortLabel">1</text>
    </g>
    <g transform="translate(0,50)" s:x="0" s:y="10" s:pid="in0">
      <text x="-3" y="-4" class="inputPortLabel">2</text>
    </g>
    <g transform="translate(0,70)" s:x="0" s:y="10" s:pid="in0">
      <text x="-3" y="-4" class="inputPortLabel">3</text>
    </g>
    <g transform="translate(0,90)" s:x="0" s:y="10" s:pid="in0">
      <text x="-3" y="-4" class="inputPortLabel">4</text>
    </g>
    <g transform="translate(0,110)" s:x="0" s:y="10" s:pid="in0">
      <text x="-3" y="-4" class="inputPortLabel">5</text>
    </g>
    <g transform="translate(0,130)" s:x="0" s:y="10" s:pid="in0">
      <text x="-3" y="-4" class="inputPortLabel">6</text>
    </g>
    <g transform="translate(0,150)" s:x="0" s:y="10" s:pid="in0">
      <text x="-3" y="-4" class="inputPortLabel">7</text>
    </g>
    <g transform="translate(0,170)" s:x="0" s:y="10" s:pid="in0">
      <text x="-3" y="-4" class="inputPortLabel">8</text>
    </g>
    <g transform="translate(0,190)" s:x="0" s:y="10" s:pid="in0">
      <text x="-3" y="-4" class="inputPortLabel">9</text>
    </g>
    <g transform="translate(0,210)" s:x="0" s:y="10" s:pid="in0">
      <text x="-3" y="-4" class="inputPortLabel">10</text>
    </g>
    <g transform="translate(0,230)" s:x="0" s:y="10" s:pid="in0">
      <text x="-3" y="-4" class="inputPortLabel">11</text>
    </g>
    <g transform="translate(0,250)" s:x="0" s:y="10" s:pid="in0">
      <text x="-3" y="-4" class="inputPortLabel">12</text>
    </g>
    <g transform="translate(0,270)" s:x="0" s:y="10" s:pid="in0">
      <text x="-3" y="-4" class="inputPortLabel">13</text>
    </g>
    <g transform="translate(0,290)" s:x="0" s:y="10" s:pid="in0">
      <text x="-3" y="-4" class="inputPortLabel">14</text>
    </g>
    <g transform="translate(0,310)" s:x="0" s:y="10" s:pid="in0">
      <text x="-3" y="-4" class="inputPortLabel">15</text>
    </g>
  </g>
  <g s:type="split" transform="translate(95,638)" s:width="5" s:height="40" id="cell_$split$,2,3,4,5,6,7,8,9,10,11,12,13,14,15,16,17,">
    <rect width="5" height="20" class="splitjoinBody" s:generic="body"/>
    <s:alias val="$_split_"/>
    <g s:x="0" s:y="20" s:pid="in"/>
    <g transform="translate(4,10)" s:x="4" s:y="10" s:pid="out0">
      <text x="5" y="-4">0:7</text>
    </g>
  </g>
  <line x1="100" x2="139" y1="648.5" y2="648.5" class="net_2,3,4,5,6,7,8,9"/>
  <line x1="139" x2="139" y1="648.5" y2="120.5" class="net_2,3,4,5,6,7,8,9"/>
  <circle cx="139" cy="648.5" r="2" style="fill:#000" class="net_2,3,4,5,6,7,8,9"/>
  <circle cx="139" cy="120.5" r="2" style="fill:#000" class="net_2,3,4,5,6,7,8,9"/>
  <line x1="139" x2="209" y1="120.5" y2="120.5" class="net_2,3,4,5,6,7,8,9"/>
  <line x1="100" x2="139" y1="648.5" y2="648.5" class="net_2,3,4,5,6,7,8,9"/>
  <line x1="139" x2="139" y1="648.5" y2="922" class="net_2,3,4,5,6,7,8,9"/>
  <circle cx="139" cy="922" r="2" style="fill:#000" class="net_2,3,4,5,6,7,8,9"/>
  <line x1="139" x2="203" y1="922" y2="922" class="net_2,3,4,5,6,7,8,9"/>
  <line x1="100" x2="139" y1="648.5" y2="648.5" class="net_2,3,4,5,6,7,8,9"/>
  <line x1="139" x2="139" y1="648.5" y2="1010" class="net_2,3,4,5,6,7,8,9"/>
  <circle cx="139" cy="1010" r="2" style="fill:#000" class="net_2,3,4,5,6,7,8,9"/>
  <line x1="139" x2="203" y1="1010" y2="1010" class="net_2,3,4,5,6,7,8,9"/>
  <line x1="100" x2="139" y1="648.5" y2="648.5" class="net_2,3,4,5,6,7,8,9"/>
  <line x1="139" x2="139" y1="648.5" y2="1098" class="net_2,3,4,5,6,7,8,9"/>
  <circle cx="139" cy="1098" r="2" style="fill:#000" class="net_2,3,4,5,6,7,8,9"/>
  <line x1="139" x2="203" y1="1098" y2="1098" class="net_2,3,4,5,6,7,8,9"/>
  <line x1="100" x2="139" y1="648.5" y2="648.5" class="net_2,3,4,5,6,7,8,9"/>
  <line x1="139" x2="139" y1="648.5" y2="1186" class="net_2,3,4,5,6,7,8,9"/>
  <circle cx="139" cy="1186" r="2" style="fill:#000" class="net_2,3,4,5,6,7,8,9"/>
  <line x1="139" x2="203" y1="1186" y2="1186" class="net_2,3,4,5,6,7,8,9"/>
  <line x1="100" x2="139" y1="648.5" y2="648.5" class="net_2,3,4,5,6,7,8,9"/>
  <line x1="139" x2="139" y1="648.5" y2="1362" class="net_2,3,4,5,6,7,8,9"/>
  <line x1="139" x2="203" y1="1362" y2="1362" class="net_2,3,4,5,6,7,8,9"/>
  <line x1="100" x2="139" y1="648.5" y2="648.5" class="net_2,3,4,5,6,7,8,9"/>
  <line x1="139" x2="139" y1="648.5" y2="1274" class="net_2,3,4,5,6,7,8,9"/>
  <circle cx="139" cy="1274" r="2" style="fill:#000" class="net_2,3,4,5,6,7,8,9"/>
  <line x1="139" x2="203" y1="1274" y2="1274" class="net_2,3,4,5,6,7,8,9"/>
  <line x1="100" x2="139" y1="648.5" y2="648.5" class="net_2,3,4,5,6,7,8,9"/>
  <line x1="139" x2="139" y1="648.5" y2="32.5" class="net_2,3,4,5,6,7,8,9"/>
  <line x1="139" x2="209" y1="32.5" y2="32.5" class="net_2,3,4,5,6,7,8,9"/>
  <line x1="100" x2="139" y1="648.5" y2="648.5" class="net_2,3,4,5,6,7,8,9"/>
  <line x1="139" x2="139" y1="648.5" y2="208.5" class="net_2,3,4,5,6,7,8,9"/>
  <circle cx="139" cy="208.5" r="2" style="fill:#000" class="net_2,3,4,5,6,7,8,9"/>
  <line x1="139" x2="209" y1="208.5" y2="208.5" class="net_2,3,4,5,6,7,8,9"/>
  <line x1="100" x2="139" y1="648.5" y2="648.5" class="net_2,3,4,5,6,7,8,9"/>
  <line x1="139" x2="139" y1="648.5" y2="296.5" class="net_2,3,4,5,6,7,8,9"/>
  <circle cx="139" cy="296.5" r="2" style="fill:#000" class="net_2,3,4,5,6,7,8,9"/>
  <line x1="139" x2="209" y1="296.5" y2="296.5" class="net_2,3,4,5,6,7,8,9"/>
  <line x1="100" x2="139" y1="648.5" y2="648.5" class="net_2,3,4,5,6,7,8,9"/>
  <line x1="139" x2="139" y1="648.5" y2="384.5" class="net_2,3,4,5,6,7,8,9"/>
  <circle cx="139" cy="384.5" r="2" style="fill:#000" class="net_2,3,4,5,6,7,8,9"/>
  <line x1="139" x2="209" y1="384.5" y2="384.5" class="net_2,3,4,5,6,7,8,9"/>
  <line x1="100" x2="139" y1="648.5" y2="648.5" class="net_2,3,4,5,6,7,8,9"/>
  <line x1="139" x2="139" y1="648.5" y2="472.5" class="net_2,3,4,5,6,7,8,9"/>
  <circle cx="139" cy="472.5" r="2" style="fill:#000" class="net_2,3,4,5,6,7,8,9"/>
  <line x1="139" x2="209" y1="472.5" y2="472.5" class="net_2,3,4,5,6,7,8,9"/>
  <line x1="100" x2="139" y1="648.5" y2="648.5" class="net_2,3,4,5,6,7,8,9"/>
  <line x1="139" x2="139" y1="648.5" y2="560.5" class="net_2,3,4,5,6,7,8,9"/>
  <circle cx="139" cy="560.5" r="2" style="fill:#000" class="net_2,3,4,5,6,7,8,9"/>
  <line x1="139" x2="209" y1="560.5" y2="560.5" class="net_2,3,4,5,6,7,8,9"/>
  <line x1="100" x2="209" y1="648.5" y2="648.5" class="net_2,3,4,5,6,7,8,9"/>
  <line x1="100" x2="139" y1="648.5" y2="648.5" class="net_2,3,4,5,6,7,8,9"/>
  <line x1="139" x2="139" y1="648.5" y2="746" class="net_2,3,4,5,6,7,8,9"/>
  <circle cx="139" cy="746" r="2" style="fill:#000" class="net_2,3,4,5,6,7,8,9"/>
  <line x1="139" x2="209" y1="746" y2="746" class="net_2,3,4,5,6,7,8,9"/>
  <line x1="100" x2="139" y1="648.5" y2="648.5" class="net_2,3,4,5,6,7,8,9"/>
  <line x1="139" x2="139" y1="648.5" y2="834" class="net_2,3,4,5,6,7,8,9"/>
  <circle cx="139" cy="834" r="2" style="fill:#000" class="net_2,3,4,5,6,7,8,9"/>
  <line x1="139" x2="209" y1="834" y2="834" class="net_2,3,4,5,6,7,8,9"/>
  <line x1="119" x2="209" y1="140.5" y2="140.5" class="net_34,35,36,37,38,39,40,41"/>
  <line x1="119" x2="203" y1="942" y2="942" class="net_42,43,44,45,46,47,48,49"/>
  <line x1="119" x2="203" y1="1030" y2="1030" class="net_50,51,52,53,54,55,56,57"/>
  <line x1="119" x2="203" y1="1118" y2="1118" class="net_58,59,60,61,62,63,64,65"/>
  <line x1="119" x2="203" y1="1206" y2="1206" class="net_66,67,68,69,70,71,72,73"/>
  <line x1="119" x2="203" y1="1382" y2="1382" class="net_74,75,76,77,78,79,80,81"/>
  <line x1="119" x2="203" y1="1294" y2="1294" class="net_82,83,84,85,86,87,88,89"/>
  <line x1="119" x2="209" y1="52.5" y2="52.5" class="net_90,91,92,93,94,95,96,97"/>
  <line x1="119" x2="209" y1="228.5" y2="228.5" class="net_98,99,100,101,102,103,104,105"/>
  <line x1="119" x2="209" y1="316.5" y2="316.5" class="net_106,107,108,109,110,111,112,113"/>
  <line x1="119" x2="209" y1="404.5" y2="404.5" class="net_114,115,116,117,118,119,120,121"/>
  <line x1="119" x2="209" y1="492.5" y2="492.5" class="net_122,123,124,125,126,127,128,129"/>
  <line x1="119" x2="209" y1="580.5" y2="580.5" class="net_130,131,132,133,134,135,136,137"/>
  <line x1="119" x2="129" y1="701" y2="701" class="net_138,139,140,141,142,143,144,145"/>
  <line x1="129" x2="129" y1="701" y2="668.5" class="net_138,139,140,141,142,143,144,145"/>
  <line x1="129" x2="209" y1="668.5" y2="668.5" class="net_138,139,140,141,142,143,144,145"/>
  <line x1="119" x2="209" y1="766" y2="766" class="net_146,147,148,149,150,151,152,153"/>
  <line x1="119" x2="209" y1="854" y2="854" class="net_154,155,156,157,158,159,160,161"/>
  <line x1="442" x2="477" y1="518.5" y2="518.5" class="net_18,19,20,21,22,23,24,25,26,27,28,29,30,31,32,33"/>
  <line x1="240" x2="436.5" y1="120.5" y2="120.5" class="net_18"/>
  <line x1="436.5" x2="436.5" y1="120.5" y2="508" class="net_18"/>
  <line x1="240" x2="436.5" y1="32.5" y2="32.5" class="net_19"/>
  <line x1="436.5" x2="436.5" y1="32.5" y2="528" class="net_19"/>
  <line x1="240" x2="409" y1="208.5" y2="208.5" class="net_20"/>
  <line x1="409" x2="409" y1="208.5" y2="548.5" class="net_20"/>
  <line x1="409" x2="436" y1="548.5" y2="548.5" class="net_20"/>
  <line x1="240" x2="399" y1="296.5" y2="296.5" class="net_21"/>
  <line x1="399" x2="399" y1="296.5" y2="568.5" class="net_21"/>
  <line x1="399" x2="436" y1="568.5" y2="568.5" class="net_21"/>
  <line x1="240" x2="389" y1="384.5" y2="384.5" class="net_22"/>
  <line x1="389" x2="389" y1="384.5" y2="588.5" class="net_22"/>
  <line x1="389" x2="436" y1="588.5" y2="588.5" class="net_22"/>
  <line x1="240" x2="379" y1="472.5" y2="472.5" class="net_23"/>
  <line x1="379" x2="379" y1="472.5" y2="608.5" class="net_23"/>
  <line x1="379" x2="436" y1="608.5" y2="608.5" class="net_23"/>
  <line x1="240" x2="369" y1="560.5" y2="560.5" class="net_24"/>
  <line x1="369" x2="369" y1="560.5" y2="628.5" class="net_24"/>
  <line x1="369" x2="436" y1="628.5" y2="628.5" class="net_24"/>
  <line x1="240" x2="436" y1="648.5" y2="648.5" class="net_25"/>
  <line x1="240" x2="369" y1="746" y2="746" class="net_26"/>
  <line x1="369" x2="369" y1="746" y2="668.5" class="net_26"/>
  <line x1="369" x2="436" y1="668.5" y2="668.5" class="net_26"/>
  <line x1="240" x2="379" y1="834" y2="834" class="net_27"/>
  <line x1="379" x2="379" y1="834" y2="688.5" class="net_27"/>
  <line x1="379" x2="436" y1="688.5" y2="688.5" class="net_27"/>
  <line x1="234" x2="389" y1="922" y2="922" class="net_28"/>
  <line x1="389" x2="389" y1="922" y2="708.5" class="net_28"/>
  <line x1="389" x2="436" y1="708.5" y2="708.5" class="net_28"/>
  <line x1="234" x2="399" y1="1010" y2="1010" class="net_29"/>
  <line x1="399" x2="399" y1="1010" y2="728.5" class="net_29"/>
  <line x1="399" x2="436" y1="728.5" y2="728.5" class="net_29"/>
  <line x1="234" x2="409" y1="1098" y2="1098" class="net_30"/>
  <line x1="409" x2="409" y1="1098" y2="748.5" class="net_30"/>
  <line x1="409" x2="436" y1="748.5" y2="748.5" class="net_30"/>
  <line x1="234" x2="419" y1="1186" y2="1186" class="net_31"/>
  <line x1="419" x2="419" y1="1186" y2="768.5" class="net_31"/>
  <line x1="419" x2="436" y1="768.5" y2="768.5" class="net_31"/>
  <line x1="234" x2="436.5" y1="1362" y2="1362" class="net_32"/>
  <line x1="436.5" x2="436.5" y1="1362" y2="789" class="net_32"/>
  <line x1="234" x2="436.5" y1="1274" y2="1274" class="net_33"/>
  <line x1="436.5" x2="436.5" y1="1274" y2="809" class="net_33"/>
  <line x1="40" x2="95.5" y1="671" y2="671" class="net_2,3,4,5,6,7,8,9,10,11,12,13,14,15,16,17"/>
  <line x1="95.5" x2="95.5" y1="671" y2="659" class="net_2,3,4,5,6,7,8,9,10,11,12,13,14,15,16,17"/>
</svg>
