<svg xmlns="http://www.w3.org/2000/svg" xmlns:xlink="http://www.w3.org/1999/xlink" xmlns:s="https://github.com/nturley/netlistsvg" width="613" height="444">
  <style>svg {
    stroke:#000;
    fill:none;
  }
  text {
    fill:#000;
    stroke:none;
    font-size:10px;
    font-weight: bold;
    font-family: "Courier New", monospace;
  }
  .nodelabel {
    text-anchor: middle;
  }
  .inputPortLabel {
    text-anchor: end;
  }
  .splitjoinBody {
    fill:#000;
  }</style>
  <g s:type="generic" transform="translate(132,352)" s:width="30" s:height="40" id="cell_u_decoder">
    <text x="15" y="-4" class="nodelabel cell_u_decoder" s:attribute="ref">control_unit_decoder_onehot</text>
    <rect width="30" height="20" s:generic="body" class="cell_u_decoder"/>
    <g transform="translate(0,10)" s:x="0" s:y="10" s:pid="in0" id="port_u_decoder~i_instr">
      <text x="-3" y="-4" class="inputPortLabel cell_u_decoder">i_instr</text>
    </g>
    <g transform="translate(30,10)" s:x="30" s:y="10" s:pid="out0" id="port_u_decoder~o_inst_onehot">
      <text x="5" y="-4" style="fill:#000; stroke:none" class="cell_u_decoder">o_inst_onehot</text>
    </g>
  </g>
  <g s:type="generic" transform="translate(361,156.5)" s:width="30" s:height="40" id="cell_u_signal_logic">
    <text x="15" y="-4" class="nodelabel cell_u_signal_logic" s:attribute="ref">control_unit_signal_logic</text>
    <rect width="30" height="140" s:generic="body" class="cell_u_signal_logic"/>
    <g transform="translate(0,10)" s:x="0" s:y="10" s:pid="in0" id="port_u_signal_logic~i_flag_n">
      <text x="-3" y="-4" class="inputPortLabel cell_u_signal_logic">i_flag_n</text>
    </g>
    <g transform="translate(0,30)" s:x="0" s:y="10" s:pid="in0" id="port_u_signal_logic~i_flag_v">
      <text x="-3" y="-4" class="inputPortLabel cell_u_signal_logic">i_flag_v</text>
    </g>
    <g transform="translate(0,50)" s:x="0" s:y="10" s:pid="in0" id="port_u_signal_logic~i_flag_z">
      <text x="-3" y="-4" class="inputPortLabel cell_u_signal_logic">i_flag_z</text>
    </g>
    <g transform="translate(0,70)" s:x="0" s:y="10" s:pid="in0" id="port_u_signal_logic~i_inst_onehot">
      <text x="-3" y="-4" class="inputPortLabel cell_u_signal_logic">i_inst_onehot</text>
    </g>
    <g transform="translate(30,10)" s:x="30" s:y="10" s:pid="out0" id="port_u_signal_logic~o_alu_op">
      <text x="5" y="-4" style="fill:#000; stroke:none" class="cell_u_signal_logic">o_alu_op</text>
    </g>
    <g transform="translate(30,30)" s:x="30" s:y="10" s:pid="out0" id="port_u_signal_logic~o_alu_src_sel">
      <text x="5" y="-4" style="fill:#000; stroke:none" class="cell_u_signal_logic">o_alu_src_sel</text>
    </g>
    <g transform="translate(30,50)" s:x="30" s:y="10" s:pid="out0" id="port_u_signal_logic~o_imm_type">
      <text x="5" y="-4" style="fill:#000; stroke:none" class="cell_u_signal_logic">o_imm_type</text>
    </g>
    <g transform="translate(30,70)" s:x="30" s:y="10" s:pid="out0" id="port_u_signal_logic~o_mem_write_en">
      <text x="5" y="-4" style="fill:#000; stroke:none" class="cell_u_signal_logic">o_mem_write_en</text>
    </g>
    <g transform="translate(30,90)" s:x="30" s:y="10" s:pid="out0" id="port_u_signal_logic~o_pc_sel">
      <text x="5" y="-4" style="fill:#000; stroke:none" class="cell_u_signal_logic">o_pc_sel</text>
    </g>
    <g transform="translate(30,110)" s:x="30" s:y="10" s:pid="out0" id="port_u_signal_logic~o_reg_write_en">
      <text x="5" y="-4" style="fill:#000; stroke:none" class="cell_u_signal_logic">o_reg_write_en</text>
    </g>
    <g transform="translate(30,130)" s:x="30" s:y="10" s:pid="out0" id="port_u_signal_logic~o_wb_src_sel">
      <text x="5" y="-4" style="fill:#000; stroke:none" class="cell_u_signal_logic">o_wb_src_sel</text>
    </g>
  </g>
  <g s:type="inputExt" transform="translate(12,352.5)" s:width="30" s:height="20" id="cell_i_instr">
    <text x="15" y="-4" class="nodelabel cell_i_instr" s:attribute="ref">i_instr</text>
    <s:alias val="$_inputExt_"/>
    <path d="M0,0 L0,20 L15,20 L30,10 L15,0 Z" class="cell_i_instr"/>
    <g s:x="28" s:y="10" s:pid="Y"/>
  </g>
  <g s:type="inputExt" transform="translate(132,287)" s:width="30" s:height="20" id="cell_i_flag_z">
    <text x="15" y="-4" class="nodelabel cell_i_flag_z" s:attribute="ref">i_flag_z</text>
    <s:alias val="$_inputExt_"/>
    <path d="M0,0 L0,20 L15,20 L30,10 L15,0 Z" class="cell_i_flag_z"/>
    <g s:x="28" s:y="10" s:pid="Y"/>
  </g>
  <g s:type="inputExt" transform="translate(132,157)" s:width="30" s:height="20" id="cell_i_flag_n">
    <text x="15" y="-4" class="nodelabel cell_i_flag_n" s:attribute="ref">i_flag_n</text>
    <s:alias val="$_inputExt_"/>
    <path d="M0,0 L0,20 L15,20 L30,10 L15,0 Z" class="cell_i_flag_n"/>
    <g s:x="28" s:y="10" s:pid="Y"/>
  </g>
  <g s:type="inputExt" transform="translate(132,222)" s:width="30" s:height="20" id="cell_i_flag_v">
    <text x="15" y="-4" class="nodelabel cell_i_flag_v" s:attribute="ref">i_flag_v</text>
    <s:alias val="$_inputExt_"/>
    <path d="M0,0 L0,20 L15,20 L30,10 L15,0 Z" class="cell_i_flag_v"/>
    <g s:x="28" s:y="10" s:pid="Y"/>
  </g>
  <g s:type="outputExt" transform="translate(517,347)" s:width="30" s:height="20" id="cell_o_reg_write_en">
    <text x="15" y="-4" class="nodelabel cell_o_reg_write_en" s:attribute="ref">o_reg_write_en</text>
    <s:alias val="$_outputExt_"/>
    <path d="M30,0 L30,20 L15,20 L0,10 L15,0 Z" class="cell_o_reg_write_en"/>
    <g s:x="0" s:y="10" s:pid="A"/>
  </g>
  <g s:type="outputExt" transform="translate(517,22)" s:width="30" s:height="20" id="cell_o_alu_op">
    <text x="15" y="-4" class="nodelabel cell_o_alu_op" s:attribute="ref">o_alu_op</text>
    <s:alias val="$_outputExt_"/>
    <path d="M30,0 L30,20 L15,20 L0,10 L15,0 Z" class="cell_o_alu_op"/>
    <g s:x="0" s:y="10" s:pid="A"/>
  </g>
  <g s:type="outputExt" transform="translate(517,87)" s:width="30" s:height="20" id="cell_o_alu_src_sel">
    <text x="15" y="-4" class="nodelabel cell_o_alu_src_sel" s:attribute="ref">o_alu_src_sel</text>
    <s:alias val="$_outputExt_"/>
    <path d="M30,0 L30,20 L15,20 L0,10 L15,0 Z" class="cell_o_alu_src_sel"/>
    <g s:x="0" s:y="10" s:pid="A"/>
  </g>
  <g s:type="outputExt" transform="translate(517,217)" s:width="30" s:height="20" id="cell_o_mem_write_en">
    <text x="15" y="-4" class="nodelabel cell_o_mem_write_en" s:attribute="ref">o_mem_write_en</text>
    <s:alias val="$_outputExt_"/>
    <path d="M30,0 L30,20 L15,20 L0,10 L15,0 Z" class="cell_o_mem_write_en"/>
    <g s:x="0" s:y="10" s:pid="A"/>
  </g>
  <g s:type="outputExt" transform="translate(517,412)" s:width="30" s:height="20" id="cell_o_wb_src_sel">
    <text x="15" y="-4" class="nodelabel cell_o_wb_src_sel" s:attribute="ref">o_wb_src_sel</text>
    <s:alias val="$_outputExt_"/>
    <path d="M30,0 L30,20 L15,20 L0,10 L15,0 Z" class="cell_o_wb_src_sel"/>
    <g s:x="0" s:y="10" s:pid="A"/>
  </g>
  <g s:type="outputExt" transform="translate(517,282)" s:width="30" s:height="20" id="cell_o_pc_sel">
    <text x="15" y="-4" class="nodelabel cell_o_pc_sel" s:attribute="ref">o_pc_sel</text>
    <s:alias val="$_outputExt_"/>
    <path d="M30,0 L30,20 L15,20 L0,10 L15,0 Z" class="cell_o_pc_sel"/>
    <g s:x="0" s:y="10" s:pid="A"/>
  </g>
  <g s:type="outputExt" transform="translate(517,152)" s:width="30" s:height="20" id="cell_o_imm_type">
    <text x="15" y="-4" class="nodelabel cell_o_imm_type" s:attribute="ref">o_imm_type</text>
    <s:alias val="$_outputExt_"/>
    <path d="M30,0 L30,20 L15,20 L0,10 L15,0 Z" class="cell_o_imm_type"/>
    <g s:x="0" s:y="10" s:pid="A"/>
  </g>
  <line x1="40" x2="132" y1="362.5" y2="362.5" class="net_2,3,4,5,6,7,8,9,10,11,12,13,14,15,16,17"/>
  <line x1="160" x2="361" y1="167" y2="167" class="net_19"/>
  <line x1="160" x2="252" y1="232" y2="232" class="net_20"/>
  <line x1="252" x2="252" y1="232" y2="187" class="net_20"/>
  <line x1="252" x2="361" y1="187" y2="187" class="net_20"/>
  <line x1="160" x2="262" y1="297" y2="297" class="net_18"/>
  <line x1="262" x2="262" y1="297" y2="207" class="net_18"/>
  <line x1="262" x2="361" y1="207" y2="207" class="net_18"/>
  <line x1="163" x2="272" y1="362.5" y2="362.5" class="net_36,37,38,39,40,41,42,43,44,45,46,47,48,49,50,51"/>
  <line x1="272" x2="272" y1="362.5" y2="227" class="net_36,37,38,39,40,41,42,43,44,45,46,47,48,49,50,51"/>
  <line x1="272" x2="361" y1="227" y2="227" class="net_36,37,38,39,40,41,42,43,44,45,46,47,48,49,50,51"/>
  <line x1="392" x2="497" y1="267" y2="267" class="net_21"/>
  <line x1="497" x2="497" y1="267" y2="357" class="net_21"/>
  <line x1="497" x2="517" y1="357" y2="357" class="net_21"/>
  <line x1="392" x2="487" y1="167" y2="167" class="net_22,23,24,25"/>
  <line x1="487" x2="487" y1="167" y2="32" class="net_22,23,24,25"/>
  <line x1="487" x2="517" y1="32" y2="32" class="net_22,23,24,25"/>
  <line x1="392" x2="497" y1="187" y2="187" class="net_26"/>
  <line x1="497" x2="497" y1="187" y2="97" class="net_26"/>
  <line x1="497" x2="517" y1="97" y2="97" class="net_26"/>
  <line x1="392" x2="517" y1="227" y2="227" class="net_27"/>
  <line x1="392" x2="487" y1="287" y2="287" class="net_28,29,30"/>
  <line x1="487" x2="487" y1="287" y2="422" class="net_28,29,30"/>
  <line x1="487" x2="517" y1="422" y2="422" class="net_28,29,30"/>
  <line x1="392" x2="507" y1="247" y2="247" class="net_31,32"/>
  <line x1="507" x2="507" y1="247" y2="292" class="net_31,32"/>
  <line x1="507" x2="517" y1="292" y2="292" class="net_31,32"/>
  <line x1="392" x2="507" y1="207" y2="207" class="net_33,34,35"/>
  <line x1="507" x2="507" y1="207" y2="162" class="net_33,34,35"/>
  <line x1="507" x2="517" y1="162" y2="162" class="net_33,34,35"/>
</svg>
