<svg xmlns="http://www.w3.org/2000/svg" xmlns:xlink="http://www.w3.org/1999/xlink" xmlns:s="https://github.com/nturley/netlistsvg" width="484" height="289">
  <style>svg {
    stroke:#000;
    fill:none;
  }
  text {
    fill:#000;
    stroke:none;
    font-size:10px;
    font-weight: bold;
    font-family: "Courier New", monospace;
  }
  .nodelabel {
    text-anchor: middle;
  }
  .inputPortLabel {
    text-anchor: end;
  }
  .splitjoinBody {
    fill:#000;
  }</style>
  <g s:type="reduce_xor" transform="translate(167,12)" s:width="33" s:height="25" id="cell_$auto$simplemap.cc:106:simplemap_bitop$123">
    <s:alias val="$xor"/>
    <s:alias val="$reduce_xor"/>
    <s:alias val="$_XOR_"/>
    <path d="M3,0 A30 25 0 0 1 3,25 A30 25 0 0 0 33,12.5 A30 25 0 0 0 3,0" class="cell_$auto$simplemap.cc:106:simplemap_bitop$123"/>
    <path d="M0,0 A30 25 0 0 1 0,25" class="cell_$auto$simplemap.cc:106:simplemap_bitop$123"/>
    <g s:x="3" s:y="5" s:pid="A"/>
    <g s:x="3" s:y="20" s:pid="B"/>
    <g s:x="33" s:y="12.5" s:pid="Y"/>
  </g>
  <g s:type="reduce_xor" transform="translate(167,72)" s:width="33" s:height="25" id="cell_$auto$simplemap.cc:106:simplemap_bitop$124">
    <s:alias val="$xor"/>
    <s:alias val="$reduce_xor"/>
    <s:alias val="$_XOR_"/>
    <path d="M3,0 A30 25 0 0 1 3,25 A30 25 0 0 0 33,12.5 A30 25 0 0 0 3,0" class="cell_$auto$simplemap.cc:106:simplemap_bitop$124"/>
    <path d="M0,0 A30 25 0 0 1 0,25" class="cell_$auto$simplemap.cc:106:simplemap_bitop$124"/>
    <g s:x="3" s:y="5" s:pid="A"/>
    <g s:x="3" s:y="20" s:pid="B"/>
    <g s:x="33" s:y="12.5" s:pid="Y"/>
  </g>
  <g s:type="reduce_xor" transform="translate(167,192)" s:width="33" s:height="25" id="cell_$auto$simplemap.cc:106:simplemap_bitop$125">
    <s:alias val="$xor"/>
    <s:alias val="$reduce_xor"/>
    <s:alias val="$_XOR_"/>
    <path d="M3,0 A30 25 0 0 1 3,25 A30 25 0 0 0 33,12.5 A30 25 0 0 0 3,0" class="cell_$auto$simplemap.cc:106:simplemap_bitop$125"/>
    <path d="M0,0 A30 25 0 0 1 0,25" class="cell_$auto$simplemap.cc:106:simplemap_bitop$125"/>
    <g s:x="3" s:y="5" s:pid="A"/>
    <g s:x="3" s:y="20" s:pid="B"/>
    <g s:x="33" s:y="12.5" s:pid="Y"/>
  </g>
  <g s:type="reduce_xor" transform="translate(167,252)" s:width="33" s:height="25" id="cell_$auto$simplemap.cc:106:simplemap_bitop$126">
    <s:alias val="$xor"/>
    <s:alias val="$reduce_xor"/>
    <s:alias val="$_XOR_"/>
    <path d="M3,0 A30 25 0 0 1 3,25 A30 25 0 0 0 33,12.5 A30 25 0 0 0 3,0" class="cell_$auto$simplemap.cc:106:simplemap_bitop$126"/>
    <path d="M0,0 A30 25 0 0 1 0,25" class="cell_$auto$simplemap.cc:106:simplemap_bitop$126"/>
    <g s:x="3" s:y="5" s:pid="A"/>
    <g s:x="3" s:y="20" s:pid="B"/>
    <g s:x="33" s:y="12.5" s:pid="Y"/>
  </g>
  <g s:type="or" transform="translate(235,19.5)" s:width="30" s:height="25" id="cell_$auto$simplemap.cc:157:simplemap_reduce$130">
    <s:alias val="$or"/>
    <s:alias val="$logic_or"/>
    <s:alias val="$_OR_"/>
    <path d="M0,25 L0,25 L15,25 A15 12.5 0 0 0 15,0 L0,0" class="cell_$auto$simplemap.cc:157:simplemap_reduce$130"/>
    <path d="M0,0 A30 25 0 0 1 0,25" class="cell_$auto$simplemap.cc:157:simplemap_reduce$130"/>
    <g s:x="3" s:y="5" s:pid="A"/>
    <g s:x="3" s:y="20" s:pid="B"/>
    <g s:x="30" s:y="12.5" s:pid="Y"/>
  </g>
  <g s:type="or" transform="translate(235,199.5)" s:width="30" s:height="25" id="cell_$auto$simplemap.cc:157:simplemap_reduce$131">
    <s:alias val="$or"/>
    <s:alias val="$logic_or"/>
    <s:alias val="$_OR_"/>
    <path d="M0,25 L0,25 L15,25 A15 12.5 0 0 0 15,0 L0,0" class="cell_$auto$simplemap.cc:157:simplemap_reduce$131"/>
    <path d="M0,0 A30 25 0 0 1 0,25" class="cell_$auto$simplemap.cc:157:simplemap_reduce$131"/>
    <g s:x="3" s:y="5" s:pid="A"/>
    <g s:x="3" s:y="20" s:pid="B"/>
    <g s:x="30" s:y="12.5" s:pid="Y"/>
  </g>
  <g s:type="or" transform="translate(300,27)" s:width="30" s:height="25" id="cell_$auto$simplemap.cc:157:simplemap_reduce$133">
    <s:alias val="$or"/>
    <s:alias val="$logic_or"/>
    <s:alias val="$_OR_"/>
    <path d="M0,25 L0,25 L15,25 A15 12.5 0 0 0 15,0 L0,0" class="cell_$auto$simplemap.cc:157:simplemap_reduce$133"/>
    <path d="M0,0 A30 25 0 0 1 0,25" class="cell_$auto$simplemap.cc:157:simplemap_reduce$133"/>
    <g s:x="3" s:y="5" s:pid="A"/>
    <g s:x="3" s:y="20" s:pid="B"/>
    <g s:x="30" s:y="12.5" s:pid="Y"/>
  </g>
  <g s:type="not" transform="translate(365,29.5)" s:width="30" s:height="20" id="cell_$auto$simplemap.cc:227:simplemap_lognot$135">
    <s:alias val="$_NOT_"/>
    <s:alias val="$not"/>
    <s:alias val="$logic_not"/>
    <path d="M0,0 L0,20 L20,10 Z" class="cell_$auto$simplemap.cc:227:simplemap_lognot$135"/>
    <circle cx="23" cy="10" r="3" class="cell_$auto$simplemap.cc:227:simplemap_lognot$135"/>
    <g s:x="0" s:y="10" s:pid="A"/>
    <g s:x="25" s:y="10" s:pid="Y"/>
  </g>
  <g s:type="inputExt" transform="translate(12,57)" s:width="30" s:height="20" id="cell_i_opcode">
    <text x="15" y="-4" class="nodelabel cell_i_opcode" s:attribute="ref">i_opcode</text>
    <s:alias val="$_inputExt_"/>
    <path d="M0,0 L0,20 L15,20 L30,10 L15,0 Z" class="cell_i_opcode"/>
    <g s:x="28" s:y="10" s:pid="Y"/>
  </g>
  <g s:type="inputExt" transform="translate(12,172)" s:width="30" s:height="20" id="cell_i_target">
    <text x="15" y="-4" class="nodelabel cell_i_target" s:attribute="ref">i_target</text>
    <s:alias val="$_inputExt_"/>
    <path d="M0,0 L0,20 L15,20 L30,10 L15,0 Z" class="cell_i_target"/>
    <g s:x="28" s:y="10" s:pid="Y"/>
  </g>
  <g s:type="outputExt" transform="translate(430,29.5)" s:width="30" s:height="20" id="cell_o_match">
    <text x="15" y="-4" class="nodelabel cell_o_match" s:attribute="ref">o_match</text>
    <s:alias val="$_outputExt_"/>
    <path d="M30,0 L30,20 L15,20 L0,10 L15,0 Z" class="cell_o_match"/>
    <g s:x="0" s:y="10" s:pid="A"/>
  </g>
  <g s:type="split" transform="translate(95,46.5)" s:width="5" s:height="40" id="cell_$split$,2,3,4,5,6,7,8,9,">
    <rect width="5" height="80" class="splitjoinBody" s:generic="body"/>
    <s:alias val="$_split_"/>
    <g s:x="0" s:y="20" s:pid="in"/>
    <g transform="translate(4,10)" s:x="4" s:y="10" s:pid="out0">
      <text x="5" y="-4">0</text>
    </g>
    <g transform="translate(4,30)" s:x="4" s:y="10" s:pid="out0">
      <text x="5" y="-4">1</text>
    </g>
    <g transform="translate(4,50)" s:x="4" s:y="10" s:pid="out0">
      <text x="5" y="-4">2</text>
    </g>
    <g transform="translate(4,70)" s:x="4" s:y="10" s:pid="out0">
      <text x="5" y="-4">3</text>
    </g>
  </g>
  <g s:type="split" transform="translate(95,161.5)" s:width="5" s:height="40" id="cell_$split$,10,11,12,13,14,15,16,17,">
    <rect width="5" height="80" class="splitjoinBody" s:generic="body"/>
    <s:alias val="$_split_"/>
    <g s:x="0" s:y="20" s:pid="in"/>
    <g transform="translate(4,10)" s:x="4" s:y="10" s:pid="out0">
      <text x="5" y="-4">0</text>
    </g>
    <g transform="translate(4,30)" s:x="4" s:y="10" s:pid="out0">
      <text x="5" y="-4">1</text>
    </g>
    <g transform="translate(4,50)" s:x="4" s:y="10" s:pid="out0">
      <text x="5" y="-4">2</text>
    </g>
    <g transform="translate(4,70)" s:x="4" s:y="10" s:pid="out0">
      <text x="5" y="-4">3</text>
    </g>
  </g>
  <line x1="100" x2="117" y1="57" y2="57" class="net_2"/>
  <line x1="117" x2="117" y1="57" y2="17" class="net_2"/>
  <line x1="117" x2="170" y1="17" y2="17" class="net_2"/>
  <line x1="100" x2="127" y1="172" y2="172" class="net_10"/>
  <line x1="127" x2="127" y1="172" y2="32" class="net_10"/>
  <line x1="127" x2="170" y1="32" y2="32" class="net_10"/>
  <line x1="100" x2="170" y1="77" y2="77" class="net_3"/>
  <line x1="100" x2="147" y1="192" y2="192" class="net_11"/>
  <line x1="147" x2="147" y1="192" y2="92" class="net_11"/>
  <line x1="147" x2="170" y1="92" y2="92" class="net_11"/>
  <line x1="100" x2="157" y1="97" y2="97" class="net_4"/>
  <line x1="157" x2="157" y1="97" y2="197" class="net_4"/>
  <line x1="157" x2="170" y1="197" y2="197" class="net_4"/>
  <line x1="100" x2="170" y1="212" y2="212" class="net_12"/>
  <line x1="100" x2="137" y1="117" y2="117" class="net_5"/>
  <line x1="137" x2="137" y1="117" y2="257" class="net_5"/>
  <line x1="137" x2="170" y1="257" y2="257" class="net_5"/>
  <line x1="100" x2="117" y1="232" y2="232" class="net_13"/>
  <line x1="117" x2="117" y1="232" y2="272" class="net_13"/>
  <line x1="117" x2="170" y1="272" y2="272" class="net_13"/>
  <line x1="200" x2="238" y1="24.5" y2="24.5" class="net_19"/>
  <line x1="200" x2="210" y1="84.5" y2="84.5" class="net_20"/>
  <line x1="210" x2="210" y1="84.5" y2="39.5" class="net_20"/>
  <line x1="210" x2="238" y1="39.5" y2="39.5" class="net_20"/>
  <line x1="200" x2="238" y1="204.5" y2="204.5" class="net_21"/>
  <line x1="200" x2="210" y1="264.5" y2="264.5" class="net_22"/>
  <line x1="210" x2="210" y1="264.5" y2="219.5" class="net_22"/>
  <line x1="210" x2="238" y1="219.5" y2="219.5" class="net_22"/>
  <line x1="265" x2="303" y1="32" y2="32" class="net_23"/>
  <line x1="265" x2="275" y1="212" y2="212" class="net_24"/>
  <line x1="275" x2="275" y1="212" y2="47" class="net_24"/>
  <line x1="275" x2="303" y1="47" y2="47" class="net_24"/>
  <line x1="330" x2="365" y1="39.5" y2="39.5" class="net_25"/>
  <line x1="390" x2="430" y1="39.5" y2="39.5" class="net_18"/>
  <line x1="40" x2="95" y1="67" y2="67" class="net_2,3,4,5,6,7,8,9"/>
  <line x1="40" x2="95" y1="182" y2="182" class="net_10,11,12,13,14,15,16,17"/>
</svg>
