<svg xmlns="http://www.w3.org/2000/svg" xmlns:xlink="http://www.w3.org/1999/xlink" xmlns:s="https://github.com/nturley/netlistsvg" width="712" height="2041.5">
  <style>svg {
    stroke:#000;
    fill:none;
  }
  text {
    fill:#000;
    stroke:none;
    font-size:10px;
    font-weight: bold;
    font-family: "Courier New", monospace;
  }
  .nodelabel {
    text-anchor: middle;
  }
  .inputPortLabel {
    text-anchor: end;
  }
  .splitjoinBody {
    fill:#000;
  }</style>
  <g s:type="generic" transform="translate(324,26.5)" s:width="30" s:height="40" id="cell_gen_bit_cells[0].u_bit_cell">
    <text x="15" y="-4" class="nodelabel cell_gen_bit_cells[0].u_bit_cell" s:attribute="ref">register_file_bit_cell</text>
    <rect width="30" height="80" s:generic="body" class="cell_gen_bit_cells[0].u_bit_cell"/>
    <g transform="translate(0,10)" s:x="0" s:y="10" s:pid="in0" id="port_gen_bit_cells[0].u_bit_cell~i_clk">
      <text x="-3" y="-4" class="inputPortLabel cell_gen_bit_cells[0].u_bit_cell">i_clk</text>
    </g>
    <g transform="translate(0,30)" s:x="0" s:y="10" s:pid="in0" id="port_gen_bit_cells[0].u_bit_cell~i_d">
      <text x="-3" y="-4" class="inputPortLabel cell_gen_bit_cells[0].u_bit_cell">i_d</text>
    </g>
    <g transform="translate(0,50)" s:x="0" s:y="10" s:pid="in0" id="port_gen_bit_cells[0].u_bit_cell~i_rst_n">
      <text x="-3" y="-4" class="inputPortLabel cell_gen_bit_cells[0].u_bit_cell">i_rst_n</text>
    </g>
    <g transform="translate(0,70)" s:x="0" s:y="10" s:pid="in0" id="port_gen_bit_cells[0].u_bit_cell~i_wen">
      <text x="-3" y="-4" class="inputPortLabel cell_gen_bit_cells[0].u_bit_cell">i_wen</text>
    </g>
    <g transform="translate(30,10)" s:x="30" s:y="10" s:pid="out0" id="port_gen_bit_cells[0].u_bit_cell~o_q">
      <text x="5" y="-4" style="fill:#000; stroke:none" class="cell_gen_bit_cells[0].u_bit_cell">o_q</text>
    </g>
  </g>
  <g s:type="generic" transform="translate(318,154.5)" s:width="30" s:height="40" id="cell_gen_bit_cells[10].u_bit_cell">
    <text x="15" y="-4" class="nodelabel cell_gen_bit_cells[10].u_bit_cell" s:attribute="ref">register_file_bit_cell</text>
    <rect width="30" height="80" s:generic="body" class="cell_gen_bit_cells[10].u_bit_cell"/>
    <g transform="translate(0,10)" s:x="0" s:y="10" s:pid="in0" id="port_gen_bit_cells[10].u_bit_cell~i_clk">
      <text x="-3" y="-4" class="inputPortLabel cell_gen_bit_cells[10].u_bit_cell">i_clk</text>
    </g>
    <g transform="translate(0,30)" s:x="0" s:y="10" s:pid="in0" id="port_gen_bit_cells[10].u_bit_cell~i_d">
      <text x="-3" y="-4" class="inputPortLabel cell_gen_bit_cells[10].u_bit_cell">i_d</text>
    </g>
    <g transform="translate(0,50)" s:x="0" s:y="10" s:pid="in0" id="port_gen_bit_cells[10].u_bit_cell~i_rst_n">
      <text x="-3" y="-4" class="inputPortLabel cell_gen_bit_cells[10].u_bit_cell">i_rst_n</text>
    </g>
    <g transform="translate(0,70)" s:x="0" s:y="10" s:pid="in0" id="port_gen_bit_cells[10].u_bit_cell~i_wen">
      <text x="-3" y="-4" class="inputPortLabel cell_gen_bit_cells[10].u_bit_cell">i_wen</text>
    </g>
    <g transform="translate(30,10)" s:x="30" s:y="10" s:pid="out0" id="port_gen_bit_cells[10].u_bit_cell~o_q">
      <text x="5" y="-4" style="fill:#000; stroke:none" class="cell_gen_bit_cells[10].u_bit_cell">o_q</text>
    </g>
  </g>
  <g s:type="generic" transform="translate(318,282.5)" s:width="30" s:height="40" id="cell_gen_bit_cells[11].u_bit_cell">
    <text x="15" y="-4" class="nodelabel cell_gen_bit_cells[11].u_bit_cell" s:attribute="ref">register_file_bit_cell</text>
    <rect width="30" height="80" s:generic="body" class="cell_gen_bit_cells[11].u_bit_cell"/>
    <g transform="translate(0,10)" s:x="0" s:y="10" s:pid="in0" id="port_gen_bit_cells[11].u_bit_cell~i_clk">
      <text x="-3" y="-4" class="inputPortLabel cell_gen_bit_cells[11].u_bit_cell">i_clk</text>
    </g>
    <g transform="translate(0,30)" s:x="0" s:y="10" s:pid="in0" id="port_gen_bit_cells[11].u_bit_cell~i_d">
      <text x="-3" y="-4" class="inputPortLabel cell_gen_bit_cells[11].u_bit_cell">i_d</text>
    </g>
    <g transform="translate(0,50)" s:x="0" s:y="10" s:pid="in0" id="port_gen_bit_cells[11].u_bit_cell~i_rst_n">
      <text x="-3" y="-4" class="inputPortLabel cell_gen_bit_cells[11].u_bit_cell">i_rst_n</text>
    </g>
    <g transform="translate(0,70)" s:x="0" s:y="10" s:pid="in0" id="port_gen_bit_cells[11].u_bit_cell~i_wen">
      <text x="-3" y="-4" class="inputPortLabel cell_gen_bit_cells[11].u_bit_cell">i_wen</text>
    </g>
    <g transform="translate(30,10)" s:x="30" s:y="10" s:pid="out0" id="port_gen_bit_cells[11].u_bit_cell~o_q">
      <text x="5" y="-4" style="fill:#000; stroke:none" class="cell_gen_bit_cells[11].u_bit_cell">o_q</text>
    </g>
  </g>
  <g s:type="generic" transform="translate(318,410.5)" s:width="30" s:height="40" id="cell_gen_bit_cells[12].u_bit_cell">
    <text x="15" y="-4" class="nodelabel cell_gen_bit_cells[12].u_bit_cell" s:attribute="ref">register_file_bit_cell</text>
    <rect width="30" height="80" s:generic="body" class="cell_gen_bit_cells[12].u_bit_cell"/>
    <g transform="translate(0,10)" s:x="0" s:y="10" s:pid="in0" id="port_gen_bit_cells[12].u_bit_cell~i_clk">
      <text x="-3" y="-4" class="inputPortLabel cell_gen_bit_cells[12].u_bit_cell">i_clk</text>
    </g>
    <g transform="translate(0,30)" s:x="0" s:y="10" s:pid="in0" id="port_gen_bit_cells[12].u_bit_cell~i_d">
      <text x="-3" y="-4" class="inputPortLabel cell_gen_bit_cells[12].u_bit_cell">i_d</text>
    </g>
    <g transform="translate(0,50)" s:x="0" s:y="10" s:pid="in0" id="port_gen_bit_cells[12].u_bit_cell~i_rst_n">
      <text x="-3" y="-4" class="inputPortLabel cell_gen_bit_cells[12].u_bit_cell">i_rst_n</text>
    </g>
    <g transform="translate(0,70)" s:x="0" s:y="10" s:pid="in0" id="port_gen_bit_cells[12].u_bit_cell~i_wen">
      <text x="-3" y="-4" class="inputPortLabel cell_gen_bit_cells[12].u_bit_cell">i_wen</text>
    </g>
    <g transform="translate(30,10)" s:x="30" s:y="10" s:pid="out0" id="port_gen_bit_cells[12].u_bit_cell~o_q">
      <text x="5" y="-4" style="fill:#000; stroke:none" class="cell_gen_bit_cells[12].u_bit_cell">o_q</text>
    </g>
  </g>
  <g s:type="generic" transform="translate(318,538.5)" s:width="30" s:height="40" id="cell_gen_bit_cells[13].u_bit_cell">
    <text x="15" y="-4" class="nodelabel cell_gen_bit_cells[13].u_bit_cell" s:attribute="ref">register_file_bit_cell</text>
    <rect width="30" height="80" s:generic="body" class="cell_gen_bit_cells[13].u_bit_cell"/>
    <g transform="translate(0,10)" s:x="0" s:y="10" s:pid="in0" id="port_gen_bit_cells[13].u_bit_cell~i_clk">
      <text x="-3" y="-4" class="inputPortLabel cell_gen_bit_cells[13].u_bit_cell">i_clk</text>
    </g>
    <g transform="translate(0,30)" s:x="0" s:y="10" s:pid="in0" id="port_gen_bit_cells[13].u_bit_cell~i_d">
      <text x="-3" y="-4" class="inputPortLabel cell_gen_bit_cells[13].u_bit_cell">i_d</text>
    </g>
    <g transform="translate(0,50)" s:x="0" s:y="10" s:pid="in0" id="port_gen_bit_cells[13].u_bit_cell~i_rst_n">
      <text x="-3" y="-4" class="inputPortLabel cell_gen_bit_cells[13].u_bit_cell">i_rst_n</text>
    </g>
    <g transform="translate(0,70)" s:x="0" s:y="10" s:pid="in0" id="port_gen_bit_cells[13].u_bit_cell~i_wen">
      <text x="-3" y="-4" class="inputPortLabel cell_gen_bit_cells[13].u_bit_cell">i_wen</text>
    </g>
    <g transform="translate(30,10)" s:x="30" s:y="10" s:pid="out0" id="port_gen_bit_cells[13].u_bit_cell~o_q">
      <text x="5" y="-4" style="fill:#000; stroke:none" class="cell_gen_bit_cells[13].u_bit_cell">o_q</text>
    </g>
  </g>
  <g s:type="generic" transform="translate(318,666.5)" s:width="30" s:height="40" id="cell_gen_bit_cells[14].u_bit_cell">
    <text x="15" y="-4" class="nodelabel cell_gen_bit_cells[14].u_bit_cell" s:attribute="ref">register_file_bit_cell</text>
    <rect width="30" height="80" s:generic="body" class="cell_gen_bit_cells[14].u_bit_cell"/>
    <g transform="translate(0,10)" s:x="0" s:y="10" s:pid="in0" id="port_gen_bit_cells[14].u_bit_cell~i_clk">
      <text x="-3" y="-4" class="inputPortLabel cell_gen_bit_cells[14].u_bit_cell">i_clk</text>
    </g>
    <g transform="translate(0,30)" s:x="0" s:y="10" s:pid="in0" id="port_gen_bit_cells[14].u_bit_cell~i_d">
      <text x="-3" y="-4" class="inputPortLabel cell_gen_bit_cells[14].u_bit_cell">i_d</text>
    </g>
    <g transform="translate(0,50)" s:x="0" s:y="10" s:pid="in0" id="port_gen_bit_cells[14].u_bit_cell~i_rst_n">
      <text x="-3" y="-4" class="inputPortLabel cell_gen_bit_cells[14].u_bit_cell">i_rst_n</text>
    </g>
    <g transform="translate(0,70)" s:x="0" s:y="10" s:pid="in0" id="port_gen_bit_cells[14].u_bit_cell~i_wen">
      <text x="-3" y="-4" class="inputPortLabel cell_gen_bit_cells[14].u_bit_cell">i_wen</text>
    </g>
    <g transform="translate(30,10)" s:x="30" s:y="10" s:pid="out0" id="port_gen_bit_cells[14].u_bit_cell~o_q">
      <text x="5" y="-4" style="fill:#000; stroke:none" class="cell_gen_bit_cells[14].u_bit_cell">o_q</text>
    </g>
  </g>
  <g s:type="generic" transform="translate(318,794.5)" s:width="30" s:height="40" id="cell_gen_bit_cells[15].u_bit_cell">
    <text x="15" y="-4" class="nodelabel cell_gen_bit_cells[15].u_bit_cell" s:attribute="ref">register_file_bit_cell</text>
    <rect width="30" height="80" s:generic="body" class="cell_gen_bit_cells[15].u_bit_cell"/>
    <g transform="translate(0,10)" s:x="0" s:y="10" s:pid="in0" id="port_gen_bit_cells[15].u_bit_cell~i_clk">
      <text x="-3" y="-4" class="inputPortLabel cell_gen_bit_cells[15].u_bit_cell">i_clk</text>
    </g>
    <g transform="translate(0,30)" s:x="0" s:y="10" s:pid="in0" id="port_gen_bit_cells[15].u_bit_cell~i_d">
      <text x="-3" y="-4" class="inputPortLabel cell_gen_bit_cells[15].u_bit_cell">i_d</text>
    </g>
    <g transform="translate(0,50)" s:x="0" s:y="10" s:pid="in0" id="port_gen_bit_cells[15].u_bit_cell~i_rst_n">
      <text x="-3" y="-4" class="inputPortLabel cell_gen_bit_cells[15].u_bit_cell">i_rst_n</text>
    </g>
    <g transform="translate(0,70)" s:x="0" s:y="10" s:pid="in0" id="port_gen_bit_cells[15].u_bit_cell~i_wen">
      <text x="-3" y="-4" class="inputPortLabel cell_gen_bit_cells[15].u_bit_cell">i_wen</text>
    </g>
    <g transform="translate(30,10)" s:x="30" s:y="10" s:pid="out0" id="port_gen_bit_cells[15].u_bit_cell~o_q">
      <text x="5" y="-4" style="fill:#000; stroke:none" class="cell_gen_bit_cells[15].u_bit_cell">o_q</text>
    </g>
  </g>
  <g s:type="generic" transform="translate(324,922.5)" s:width="30" s:height="40" id="cell_gen_bit_cells[1].u_bit_cell">
    <text x="15" y="-4" class="nodelabel cell_gen_bit_cells[1].u_bit_cell" s:attribute="ref">register_file_bit_cell</text>
    <rect width="30" height="80" s:generic="body" class="cell_gen_bit_cells[1].u_bit_cell"/>
    <g transform="translate(0,10)" s:x="0" s:y="10" s:pid="in0" id="port_gen_bit_cells[1].u_bit_cell~i_clk">
      <text x="-3" y="-4" class="inputPortLabel cell_gen_bit_cells[1].u_bit_cell">i_clk</text>
    </g>
    <g transform="translate(0,30)" s:x="0" s:y="10" s:pid="in0" id="port_gen_bit_cells[1].u_bit_cell~i_d">
      <text x="-3" y="-4" class="inputPortLabel cell_gen_bit_cells[1].u_bit_cell">i_d</text>
    </g>
    <g transform="translate(0,50)" s:x="0" s:y="10" s:pid="in0" id="port_gen_bit_cells[1].u_bit_cell~i_rst_n">
      <text x="-3" y="-4" class="inputPortLabel cell_gen_bit_cells[1].u_bit_cell">i_rst_n</text>
    </g>
    <g transform="translate(0,70)" s:x="0" s:y="10" s:pid="in0" id="port_gen_bit_cells[1].u_bit_cell~i_wen">
      <text x="-3" y="-4" class="inputPortLabel cell_gen_bit_cells[1].u_bit_cell">i_wen</text>
    </g>
    <g transform="translate(30,10)" s:x="30" s:y="10" s:pid="out0" id="port_gen_bit_cells[1].u_bit_cell~o_q">
      <text x="5" y="-4" style="fill:#000; stroke:none" class="cell_gen_bit_cells[1].u_bit_cell">o_q</text>
    </g>
  </g>
  <g s:type="generic" transform="translate(324,1050.5)" s:width="30" s:height="40" id="cell_gen_bit_cells[2].u_bit_cell">
    <text x="15" y="-4" class="nodelabel cell_gen_bit_cells[2].u_bit_cell" s:attribute="ref">register_file_bit_cell</text>
    <rect width="30" height="80" s:generic="body" class="cell_gen_bit_cells[2].u_bit_cell"/>
    <g transform="translate(0,10)" s:x="0" s:y="10" s:pid="in0" id="port_gen_bit_cells[2].u_bit_cell~i_clk">
      <text x="-3" y="-4" class="inputPortLabel cell_gen_bit_cells[2].u_bit_cell">i_clk</text>
    </g>
    <g transform="translate(0,30)" s:x="0" s:y="10" s:pid="in0" id="port_gen_bit_cells[2].u_bit_cell~i_d">
      <text x="-3" y="-4" class="inputPortLabel cell_gen_bit_cells[2].u_bit_cell">i_d</text>
    </g>
    <g transform="translate(0,50)" s:x="0" s:y="10" s:pid="in0" id="port_gen_bit_cells[2].u_bit_cell~i_rst_n">
      <text x="-3" y="-4" class="inputPortLabel cell_gen_bit_cells[2].u_bit_cell">i_rst_n</text>
    </g>
    <g transform="translate(0,70)" s:x="0" s:y="10" s:pid="in0" id="port_gen_bit_cells[2].u_bit_cell~i_wen">
      <text x="-3" y="-4" class="inputPortLabel cell_gen_bit_cells[2].u_bit_cell">i_wen</text>
    </g>
    <g transform="translate(30,10)" s:x="30" s:y="10" s:pid="out0" id="port_gen_bit_cells[2].u_bit_cell~o_q">
      <text x="5" y="-4" style="fill:#000; stroke:none" class="cell_gen_bit_cells[2].u_bit_cell">o_q</text>
    </g>
  </g>
  <g s:type="generic" transform="translate(324,1178.5)" s:width="30" s:height="40" id="cell_gen_bit_cells[3].u_bit_cell">
    <text x="15" y="-4" class="nodelabel cell_gen_bit_cells[3].u_bit_cell" s:attribute="ref">register_file_bit_cell</text>
    <rect width="30" height="80" s:generic="body" class="cell_gen_bit_cells[3].u_bit_cell"/>
    <g transform="translate(0,10)" s:x="0" s:y="10" s:pid="in0" id="port_gen_bit_cells[3].u_bit_cell~i_clk">
      <text x="-3" y="-4" class="inputPortLabel cell_gen_bit_cells[3].u_bit_cell">i_clk</text>
    </g>
    <g transform="translate(0,30)" s:x="0" s:y="10" s:pid="in0" id="port_gen_bit_cells[3].u_bit_cell~i_d">
      <text x="-3" y="-4" class="inputPortLabel cell_gen_bit_cells[3].u_bit_cell">i_d</text>
    </g>
    <g transform="translate(0,50)" s:x="0" s:y="10" s:pid="in0" id="port_gen_bit_cells[3].u_bit_cell~i_rst_n">
      <text x="-3" y="-4" class="inputPortLabel cell_gen_bit_cells[3].u_bit_cell">i_rst_n</text>
    </g>
    <g transform="translate(0,70)" s:x="0" s:y="10" s:pid="in0" id="port_gen_bit_cells[3].u_bit_cell~i_wen">
      <text x="-3" y="-4" class="inputPortLabel cell_gen_bit_cells[3].u_bit_cell">i_wen</text>
    </g>
    <g transform="translate(30,10)" s:x="30" s:y="10" s:pid="out0" id="port_gen_bit_cells[3].u_bit_cell~o_q">
      <text x="5" y="-4" style="fill:#000; stroke:none" class="cell_gen_bit_cells[3].u_bit_cell">o_q</text>
    </g>
  </g>
  <g s:type="generic" transform="translate(324,1306.5)" s:width="30" s:height="40" id="cell_gen_bit_cells[4].u_bit_cell">
    <text x="15" y="-4" class="nodelabel cell_gen_bit_cells[4].u_bit_cell" s:attribute="ref">register_file_bit_cell</text>
    <rect width="30" height="80" s:generic="body" class="cell_gen_bit_cells[4].u_bit_cell"/>
    <g transform="translate(0,10)" s:x="0" s:y="10" s:pid="in0" id="port_gen_bit_cells[4].u_bit_cell~i_clk">
      <text x="-3" y="-4" class="inputPortLabel cell_gen_bit_cells[4].u_bit_cell">i_clk</text>
    </g>
    <g transform="translate(0,30)" s:x="0" s:y="10" s:pid="in0" id="port_gen_bit_cells[4].u_bit_cell~i_d">
      <text x="-3" y="-4" class="inputPortLabel cell_gen_bit_cells[4].u_bit_cell">i_d</text>
    </g>
    <g transform="translate(0,50)" s:x="0" s:y="10" s:pid="in0" id="port_gen_bit_cells[4].u_bit_cell~i_rst_n">
      <text x="-3" y="-4" class="inputPortLabel cell_gen_bit_cells[4].u_bit_cell">i_rst_n</text>
    </g>
    <g transform="translate(0,70)" s:x="0" s:y="10" s:pid="in0" id="port_gen_bit_cells[4].u_bit_cell~i_wen">
      <text x="-3" y="-4" class="inputPortLabel cell_gen_bit_cells[4].u_bit_cell">i_wen</text>
    </g>
    <g transform="translate(30,10)" s:x="30" s:y="10" s:pid="out0" id="port_gen_bit_cells[4].u_bit_cell~o_q">
      <text x="5" y="-4" style="fill:#000; stroke:none" class="cell_gen_bit_cells[4].u_bit_cell">o_q</text>
    </g>
  </g>
  <g s:type="generic" transform="translate(324,1434.5)" s:width="30" s:height="40" id="cell_gen_bit_cells[5].u_bit_cell">
    <text x="15" y="-4" class="nodelabel cell_gen_bit_cells[5].u_bit_cell" s:attribute="ref">register_file_bit_cell</text>
    <rect width="30" height="80" s:generic="body" class="cell_gen_bit_cells[5].u_bit_cell"/>
    <g transform="translate(0,10)" s:x="0" s:y="10" s:pid="in0" id="port_gen_bit_cells[5].u_bit_cell~i_clk">
      <text x="-3" y="-4" class="inputPortLabel cell_gen_bit_cells[5].u_bit_cell">i_clk</text>
    </g>
    <g transform="translate(0,30)" s:x="0" s:y="10" s:pid="in0" id="port_gen_bit_cells[5].u_bit_cell~i_d">
      <text x="-3" y="-4" class="inputPortLabel cell_gen_bit_cells[5].u_bit_cell">i_d</text>
    </g>
    <g transform="translate(0,50)" s:x="0" s:y="10" s:pid="in0" id="port_gen_bit_cells[5].u_bit_cell~i_rst_n">
      <text x="-3" y="-4" class="inputPortLabel cell_gen_bit_cells[5].u_bit_cell">i_rst_n</text>
    </g>
    <g transform="translate(0,70)" s:x="0" s:y="10" s:pid="in0" id="port_gen_bit_cells[5].u_bit_cell~i_wen">
      <text x="-3" y="-4" class="inputPortLabel cell_gen_bit_cells[5].u_bit_cell">i_wen</text>
    </g>
    <g transform="translate(30,10)" s:x="30" s:y="10" s:pid="out0" id="port_gen_bit_cells[5].u_bit_cell~o_q">
      <text x="5" y="-4" style="fill:#000; stroke:none" class="cell_gen_bit_cells[5].u_bit_cell">o_q</text>
    </g>
  </g>
  <g s:type="generic" transform="translate(324,1562.5)" s:width="30" s:height="40" id="cell_gen_bit_cells[6].u_bit_cell">
    <text x="15" y="-4" class="nodelabel cell_gen_bit_cells[6].u_bit_cell" s:attribute="ref">register_file_bit_cell</text>
    <rect width="30" height="80" s:generic="body" class="cell_gen_bit_cells[6].u_bit_cell"/>
    <g transform="translate(0,10)" s:x="0" s:y="10" s:pid="in0" id="port_gen_bit_cells[6].u_bit_cell~i_clk">
      <text x="-3" y="-4" class="inputPortLabel cell_gen_bit_cells[6].u_bit_cell">i_clk</text>
    </g>
    <g transform="translate(0,30)" s:x="0" s:y="10" s:pid="in0" id="port_gen_bit_cells[6].u_bit_cell~i_d">
      <text x="-3" y="-4" class="inputPortLabel cell_gen_bit_cells[6].u_bit_cell">i_d</text>
    </g>
    <g transform="translate(0,50)" s:x="0" s:y="10" s:pid="in0" id="port_gen_bit_cells[6].u_bit_cell~i_rst_n">
      <text x="-3" y="-4" class="inputPortLabel cell_gen_bit_cells[6].u_bit_cell">i_rst_n</text>
    </g>
    <g transform="translate(0,70)" s:x="0" s:y="10" s:pid="in0" id="port_gen_bit_cells[6].u_bit_cell~i_wen">
      <text x="-3" y="-4" class="inputPortLabel cell_gen_bit_cells[6].u_bit_cell">i_wen</text>
    </g>
    <g transform="translate(30,10)" s:x="30" s:y="10" s:pid="out0" id="port_gen_bit_cells[6].u_bit_cell~o_q">
      <text x="5" y="-4" style="fill:#000; stroke:none" class="cell_gen_bit_cells[6].u_bit_cell">o_q</text>
    </g>
  </g>
  <g s:type="generic" transform="translate(324,1690.5)" s:width="30" s:height="40" id="cell_gen_bit_cells[7].u_bit_cell">
    <text x="15" y="-4" class="nodelabel cell_gen_bit_cells[7].u_bit_cell" s:attribute="ref">register_file_bit_cell</text>
    <rect width="30" height="80" s:generic="body" class="cell_gen_bit_cells[7].u_bit_cell"/>
    <g transform="translate(0,10)" s:x="0" s:y="10" s:pid="in0" id="port_gen_bit_cells[7].u_bit_cell~i_clk">
      <text x="-3" y="-4" class="inputPortLabel cell_gen_bit_cells[7].u_bit_cell">i_clk</text>
    </g>
    <g transform="translate(0,30)" s:x="0" s:y="10" s:pid="in0" id="port_gen_bit_cells[7].u_bit_cell~i_d">
      <text x="-3" y="-4" class="inputPortLabel cell_gen_bit_cells[7].u_bit_cell">i_d</text>
    </g>
    <g transform="translate(0,50)" s:x="0" s:y="10" s:pid="in0" id="port_gen_bit_cells[7].u_bit_cell~i_rst_n">
      <text x="-3" y="-4" class="inputPortLabel cell_gen_bit_cells[7].u_bit_cell">i_rst_n</text>
    </g>
    <g transform="translate(0,70)" s:x="0" s:y="10" s:pid="in0" id="port_gen_bit_cells[7].u_bit_cell~i_wen">
      <text x="-3" y="-4" class="inputPortLabel cell_gen_bit_cells[7].u_bit_cell">i_wen</text>
    </g>
    <g transform="translate(30,10)" s:x="30" s:y="10" s:pid="out0" id="port_gen_bit_cells[7].u_bit_cell~o_q">
      <text x="5" y="-4" style="fill:#000; stroke:none" class="cell_gen_bit_cells[7].u_bit_cell">o_q</text>
    </g>
  </g>
  <g s:type="generic" transform="translate(324,1946.5)" s:width="30" s:height="40" id="cell_gen_bit_cells[8].u_bit_cell">
    <text x="15" y="-4" class="nodelabel cell_gen_bit_cells[8].u_bit_cell" s:attribute="ref">register_file_bit_cell</text>
    <rect width="30" height="80" s:generic="body" class="cell_gen_bit_cells[8].u_bit_cell"/>
    <g transform="translate(0,10)" s:x="0" s:y="10" s:pid="in0" id="port_gen_bit_cells[8].u_bit_cell~i_clk">
      <text x="-3" y="-4" class="inputPortLabel cell_gen_bit_cells[8].u_bit_cell">i_clk</text>
    </g>
    <g transform="translate(0,30)" s:x="0" s:y="10" s:pid="in0" id="port_gen_bit_cells[8].u_bit_cell~i_d">
      <text x="-3" y="-4" class="inputPortLabel cell_gen_bit_cells[8].u_bit_cell">i_d</text>
    </g>
    <g transform="translate(0,50)" s:x="0" s:y="10" s:pid="in0" id="port_gen_bit_cells[8].u_bit_cell~i_rst_n">
      <text x="-3" y="-4" class="inputPortLabel cell_gen_bit_cells[8].u_bit_cell">i_rst_n</text>
    </g>
    <g transform="translate(0,70)" s:x="0" s:y="10" s:pid="in0" id="port_gen_bit_cells[8].u_bit_cell~i_wen">
      <text x="-3" y="-4" class="inputPortLabel cell_gen_bit_cells[8].u_bit_cell">i_wen</text>
    </g>
    <g transform="translate(30,10)" s:x="30" s:y="10" s:pid="out0" id="port_gen_bit_cells[8].u_bit_cell~o_q">
      <text x="5" y="-4" style="fill:#000; stroke:none" class="cell_gen_bit_cells[8].u_bit_cell">o_q</text>
    </g>
  </g>
  <g s:type="generic" transform="translate(324,1818.5)" s:width="30" s:height="40" id="cell_gen_bit_cells[9].u_bit_cell">
    <text x="15" y="-4" class="nodelabel cell_gen_bit_cells[9].u_bit_cell" s:attribute="ref">register_file_bit_cell</text>
    <rect width="30" height="80" s:generic="body" class="cell_gen_bit_cells[9].u_bit_cell"/>
    <g transform="translate(0,10)" s:x="0" s:y="10" s:pid="in0" id="port_gen_bit_cells[9].u_bit_cell~i_clk">
      <text x="-3" y="-4" class="inputPortLabel cell_gen_bit_cells[9].u_bit_cell">i_clk</text>
    </g>
    <g transform="translate(0,30)" s:x="0" s:y="10" s:pid="in0" id="port_gen_bit_cells[9].u_bit_cell~i_d">
      <text x="-3" y="-4" class="inputPortLabel cell_gen_bit_cells[9].u_bit_cell">i_d</text>
    </g>
    <g transform="translate(0,50)" s:x="0" s:y="10" s:pid="in0" id="port_gen_bit_cells[9].u_bit_cell~i_rst_n">
      <text x="-3" y="-4" class="inputPortLabel cell_gen_bit_cells[9].u_bit_cell">i_rst_n</text>
    </g>
    <g transform="translate(0,70)" s:x="0" s:y="10" s:pid="in0" id="port_gen_bit_cells[9].u_bit_cell~i_wen">
      <text x="-3" y="-4" class="inputPortLabel cell_gen_bit_cells[9].u_bit_cell">i_wen</text>
    </g>
    <g transform="translate(30,10)" s:x="30" s:y="10" s:pid="out0" id="port_gen_bit_cells[9].u_bit_cell~o_q">
      <text x="5" y="-4" style="fill:#000; stroke:none" class="cell_gen_bit_cells[9].u_bit_cell">o_q</text>
    </g>
  </g>
  <g s:type="inputExt" transform="translate(83,22)" s:width="30" s:height="20" id="cell_i_clk">
    <text x="15" y="-4" class="nodelabel cell_i_clk" s:attribute="ref">i_clk</text>
    <s:alias val="$_inputExt_"/>
    <path d="M0,0 L0,20 L15,20 L30,10 L15,0 Z" class="cell_i_clk"/>
    <g s:x="28" s:y="10" s:pid="Y"/>
  </g>
  <g s:type="inputExt" transform="translate(83,1997)" s:width="30" s:height="20" id="cell_i_rst_n">
    <text x="15" y="-4" class="nodelabel cell_i_rst_n" s:attribute="ref">i_rst_n</text>
    <s:alias val="$_inputExt_"/>
    <path d="M0,0 L0,20 L15,20 L30,10 L15,0 Z" class="cell_i_rst_n"/>
    <g s:x="28" s:y="10" s:pid="Y"/>
  </g>
  <g s:type="inputExt" transform="translate(83,87)" s:width="30" s:height="20" id="cell_i_wen">
    <text x="15" y="-4" class="nodelabel cell_i_wen" s:attribute="ref">i_wen</text>
    <s:alias val="$_inputExt_"/>
    <path d="M0,0 L0,20 L15,20 L30,10 L15,0 Z" class="cell_i_wen"/>
    <g s:x="28" s:y="10" s:pid="Y"/>
  </g>
  <g s:type="inputExt" transform="translate(12,185)" s:width="30" s:height="20" id="cell_i_data">
    <text x="15" y="-4" class="nodelabel cell_i_data" s:attribute="ref">i_data</text>
    <s:alias val="$_inputExt_"/>
    <path d="M0,0 L0,20 L15,20 L30,10 L15,0 Z" class="cell_i_data"/>
    <g s:x="28" s:y="10" s:pid="Y"/>
  </g>
  <g s:type="outputExt" transform="translate(664,1129)" s:width="30" s:height="20" id="cell_o_data">
    <text x="15" y="-4" class="nodelabel cell_o_data" s:attribute="ref">o_data</text>
    <s:alias val="$_outputExt_"/>
    <path d="M30,0 L30,20 L15,20 L0,10 L15,0 Z" class="cell_o_data"/>
    <g s:x="0" s:y="10" s:pid="A"/>
  </g>
  <g s:type="join" transform="translate(623,1118.5)" s:width="4" s:height="40" id="cell_$join$,21,22,23,24,25,26,27,28,29,30,31,32,33,34,35,36,">
    <rect width="5" height="320" class="splitjoinBody" s:generic="body"/>
    <s:alias val="$_join_"/>
    <g s:x="5" s:y="20" s:pid="out"/>
    <g transform="translate(0,10)" s:x="0" s:y="10" s:pid="in0">
      <text x="-3" y="-4" class="inputPortLabel">0</text>
    </g>
    <g transform="translate(0,30)" s:x="0" s:y="10" s:pid="in0">
      <text x="-3" y="-4" class="inputPortLabel">1</text>
    </g>
    <g transform="translate(0,50)" s:x="0" s:y="10" s:pid="in0">
      <text x="-3" y="-4" class="inputPortLabel">2</text>
    </g>
    <g transform="translate(0,70)" s:x="0" s:y="10" s:pid="in0">
      <text x="-3" y="-4" class="inputPortLabel">3</text>
    </g>
    <g transform="translate(0,90)" s:x="0" s:y="10" s:pid="in0">
      <text x="-3" y="-4" class="inputPortLabel">4</text>
    </g>
    <g transform="translate(0,110)" s:x="0" s:y="10" s:pid="in0">
      <text x="-3" y="-4" class="inputPortLabel">5</text>
    </g>
    <g transform="translate(0,130)" s:x="0" s:y="10" s:pid="in0">
      <text x="-3" y="-4" class="inputPortLabel">6</text>
    </g>
    <g transform="translate(0,150)" s:x="0" s:y="10" s:pid="in0">
      <text x="-3" y="-4" class="inputPortLabel">7</text>
    </g>
    <g transform="translate(0,170)" s:x="0" s:y="10" s:pid="in0">
      <text x="-3" y="-4" class="inputPortLabel">8</text>
    </g>
    <g transform="translate(0,190)" s:x="0" s:y="10" s:pid="in0">
      <text x="-3" y="-4" class="inputPortLabel">9</text>
    </g>
    <g transform="translate(0,210)" s:x="0" s:y="10" s:pid="in0">
      <text x="-3" y="-4" class="inputPortLabel">10</text>
    </g>
    <g transform="translate(0,230)" s:x="0" s:y="10" s:pid="in0">
      <text x="-3" y="-4" class="inputPortLabel">11</text>
    </g>
    <g transform="translate(0,250)" s:x="0" s:y="10" s:pid="in0">
      <text x="-3" y="-4" class="inputPortLabel">12</text>
    </g>
    <g transform="translate(0,270)" s:x="0" s:y="10" s:pid="in0">
      <text x="-3" y="-4" class="inputPortLabel">13</text>
    </g>
    <g transform="translate(0,290)" s:x="0" s:y="10" s:pid="in0">
      <text x="-3" y="-4" class="inputPortLabel">14</text>
    </g>
    <g transform="translate(0,310)" s:x="0" s:y="10" s:pid="in0">
      <text x="-3" y="-4" class="inputPortLabel">15</text>
    </g>
  </g>
  <g s:type="split" transform="translate(108,262.5)" s:width="5" s:height="40" id="cell_$split$,5,6,7,8,9,10,11,12,13,14,15,16,17,18,19,20,">
    <rect width="5" height="320" class="splitjoinBody" s:generic="body"/>
    <s:alias val="$_split_"/>
    <g s:x="0" s:y="20" s:pid="in"/>
    <g transform="translate(4,10)" s:x="4" s:y="10" s:pid="out0">
      <text x="5" y="-4">0</text>
    </g>
    <g transform="translate(4,30)" s:x="4" s:y="10" s:pid="out0">
      <text x="5" y="-4">10</text>
    </g>
    <g transform="translate(4,50)" s:x="4" s:y="10" s:pid="out0">
      <text x="5" y="-4">11</text>
    </g>
    <g transform="translate(4,70)" s:x="4" s:y="10" s:pid="out0">
      <text x="5" y="-4">12</text>
    </g>
    <g transform="translate(4,90)" s:x="4" s:y="10" s:pid="out0">
      <text x="5" y="-4">13</text>
    </g>
    <g transform="translate(4,110)" s:x="4" s:y="10" s:pid="out0">
      <text x="5" y="-4">14</text>
    </g>
    <g transform="translate(4,130)" s:x="4" s:y="10" s:pid="out0">
      <text x="5" y="-4">15</text>
    </g>
    <g transform="translate(4,150)" s:x="4" s:y="10" s:pid="out0">
      <text x="5" y="-4">1</text>
    </g>
    <g transform="translate(4,170)" s:x="4" s:y="10" s:pid="out0">
      <text x="5" y="-4">2</text>
    </g>
    <g transform="translate(4,190)" s:x="4" s:y="10" s:pid="out0">
      <text x="5" y="-4">3</text>
    </g>
    <g transform="translate(4,210)" s:x="4" s:y="10" s:pid="out0">
      <text x="5" y="-4">4</text>
    </g>
    <g transform="translate(4,230)" s:x="4" s:y="10" s:pid="out0">
      <text x="5" y="-4">5</text>
    </g>
    <g transform="translate(4,250)" s:x="4" s:y="10" s:pid="out0">
      <text x="5" y="-4">6</text>
    </g>
    <g transform="translate(4,270)" s:x="4" s:y="10" s:pid="out0">
      <text x="5" y="-4">7</text>
    </g>
    <g transform="translate(4,290)" s:x="4" s:y="10" s:pid="out0">
      <text x="5" y="-4">8</text>
    </g>
    <g transform="translate(4,310)" s:x="4" s:y="10" s:pid="out0">
      <text x="5" y="-4">9</text>
    </g>
  </g>
  <line x1="111" x2="265" y1="32" y2="32" class="net_2"/>
  <line x1="265" x2="265" y1="32" y2="37" class="net_2"/>
  <circle cx="265" cy="37" r="2" style="fill:#000" class="net_2"/>
  <line x1="265" x2="324" y1="37" y2="37" class="net_2"/>
  <line x1="111" x2="265" y1="32" y2="32" class="net_2"/>
  <line x1="265" x2="265" y1="32" y2="165" class="net_2"/>
  <circle cx="265" cy="165" r="2" style="fill:#000" class="net_2"/>
  <line x1="265" x2="318" y1="165" y2="165" class="net_2"/>
  <line x1="111" x2="265" y1="32" y2="32" class="net_2"/>
  <line x1="265" x2="265" y1="32" y2="293" class="net_2"/>
  <circle cx="265" cy="293" r="2" style="fill:#000" class="net_2"/>
  <line x1="265" x2="318" y1="293" y2="293" class="net_2"/>
  <line x1="111" x2="265" y1="32" y2="32" class="net_2"/>
  <line x1="265" x2="265" y1="32" y2="421" class="net_2"/>
  <circle cx="265" cy="421" r="2" style="fill:#000" class="net_2"/>
  <line x1="265" x2="318" y1="421" y2="421" class="net_2"/>
  <line x1="111" x2="265" y1="32" y2="32" class="net_2"/>
  <line x1="265" x2="265" y1="32" y2="549" class="net_2"/>
  <circle cx="265" cy="549" r="2" style="fill:#000" class="net_2"/>
  <line x1="265" x2="318" y1="549" y2="549" class="net_2"/>
  <line x1="111" x2="265" y1="32" y2="32" class="net_2"/>
  <line x1="265" x2="265" y1="32" y2="677" class="net_2"/>
  <circle cx="265" cy="677" r="2" style="fill:#000" class="net_2"/>
  <line x1="265" x2="318" y1="677" y2="677" class="net_2"/>
  <line x1="111" x2="265" y1="32" y2="32" class="net_2"/>
  <line x1="265" x2="265" y1="32" y2="805" class="net_2"/>
  <circle cx="265" cy="805" r="2" style="fill:#000" class="net_2"/>
  <line x1="265" x2="318" y1="805" y2="805" class="net_2"/>
  <line x1="111" x2="265" y1="32" y2="32" class="net_2"/>
  <line x1="265" x2="265" y1="32" y2="933" class="net_2"/>
  <circle cx="265" cy="933" r="2" style="fill:#000" class="net_2"/>
  <line x1="265" x2="324" y1="933" y2="933" class="net_2"/>
  <line x1="111" x2="265" y1="32" y2="32" class="net_2"/>
  <line x1="265" x2="265" y1="32" y2="1061" class="net_2"/>
  <circle cx="265" cy="1061" r="2" style="fill:#000" class="net_2"/>
  <line x1="265" x2="324" y1="1061" y2="1061" class="net_2"/>
  <line x1="111" x2="265" y1="32" y2="32" class="net_2"/>
  <line x1="265" x2="265" y1="32" y2="1189" class="net_2"/>
  <circle cx="265" cy="1189" r="2" style="fill:#000" class="net_2"/>
  <line x1="265" x2="324" y1="1189" y2="1189" class="net_2"/>
  <line x1="111" x2="265" y1="32" y2="32" class="net_2"/>
  <line x1="265" x2="265" y1="32" y2="1317" class="net_2"/>
  <circle cx="265" cy="1317" r="2" style="fill:#000" class="net_2"/>
  <line x1="265" x2="324" y1="1317" y2="1317" class="net_2"/>
  <line x1="111" x2="265" y1="32" y2="32" class="net_2"/>
  <line x1="265" x2="265" y1="32" y2="1445" class="net_2"/>
  <circle cx="265" cy="1445" r="2" style="fill:#000" class="net_2"/>
  <line x1="265" x2="324" y1="1445" y2="1445" class="net_2"/>
  <line x1="111" x2="265" y1="32" y2="32" class="net_2"/>
  <line x1="265" x2="265" y1="32" y2="1573" class="net_2"/>
  <circle cx="265" cy="1573" r="2" style="fill:#000" class="net_2"/>
  <line x1="265" x2="324" y1="1573" y2="1573" class="net_2"/>
  <line x1="111" x2="265" y1="32" y2="32" class="net_2"/>
  <line x1="265" x2="265" y1="32" y2="1701" class="net_2"/>
  <circle cx="265" cy="1701" r="2" style="fill:#000" class="net_2"/>
  <line x1="265" x2="324" y1="1701" y2="1701" class="net_2"/>
  <line x1="111" x2="265" y1="32" y2="32" class="net_2"/>
  <line x1="265" x2="265" y1="32" y2="1957" class="net_2"/>
  <line x1="265" x2="324" y1="1957" y2="1957" class="net_2"/>
  <line x1="111" x2="265" y1="32" y2="32" class="net_2"/>
  <line x1="265" x2="265" y1="32" y2="1829" class="net_2"/>
  <circle cx="265" cy="1829" r="2" style="fill:#000" class="net_2"/>
  <line x1="265" x2="324" y1="1829" y2="1829" class="net_2"/>
  <line x1="112.5" x2="112.5" y1="272.5" y2="117" class="net_5"/>
  <line x1="112.5" x2="135" y1="117" y2="117" class="net_5"/>
  <line x1="135" x2="135" y1="117" y2="57" class="net_5"/>
  <line x1="135" x2="324" y1="57" y2="57" class="net_5"/>
  <line x1="111" x2="255" y1="2007" y2="2007" class="net_3"/>
  <line x1="255" x2="255" y1="2007" y2="77" class="net_3"/>
  <line x1="255" x2="324" y1="77" y2="77" class="net_3"/>
  <line x1="111" x2="255" y1="2007" y2="2007" class="net_3"/>
  <line x1="255" x2="255" y1="2007" y2="205" class="net_3"/>
  <circle cx="255" cy="205" r="2" style="fill:#000" class="net_3"/>
  <line x1="255" x2="318" y1="205" y2="205" class="net_3"/>
  <line x1="111" x2="255" y1="2007" y2="2007" class="net_3"/>
  <line x1="255" x2="255" y1="2007" y2="333" class="net_3"/>
  <circle cx="255" cy="333" r="2" style="fill:#000" class="net_3"/>
  <line x1="255" x2="318" y1="333" y2="333" class="net_3"/>
  <line x1="111" x2="255" y1="2007" y2="2007" class="net_3"/>
  <line x1="255" x2="255" y1="2007" y2="461" class="net_3"/>
  <circle cx="255" cy="461" r="2" style="fill:#000" class="net_3"/>
  <line x1="255" x2="318" y1="461" y2="461" class="net_3"/>
  <line x1="111" x2="255" y1="2007" y2="2007" class="net_3"/>
  <line x1="255" x2="255" y1="2007" y2="589" class="net_3"/>
  <circle cx="255" cy="589" r="2" style="fill:#000" class="net_3"/>
  <line x1="255" x2="318" y1="589" y2="589" class="net_3"/>
  <line x1="111" x2="255" y1="2007" y2="2007" class="net_3"/>
  <line x1="255" x2="255" y1="2007" y2="717" class="net_3"/>
  <circle cx="255" cy="717" r="2" style="fill:#000" class="net_3"/>
  <line x1="255" x2="318" y1="717" y2="717" class="net_3"/>
  <line x1="111" x2="255" y1="2007" y2="2007" class="net_3"/>
  <line x1="255" x2="255" y1="2007" y2="845" class="net_3"/>
  <circle cx="255" cy="845" r="2" style="fill:#000" class="net_3"/>
  <line x1="255" x2="318" y1="845" y2="845" class="net_3"/>
  <line x1="111" x2="255" y1="2007" y2="2007" class="net_3"/>
  <line x1="255" x2="255" y1="2007" y2="973" class="net_3"/>
  <circle cx="255" cy="973" r="2" style="fill:#000" class="net_3"/>
  <line x1="255" x2="324" y1="973" y2="973" class="net_3"/>
  <line x1="111" x2="255" y1="2007" y2="2007" class="net_3"/>
  <line x1="255" x2="255" y1="2007" y2="1101" class="net_3"/>
  <circle cx="255" cy="1101" r="2" style="fill:#000" class="net_3"/>
  <line x1="255" x2="324" y1="1101" y2="1101" class="net_3"/>
  <line x1="111" x2="255" y1="2007" y2="2007" class="net_3"/>
  <line x1="255" x2="255" y1="2007" y2="1229" class="net_3"/>
  <circle cx="255" cy="1229" r="2" style="fill:#000" class="net_3"/>
  <line x1="255" x2="324" y1="1229" y2="1229" class="net_3"/>
  <line x1="111" x2="255" y1="2007" y2="2007" class="net_3"/>
  <line x1="255" x2="255" y1="2007" y2="1357" class="net_3"/>
  <circle cx="255" cy="1357" r="2" style="fill:#000" class="net_3"/>
  <line x1="255" x2="324" y1="1357" y2="1357" class="net_3"/>
  <line x1="111" x2="255" y1="2007" y2="2007" class="net_3"/>
  <line x1="255" x2="255" y1="2007" y2="1485" class="net_3"/>
  <circle cx="255" cy="1485" r="2" style="fill:#000" class="net_3"/>
  <line x1="255" x2="324" y1="1485" y2="1485" class="net_3"/>
  <line x1="111" x2="255" y1="2007" y2="2007" class="net_3"/>
  <line x1="255" x2="255" y1="2007" y2="1613" class="net_3"/>
  <circle cx="255" cy="1613" r="2" style="fill:#000" class="net_3"/>
  <line x1="255" x2="324" y1="1613" y2="1613" class="net_3"/>
  <line x1="111" x2="255" y1="2007" y2="2007" class="net_3"/>
  <line x1="255" x2="255" y1="2007" y2="1741" class="net_3"/>
  <circle cx="255" cy="1741" r="2" style="fill:#000" class="net_3"/>
  <line x1="255" x2="324" y1="1741" y2="1741" class="net_3"/>
  <line x1="111" x2="255" y1="2007" y2="2007" class="net_3"/>
  <line x1="255" x2="255" y1="2007" y2="1997" class="net_3"/>
  <circle cx="255" cy="1997" r="2" style="fill:#000" class="net_3"/>
  <line x1="255" x2="324" y1="1997" y2="1997" class="net_3"/>
  <line x1="111" x2="255" y1="2007" y2="2007" class="net_3"/>
  <line x1="255" x2="255" y1="2007" y2="1869" class="net_3"/>
  <circle cx="255" cy="1869" r="2" style="fill:#000" class="net_3"/>
  <line x1="255" x2="324" y1="1869" y2="1869" class="net_3"/>
  <line x1="111" x2="324" y1="97" y2="97" class="net_4"/>
  <line x1="111" x2="245" y1="97" y2="97" class="net_4"/>
  <line x1="245" x2="245" y1="97" y2="225" class="net_4"/>
  <circle cx="245" cy="97" r="2" style="fill:#000" class="net_4"/>
  <circle cx="245" cy="225" r="2" style="fill:#000" class="net_4"/>
  <line x1="245" x2="318" y1="225" y2="225" class="net_4"/>
  <line x1="111" x2="245" y1="97" y2="97" class="net_4"/>
  <line x1="245" x2="245" y1="97" y2="353" class="net_4"/>
  <circle cx="245" cy="353" r="2" style="fill:#000" class="net_4"/>
  <line x1="245" x2="318" y1="353" y2="353" class="net_4"/>
  <line x1="111" x2="245" y1="97" y2="97" class="net_4"/>
  <line x1="245" x2="245" y1="97" y2="481" class="net_4"/>
  <circle cx="245" cy="481" r="2" style="fill:#000" class="net_4"/>
  <line x1="245" x2="318" y1="481" y2="481" class="net_4"/>
  <line x1="111" x2="245" y1="97" y2="97" class="net_4"/>
  <line x1="245" x2="245" y1="97" y2="609" class="net_4"/>
  <circle cx="245" cy="609" r="2" style="fill:#000" class="net_4"/>
  <line x1="245" x2="318" y1="609" y2="609" class="net_4"/>
  <line x1="111" x2="245" y1="97" y2="97" class="net_4"/>
  <line x1="245" x2="245" y1="97" y2="737" class="net_4"/>
  <circle cx="245" cy="737" r="2" style="fill:#000" class="net_4"/>
  <line x1="245" x2="318" y1="737" y2="737" class="net_4"/>
  <line x1="111" x2="245" y1="97" y2="97" class="net_4"/>
  <line x1="245" x2="245" y1="97" y2="865" class="net_4"/>
  <circle cx="245" cy="865" r="2" style="fill:#000" class="net_4"/>
  <line x1="245" x2="318" y1="865" y2="865" class="net_4"/>
  <line x1="111" x2="245" y1="97" y2="97" class="net_4"/>
  <line x1="245" x2="245" y1="97" y2="993" class="net_4"/>
  <circle cx="245" cy="993" r="2" style="fill:#000" class="net_4"/>
  <line x1="245" x2="324" y1="993" y2="993" class="net_4"/>
  <line x1="111" x2="245" y1="97" y2="97" class="net_4"/>
  <line x1="245" x2="245" y1="97" y2="1121" class="net_4"/>
  <circle cx="245" cy="1121" r="2" style="fill:#000" class="net_4"/>
  <line x1="245" x2="324" y1="1121" y2="1121" class="net_4"/>
  <line x1="111" x2="245" y1="97" y2="97" class="net_4"/>
  <line x1="245" x2="245" y1="97" y2="1249" class="net_4"/>
  <circle cx="245" cy="1249" r="2" style="fill:#000" class="net_4"/>
  <line x1="245" x2="324" y1="1249" y2="1249" class="net_4"/>
  <line x1="111" x2="245" y1="97" y2="97" class="net_4"/>
  <line x1="245" x2="245" y1="97" y2="1377" class="net_4"/>
  <circle cx="245" cy="1377" r="2" style="fill:#000" class="net_4"/>
  <line x1="245" x2="324" y1="1377" y2="1377" class="net_4"/>
  <line x1="111" x2="245" y1="97" y2="97" class="net_4"/>
  <line x1="245" x2="245" y1="97" y2="1505" class="net_4"/>
  <circle cx="245" cy="1505" r="2" style="fill:#000" class="net_4"/>
  <line x1="245" x2="324" y1="1505" y2="1505" class="net_4"/>
  <line x1="111" x2="245" y1="97" y2="97" class="net_4"/>
  <line x1="245" x2="245" y1="97" y2="1633" class="net_4"/>
  <circle cx="245" cy="1633" r="2" style="fill:#000" class="net_4"/>
  <line x1="245" x2="324" y1="1633" y2="1633" class="net_4"/>
  <line x1="111" x2="245" y1="97" y2="97" class="net_4"/>
  <line x1="245" x2="245" y1="97" y2="1761" class="net_4"/>
  <circle cx="245" cy="1761" r="2" style="fill:#000" class="net_4"/>
  <line x1="245" x2="324" y1="1761" y2="1761" class="net_4"/>
  <line x1="111" x2="245" y1="97" y2="97" class="net_4"/>
  <line x1="245" x2="245" y1="97" y2="2017" class="net_4"/>
  <line x1="245" x2="324" y1="2017" y2="2017" class="net_4"/>
  <line x1="111" x2="245" y1="97" y2="97" class="net_4"/>
  <line x1="245" x2="245" y1="97" y2="1889" class="net_4"/>
  <circle cx="245" cy="1889" r="2" style="fill:#000" class="net_4"/>
  <line x1="245" x2="324" y1="1889" y2="1889" class="net_4"/>
  <line x1="112.5" x2="112.5" y1="292.5" y2="185" class="net_15"/>
  <line x1="112.5" x2="318" y1="185" y2="185" class="net_15"/>
  <line x1="113" x2="318" y1="313" y2="313" class="net_16"/>
  <line x1="113" x2="235" y1="333" y2="333" class="net_17"/>
  <line x1="235" x2="235" y1="333" y2="441" class="net_17"/>
  <line x1="235" x2="318" y1="441" y2="441" class="net_17"/>
  <line x1="113" x2="225" y1="353" y2="353" class="net_18"/>
  <line x1="225" x2="225" y1="353" y2="569" class="net_18"/>
  <line x1="225" x2="318" y1="569" y2="569" class="net_18"/>
  <line x1="113" x2="215" y1="373" y2="373" class="net_19"/>
  <line x1="215" x2="215" y1="373" y2="697" class="net_19"/>
  <line x1="215" x2="318" y1="697" y2="697" class="net_19"/>
  <line x1="113" x2="205" y1="393" y2="393" class="net_20"/>
  <line x1="205" x2="205" y1="393" y2="825" class="net_20"/>
  <line x1="205" x2="318" y1="825" y2="825" class="net_20"/>
  <line x1="113" x2="195" y1="413" y2="413" class="net_6"/>
  <line x1="195" x2="195" y1="413" y2="953" class="net_6"/>
  <line x1="195" x2="324" y1="953" y2="953" class="net_6"/>
  <line x1="113" x2="185" y1="433" y2="433" class="net_7"/>
  <line x1="185" x2="185" y1="433" y2="1081" class="net_7"/>
  <line x1="185" x2="324" y1="1081" y2="1081" class="net_7"/>
  <line x1="113" x2="175" y1="453" y2="453" class="net_8"/>
  <line x1="175" x2="175" y1="453" y2="1209" class="net_8"/>
  <line x1="175" x2="324" y1="1209" y2="1209" class="net_8"/>
  <line x1="113" x2="165" y1="473" y2="473" class="net_9"/>
  <line x1="165" x2="165" y1="473" y2="1337" class="net_9"/>
  <line x1="165" x2="324" y1="1337" y2="1337" class="net_9"/>
  <line x1="113" x2="155" y1="493" y2="493" class="net_10"/>
  <line x1="155" x2="155" y1="493" y2="1465" class="net_10"/>
  <line x1="155" x2="324" y1="1465" y2="1465" class="net_10"/>
  <line x1="113" x2="145" y1="513" y2="513" class="net_11"/>
  <line x1="145" x2="145" y1="513" y2="1593" class="net_11"/>
  <line x1="145" x2="324" y1="1593" y2="1593" class="net_11"/>
  <line x1="113" x2="135" y1="533" y2="533" class="net_12"/>
  <line x1="135" x2="135" y1="533" y2="1721" class="net_12"/>
  <line x1="135" x2="324" y1="1721" y2="1721" class="net_12"/>
  <line x1="112.5" x2="112.5" y1="553.5" y2="1977" class="net_13"/>
  <line x1="112.5" x2="324" y1="1977" y2="1977" class="net_13"/>
  <line x1="112.5" x2="112.5" y1="573.5" y2="1849" class="net_14"/>
  <line x1="112.5" x2="324" y1="1849" y2="1849" class="net_14"/>
  <line x1="629" x2="664" y1="1139" y2="1139" class="net_21,22,23,24,25,26,27,28,29,30,31,32,33,34,35,36"/>
  <line x1="355" x2="623.5" y1="37" y2="37" class="net_21"/>
  <line x1="623.5" x2="623.5" y1="37" y2="1128.5" class="net_21"/>
  <line x1="355" x2="623.5" y1="933" y2="933" class="net_22"/>
  <line x1="623.5" x2="623.5" y1="933" y2="1148.5" class="net_22"/>
  <line x1="355" x2="586" y1="1061" y2="1061" class="net_23"/>
  <line x1="586" x2="586" y1="1061" y2="1169" class="net_23"/>
  <line x1="586" x2="623" y1="1169" y2="1169" class="net_23"/>
  <line x1="355" x2="623" y1="1189" y2="1189" class="net_24"/>
  <line x1="355" x2="516" y1="1317" y2="1317" class="net_25"/>
  <line x1="516" x2="516" y1="1317" y2="1209" class="net_25"/>
  <line x1="516" x2="623" y1="1209" y2="1209" class="net_25"/>
  <line x1="355" x2="526" y1="1445" y2="1445" class="net_26"/>
  <line x1="526" x2="526" y1="1445" y2="1229" class="net_26"/>
  <line x1="526" x2="623" y1="1229" y2="1229" class="net_26"/>
  <line x1="355" x2="546" y1="1573" y2="1573" class="net_27"/>
  <line x1="546" x2="546" y1="1573" y2="1249" class="net_27"/>
  <line x1="546" x2="623" y1="1249" y2="1249" class="net_27"/>
  <line x1="355" x2="566" y1="1701" y2="1701" class="net_28"/>
  <line x1="566" x2="566" y1="1701" y2="1269" class="net_28"/>
  <line x1="566" x2="623" y1="1269" y2="1269" class="net_28"/>
  <line x1="355" x2="586" y1="1957" y2="1957" class="net_29"/>
  <line x1="586" x2="586" y1="1957" y2="1289" class="net_29"/>
  <line x1="586" x2="623" y1="1289" y2="1289" class="net_29"/>
  <line x1="355" x2="596" y1="1829" y2="1829" class="net_30"/>
  <line x1="596" x2="596" y1="1829" y2="1309" class="net_30"/>
  <line x1="596" x2="623" y1="1309" y2="1309" class="net_30"/>
  <line x1="349" x2="606" y1="165" y2="165" class="net_31"/>
  <line x1="606" x2="606" y1="165" y2="1329" class="net_31"/>
  <line x1="606" x2="623" y1="1329" y2="1329" class="net_31"/>
  <line x1="349" x2="576" y1="293" y2="293" class="net_32"/>
  <line x1="576" x2="576" y1="293" y2="1349" class="net_32"/>
  <line x1="576" x2="623" y1="1349" y2="1349" class="net_32"/>
  <line x1="349" x2="556" y1="421" y2="421" class="net_33"/>
  <line x1="556" x2="556" y1="421" y2="1369" class="net_33"/>
  <line x1="556" x2="623" y1="1369" y2="1369" class="net_33"/>
  <line x1="349" x2="536" y1="549" y2="549" class="net_34"/>
  <line x1="536" x2="536" y1="549" y2="1389" class="net_34"/>
  <line x1="536" x2="623" y1="1389" y2="1389" class="net_34"/>
  <line x1="349" x2="496" y1="677" y2="677" class="net_35"/>
  <line x1="496" x2="496" y1="677" y2="1458.5" class="net_35"/>
  <line x1="496" x2="623.5" y1="1458.5" y2="1458.5" class="net_35"/>
  <line x1="623.5" x2="623.5" y1="1458.5" y2="1409.5" class="net_35"/>
  <line x1="349" x2="506" y1="805" y2="805" class="net_36"/>
  <line x1="506" x2="506" y1="805" y2="1448.5" class="net_36"/>
  <line x1="506" x2="623.5" y1="1448.5" y2="1448.5" class="net_36"/>
  <line x1="623.5" x2="623.5" y1="1448.5" y2="1429.5" class="net_36"/>
  <line x1="40" x2="108.5" y1="195" y2="195" class="net_5,6,7,8,9,10,11,12,13,14,15,16,17,18,19,20"/>
  <line x1="108.5" x2="108.5" y1="195" y2="282.5" class="net_5,6,7,8,9,10,11,12,13,14,15,16,17,18,19,20"/>
</svg>
