<svg xmlns="http://www.w3.org/2000/svg" xmlns:xlink="http://www.w3.org/1999/xlink" xmlns:s="https://github.com/nturley/netlistsvg" width="287" height="164">
  <style>svg {
    stroke:#000;
    fill:none;
  }
  text {
    fill:#000;
    stroke:none;
    font-size:10px;
    font-weight: bold;
    font-family: "Courier New", monospace;
  }
  .nodelabel {
    text-anchor: middle;
  }
  .inputPortLabel {
    text-anchor: end;
  }
  .splitjoinBody {
    fill:#000;
  }</style>
  <g s:type="inputExt" transform="translate(12,132)" s:width="30" s:height="20" id="cell_i_imm_part">
    <text x="15" y="-4" class="nodelabel cell_i_imm_part" s:attribute="ref">i_imm_part</text>
    <s:alias val="$_inputExt_"/>
    <path d="M0,0 L0,20 L15,20 L30,10 L15,0 Z" class="cell_i_imm_part"/>
    <g s:x="28" s:y="10" s:pid="Y"/>
  </g>
  <g s:type="outputExt" transform="translate(221,34.5)" s:width="30" s:height="20" id="cell_o_imm_ext">
    <text x="15" y="-4" class="nodelabel cell_o_imm_ext" s:attribute="ref">o_imm_ext</text>
    <s:alias val="$_outputExt_"/>
    <path d="M30,0 L30,20 L15,20 L0,10 L15,0 Z" class="cell_o_imm_ext"/>
    <g s:x="0" s:y="10" s:pid="A"/>
  </g>
  <g s:type="join" transform="translate(160,24)" s:width="4" s:height="40" id="cell_$join$,2,3,4,5,6,7,8,9,10,11,12,13,13,13,13,13,">
    <rect width="5" height="100" class="splitjoinBody" s:generic="body"/>
    <s:alias val="$_join_"/>
    <g s:x="5" s:y="20" s:pid="out"/>
    <g transform="translate(0,10)" s:x="0" s:y="10" s:pid="in0">
      <text x="-3" y="-4" class="inputPortLabel">0:11</text>
    </g>
    <g transform="translate(0,30)" s:x="0" s:y="10" s:pid="in0">
      <text x="-3" y="-4" class="inputPortLabel">12</text>
    </g>
    <g transform="translate(0,50)" s:x="0" s:y="10" s:pid="in0">
      <text x="-3" y="-4" class="inputPortLabel">13</text>
    </g>
    <g transform="translate(0,70)" s:x="0" s:y="10" s:pid="in0">
      <text x="-3" y="-4" class="inputPortLabel">14</text>
    </g>
    <g transform="translate(0,90)" s:x="0" s:y="10" s:pid="in0">
      <text x="-3" y="-4" class="inputPortLabel">15</text>
    </g>
  </g>
  <g s:type="split" transform="translate(107,84)" s:width="5" s:height="40" id="cell_$split$,2,3,4,5,6,7,8,9,10,11,12,13,">
    <rect width="5" height="20" class="splitjoinBody" s:generic="body"/>
    <s:alias val="$_split_"/>
    <g s:x="0" s:y="20" s:pid="in"/>
    <g transform="translate(4,10)" s:x="4" s:y="10" s:pid="out0">
      <text x="5" y="-4">11</text>
    </g>
  </g>
  <line x1="166" x2="221" y1="44.5" y2="44.5" class="net_2,3,4,5,6,7,8,9,10,11,12,13,13,13,13,13"/>
  <line x1="40" x2="82" y1="142" y2="142" class="net_2,3,4,5,6,7,8,9,10,11,12,13"/>
  <line x1="82" x2="82" y1="142" y2="12" class="net_2,3,4,5,6,7,8,9,10,11,12,13"/>
  <line x1="82" x2="160.5" y1="12" y2="12" class="net_2,3,4,5,6,7,8,9,10,11,12,13"/>
  <circle cx="82" cy="142" r="2" style="fill:#000" class="net_2,3,4,5,6,7,8,9,10,11,12,13"/>
  <line x1="160.5" x2="160.5" y1="12" y2="34" class="net_2,3,4,5,6,7,8,9,10,11,12,13"/>
  <line x1="40" x2="107.5" y1="142" y2="142" class="net_2,3,4,5,6,7,8,9,10,11,12,13"/>
  <line x1="107.5" x2="107.5" y1="142" y2="105" class="net_2,3,4,5,6,7,8,9,10,11,12,13"/>
  <line x1="112" x2="135" y1="94.5" y2="94.5" class="net_13"/>
  <line x1="135" x2="135" y1="94.5" y2="54.5" class="net_13"/>
  <circle cx="135" cy="94.5" r="2" style="fill:#000" class="net_13"/>
  <line x1="135" x2="160" y1="54.5" y2="54.5" class="net_13"/>
  <line x1="112" x2="135" y1="94.5" y2="94.5" class="net_13"/>
  <line x1="135" x2="135" y1="94.5" y2="74.5" class="net_13"/>
  <circle cx="135" cy="74.5" r="2" style="fill:#000" class="net_13"/>
  <line x1="135" x2="160" y1="74.5" y2="74.5" class="net_13"/>
  <line x1="112" x2="160" y1="94.5" y2="94.5" class="net_13"/>
  <line x1="112" x2="135" y1="94.5" y2="94.5" class="net_13"/>
  <line x1="135" x2="135" y1="94.5" y2="134" class="net_13"/>
  <line x1="135" x2="160.5" y1="134" y2="134" class="net_13"/>
  <line x1="160.5" x2="160.5" y1="134" y2="115" class="net_13"/>
</svg>
