<svg xmlns="http://www.w3.org/2000/svg" xmlns:xlink="http://www.w3.org/1999/xlink" xmlns:s="https://github.com/nturley/netlistsvg" width="622" height="462">
  <style>svg {
    stroke:#000;
    fill:none;
  }
  text {
    fill:#000;
    stroke:none;
    font-size:10px;
    font-weight: bold;
    font-family: "Courier New", monospace;
  }
  .nodelabel {
    text-anchor: middle;
  }
  .inputPortLabel {
    text-anchor: end;
  }
  .splitjoinBody {
    fill:#000;
  }</style>
  <g s:type="generic" transform="translate(234.5,362)" s:width="30" s:height="40" id="cell_u_adapter_12bit">
    <text x="15" y="-4" class="nodelabel cell_u_adapter_12bit" s:attribute="ref">imm_extender_adapter_12bit</text>
    <rect width="30" height="20" s:generic="body" class="cell_u_adapter_12bit"/>
    <g transform="translate(0,10)" s:x="0" s:y="10" s:pid="in0" id="port_u_adapter_12bit~i_imm_part">
      <text x="-3" y="-4" class="inputPortLabel cell_u_adapter_12bit">i_imm_part</text>
    </g>
    <g transform="translate(30,10)" s:x="30" s:y="10" s:pid="out0" id="port_u_adapter_12bit~o_imm_ext">
      <text x="5" y="-4" style="fill:#000; stroke:none" class="cell_u_adapter_12bit">o_imm_ext</text>
    </g>
  </g>
  <g s:type="generic" transform="translate(234.5,22)" s:width="30" s:height="40" id="cell_u_adapter_4bit">
    <text x="15" y="-4" class="nodelabel cell_u_adapter_4bit" s:attribute="ref">imm_extender_adapter_4bit</text>
    <rect width="30" height="20" s:generic="body" class="cell_u_adapter_4bit"/>
    <g transform="translate(0,10)" s:x="0" s:y="10" s:pid="in0" id="port_u_adapter_4bit~i_imm_part">
      <text x="-3" y="-4" class="inputPortLabel cell_u_adapter_4bit">i_imm_part</text>
    </g>
    <g transform="translate(30,10)" s:x="30" s:y="10" s:pid="out0" id="port_u_adapter_4bit~o_imm_ext">
      <text x="5" y="-4" style="fill:#000; stroke:none" class="cell_u_adapter_4bit">o_imm_ext</text>
    </g>
  </g>
  <g s:type="generic" transform="translate(226,90)" s:width="30" s:height="40" id="cell_u_adapter_4bit_shl4">
    <text x="15" y="-4" class="nodelabel cell_u_adapter_4bit_shl4" s:attribute="ref">imm_extender_adapter_4bit_shl4</text>
    <rect width="30" height="20" s:generic="body" class="cell_u_adapter_4bit_shl4"/>
    <g transform="translate(0,10)" s:x="0" s:y="10" s:pid="in0" id="port_u_adapter_4bit_shl4~i_imm_part">
      <text x="-3" y="-4" class="inputPortLabel cell_u_adapter_4bit_shl4">i_imm_part</text>
    </g>
    <g transform="translate(30,10)" s:x="30" s:y="10" s:pid="out0" id="port_u_adapter_4bit_shl4~o_imm_ext">
      <text x="5" y="-4" style="fill:#000; stroke:none" class="cell_u_adapter_4bit_shl4">o_imm_ext</text>
    </g>
  </g>
  <g s:type="generic" transform="translate(220,158)" s:width="30" s:height="40" id="cell_u_adapter_4bit_store">
    <text x="15" y="-4" class="nodelabel cell_u_adapter_4bit_store" s:attribute="ref">imm_extender_adapter_4bit_store</text>
    <rect width="30" height="20" s:generic="body" class="cell_u_adapter_4bit_store"/>
    <g transform="translate(0,10)" s:x="0" s:y="10" s:pid="in0" id="port_u_adapter_4bit_store~i_imm_part">
      <text x="-3" y="-4" class="inputPortLabel cell_u_adapter_4bit_store">i_imm_part</text>
    </g>
    <g transform="translate(30,10)" s:x="30" s:y="10" s:pid="out0" id="port_u_adapter_4bit_store~o_imm_ext">
      <text x="5" y="-4" style="fill:#000; stroke:none" class="cell_u_adapter_4bit_store">o_imm_ext</text>
    </g>
  </g>
  <g s:type="generic" transform="translate(234.5,226)" s:width="30" s:height="40" id="cell_u_adapter_8bit">
    <text x="15" y="-4" class="nodelabel cell_u_adapter_8bit" s:attribute="ref">imm_extender_adapter_8bit</text>
    <rect width="30" height="20" s:generic="body" class="cell_u_adapter_8bit"/>
    <g transform="translate(0,10)" s:x="0" s:y="10" s:pid="in0" id="port_u_adapter_8bit~i_imm_part">
      <text x="-3" y="-4" class="inputPortLabel cell_u_adapter_8bit">i_imm_part</text>
    </g>
    <g transform="translate(30,10)" s:x="30" s:y="10" s:pid="out0" id="port_u_adapter_8bit~o_imm_ext">
      <text x="5" y="-4" style="fill:#000; stroke:none" class="cell_u_adapter_8bit">o_imm_ext</text>
    </g>
  </g>
  <g s:type="generic" transform="translate(226,294)" s:width="30" s:height="40" id="cell_u_adapter_8bit_shl8">
    <text x="15" y="-4" class="nodelabel cell_u_adapter_8bit_shl8" s:attribute="ref">imm_extender_adapter_8bit_shl8</text>
    <rect width="30" height="20" s:generic="body" class="cell_u_adapter_8bit_shl8"/>
    <g transform="translate(0,10)" s:x="0" s:y="10" s:pid="in0" id="port_u_adapter_8bit_shl8~i_imm_part">
      <text x="-3" y="-4" class="inputPortLabel cell_u_adapter_8bit_shl8">i_imm_part</text>
    </g>
    <g transform="translate(30,10)" s:x="30" s:y="10" s:pid="out0" id="port_u_adapter_8bit_shl8~o_imm_ext">
      <text x="5" y="-4" style="fill:#000; stroke:none" class="cell_u_adapter_8bit_shl8">o_imm_ext</text>
    </g>
  </g>
  <g s:type="generic" transform="translate(423,166)" s:width="30" s:height="40" id="cell_u_imm_mux">
    <text x="15" y="-4" class="nodelabel cell_u_imm_mux" s:attribute="ref">imm_extender_mux_6to1_nbit</text>
    <rect width="30" height="140" s:generic="body" class="cell_u_imm_mux"/>
    <g transform="translate(0,10)" s:x="0" s:y="10" s:pid="in0" id="port_u_imm_mux~i_data0">
      <text x="-3" y="-4" class="inputPortLabel cell_u_imm_mux">i_data0</text>
    </g>
    <g transform="translate(0,30)" s:x="0" s:y="10" s:pid="in0" id="port_u_imm_mux~i_data1">
      <text x="-3" y="-4" class="inputPortLabel cell_u_imm_mux">i_data1</text>
    </g>
    <g transform="translate(0,50)" s:x="0" s:y="10" s:pid="in0" id="port_u_imm_mux~i_data2">
      <text x="-3" y="-4" class="inputPortLabel cell_u_imm_mux">i_data2</text>
    </g>
    <g transform="translate(0,70)" s:x="0" s:y="10" s:pid="in0" id="port_u_imm_mux~i_data3">
      <text x="-3" y="-4" class="inputPortLabel cell_u_imm_mux">i_data3</text>
    </g>
    <g transform="translate(0,90)" s:x="0" s:y="10" s:pid="in0" id="port_u_imm_mux~i_data4">
      <text x="-3" y="-4" class="inputPortLabel cell_u_imm_mux">i_data4</text>
    </g>
    <g transform="translate(0,110)" s:x="0" s:y="10" s:pid="in0" id="port_u_imm_mux~i_data5">
      <text x="-3" y="-4" class="inputPortLabel cell_u_imm_mux">i_data5</text>
    </g>
    <g transform="translate(0,130)" s:x="0" s:y="10" s:pid="in0" id="port_u_imm_mux~i_sel">
      <text x="-3" y="-4" class="inputPortLabel cell_u_imm_mux">i_sel</text>
    </g>
    <g transform="translate(30,10)" s:x="30" s:y="10" s:pid="out0" id="port_u_imm_mux~o_data">
      <text x="5" y="-4" style="fill:#000; stroke:none" class="cell_u_imm_mux">o_data</text>
    </g>
  </g>
  <g s:type="inputExt" transform="translate(12,372.5)" s:width="30" s:height="20" id="cell_i_instr">
    <text x="15" y="-4" class="nodelabel cell_i_instr" s:attribute="ref">i_instr</text>
    <s:alias val="$_inputExt_"/>
    <path d="M0,0 L0,20 L15,20 L30,10 L15,0 Z" class="cell_i_instr"/>
    <g s:x="28" s:y="10" s:pid="Y"/>
  </g>
  <g s:type="inputExt" transform="translate(220,430)" s:width="30" s:height="20" id="cell_i_imm_type">
    <text x="15" y="-4" class="nodelabel cell_i_imm_type" s:attribute="ref">i_imm_type</text>
    <s:alias val="$_inputExt_"/>
    <path d="M0,0 L0,20 L15,20 L30,10 L15,0 Z" class="cell_i_imm_type"/>
    <g s:x="28" s:y="10" s:pid="Y"/>
  </g>
  <g s:type="outputExt" transform="translate(526,166.5)" s:width="30" s:height="20" id="cell_o_imm_extended">
    <text x="15" y="-4" class="nodelabel cell_o_imm_extended" s:attribute="ref">o_imm_extended</text>
    <s:alias val="$_outputExt_"/>
    <path d="M30,0 L30,20 L15,20 L0,10 L15,0 Z" class="cell_o_imm_extended"/>
    <g s:x="0" s:y="10" s:pid="A"/>
  </g>
  <g s:type="split" transform="translate(89,362)" s:width="5" s:height="40" id="cell_$split$,2,3,4,5,6,7,8,9,10,11,12,13,14,15,16,17,">
    <rect width="5" height="80" class="splitjoinBody" s:generic="body"/>
    <s:alias val="$_split_"/>
    <g s:x="0" s:y="20" s:pid="in"/>
    <g transform="translate(4,10)" s:x="4" s:y="10" s:pid="out0">
      <text x="5" y="-4">4:15</text>
    </g>
    <g transform="translate(4,30)" s:x="4" s:y="10" s:pid="out0">
      <text x="5" y="-4">12:15</text>
    </g>
    <g transform="translate(4,50)" s:x="4" s:y="10" s:pid="out0">
      <text x="5" y="-4">4:7</text>
    </g>
    <g transform="translate(4,70)" s:x="4" s:y="10" s:pid="out0">
      <text x="5" y="-4">8:15</text>
    </g>
  </g>
  <line x1="94" x2="234.5" y1="372.5" y2="372.5" class="net_6,7,8,9,10,11,12,13,14,15,16,17"/>
  <line x1="94" x2="129" y1="392.5" y2="392.5" class="net_14,15,16,17"/>
  <line x1="129" x2="129" y1="392.5" y2="32.5" class="net_14,15,16,17"/>
  <line x1="129" x2="234.5" y1="32.5" y2="32.5" class="net_14,15,16,17"/>
  <line x1="94" x2="129" y1="392.5" y2="392.5" class="net_14,15,16,17"/>
  <line x1="129" x2="129" y1="392.5" y2="100.5" class="net_14,15,16,17"/>
  <circle cx="129" cy="100.5" r="2" style="fill:#000" class="net_14,15,16,17"/>
  <line x1="129" x2="226" y1="100.5" y2="100.5" class="net_14,15,16,17"/>
  <line x1="94" x2="139" y1="412.5" y2="412.5" class="net_6,7,8,9"/>
  <line x1="139" x2="139" y1="412.5" y2="168.5" class="net_6,7,8,9"/>
  <line x1="139" x2="220" y1="168.5" y2="168.5" class="net_6,7,8,9"/>
  <line x1="94" x2="149" y1="432.5" y2="432.5" class="net_10,11,12,13,14,15,16,17"/>
  <line x1="149" x2="149" y1="432.5" y2="236.5" class="net_10,11,12,13,14,15,16,17"/>
  <line x1="149" x2="234.5" y1="236.5" y2="236.5" class="net_10,11,12,13,14,15,16,17"/>
  <line x1="94" x2="149" y1="432.5" y2="432.5" class="net_10,11,12,13,14,15,16,17"/>
  <line x1="149" x2="149" y1="432.5" y2="304.5" class="net_10,11,12,13,14,15,16,17"/>
  <circle cx="149" cy="304.5" r="2" style="fill:#000" class="net_10,11,12,13,14,15,16,17"/>
  <line x1="149" x2="226" y1="304.5" y2="304.5" class="net_10,11,12,13,14,15,16,17"/>
  <line x1="265.5" x2="370" y1="32.5" y2="32.5" class="net_53,54,55,56,57,58,59,60,61,62,63,64,65,66,67,68"/>
  <line x1="370" x2="370" y1="32.5" y2="176.5" class="net_53,54,55,56,57,58,59,60,61,62,63,64,65,66,67,68"/>
  <line x1="370" x2="423" y1="176.5" y2="176.5" class="net_53,54,55,56,57,58,59,60,61,62,63,64,65,66,67,68"/>
  <line x1="257" x2="360" y1="100.5" y2="100.5" class="net_69,70,71,72,73,74,75,76,77,78,79,80,81,82,83,84"/>
  <line x1="360" x2="360" y1="100.5" y2="196.5" class="net_69,70,71,72,73,74,75,76,77,78,79,80,81,82,83,84"/>
  <line x1="360" x2="423" y1="196.5" y2="196.5" class="net_69,70,71,72,73,74,75,76,77,78,79,80,81,82,83,84"/>
  <line x1="251" x2="350" y1="168.5" y2="168.5" class="net_85,86,87,88,89,90,91,92,93,94,95,96,97,98,99,100"/>
  <line x1="350" x2="350" y1="168.5" y2="216.5" class="net_85,86,87,88,89,90,91,92,93,94,95,96,97,98,99,100"/>
  <line x1="350" x2="423" y1="216.5" y2="216.5" class="net_85,86,87,88,89,90,91,92,93,94,95,96,97,98,99,100"/>
  <line x1="265.5" x2="423" y1="236.5" y2="236.5" class="net_101,102,103,104,105,106,107,108,109,110,111,112,113,114,115,116"/>
  <line x1="257" x2="350" y1="304.5" y2="304.5" class="net_117,118,119,120,121,122,123,124,125,126,127,128,129,130,131,132"/>
  <line x1="350" x2="350" y1="304.5" y2="256.5" class="net_117,118,119,120,121,122,123,124,125,126,127,128,129,130,131,132"/>
  <line x1="350" x2="423" y1="256.5" y2="256.5" class="net_117,118,119,120,121,122,123,124,125,126,127,128,129,130,131,132"/>
  <line x1="265.5" x2="360" y1="372.5" y2="372.5" class="net_37,38,39,40,41,42,43,44,45,46,47,48,49,50,51,52"/>
  <line x1="360" x2="360" y1="372.5" y2="276.5" class="net_37,38,39,40,41,42,43,44,45,46,47,48,49,50,51,52"/>
  <line x1="360" x2="423" y1="276.5" y2="276.5" class="net_37,38,39,40,41,42,43,44,45,46,47,48,49,50,51,52"/>
  <line x1="248" x2="370" y1="440" y2="440" class="net_18,19,20"/>
  <line x1="370" x2="370" y1="440" y2="296.5" class="net_18,19,20"/>
  <line x1="370" x2="423" y1="296.5" y2="296.5" class="net_18,19,20"/>
  <line x1="454" x2="526" y1="176.5" y2="176.5" class="net_21,22,23,24,25,26,27,28,29,30,31,32,33,34,35,36"/>
  <line x1="40" x2="89" y1="382.5" y2="382.5" class="net_2,3,4,5,6,7,8,9,10,11,12,13,14,15,16,17"/>
</svg>
