<svg xmlns="http://www.w3.org/2000/svg" xmlns:xlink="http://www.w3.org/1999/xlink" xmlns:s="https://github.com/nturley/netlistsvg" width="233" height="184">
  <style>svg {
    stroke:#000;
    fill:none;
  }
  text {
    fill:#000;
    stroke:none;
    font-size:10px;
    font-weight: bold;
    font-family: "Courier New", monospace;
  }
  .nodelabel {
    text-anchor: middle;
  }
  .inputPortLabel {
    text-anchor: end;
  }
  .splitjoinBody {
    fill:#000;
  }</style>
  <g s:type="inputExt" transform="translate(12,87)" s:width="30" s:height="20" id="cell_i_imm_part">
    <text x="15" y="-4" class="nodelabel cell_i_imm_part" s:attribute="ref">i_imm_part</text>
    <s:alias val="$_inputExt_"/>
    <path d="M0,0 L0,20 L15,20 L30,10 L15,0 Z" class="cell_i_imm_part"/>
    <g s:x="28" s:y="10" s:pid="Y"/>
  </g>
  <g s:type="outputExt" transform="translate(167,77)" s:width="30" s:height="20" id="cell_o_imm_ext">
    <text x="15" y="-4" class="nodelabel cell_o_imm_ext" s:attribute="ref">o_imm_ext</text>
    <s:alias val="$_outputExt_"/>
    <path d="M30,0 L30,20 L15,20 L0,10 L15,0 Z" class="cell_o_imm_ext"/>
    <g s:x="0" s:y="10" s:pid="A"/>
  </g>
  <g s:type="constant" transform="translate(12,22)" s:width="30" s:height="20" id="cell_0000">
    <text x="15" y="-4" class="nodelabel cell_0000" s:attribute="ref">0x0</text>
    <s:alias val="$_constant_"/>
    <rect width="30" height="20" class="cell_0000"/>
    <g s:x="30" s:y="10" s:pid="Y"/>
  </g>
  <g s:type="constant" transform="translate(12,152)" s:width="30" s:height="20" id="cell_00000000">
    <text x="15" y="-4" class="nodelabel cell_00000000" s:attribute="ref">0x0</text>
    <s:alias val="$_constant_"/>
    <rect width="30" height="20" class="cell_00000000"/>
    <g s:x="30" s:y="10" s:pid="Y"/>
  </g>
  <g s:type="join" transform="translate(126,66.5)" s:width="4" s:height="40" id="cell_$join$,6,7,8,9,2,3,4,5,10,11,12,13,14,15,16,17,">
    <rect width="5" height="60" class="splitjoinBody" s:generic="body"/>
    <s:alias val="$_join_"/>
    <g s:x="5" s:y="20" s:pid="out"/>
    <g transform="translate(0,10)" s:x="0" s:y="10" s:pid="in0">
      <text x="-3" y="-4" class="inputPortLabel">0:3</text>
    </g>
    <g transform="translate(0,30)" s:x="0" s:y="10" s:pid="in0">
      <text x="-3" y="-4" class="inputPortLabel">4:7</text>
    </g>
    <g transform="translate(0,50)" s:x="0" s:y="10" s:pid="in0">
      <text x="-3" y="-4" class="inputPortLabel">8:15</text>
    </g>
  </g>
  <line x1="132" x2="167" y1="87" y2="87" class="net_6,7,8,9,2,3,4,5,10,11,12,13,14,15,16,17"/>
  <line x1="42" x2="82" y1="32" y2="32" class="net_6,7,8,9"/>
  <line x1="82" x2="82" y1="32" y2="77" class="net_6,7,8,9"/>
  <line x1="82" x2="126" y1="77" y2="77" class="net_6,7,8,9"/>
  <line x1="40" x2="126" y1="97" y2="97" class="net_2,3,4,5"/>
  <line x1="42" x2="82" y1="162" y2="162" class="net_10,11,12,13,14,15,16,17"/>
  <line x1="82" x2="82" y1="162" y2="117" class="net_10,11,12,13,14,15,16,17"/>
  <line x1="82" x2="126" y1="117" y2="117" class="net_10,11,12,13,14,15,16,17"/>
</svg>
