<svg xmlns="http://www.w3.org/2000/svg" xmlns:xlink="http://www.w3.org/1999/xlink" xmlns:s="https://github.com/nturley/netlistsvg" width="275" height="244">
  <style>svg {
    stroke:#000;
    fill:none;
  }
  text {
    fill:#000;
    stroke:none;
    font-size:10px;
    font-weight: bold;
    font-family: "Courier New", monospace;
  }
  .nodelabel {
    text-anchor: middle;
  }
  .inputPortLabel {
    text-anchor: end;
  }
  .splitjoinBody {
    fill:#000;
  }</style>
  <g s:type="inputExt" transform="translate(12,212)" s:width="30" s:height="20" id="cell_i_imm_part">
    <text x="15" y="-4" class="nodelabel cell_i_imm_part" s:attribute="ref">i_imm_part</text>
    <s:alias val="$_inputExt_"/>
    <path d="M0,0 L0,20 L15,20 L30,10 L15,0 Z" class="cell_i_imm_part"/>
    <g s:x="28" s:y="10" s:pid="Y"/>
  </g>
  <g s:type="outputExt" transform="translate(209,34.5)" s:width="30" s:height="20" id="cell_o_imm_ext">
    <text x="15" y="-4" class="nodelabel cell_o_imm_ext" s:attribute="ref">o_imm_ext</text>
    <s:alias val="$_outputExt_"/>
    <path d="M30,0 L30,20 L15,20 L0,10 L15,0 Z" class="cell_o_imm_ext"/>
    <g s:x="0" s:y="10" s:pid="A"/>
  </g>
  <g s:type="join" transform="translate(154,24)" s:width="4" s:height="40" id="cell_$join$,2,3,4,5,6,7,8,9,9,9,9,9,9,9,9,9,">
    <rect width="5" height="180" class="splitjoinBody" s:generic="body"/>
    <s:alias val="$_join_"/>
    <g s:x="5" s:y="20" s:pid="out"/>
    <g transform="translate(0,10)" s:x="0" s:y="10" s:pid="in0">
      <text x="-3" y="-4" class="inputPortLabel">0:7</text>
    </g>
    <g transform="translate(0,30)" s:x="0" s:y="10" s:pid="in0">
      <text x="-3" y="-4" class="inputPortLabel">8</text>
    </g>
    <g transform="translate(0,50)" s:x="0" s:y="10" s:pid="in0">
      <text x="-3" y="-4" class="inputPortLabel">9</text>
    </g>
    <g transform="translate(0,70)" s:x="0" s:y="10" s:pid="in0">
      <text x="-3" y="-4" class="inputPortLabel">10</text>
    </g>
    <g transform="translate(0,90)" s:x="0" s:y="10" s:pid="in0">
      <text x="-3" y="-4" class="inputPortLabel">11</text>
    </g>
    <g transform="translate(0,110)" s:x="0" s:y="10" s:pid="in0">
      <text x="-3" y="-4" class="inputPortLabel">12</text>
    </g>
    <g transform="translate(0,130)" s:x="0" s:y="10" s:pid="in0">
      <text x="-3" y="-4" class="inputPortLabel">13</text>
    </g>
    <g transform="translate(0,150)" s:x="0" s:y="10" s:pid="in0">
      <text x="-3" y="-4" class="inputPortLabel">14</text>
    </g>
    <g transform="translate(0,170)" s:x="0" s:y="10" s:pid="in0">
      <text x="-3" y="-4" class="inputPortLabel">15</text>
    </g>
  </g>
  <g s:type="split" transform="translate(107,164)" s:width="5" s:height="40" id="cell_$split$,2,3,4,5,6,7,8,9,">
    <rect width="5" height="20" class="splitjoinBody" s:generic="body"/>
    <s:alias val="$_split_"/>
    <g s:x="0" s:y="20" s:pid="in"/>
    <g transform="translate(4,10)" s:x="4" s:y="10" s:pid="out0">
      <text x="5" y="-4">7</text>
    </g>
  </g>
  <line x1="160" x2="209" y1="44.5" y2="44.5" class="net_2,3,4,5,6,7,8,9,9,9,9,9,9,9,9,9"/>
  <line x1="40" x2="82" y1="222" y2="222" class="net_2,3,4,5,6,7,8,9"/>
  <line x1="82" x2="82" y1="222" y2="12" class="net_2,3,4,5,6,7,8,9"/>
  <line x1="82" x2="154.5" y1="12" y2="12" class="net_2,3,4,5,6,7,8,9"/>
  <circle cx="82" cy="222" r="2" style="fill:#000" class="net_2,3,4,5,6,7,8,9"/>
  <line x1="154.5" x2="154.5" y1="12" y2="34" class="net_2,3,4,5,6,7,8,9"/>
  <line x1="40" x2="107.5" y1="222" y2="222" class="net_2,3,4,5,6,7,8,9"/>
  <line x1="107.5" x2="107.5" y1="222" y2="185" class="net_2,3,4,5,6,7,8,9"/>
  <line x1="112" x2="129" y1="174.5" y2="174.5" class="net_9"/>
  <line x1="129" x2="129" y1="174.5" y2="54.5" class="net_9"/>
  <circle cx="129" cy="174.5" r="2" style="fill:#000" class="net_9"/>
  <line x1="129" x2="154" y1="54.5" y2="54.5" class="net_9"/>
  <line x1="112" x2="129" y1="174.5" y2="174.5" class="net_9"/>
  <line x1="129" x2="129" y1="174.5" y2="74.5" class="net_9"/>
  <circle cx="129" cy="74.5" r="2" style="fill:#000" class="net_9"/>
  <line x1="129" x2="154" y1="74.5" y2="74.5" class="net_9"/>
  <line x1="112" x2="129" y1="174.5" y2="174.5" class="net_9"/>
  <line x1="129" x2="129" y1="174.5" y2="94.5" class="net_9"/>
  <circle cx="129" cy="94.5" r="2" style="fill:#000" class="net_9"/>
  <line x1="129" x2="154" y1="94.5" y2="94.5" class="net_9"/>
  <line x1="112" x2="129" y1="174.5" y2="174.5" class="net_9"/>
  <line x1="129" x2="129" y1="174.5" y2="114.5" class="net_9"/>
  <circle cx="129" cy="114.5" r="2" style="fill:#000" class="net_9"/>
  <line x1="129" x2="154" y1="114.5" y2="114.5" class="net_9"/>
  <line x1="112" x2="129" y1="174.5" y2="174.5" class="net_9"/>
  <line x1="129" x2="129" y1="174.5" y2="134.5" class="net_9"/>
  <circle cx="129" cy="134.5" r="2" style="fill:#000" class="net_9"/>
  <line x1="129" x2="154" y1="134.5" y2="134.5" class="net_9"/>
  <line x1="112" x2="129" y1="174.5" y2="174.5" class="net_9"/>
  <line x1="129" x2="129" y1="174.5" y2="154.5" class="net_9"/>
  <circle cx="129" cy="154.5" r="2" style="fill:#000" class="net_9"/>
  <line x1="129" x2="154" y1="154.5" y2="154.5" class="net_9"/>
  <line x1="112" x2="154" y1="174.5" y2="174.5" class="net_9"/>
  <line x1="112" x2="129" y1="174.5" y2="174.5" class="net_9"/>
  <line x1="129" x2="129" y1="174.5" y2="214" class="net_9"/>
  <line x1="129" x2="154.5" y1="214" y2="214" class="net_9"/>
  <line x1="154.5" x2="154.5" y1="214" y2="195" class="net_9"/>
</svg>
