<svg xmlns="http://www.w3.org/2000/svg" xmlns:xlink="http://www.w3.org/1999/xlink" xmlns:s="https://github.com/nturley/netlistsvg" width="936" height="859">
  <style>svg {
    stroke:#000;
    fill:none;
  }
  text {
    fill:#000;
    stroke:none;
    font-size:10px;
    font-weight: bold;
    font-family: "Courier New", monospace;
  }
  .nodelabel {
    text-anchor: middle;
  }
  .inputPortLabel {
    text-anchor: end;
  }
  .splitjoinBody {
    fill:#000;
  }</style>
  <g s:type="reduce_xor" transform="translate(374,541)" s:width="33" s:height="25" id="cell_$auto$simplemap.cc:106:simplemap_bitop$108">
    <s:alias val="$xor"/>
    <s:alias val="$reduce_xor"/>
    <s:alias val="$_XOR_"/>
    <path d="M3,0 A30 25 0 0 1 3,25 A30 25 0 0 0 33,12.5 A30 25 0 0 0 3,0" class="cell_$auto$simplemap.cc:106:simplemap_bitop$108"/>
    <path d="M0,0 A30 25 0 0 1 0,25" class="cell_$auto$simplemap.cc:106:simplemap_bitop$108"/>
    <g s:x="3" s:y="5" s:pid="A"/>
    <g s:x="3" s:y="20" s:pid="B"/>
    <g s:x="33" s:y="12.5" s:pid="Y"/>
  </g>
  <g s:type="reduce_xor" transform="translate(374,601)" s:width="33" s:height="25" id="cell_$auto$simplemap.cc:106:simplemap_bitop$109">
    <s:alias val="$xor"/>
    <s:alias val="$reduce_xor"/>
    <s:alias val="$_XOR_"/>
    <path d="M3,0 A30 25 0 0 1 3,25 A30 25 0 0 0 33,12.5 A30 25 0 0 0 3,0" class="cell_$auto$simplemap.cc:106:simplemap_bitop$109"/>
    <path d="M0,0 A30 25 0 0 1 0,25" class="cell_$auto$simplemap.cc:106:simplemap_bitop$109"/>
    <g s:x="3" s:y="5" s:pid="A"/>
    <g s:x="3" s:y="20" s:pid="B"/>
    <g s:x="33" s:y="12.5" s:pid="Y"/>
  </g>
  <g s:type="reduce_xor" transform="translate(451,631)" s:width="33" s:height="25" id="cell_$auto$simplemap.cc:106:simplemap_bitop$110">
    <s:alias val="$xor"/>
    <s:alias val="$reduce_xor"/>
    <s:alias val="$_XOR_"/>
    <path d="M3,0 A30 25 0 0 1 3,25 A30 25 0 0 0 33,12.5 A30 25 0 0 0 3,0" class="cell_$auto$simplemap.cc:106:simplemap_bitop$110"/>
    <path d="M0,0 A30 25 0 0 1 0,25" class="cell_$auto$simplemap.cc:106:simplemap_bitop$110"/>
    <g s:x="3" s:y="5" s:pid="A"/>
    <g s:x="3" s:y="20" s:pid="B"/>
    <g s:x="33" s:y="12.5" s:pid="Y"/>
  </g>
  <g s:type="reduce_xor" transform="translate(303,380.5)" s:width="33" s:height="25" id="cell_$auto$simplemap.cc:106:simplemap_bitop$121">
    <s:alias val="$xor"/>
    <s:alias val="$reduce_xor"/>
    <s:alias val="$_XOR_"/>
    <path d="M3,0 A30 25 0 0 1 3,25 A30 25 0 0 0 33,12.5 A30 25 0 0 0 3,0" class="cell_$auto$simplemap.cc:106:simplemap_bitop$121"/>
    <path d="M0,0 A30 25 0 0 1 0,25" class="cell_$auto$simplemap.cc:106:simplemap_bitop$121"/>
    <g s:x="3" s:y="5" s:pid="A"/>
    <g s:x="3" s:y="20" s:pid="B"/>
    <g s:x="33" s:y="12.5" s:pid="Y"/>
  </g>
  <g s:type="reduce_xor" transform="translate(303,440.5)" s:width="33" s:height="25" id="cell_$auto$simplemap.cc:106:simplemap_bitop$122">
    <s:alias val="$xor"/>
    <s:alias val="$reduce_xor"/>
    <s:alias val="$_XOR_"/>
    <path d="M3,0 A30 25 0 0 1 3,25 A30 25 0 0 0 33,12.5 A30 25 0 0 0 3,0" class="cell_$auto$simplemap.cc:106:simplemap_bitop$122"/>
    <path d="M0,0 A30 25 0 0 1 0,25" class="cell_$auto$simplemap.cc:106:simplemap_bitop$122"/>
    <g s:x="3" s:y="5" s:pid="A"/>
    <g s:x="3" s:y="20" s:pid="B"/>
    <g s:x="33" s:y="12.5" s:pid="Y"/>
  </g>
  <g s:type="reduce_xor" transform="translate(374,470.5)" s:width="33" s:height="25" id="cell_$auto$simplemap.cc:106:simplemap_bitop$123">
    <s:alias val="$xor"/>
    <s:alias val="$reduce_xor"/>
    <s:alias val="$_XOR_"/>
    <path d="M3,0 A30 25 0 0 1 3,25 A30 25 0 0 0 33,12.5 A30 25 0 0 0 3,0" class="cell_$auto$simplemap.cc:106:simplemap_bitop$123"/>
    <path d="M0,0 A30 25 0 0 1 0,25" class="cell_$auto$simplemap.cc:106:simplemap_bitop$123"/>
    <g s:x="3" s:y="5" s:pid="A"/>
    <g s:x="3" s:y="20" s:pid="B"/>
    <g s:x="33" s:y="12.5" s:pid="Y"/>
  </g>
  <g s:type="reduce_xor" transform="translate(235,230.5)" s:width="33" s:height="25" id="cell_$auto$simplemap.cc:106:simplemap_bitop$134">
    <s:alias val="$xor"/>
    <s:alias val="$reduce_xor"/>
    <s:alias val="$_XOR_"/>
    <path d="M3,0 A30 25 0 0 1 3,25 A30 25 0 0 0 33,12.5 A30 25 0 0 0 3,0" class="cell_$auto$simplemap.cc:106:simplemap_bitop$134"/>
    <path d="M0,0 A30 25 0 0 1 0,25" class="cell_$auto$simplemap.cc:106:simplemap_bitop$134"/>
    <g s:x="3" s:y="5" s:pid="A"/>
    <g s:x="3" s:y="20" s:pid="B"/>
    <g s:x="33" s:y="12.5" s:pid="Y"/>
  </g>
  <g s:type="reduce_xor" transform="translate(235,290.5)" s:width="33" s:height="25" id="cell_$auto$simplemap.cc:106:simplemap_bitop$135">
    <s:alias val="$xor"/>
    <s:alias val="$reduce_xor"/>
    <s:alias val="$_XOR_"/>
    <path d="M3,0 A30 25 0 0 1 3,25 A30 25 0 0 0 33,12.5 A30 25 0 0 0 3,0" class="cell_$auto$simplemap.cc:106:simplemap_bitop$135"/>
    <path d="M0,0 A30 25 0 0 1 0,25" class="cell_$auto$simplemap.cc:106:simplemap_bitop$135"/>
    <g s:x="3" s:y="5" s:pid="A"/>
    <g s:x="3" s:y="20" s:pid="B"/>
    <g s:x="33" s:y="12.5" s:pid="Y"/>
  </g>
  <g s:type="reduce_xor" transform="translate(303,320.5)" s:width="33" s:height="25" id="cell_$auto$simplemap.cc:106:simplemap_bitop$136">
    <s:alias val="$xor"/>
    <s:alias val="$reduce_xor"/>
    <s:alias val="$_XOR_"/>
    <path d="M3,0 A30 25 0 0 1 3,25 A30 25 0 0 0 33,12.5 A30 25 0 0 0 3,0" class="cell_$auto$simplemap.cc:106:simplemap_bitop$136"/>
    <path d="M0,0 A30 25 0 0 1 0,25" class="cell_$auto$simplemap.cc:106:simplemap_bitop$136"/>
    <g s:x="3" s:y="5" s:pid="A"/>
    <g s:x="3" s:y="20" s:pid="B"/>
    <g s:x="33" s:y="12.5" s:pid="Y"/>
  </g>
  <g s:type="reduce_xor" transform="translate(167,80.5)" s:width="33" s:height="25" id="cell_$auto$simplemap.cc:106:simplemap_bitop$147">
    <s:alias val="$xor"/>
    <s:alias val="$reduce_xor"/>
    <s:alias val="$_XOR_"/>
    <path d="M3,0 A30 25 0 0 1 3,25 A30 25 0 0 0 33,12.5 A30 25 0 0 0 3,0" class="cell_$auto$simplemap.cc:106:simplemap_bitop$147"/>
    <path d="M0,0 A30 25 0 0 1 0,25" class="cell_$auto$simplemap.cc:106:simplemap_bitop$147"/>
    <g s:x="3" s:y="5" s:pid="A"/>
    <g s:x="3" s:y="20" s:pid="B"/>
    <g s:x="33" s:y="12.5" s:pid="Y"/>
  </g>
  <g s:type="reduce_xor" transform="translate(167,140.5)" s:width="33" s:height="25" id="cell_$auto$simplemap.cc:106:simplemap_bitop$148">
    <s:alias val="$xor"/>
    <s:alias val="$reduce_xor"/>
    <s:alias val="$_XOR_"/>
    <path d="M3,0 A30 25 0 0 1 3,25 A30 25 0 0 0 33,12.5 A30 25 0 0 0 3,0" class="cell_$auto$simplemap.cc:106:simplemap_bitop$148"/>
    <path d="M0,0 A30 25 0 0 1 0,25" class="cell_$auto$simplemap.cc:106:simplemap_bitop$148"/>
    <g s:x="3" s:y="5" s:pid="A"/>
    <g s:x="3" s:y="20" s:pid="B"/>
    <g s:x="33" s:y="12.5" s:pid="Y"/>
  </g>
  <g s:type="reduce_xor" transform="translate(235,170.5)" s:width="33" s:height="25" id="cell_$auto$simplemap.cc:106:simplemap_bitop$149">
    <s:alias val="$xor"/>
    <s:alias val="$reduce_xor"/>
    <s:alias val="$_XOR_"/>
    <path d="M3,0 A30 25 0 0 1 3,25 A30 25 0 0 0 33,12.5 A30 25 0 0 0 3,0" class="cell_$auto$simplemap.cc:106:simplemap_bitop$149"/>
    <path d="M0,0 A30 25 0 0 1 0,25" class="cell_$auto$simplemap.cc:106:simplemap_bitop$149"/>
    <g s:x="3" s:y="5" s:pid="A"/>
    <g s:x="3" s:y="20" s:pid="B"/>
    <g s:x="33" s:y="12.5" s:pid="Y"/>
  </g>
  <g s:type="reduce_xor" transform="translate(451,691)" s:width="33" s:height="25" id="cell_$auto$simplemap.cc:106:simplemap_bitop$95">
    <s:alias val="$xor"/>
    <s:alias val="$reduce_xor"/>
    <s:alias val="$_XOR_"/>
    <path d="M3,0 A30 25 0 0 1 3,25 A30 25 0 0 0 33,12.5 A30 25 0 0 0 3,0" class="cell_$auto$simplemap.cc:106:simplemap_bitop$95"/>
    <path d="M0,0 A30 25 0 0 1 0,25" class="cell_$auto$simplemap.cc:106:simplemap_bitop$95"/>
    <g s:x="3" s:y="5" s:pid="A"/>
    <g s:x="3" s:y="20" s:pid="B"/>
    <g s:x="33" s:y="12.5" s:pid="Y"/>
  </g>
  <g s:type="reduce_xor" transform="translate(451,751)" s:width="33" s:height="25" id="cell_$auto$simplemap.cc:106:simplemap_bitop$96">
    <s:alias val="$xor"/>
    <s:alias val="$reduce_xor"/>
    <s:alias val="$_XOR_"/>
    <path d="M3,0 A30 25 0 0 1 3,25 A30 25 0 0 0 33,12.5 A30 25 0 0 0 3,0" class="cell_$auto$simplemap.cc:106:simplemap_bitop$96"/>
    <path d="M0,0 A30 25 0 0 1 0,25" class="cell_$auto$simplemap.cc:106:simplemap_bitop$96"/>
    <g s:x="3" s:y="5" s:pid="A"/>
    <g s:x="3" s:y="20" s:pid="B"/>
    <g s:x="33" s:y="12.5" s:pid="Y"/>
  </g>
  <g s:type="reduce_xor" transform="translate(528,781)" s:width="33" s:height="25" id="cell_$auto$simplemap.cc:106:simplemap_bitop$97">
    <s:alias val="$xor"/>
    <s:alias val="$reduce_xor"/>
    <s:alias val="$_XOR_"/>
    <path d="M3,0 A30 25 0 0 1 3,25 A30 25 0 0 0 33,12.5 A30 25 0 0 0 3,0" class="cell_$auto$simplemap.cc:106:simplemap_bitop$97"/>
    <path d="M0,0 A30 25 0 0 1 0,25" class="cell_$auto$simplemap.cc:106:simplemap_bitop$97"/>
    <g s:x="3" s:y="5" s:pid="A"/>
    <g s:x="3" s:y="20" s:pid="B"/>
    <g s:x="33" s:y="12.5" s:pid="Y"/>
  </g>
  <g s:type="or" transform="translate(529,698.5)" s:width="30" s:height="25" id="cell_$auto$simplemap.cc:157:simplemap_reduce$101">
    <s:alias val="$or"/>
    <s:alias val="$logic_or"/>
    <s:alias val="$_OR_"/>
    <path d="M0,25 L0,25 L15,25 A15 12.5 0 0 0 15,0 L0,0" class="cell_$auto$simplemap.cc:157:simplemap_reduce$101"/>
    <path d="M0,0 A30 25 0 0 1 0,25" class="cell_$auto$simplemap.cc:157:simplemap_reduce$101"/>
    <g s:x="3" s:y="5" s:pid="A"/>
    <g s:x="3" s:y="20" s:pid="B"/>
    <g s:x="30" s:y="12.5" s:pid="Y"/>
  </g>
  <g s:type="or" transform="translate(606,706)" s:width="30" s:height="25" id="cell_$auto$simplemap.cc:157:simplemap_reduce$103">
    <s:alias val="$or"/>
    <s:alias val="$logic_or"/>
    <s:alias val="$_OR_"/>
    <path d="M0,25 L0,25 L15,25 A15 12.5 0 0 0 15,0 L0,0" class="cell_$auto$simplemap.cc:157:simplemap_reduce$103"/>
    <path d="M0,0 A30 25 0 0 1 0,25" class="cell_$auto$simplemap.cc:157:simplemap_reduce$103"/>
    <g s:x="3" s:y="5" s:pid="A"/>
    <g s:x="3" s:y="20" s:pid="B"/>
    <g s:x="30" s:y="12.5" s:pid="Y"/>
  </g>
  <g s:type="or" transform="translate(452,548.5)" s:width="30" s:height="25" id="cell_$auto$simplemap.cc:157:simplemap_reduce$114">
    <s:alias val="$or"/>
    <s:alias val="$logic_or"/>
    <s:alias val="$_OR_"/>
    <path d="M0,25 L0,25 L15,25 A15 12.5 0 0 0 15,0 L0,0" class="cell_$auto$simplemap.cc:157:simplemap_reduce$114"/>
    <path d="M0,0 A30 25 0 0 1 0,25" class="cell_$auto$simplemap.cc:157:simplemap_reduce$114"/>
    <g s:x="3" s:y="5" s:pid="A"/>
    <g s:x="3" s:y="20" s:pid="B"/>
    <g s:x="30" s:y="12.5" s:pid="Y"/>
  </g>
  <g s:type="or" transform="translate(529,556)" s:width="30" s:height="25" id="cell_$auto$simplemap.cc:157:simplemap_reduce$116">
    <s:alias val="$or"/>
    <s:alias val="$logic_or"/>
    <s:alias val="$_OR_"/>
    <path d="M0,25 L0,25 L15,25 A15 12.5 0 0 0 15,0 L0,0" class="cell_$auto$simplemap.cc:157:simplemap_reduce$116"/>
    <path d="M0,0 A30 25 0 0 1 0,25" class="cell_$auto$simplemap.cc:157:simplemap_reduce$116"/>
    <g s:x="3" s:y="5" s:pid="A"/>
    <g s:x="3" s:y="20" s:pid="B"/>
    <g s:x="30" s:y="12.5" s:pid="Y"/>
  </g>
  <g s:type="or" transform="translate(375,388)" s:width="30" s:height="25" id="cell_$auto$simplemap.cc:157:simplemap_reduce$127">
    <s:alias val="$or"/>
    <s:alias val="$logic_or"/>
    <s:alias val="$_OR_"/>
    <path d="M0,25 L0,25 L15,25 A15 12.5 0 0 0 15,0 L0,0" class="cell_$auto$simplemap.cc:157:simplemap_reduce$127"/>
    <path d="M0,0 A30 25 0 0 1 0,25" class="cell_$auto$simplemap.cc:157:simplemap_reduce$127"/>
    <g s:x="3" s:y="5" s:pid="A"/>
    <g s:x="3" s:y="20" s:pid="B"/>
    <g s:x="30" s:y="12.5" s:pid="Y"/>
  </g>
  <g s:type="or" transform="translate(452,395.5)" s:width="30" s:height="25" id="cell_$auto$simplemap.cc:157:simplemap_reduce$129">
    <s:alias val="$or"/>
    <s:alias val="$logic_or"/>
    <s:alias val="$_OR_"/>
    <path d="M0,25 L0,25 L15,25 A15 12.5 0 0 0 15,0 L0,0" class="cell_$auto$simplemap.cc:157:simplemap_reduce$129"/>
    <path d="M0,0 A30 25 0 0 1 0,25" class="cell_$auto$simplemap.cc:157:simplemap_reduce$129"/>
    <g s:x="3" s:y="5" s:pid="A"/>
    <g s:x="3" s:y="20" s:pid="B"/>
    <g s:x="30" s:y="12.5" s:pid="Y"/>
  </g>
  <g s:type="or" transform="translate(304,238)" s:width="30" s:height="25" id="cell_$auto$simplemap.cc:157:simplemap_reduce$140">
    <s:alias val="$or"/>
    <s:alias val="$logic_or"/>
    <s:alias val="$_OR_"/>
    <path d="M0,25 L0,25 L15,25 A15 12.5 0 0 0 15,0 L0,0" class="cell_$auto$simplemap.cc:157:simplemap_reduce$140"/>
    <path d="M0,0 A30 25 0 0 1 0,25" class="cell_$auto$simplemap.cc:157:simplemap_reduce$140"/>
    <g s:x="3" s:y="5" s:pid="A"/>
    <g s:x="3" s:y="20" s:pid="B"/>
    <g s:x="30" s:y="12.5" s:pid="Y"/>
  </g>
  <g s:type="or" transform="translate(375,245.5)" s:width="30" s:height="25" id="cell_$auto$simplemap.cc:157:simplemap_reduce$142">
    <s:alias val="$or"/>
    <s:alias val="$logic_or"/>
    <s:alias val="$_OR_"/>
    <path d="M0,25 L0,25 L15,25 A15 12.5 0 0 0 15,0 L0,0" class="cell_$auto$simplemap.cc:157:simplemap_reduce$142"/>
    <path d="M0,0 A30 25 0 0 1 0,25" class="cell_$auto$simplemap.cc:157:simplemap_reduce$142"/>
    <g s:x="3" s:y="5" s:pid="A"/>
    <g s:x="3" s:y="20" s:pid="B"/>
    <g s:x="30" s:y="12.5" s:pid="Y"/>
  </g>
  <g s:type="or" transform="translate(236,88)" s:width="30" s:height="25" id="cell_$auto$simplemap.cc:157:simplemap_reduce$153">
    <s:alias val="$or"/>
    <s:alias val="$logic_or"/>
    <s:alias val="$_OR_"/>
    <path d="M0,25 L0,25 L15,25 A15 12.5 0 0 0 15,0 L0,0" class="cell_$auto$simplemap.cc:157:simplemap_reduce$153"/>
    <path d="M0,0 A30 25 0 0 1 0,25" class="cell_$auto$simplemap.cc:157:simplemap_reduce$153"/>
    <g s:x="3" s:y="5" s:pid="A"/>
    <g s:x="3" s:y="20" s:pid="B"/>
    <g s:x="30" s:y="12.5" s:pid="Y"/>
  </g>
  <g s:type="or" transform="translate(304,95.5)" s:width="30" s:height="25" id="cell_$auto$simplemap.cc:157:simplemap_reduce$155">
    <s:alias val="$or"/>
    <s:alias val="$logic_or"/>
    <s:alias val="$_OR_"/>
    <path d="M0,25 L0,25 L15,25 A15 12.5 0 0 0 15,0 L0,0" class="cell_$auto$simplemap.cc:157:simplemap_reduce$155"/>
    <path d="M0,0 A30 25 0 0 1 0,25" class="cell_$auto$simplemap.cc:157:simplemap_reduce$155"/>
    <g s:x="3" s:y="5" s:pid="A"/>
    <g s:x="3" s:y="20" s:pid="B"/>
    <g s:x="30" s:y="12.5" s:pid="Y"/>
  </g>
  <g s:type="or" transform="translate(606,811)" s:width="30" s:height="25" id="cell_$auto$simplemap.cc:198:logic_reduce$89">
    <s:alias val="$or"/>
    <s:alias val="$logic_or"/>
    <s:alias val="$_OR_"/>
    <path d="M0,25 L0,25 L15,25 A15 12.5 0 0 0 15,0 L0,0" class="cell_$auto$simplemap.cc:198:logic_reduce$89"/>
    <path d="M0,0 A30 25 0 0 1 0,25" class="cell_$auto$simplemap.cc:198:logic_reduce$89"/>
    <g s:x="3" s:y="5" s:pid="A"/>
    <g s:x="3" s:y="20" s:pid="B"/>
    <g s:x="30" s:y="12.5" s:pid="Y"/>
  </g>
  <g s:type="or" transform="translate(683,818.5)" s:width="30" s:height="25" id="cell_$auto$simplemap.cc:198:logic_reduce$91">
    <s:alias val="$or"/>
    <s:alias val="$logic_or"/>
    <s:alias val="$_OR_"/>
    <path d="M0,25 L0,25 L15,25 A15 12.5 0 0 0 15,0 L0,0" class="cell_$auto$simplemap.cc:198:logic_reduce$91"/>
    <path d="M0,0 A30 25 0 0 1 0,25" class="cell_$auto$simplemap.cc:198:logic_reduce$91"/>
    <g s:x="3" s:y="5" s:pid="A"/>
    <g s:x="3" s:y="20" s:pid="B"/>
    <g s:x="30" s:y="12.5" s:pid="Y"/>
  </g>
  <g s:type="not" transform="translate(685,708.5)" s:width="30" s:height="20" id="cell_$auto$simplemap.cc:227:simplemap_lognot$105">
    <s:alias val="$_NOT_"/>
    <s:alias val="$not"/>
    <s:alias val="$logic_not"/>
    <path d="M0,0 L0,20 L20,10 Z" class="cell_$auto$simplemap.cc:227:simplemap_lognot$105"/>
    <circle cx="23" cy="10" r="3" class="cell_$auto$simplemap.cc:227:simplemap_lognot$105"/>
    <g s:x="0" s:y="10" s:pid="A"/>
    <g s:x="25" s:y="10" s:pid="Y"/>
  </g>
  <g s:type="not" transform="translate(608,558.5)" s:width="30" s:height="20" id="cell_$auto$simplemap.cc:227:simplemap_lognot$118">
    <s:alias val="$_NOT_"/>
    <s:alias val="$not"/>
    <s:alias val="$logic_not"/>
    <path d="M0,0 L0,20 L20,10 Z" class="cell_$auto$simplemap.cc:227:simplemap_lognot$118"/>
    <circle cx="23" cy="10" r="3" class="cell_$auto$simplemap.cc:227:simplemap_lognot$118"/>
    <g s:x="0" s:y="10" s:pid="A"/>
    <g s:x="25" s:y="10" s:pid="Y"/>
  </g>
  <g s:type="not" transform="translate(531,398)" s:width="30" s:height="20" id="cell_$auto$simplemap.cc:227:simplemap_lognot$131">
    <s:alias val="$_NOT_"/>
    <s:alias val="$not"/>
    <s:alias val="$logic_not"/>
    <path d="M0,0 L0,20 L20,10 Z" class="cell_$auto$simplemap.cc:227:simplemap_lognot$131"/>
    <circle cx="23" cy="10" r="3" class="cell_$auto$simplemap.cc:227:simplemap_lognot$131"/>
    <g s:x="0" s:y="10" s:pid="A"/>
    <g s:x="25" s:y="10" s:pid="Y"/>
  </g>
  <g s:type="not" transform="translate(454,248)" s:width="30" s:height="20" id="cell_$auto$simplemap.cc:227:simplemap_lognot$144">
    <s:alias val="$_NOT_"/>
    <s:alias val="$not"/>
    <s:alias val="$logic_not"/>
    <path d="M0,0 L0,20 L20,10 Z" class="cell_$auto$simplemap.cc:227:simplemap_lognot$144"/>
    <circle cx="23" cy="10" r="3" class="cell_$auto$simplemap.cc:227:simplemap_lognot$144"/>
    <g s:x="0" s:y="10" s:pid="A"/>
    <g s:x="25" s:y="10" s:pid="Y"/>
  </g>
  <g s:type="not" transform="translate(377,98)" s:width="30" s:height="20" id="cell_$auto$simplemap.cc:227:simplemap_lognot$157">
    <s:alias val="$_NOT_"/>
    <s:alias val="$not"/>
    <s:alias val="$logic_not"/>
    <path d="M0,0 L0,20 L20,10 Z" class="cell_$auto$simplemap.cc:227:simplemap_lognot$157"/>
    <circle cx="23" cy="10" r="3" class="cell_$auto$simplemap.cc:227:simplemap_lognot$157"/>
    <g s:x="0" s:y="10" s:pid="A"/>
    <g s:x="25" s:y="10" s:pid="Y"/>
  </g>
  <g s:type="not" transform="translate(762,821)" s:width="30" s:height="20" id="cell_$auto$simplemap.cc:227:simplemap_lognot$92">
    <s:alias val="$_NOT_"/>
    <s:alias val="$not"/>
    <s:alias val="$logic_not"/>
    <path d="M0,0 L0,20 L20,10 Z" class="cell_$auto$simplemap.cc:227:simplemap_lognot$92"/>
    <circle cx="23" cy="10" r="3" class="cell_$auto$simplemap.cc:227:simplemap_lognot$92"/>
    <g s:x="0" s:y="10" s:pid="A"/>
    <g s:x="25" s:y="10" s:pid="Y"/>
  </g>
  <g s:type="mux" transform="translate(455.3333333333333,12)" s:width="20" s:height="40" id="cell_$auto$simplemap.cc:298:simplemap_mux$158">
    <s:alias val="$pmux"/>
    <s:alias val="$mux"/>
    <s:alias val="$_MUX_"/>
    <path d="M0,0 L20,10 L20,30 L0,40 Z" class="cell_$auto$simplemap.cc:298:simplemap_mux$158"/>
    <g s:x="0" s:y="10" s:pid="A"/>
    <g s:x="0" s:y="30" s:pid="B"/>
    <g s:x="10" s:y="35" s:pid="S"/>
    <g s:x="20" s:y="20" s:pid="Y"/>
  </g>
  <g s:type="mux" transform="translate(532.3333333333334,22)" s:width="20" s:height="40" id="cell_$auto$simplemap.cc:298:simplemap_mux$159">
    <s:alias val="$pmux"/>
    <s:alias val="$mux"/>
    <s:alias val="$_MUX_"/>
    <path d="M0,0 L20,10 L20,30 L0,40 Z" class="cell_$auto$simplemap.cc:298:simplemap_mux$159"/>
    <g s:x="0" s:y="10" s:pid="A"/>
    <g s:x="0" s:y="30" s:pid="B"/>
    <g s:x="10" s:y="35" s:pid="S"/>
    <g s:x="20" s:y="20" s:pid="Y"/>
  </g>
  <g s:type="mux" transform="translate(609.3333333333334,32)" s:width="20" s:height="40" id="cell_$auto$simplemap.cc:298:simplemap_mux$160">
    <s:alias val="$pmux"/>
    <s:alias val="$mux"/>
    <s:alias val="$_MUX_"/>
    <path d="M0,0 L20,10 L20,30 L0,40 Z" class="cell_$auto$simplemap.cc:298:simplemap_mux$160"/>
    <g s:x="0" s:y="10" s:pid="A"/>
    <g s:x="0" s:y="30" s:pid="B"/>
    <g s:x="10" s:y="35" s:pid="S"/>
    <g s:x="20" s:y="20" s:pid="Y"/>
  </g>
  <g s:type="mux" transform="translate(686.3333333333334,42)" s:width="20" s:height="40" id="cell_$auto$simplemap.cc:298:simplemap_mux$161">
    <s:alias val="$pmux"/>
    <s:alias val="$mux"/>
    <s:alias val="$_MUX_"/>
    <path d="M0,0 L20,10 L20,30 L0,40 Z" class="cell_$auto$simplemap.cc:298:simplemap_mux$161"/>
    <g s:x="0" s:y="10" s:pid="A"/>
    <g s:x="0" s:y="30" s:pid="B"/>
    <g s:x="10" s:y="35" s:pid="S"/>
    <g s:x="20" s:y="20" s:pid="Y"/>
  </g>
  <g s:type="mux" transform="translate(763.3333333333334,52)" s:width="20" s:height="40" id="cell_$auto$simplemap.cc:298:simplemap_mux$162">
    <s:alias val="$pmux"/>
    <s:alias val="$mux"/>
    <s:alias val="$_MUX_"/>
    <path d="M0,0 L20,10 L20,30 L0,40 Z" class="cell_$auto$simplemap.cc:298:simplemap_mux$162"/>
    <g s:x="0" s:y="10" s:pid="A"/>
    <g s:x="0" s:y="30" s:pid="B"/>
    <g s:x="10" s:y="35" s:pid="S"/>
    <g s:x="20" s:y="20" s:pid="Y"/>
  </g>
  <g s:type="mux" transform="translate(833,62)" s:width="20" s:height="40" id="cell_$auto$simplemap.cc:298:simplemap_mux$163">
    <s:alias val="$pmux"/>
    <s:alias val="$mux"/>
    <s:alias val="$_MUX_"/>
    <path d="M0,0 L20,10 L20,30 L0,40 Z" class="cell_$auto$simplemap.cc:298:simplemap_mux$163"/>
    <g s:x="0" s:y="10" s:pid="A"/>
    <g s:x="0" s:y="30" s:pid="B"/>
    <g s:x="10" s:y="35" s:pid="S"/>
    <g s:x="20" s:y="20" s:pid="Y"/>
  </g>
  <g s:type="inputExt" transform="translate(12,546)" s:width="30" s:height="20" id="cell_i_sel">
    <text x="15" y="-4" class="nodelabel cell_i_sel" s:attribute="ref">i_sel</text>
    <s:alias val="$_inputExt_"/>
    <path d="M0,0 L0,20 L15,20 L30,10 L15,0 Z" class="cell_i_sel"/>
    <g s:x="28" s:y="10" s:pid="Y"/>
  </g>
  <g s:type="inputExt" transform="translate(756,738.5)" s:width="30" s:height="20" id="cell_i_data0">
    <text x="15" y="-4" class="nodelabel cell_i_data0" s:attribute="ref">i_data0</text>
    <s:alias val="$_inputExt_"/>
    <path d="M0,0 L0,20 L15,20 L30,10 L15,0 Z" class="cell_i_data0"/>
    <g s:x="28" s:y="10" s:pid="Y"/>
  </g>
  <g s:type="inputExt" transform="translate(679,588.5)" s:width="30" s:height="20" id="cell_i_data1">
    <text x="15" y="-4" class="nodelabel cell_i_data1" s:attribute="ref">i_data1</text>
    <s:alias val="$_inputExt_"/>
    <path d="M0,0 L0,20 L15,20 L30,10 L15,0 Z" class="cell_i_data1"/>
    <g s:x="28" s:y="10" s:pid="Y"/>
  </g>
  <g s:type="inputExt" transform="translate(602,428)" s:width="30" s:height="20" id="cell_i_data2">
    <text x="15" y="-4" class="nodelabel cell_i_data2" s:attribute="ref">i_data2</text>
    <s:alias val="$_inputExt_"/>
    <path d="M0,0 L0,20 L15,20 L30,10 L15,0 Z" class="cell_i_data2"/>
    <g s:x="28" s:y="10" s:pid="Y"/>
  </g>
  <g s:type="inputExt" transform="translate(525,278)" s:width="30" s:height="20" id="cell_i_data3">
    <text x="15" y="-4" class="nodelabel cell_i_data3" s:attribute="ref">i_data3</text>
    <s:alias val="$_inputExt_"/>
    <path d="M0,0 L0,20 L15,20 L30,10 L15,0 Z" class="cell_i_data3"/>
    <g s:x="28" s:y="10" s:pid="Y"/>
  </g>
  <g s:type="inputExt" transform="translate(448,128)" s:width="30" s:height="20" id="cell_i_data4">
    <text x="15" y="-4" class="nodelabel cell_i_data4" s:attribute="ref">i_data4</text>
    <s:alias val="$_inputExt_"/>
    <path d="M0,0 L0,20 L15,20 L30,10 L15,0 Z" class="cell_i_data4"/>
    <g s:x="28" s:y="10" s:pid="Y"/>
  </g>
  <g s:type="inputExt" transform="translate(371,43)" s:width="30" s:height="20" id="cell_i_data5">
    <text x="15" y="-4" class="nodelabel cell_i_data5" s:attribute="ref">i_data5</text>
    <s:alias val="$_inputExt_"/>
    <path d="M0,0 L0,20 L15,20 L30,10 L15,0 Z" class="cell_i_data5"/>
    <g s:x="28" s:y="10" s:pid="Y"/>
  </g>
  <g s:type="outputExt" transform="translate(888,72)" s:width="30" s:height="20" id="cell_o_data">
    <text x="15" y="-4" class="nodelabel cell_o_data" s:attribute="ref">o_data</text>
    <s:alias val="$_outputExt_"/>
    <path d="M30,0 L30,20 L15,20 L0,10 L15,0 Z" class="cell_o_data"/>
    <g s:x="0" s:y="10" s:pid="A"/>
  </g>
  <g s:type="constant" transform="translate(77,480.5)" s:width="30" s:height="20" id="cell_0">
    <text x="15" y="-4" class="nodelabel cell_0" s:attribute="ref">0</text>
    <s:alias val="$_constant_"/>
    <rect width="30" height="20" class="cell_0"/>
    <g s:x="30" s:y="10" s:pid="Y"/>
  </g>
  <g s:type="constant" transform="translate(77,390.5)" s:width="30" s:height="20" id="cell_1">
    <text x="15" y="-4" class="nodelabel cell_1" s:attribute="ref">1</text>
    <s:alias val="$_constant_"/>
    <rect width="30" height="20" class="cell_1"/>
    <g s:x="30" s:y="10" s:pid="Y"/>
  </g>
  <g s:type="split" transform="translate(92.25,535.5)" s:width="5" s:height="40" id="cell_$split$,2,3,4,">
    <rect width="5" height="60" class="splitjoinBody" s:generic="body"/>
    <s:alias val="$_split_"/>
    <g s:x="0" s:y="20" s:pid="in"/>
    <g transform="translate(4,10)" s:x="4" s:y="10" s:pid="out0">
      <text x="5" y="-4">0</text>
    </g>
    <g transform="translate(4,30)" s:x="4" s:y="10" s:pid="out0">
      <text x="5" y="-4">1</text>
    </g>
    <g transform="translate(4,50)" s:x="4" s:y="10" s:pid="out0">
      <text x="5" y="-4">2</text>
    </g>
  </g>
  <line x1="97.25" x2="377" y1="546" y2="546" class="net_2"/>
  <line x1="97.25" x2="117" y1="546" y2="546" class="net_2"/>
  <line x1="117" x2="117" y1="546" y2="385.5" class="net_2"/>
  <circle cx="117" cy="546" r="2" style="fill:#000" class="net_2"/>
  <circle cx="117" cy="385.5" r="2" style="fill:#000" class="net_2"/>
  <line x1="117" x2="306" y1="385.5" y2="385.5" class="net_2"/>
  <line x1="97.25" x2="117" y1="546" y2="546" class="net_2"/>
  <line x1="117" x2="117" y1="546" y2="235.5" class="net_2"/>
  <circle cx="117" cy="235.5" r="2" style="fill:#000" class="net_2"/>
  <line x1="117" x2="238" y1="235.5" y2="235.5" class="net_2"/>
  <line x1="97.25" x2="117" y1="546" y2="546" class="net_2"/>
  <line x1="117" x2="117" y1="546" y2="85.5" class="net_2"/>
  <line x1="117" x2="170" y1="85.5" y2="85.5" class="net_2"/>
  <line x1="97.25" x2="117" y1="546" y2="546" class="net_2"/>
  <line x1="117" x2="117" y1="546" y2="696" class="net_2"/>
  <circle cx="117" cy="696" r="2" style="fill:#000" class="net_2"/>
  <line x1="117" x2="454" y1="696" y2="696" class="net_2"/>
  <line x1="97.25" x2="117" y1="546" y2="546" class="net_2"/>
  <line x1="117" x2="117" y1="546" y2="816" class="net_2"/>
  <line x1="117" x2="609" y1="816" y2="816" class="net_2"/>
  <line x1="107" x2="147" y1="490.5" y2="490.5" class="net_50"/>
  <line x1="147" x2="147" y1="490.5" y2="561" class="net_50"/>
  <circle cx="147" cy="490.5" r="2" style="fill:#000" class="net_50"/>
  <circle cx="147" cy="561" r="2" style="fill:#000" class="net_50"/>
  <line x1="147" x2="377" y1="561" y2="561" class="net_50"/>
  <line x1="107" x2="147" y1="490.5" y2="490.5" class="net_50"/>
  <line x1="147" x2="147" y1="490.5" y2="651" class="net_50"/>
  <circle cx="147" cy="651" r="2" style="fill:#000" class="net_50"/>
  <line x1="147" x2="454" y1="651" y2="651" class="net_50"/>
  <line x1="107" x2="377" y1="490.5" y2="490.5" class="net_50"/>
  <line x1="107" x2="147" y1="490.5" y2="490.5" class="net_50"/>
  <line x1="147" x2="147" y1="490.5" y2="250.5" class="net_50"/>
  <circle cx="147" cy="250.5" r="2" style="fill:#000" class="net_50"/>
  <line x1="147" x2="238" y1="250.5" y2="250.5" class="net_50"/>
  <line x1="107" x2="147" y1="490.5" y2="490.5" class="net_50"/>
  <line x1="147" x2="147" y1="490.5" y2="310.5" class="net_50"/>
  <circle cx="147" cy="310.5" r="2" style="fill:#000" class="net_50"/>
  <line x1="147" x2="238" y1="310.5" y2="310.5" class="net_50"/>
  <line x1="107" x2="147" y1="490.5" y2="490.5" class="net_50"/>
  <line x1="147" x2="147" y1="490.5" y2="160.5" class="net_50"/>
  <circle cx="147" cy="160.5" r="2" style="fill:#000" class="net_50"/>
  <line x1="147" x2="170" y1="160.5" y2="160.5" class="net_50"/>
  <line x1="107" x2="147" y1="490.5" y2="490.5" class="net_50"/>
  <line x1="147" x2="147" y1="490.5" y2="771" class="net_50"/>
  <circle cx="147" cy="771" r="2" style="fill:#000" class="net_50"/>
  <line x1="147" x2="454" y1="771" y2="771" class="net_50"/>
  <line x1="107" x2="147" y1="490.5" y2="490.5" class="net_50"/>
  <line x1="147" x2="147" y1="490.5" y2="801" class="net_50"/>
  <line x1="147" x2="531" y1="801" y2="801" class="net_50"/>
  <line x1="107" x2="147" y1="490.5" y2="490.5" class="net_50"/>
  <line x1="147" x2="147" y1="490.5" y2="22" class="net_50"/>
  <line x1="147" x2="455.3333333333333" y1="22" y2="22" class="net_50"/>
  <line x1="97.25" x2="127" y1="566" y2="566" class="net_3"/>
  <line x1="127" x2="127" y1="566" y2="606" class="net_3"/>
  <circle cx="127" cy="566" r="2" style="fill:#000" class="net_3"/>
  <circle cx="127" cy="606" r="2" style="fill:#000" class="net_3"/>
  <line x1="127" x2="377" y1="606" y2="606" class="net_3"/>
  <line x1="97.25" x2="127" y1="566" y2="566" class="net_3"/>
  <line x1="127" x2="127" y1="566" y2="445.5" class="net_3"/>
  <circle cx="127" cy="445.5" r="2" style="fill:#000" class="net_3"/>
  <line x1="127" x2="306" y1="445.5" y2="445.5" class="net_3"/>
  <line x1="97.25" x2="127" y1="566" y2="566" class="net_3"/>
  <line x1="127" x2="127" y1="566" y2="295.5" class="net_3"/>
  <circle cx="127" cy="295.5" r="2" style="fill:#000" class="net_3"/>
  <line x1="127" x2="238" y1="295.5" y2="295.5" class="net_3"/>
  <line x1="97.25" x2="127" y1="566" y2="566" class="net_3"/>
  <line x1="127" x2="127" y1="566" y2="145.5" class="net_3"/>
  <line x1="127" x2="170" y1="145.5" y2="145.5" class="net_3"/>
  <line x1="97.25" x2="127" y1="566" y2="566" class="net_3"/>
  <line x1="127" x2="127" y1="566" y2="756" class="net_3"/>
  <circle cx="127" cy="756" r="2" style="fill:#000" class="net_3"/>
  <line x1="127" x2="454" y1="756" y2="756" class="net_3"/>
  <line x1="97.25" x2="127" y1="566" y2="566" class="net_3"/>
  <line x1="127" x2="127" y1="566" y2="831" class="net_3"/>
  <line x1="127" x2="609" y1="831" y2="831" class="net_3"/>
  <line x1="107" x2="157" y1="400.5" y2="400.5" class="net_51"/>
  <line x1="157" x2="157" y1="400.5" y2="621" class="net_51"/>
  <circle cx="157" cy="400.5" r="2" style="fill:#000" class="net_51"/>
  <circle cx="157" cy="621" r="2" style="fill:#000" class="net_51"/>
  <line x1="157" x2="377" y1="621" y2="621" class="net_51"/>
  <line x1="107" x2="306" y1="400.5" y2="400.5" class="net_51"/>
  <line x1="107" x2="157" y1="400.5" y2="400.5" class="net_51"/>
  <line x1="157" x2="157" y1="400.5" y2="460.5" class="net_51"/>
  <circle cx="157" cy="460.5" r="2" style="fill:#000" class="net_51"/>
  <line x1="157" x2="306" y1="460.5" y2="460.5" class="net_51"/>
  <line x1="107" x2="157" y1="400.5" y2="400.5" class="net_51"/>
  <line x1="157" x2="157" y1="400.5" y2="340.5" class="net_51"/>
  <circle cx="157" cy="340.5" r="2" style="fill:#000" class="net_51"/>
  <line x1="157" x2="306" y1="340.5" y2="340.5" class="net_51"/>
  <line x1="107" x2="157" y1="400.5" y2="400.5" class="net_51"/>
  <line x1="157" x2="157" y1="400.5" y2="100.5" class="net_51"/>
  <line x1="157" x2="170" y1="100.5" y2="100.5" class="net_51"/>
  <line x1="107" x2="157" y1="400.5" y2="400.5" class="net_51"/>
  <line x1="157" x2="157" y1="400.5" y2="190.5" class="net_51"/>
  <circle cx="157" cy="190.5" r="2" style="fill:#000" class="net_51"/>
  <line x1="157" x2="238" y1="190.5" y2="190.5" class="net_51"/>
  <line x1="107" x2="157" y1="400.5" y2="400.5" class="net_51"/>
  <line x1="157" x2="157" y1="400.5" y2="711" class="net_51"/>
  <line x1="157" x2="454" y1="711" y2="711" class="net_51"/>
  <line x1="97.25" x2="137" y1="586" y2="586" class="net_4"/>
  <line x1="137" x2="137" y1="586" y2="636" class="net_4"/>
  <circle cx="137" cy="586" r="2" style="fill:#000" class="net_4"/>
  <circle cx="137" cy="636" r="2" style="fill:#000" class="net_4"/>
  <line x1="137" x2="454" y1="636" y2="636" class="net_4"/>
  <line x1="97.25" x2="137" y1="586" y2="586" class="net_4"/>
  <line x1="137" x2="137" y1="586" y2="475.5" class="net_4"/>
  <circle cx="137" cy="475.5" r="2" style="fill:#000" class="net_4"/>
  <line x1="137" x2="377" y1="475.5" y2="475.5" class="net_4"/>
  <line x1="97.25" x2="137" y1="586" y2="586" class="net_4"/>
  <line x1="137" x2="137" y1="586" y2="325.5" class="net_4"/>
  <circle cx="137" cy="325.5" r="2" style="fill:#000" class="net_4"/>
  <line x1="137" x2="306" y1="325.5" y2="325.5" class="net_4"/>
  <line x1="97.25" x2="137" y1="586" y2="586" class="net_4"/>
  <line x1="137" x2="137" y1="586" y2="175.5" class="net_4"/>
  <line x1="137" x2="238" y1="175.5" y2="175.5" class="net_4"/>
  <line x1="97.25" x2="137" y1="586" y2="586" class="net_4"/>
  <line x1="137" x2="137" y1="586" y2="786" class="net_4"/>
  <circle cx="137" cy="786" r="2" style="fill:#000" class="net_4"/>
  <line x1="137" x2="531" y1="786" y2="786" class="net_4"/>
  <line x1="97.25" x2="137" y1="586" y2="586" class="net_4"/>
  <line x1="137" x2="137" y1="586" y2="846" class="net_4"/>
  <line x1="137" x2="654" y1="846" y2="846" class="net_4"/>
  <line x1="654" x2="654" y1="846" y2="838.5" class="net_4"/>
  <line x1="654" x2="686" y1="838.5" y2="838.5" class="net_4"/>
  <line x1="484" x2="532" y1="703.5" y2="703.5" class="net_24"/>
  <line x1="484" x2="500" y1="763.5" y2="763.5" class="net_25"/>
  <line x1="500" x2="500" y1="763.5" y2="718.5" class="net_25"/>
  <line x1="500" x2="532" y1="718.5" y2="718.5" class="net_25"/>
  <line x1="559" x2="609" y1="711" y2="711" class="net_27"/>
  <line x1="561" x2="577" y1="793.5" y2="793.5" class="net_26"/>
  <line x1="577" x2="577" y1="793.5" y2="726" class="net_26"/>
  <line x1="577" x2="609" y1="726" y2="726" class="net_26"/>
  <line x1="407" x2="455" y1="553.5" y2="553.5" class="net_12"/>
  <line x1="407" x2="423" y1="613.5" y2="613.5" class="net_13"/>
  <line x1="423" x2="423" y1="613.5" y2="568.5" class="net_13"/>
  <line x1="423" x2="455" y1="568.5" y2="568.5" class="net_13"/>
  <line x1="482" x2="532" y1="561" y2="561" class="net_29"/>
  <line x1="484" x2="500" y1="643.5" y2="643.5" class="net_14"/>
  <line x1="500" x2="500" y1="643.5" y2="576" class="net_14"/>
  <line x1="500" x2="532" y1="576" y2="576" class="net_14"/>
  <line x1="336" x2="378" y1="393" y2="393" class="net_15"/>
  <line x1="336" x2="346" y1="453" y2="453" class="net_16"/>
  <line x1="346" x2="346" y1="453" y2="408" class="net_16"/>
  <line x1="346" x2="378" y1="408" y2="408" class="net_16"/>
  <line x1="405" x2="455" y1="400.5" y2="400.5" class="net_31"/>
  <line x1="407" x2="423" y1="483" y2="483" class="net_17"/>
  <line x1="423" x2="423" y1="483" y2="415.5" class="net_17"/>
  <line x1="423" x2="455" y1="415.5" y2="415.5" class="net_17"/>
  <line x1="268" x2="307" y1="243" y2="243" class="net_18"/>
  <line x1="268" x2="278" y1="303" y2="303" class="net_19"/>
  <line x1="278" x2="278" y1="303" y2="258" class="net_19"/>
  <line x1="278" x2="307" y1="258" y2="258" class="net_19"/>
  <line x1="334" x2="378" y1="250.5" y2="250.5" class="net_33"/>
  <line x1="336" x2="346" y1="333" y2="333" class="net_20"/>
  <line x1="346" x2="346" y1="333" y2="265.5" class="net_20"/>
  <line x1="346" x2="378" y1="265.5" y2="265.5" class="net_20"/>
  <line x1="200" x2="239" y1="93" y2="93" class="net_21"/>
  <line x1="200" x2="210" y1="153" y2="153" class="net_22"/>
  <line x1="210" x2="210" y1="153" y2="108" class="net_22"/>
  <line x1="210" x2="239" y1="108" y2="108" class="net_22"/>
  <line x1="266" x2="307" y1="100.5" y2="100.5" class="net_35"/>
  <line x1="268" x2="278" y1="183" y2="183" class="net_23"/>
  <line x1="278" x2="278" y1="183" y2="115.5" class="net_23"/>
  <line x1="278" x2="307" y1="115.5" y2="115.5" class="net_23"/>
  <line x1="636" x2="686" y1="823.5" y2="823.5" class="net_37"/>
  <line x1="636" x2="685" y1="718.5" y2="718.5" class="net_28"/>
  <line x1="559" x2="608" y1="568.5" y2="568.5" class="net_30"/>
  <line x1="482" x2="531" y1="408" y2="408" class="net_32"/>
  <line x1="405" x2="454" y1="258" y2="258" class="net_34"/>
  <line x1="334" x2="377" y1="108" y2="108" class="net_36"/>
  <line x1="713" x2="762" y1="831" y2="831" class="net_38"/>
  <line x1="399" x2="423" y1="53" y2="53" class="net_10"/>
  <line x1="423" x2="423" y1="53" y2="42" class="net_10"/>
  <line x1="423" x2="455.3333333333333" y1="42" y2="42" class="net_10"/>
  <line x1="402" x2="465.3333333333333" y1="108" y2="108" class="net_43"/>
  <line x1="465.3333333333333" x2="465.3333333333333" y1="108" y2="47" class="net_43"/>
  <line x1="475.3333333333333" x2="532.3333333333334" y1="32" y2="32" class="net_45"/>
  <line x1="476" x2="500" y1="138" y2="138" class="net_9"/>
  <line x1="500" x2="500" y1="138" y2="52" class="net_9"/>
  <line x1="500" x2="532.3333333333334" y1="52" y2="52" class="net_9"/>
  <line x1="479" x2="542.3333333333334" y1="258" y2="258" class="net_42"/>
  <line x1="542.3333333333334" x2="542.3333333333334" y1="258" y2="57" class="net_42"/>
  <line x1="552.3333333333334" x2="609.3333333333334" y1="42" y2="42" class="net_46"/>
  <line x1="553" x2="577" y1="288" y2="288" class="net_8"/>
  <line x1="577" x2="577" y1="288" y2="62" class="net_8"/>
  <line x1="577" x2="609.3333333333334" y1="62" y2="62" class="net_8"/>
  <line x1="556" x2="619.3333333333334" y1="408" y2="408" class="net_41"/>
  <line x1="619.3333333333334" x2="619.3333333333334" y1="408" y2="67" class="net_41"/>
  <line x1="629.3333333333334" x2="686.3333333333334" y1="52" y2="52" class="net_47"/>
  <line x1="630" x2="654" y1="438" y2="438" class="net_7"/>
  <line x1="654" x2="654" y1="438" y2="72" class="net_7"/>
  <line x1="654" x2="686.3333333333334" y1="72" y2="72" class="net_7"/>
  <line x1="633" x2="696.3333333333334" y1="568.5" y2="568.5" class="net_40"/>
  <line x1="696.3333333333334" x2="696.3333333333334" y1="568.5" y2="77" class="net_40"/>
  <line x1="706.3333333333334" x2="763.3333333333334" y1="62" y2="62" class="net_48"/>
  <line x1="707" x2="731" y1="598.5" y2="598.5" class="net_6"/>
  <line x1="731" x2="731" y1="598.5" y2="82" class="net_6"/>
  <line x1="731" x2="763.3333333333334" y1="82" y2="82" class="net_6"/>
  <line x1="710" x2="773.3333333333334" y1="718.5" y2="718.5" class="net_39"/>
  <line x1="773.3333333333334" x2="773.3333333333334" y1="718.5" y2="87" class="net_39"/>
  <line x1="783.3333333333334" x2="833" y1="72" y2="72" class="net_49"/>
  <line x1="784" x2="808" y1="748.5" y2="748.5" class="net_5"/>
  <line x1="808" x2="808" y1="748.5" y2="92" class="net_5"/>
  <line x1="808" x2="833" y1="92" y2="92" class="net_5"/>
  <line x1="787" x2="843" y1="831" y2="831" class="net_44"/>
  <line x1="843" x2="843" y1="831" y2="97" class="net_44"/>
  <line x1="853" x2="888" y1="82" y2="82" class="net_11"/>
  <line x1="40" x2="92.25" y1="556" y2="556" class="net_2,3,4"/>
</svg>
