<svg xmlns="http://www.w3.org/2000/svg" xmlns:xlink="http://www.w3.org/1999/xlink" xmlns:s="https://github.com/nturley/netlistsvg" width="696" height="1741.5">
  <style>svg {
    stroke:#000;
    fill:none;
  }
  text {
    fill:#000;
    stroke:none;
    font-size:10px;
    font-weight: bold;
    font-family: "Courier New", monospace;
  }
  .nodelabel {
    text-anchor: middle;
  }
  .inputPortLabel {
    text-anchor: end;
  }
  .splitjoinBody {
    fill:#000;
  }</style>
  <g s:type="generic" transform="translate(314,154.5)" s:width="30" s:height="40" id="cell_gen_reg_1bit[0].u_reg_1bit">
    <text x="15" y="-4" class="nodelabel cell_gen_reg_1bit[0].u_reg_1bit" s:attribute="ref">program_counter_reg_1bit</text>
    <rect width="30" height="60" s:generic="body" class="cell_gen_reg_1bit[0].u_reg_1bit"/>
    <g transform="translate(0,10)" s:x="0" s:y="10" s:pid="in0" id="port_gen_reg_1bit[0].u_reg_1bit~i_clk">
      <text x="-3" y="-4" class="inputPortLabel cell_gen_reg_1bit[0].u_reg_1bit">i_clk</text>
    </g>
    <g transform="translate(0,30)" s:x="0" s:y="10" s:pid="in0" id="port_gen_reg_1bit[0].u_reg_1bit~i_d">
      <text x="-3" y="-4" class="inputPortLabel cell_gen_reg_1bit[0].u_reg_1bit">i_d</text>
    </g>
    <g transform="translate(0,50)" s:x="0" s:y="10" s:pid="in0" id="port_gen_reg_1bit[0].u_reg_1bit~i_rst_n">
      <text x="-3" y="-4" class="inputPortLabel cell_gen_reg_1bit[0].u_reg_1bit">i_rst_n</text>
    </g>
    <g transform="translate(30,10)" s:x="30" s:y="10" s:pid="out0" id="port_gen_reg_1bit[0].u_reg_1bit~o_q">
      <text x="5" y="-4" style="fill:#000; stroke:none" class="cell_gen_reg_1bit[0].u_reg_1bit">o_q</text>
    </g>
  </g>
  <g s:type="generic" transform="translate(308,46.5)" s:width="30" s:height="40" id="cell_gen_reg_1bit[10].u_reg_1bit">
    <text x="15" y="-4" class="nodelabel cell_gen_reg_1bit[10].u_reg_1bit" s:attribute="ref">program_counter_reg_1bit</text>
    <rect width="30" height="60" s:generic="body" class="cell_gen_reg_1bit[10].u_reg_1bit"/>
    <g transform="translate(0,10)" s:x="0" s:y="10" s:pid="in0" id="port_gen_reg_1bit[10].u_reg_1bit~i_clk">
      <text x="-3" y="-4" class="inputPortLabel cell_gen_reg_1bit[10].u_reg_1bit">i_clk</text>
    </g>
    <g transform="translate(0,30)" s:x="0" s:y="10" s:pid="in0" id="port_gen_reg_1bit[10].u_reg_1bit~i_d">
      <text x="-3" y="-4" class="inputPortLabel cell_gen_reg_1bit[10].u_reg_1bit">i_d</text>
    </g>
    <g transform="translate(0,50)" s:x="0" s:y="10" s:pid="in0" id="port_gen_reg_1bit[10].u_reg_1bit~i_rst_n">
      <text x="-3" y="-4" class="inputPortLabel cell_gen_reg_1bit[10].u_reg_1bit">i_rst_n</text>
    </g>
    <g transform="translate(30,10)" s:x="30" s:y="10" s:pid="out0" id="port_gen_reg_1bit[10].u_reg_1bit~o_q">
      <text x="5" y="-4" style="fill:#000; stroke:none" class="cell_gen_reg_1bit[10].u_reg_1bit">o_q</text>
    </g>
  </g>
  <g s:type="generic" transform="translate(308,262.5)" s:width="30" s:height="40" id="cell_gen_reg_1bit[11].u_reg_1bit">
    <text x="15" y="-4" class="nodelabel cell_gen_reg_1bit[11].u_reg_1bit" s:attribute="ref">program_counter_reg_1bit</text>
    <rect width="30" height="60" s:generic="body" class="cell_gen_reg_1bit[11].u_reg_1bit"/>
    <g transform="translate(0,10)" s:x="0" s:y="10" s:pid="in0" id="port_gen_reg_1bit[11].u_reg_1bit~i_clk">
      <text x="-3" y="-4" class="inputPortLabel cell_gen_reg_1bit[11].u_reg_1bit">i_clk</text>
    </g>
    <g transform="translate(0,30)" s:x="0" s:y="10" s:pid="in0" id="port_gen_reg_1bit[11].u_reg_1bit~i_d">
      <text x="-3" y="-4" class="inputPortLabel cell_gen_reg_1bit[11].u_reg_1bit">i_d</text>
    </g>
    <g transform="translate(0,50)" s:x="0" s:y="10" s:pid="in0" id="port_gen_reg_1bit[11].u_reg_1bit~i_rst_n">
      <text x="-3" y="-4" class="inputPortLabel cell_gen_reg_1bit[11].u_reg_1bit">i_rst_n</text>
    </g>
    <g transform="translate(30,10)" s:x="30" s:y="10" s:pid="out0" id="port_gen_reg_1bit[11].u_reg_1bit~o_q">
      <text x="5" y="-4" style="fill:#000; stroke:none" class="cell_gen_reg_1bit[11].u_reg_1bit">o_q</text>
    </g>
  </g>
  <g s:type="generic" transform="translate(308,370.5)" s:width="30" s:height="40" id="cell_gen_reg_1bit[12].u_reg_1bit">
    <text x="15" y="-4" class="nodelabel cell_gen_reg_1bit[12].u_reg_1bit" s:attribute="ref">program_counter_reg_1bit</text>
    <rect width="30" height="60" s:generic="body" class="cell_gen_reg_1bit[12].u_reg_1bit"/>
    <g transform="translate(0,10)" s:x="0" s:y="10" s:pid="in0" id="port_gen_reg_1bit[12].u_reg_1bit~i_clk">
      <text x="-3" y="-4" class="inputPortLabel cell_gen_reg_1bit[12].u_reg_1bit">i_clk</text>
    </g>
    <g transform="translate(0,30)" s:x="0" s:y="10" s:pid="in0" id="port_gen_reg_1bit[12].u_reg_1bit~i_d">
      <text x="-3" y="-4" class="inputPortLabel cell_gen_reg_1bit[12].u_reg_1bit">i_d</text>
    </g>
    <g transform="translate(0,50)" s:x="0" s:y="10" s:pid="in0" id="port_gen_reg_1bit[12].u_reg_1bit~i_rst_n">
      <text x="-3" y="-4" class="inputPortLabel cell_gen_reg_1bit[12].u_reg_1bit">i_rst_n</text>
    </g>
    <g transform="translate(30,10)" s:x="30" s:y="10" s:pid="out0" id="port_gen_reg_1bit[12].u_reg_1bit~o_q">
      <text x="5" y="-4" style="fill:#000; stroke:none" class="cell_gen_reg_1bit[12].u_reg_1bit">o_q</text>
    </g>
  </g>
  <g s:type="generic" transform="translate(308,478.5)" s:width="30" s:height="40" id="cell_gen_reg_1bit[13].u_reg_1bit">
    <text x="15" y="-4" class="nodelabel cell_gen_reg_1bit[13].u_reg_1bit" s:attribute="ref">program_counter_reg_1bit</text>
    <rect width="30" height="60" s:generic="body" class="cell_gen_reg_1bit[13].u_reg_1bit"/>
    <g transform="translate(0,10)" s:x="0" s:y="10" s:pid="in0" id="port_gen_reg_1bit[13].u_reg_1bit~i_clk">
      <text x="-3" y="-4" class="inputPortLabel cell_gen_reg_1bit[13].u_reg_1bit">i_clk</text>
    </g>
    <g transform="translate(0,30)" s:x="0" s:y="10" s:pid="in0" id="port_gen_reg_1bit[13].u_reg_1bit~i_d">
      <text x="-3" y="-4" class="inputPortLabel cell_gen_reg_1bit[13].u_reg_1bit">i_d</text>
    </g>
    <g transform="translate(0,50)" s:x="0" s:y="10" s:pid="in0" id="port_gen_reg_1bit[13].u_reg_1bit~i_rst_n">
      <text x="-3" y="-4" class="inputPortLabel cell_gen_reg_1bit[13].u_reg_1bit">i_rst_n</text>
    </g>
    <g transform="translate(30,10)" s:x="30" s:y="10" s:pid="out0" id="port_gen_reg_1bit[13].u_reg_1bit~o_q">
      <text x="5" y="-4" style="fill:#000; stroke:none" class="cell_gen_reg_1bit[13].u_reg_1bit">o_q</text>
    </g>
  </g>
  <g s:type="generic" transform="translate(308,586.5)" s:width="30" s:height="40" id="cell_gen_reg_1bit[14].u_reg_1bit">
    <text x="15" y="-4" class="nodelabel cell_gen_reg_1bit[14].u_reg_1bit" s:attribute="ref">program_counter_reg_1bit</text>
    <rect width="30" height="60" s:generic="body" class="cell_gen_reg_1bit[14].u_reg_1bit"/>
    <g transform="translate(0,10)" s:x="0" s:y="10" s:pid="in0" id="port_gen_reg_1bit[14].u_reg_1bit~i_clk">
      <text x="-3" y="-4" class="inputPortLabel cell_gen_reg_1bit[14].u_reg_1bit">i_clk</text>
    </g>
    <g transform="translate(0,30)" s:x="0" s:y="10" s:pid="in0" id="port_gen_reg_1bit[14].u_reg_1bit~i_d">
      <text x="-3" y="-4" class="inputPortLabel cell_gen_reg_1bit[14].u_reg_1bit">i_d</text>
    </g>
    <g transform="translate(0,50)" s:x="0" s:y="10" s:pid="in0" id="port_gen_reg_1bit[14].u_reg_1bit~i_rst_n">
      <text x="-3" y="-4" class="inputPortLabel cell_gen_reg_1bit[14].u_reg_1bit">i_rst_n</text>
    </g>
    <g transform="translate(30,10)" s:x="30" s:y="10" s:pid="out0" id="port_gen_reg_1bit[14].u_reg_1bit~o_q">
      <text x="5" y="-4" style="fill:#000; stroke:none" class="cell_gen_reg_1bit[14].u_reg_1bit">o_q</text>
    </g>
  </g>
  <g s:type="generic" transform="translate(308,694.5)" s:width="30" s:height="40" id="cell_gen_reg_1bit[15].u_reg_1bit">
    <text x="15" y="-4" class="nodelabel cell_gen_reg_1bit[15].u_reg_1bit" s:attribute="ref">program_counter_reg_1bit</text>
    <rect width="30" height="60" s:generic="body" class="cell_gen_reg_1bit[15].u_reg_1bit"/>
    <g transform="translate(0,10)" s:x="0" s:y="10" s:pid="in0" id="port_gen_reg_1bit[15].u_reg_1bit~i_clk">
      <text x="-3" y="-4" class="inputPortLabel cell_gen_reg_1bit[15].u_reg_1bit">i_clk</text>
    </g>
    <g transform="translate(0,30)" s:x="0" s:y="10" s:pid="in0" id="port_gen_reg_1bit[15].u_reg_1bit~i_d">
      <text x="-3" y="-4" class="inputPortLabel cell_gen_reg_1bit[15].u_reg_1bit">i_d</text>
    </g>
    <g transform="translate(0,50)" s:x="0" s:y="10" s:pid="in0" id="port_gen_reg_1bit[15].u_reg_1bit~i_rst_n">
      <text x="-3" y="-4" class="inputPortLabel cell_gen_reg_1bit[15].u_reg_1bit">i_rst_n</text>
    </g>
    <g transform="translate(30,10)" s:x="30" s:y="10" s:pid="out0" id="port_gen_reg_1bit[15].u_reg_1bit~o_q">
      <text x="5" y="-4" style="fill:#000; stroke:none" class="cell_gen_reg_1bit[15].u_reg_1bit">o_q</text>
    </g>
  </g>
  <g s:type="generic" transform="translate(314,802.5)" s:width="30" s:height="40" id="cell_gen_reg_1bit[1].u_reg_1bit">
    <text x="15" y="-4" class="nodelabel cell_gen_reg_1bit[1].u_reg_1bit" s:attribute="ref">program_counter_reg_1bit</text>
    <rect width="30" height="60" s:generic="body" class="cell_gen_reg_1bit[1].u_reg_1bit"/>
    <g transform="translate(0,10)" s:x="0" s:y="10" s:pid="in0" id="port_gen_reg_1bit[1].u_reg_1bit~i_clk">
      <text x="-3" y="-4" class="inputPortLabel cell_gen_reg_1bit[1].u_reg_1bit">i_clk</text>
    </g>
    <g transform="translate(0,30)" s:x="0" s:y="10" s:pid="in0" id="port_gen_reg_1bit[1].u_reg_1bit~i_d">
      <text x="-3" y="-4" class="inputPortLabel cell_gen_reg_1bit[1].u_reg_1bit">i_d</text>
    </g>
    <g transform="translate(0,50)" s:x="0" s:y="10" s:pid="in0" id="port_gen_reg_1bit[1].u_reg_1bit~i_rst_n">
      <text x="-3" y="-4" class="inputPortLabel cell_gen_reg_1bit[1].u_reg_1bit">i_rst_n</text>
    </g>
    <g transform="translate(30,10)" s:x="30" s:y="10" s:pid="out0" id="port_gen_reg_1bit[1].u_reg_1bit~o_q">
      <text x="5" y="-4" style="fill:#000; stroke:none" class="cell_gen_reg_1bit[1].u_reg_1bit">o_q</text>
    </g>
  </g>
  <g s:type="generic" transform="translate(314,910.5)" s:width="30" s:height="40" id="cell_gen_reg_1bit[2].u_reg_1bit">
    <text x="15" y="-4" class="nodelabel cell_gen_reg_1bit[2].u_reg_1bit" s:attribute="ref">program_counter_reg_1bit</text>
    <rect width="30" height="60" s:generic="body" class="cell_gen_reg_1bit[2].u_reg_1bit"/>
    <g transform="translate(0,10)" s:x="0" s:y="10" s:pid="in0" id="port_gen_reg_1bit[2].u_reg_1bit~i_clk">
      <text x="-3" y="-4" class="inputPortLabel cell_gen_reg_1bit[2].u_reg_1bit">i_clk</text>
    </g>
    <g transform="translate(0,30)" s:x="0" s:y="10" s:pid="in0" id="port_gen_reg_1bit[2].u_reg_1bit~i_d">
      <text x="-3" y="-4" class="inputPortLabel cell_gen_reg_1bit[2].u_reg_1bit">i_d</text>
    </g>
    <g transform="translate(0,50)" s:x="0" s:y="10" s:pid="in0" id="port_gen_reg_1bit[2].u_reg_1bit~i_rst_n">
      <text x="-3" y="-4" class="inputPortLabel cell_gen_reg_1bit[2].u_reg_1bit">i_rst_n</text>
    </g>
    <g transform="translate(30,10)" s:x="30" s:y="10" s:pid="out0" id="port_gen_reg_1bit[2].u_reg_1bit~o_q">
      <text x="5" y="-4" style="fill:#000; stroke:none" class="cell_gen_reg_1bit[2].u_reg_1bit">o_q</text>
    </g>
  </g>
  <g s:type="generic" transform="translate(314,1018.5)" s:width="30" s:height="40" id="cell_gen_reg_1bit[3].u_reg_1bit">
    <text x="15" y="-4" class="nodelabel cell_gen_reg_1bit[3].u_reg_1bit" s:attribute="ref">program_counter_reg_1bit</text>
    <rect width="30" height="60" s:generic="body" class="cell_gen_reg_1bit[3].u_reg_1bit"/>
    <g transform="translate(0,10)" s:x="0" s:y="10" s:pid="in0" id="port_gen_reg_1bit[3].u_reg_1bit~i_clk">
      <text x="-3" y="-4" class="inputPortLabel cell_gen_reg_1bit[3].u_reg_1bit">i_clk</text>
    </g>
    <g transform="translate(0,30)" s:x="0" s:y="10" s:pid="in0" id="port_gen_reg_1bit[3].u_reg_1bit~i_d">
      <text x="-3" y="-4" class="inputPortLabel cell_gen_reg_1bit[3].u_reg_1bit">i_d</text>
    </g>
    <g transform="translate(0,50)" s:x="0" s:y="10" s:pid="in0" id="port_gen_reg_1bit[3].u_reg_1bit~i_rst_n">
      <text x="-3" y="-4" class="inputPortLabel cell_gen_reg_1bit[3].u_reg_1bit">i_rst_n</text>
    </g>
    <g transform="translate(30,10)" s:x="30" s:y="10" s:pid="out0" id="port_gen_reg_1bit[3].u_reg_1bit~o_q">
      <text x="5" y="-4" style="fill:#000; stroke:none" class="cell_gen_reg_1bit[3].u_reg_1bit">o_q</text>
    </g>
  </g>
  <g s:type="generic" transform="translate(314,1126.5)" s:width="30" s:height="40" id="cell_gen_reg_1bit[4].u_reg_1bit">
    <text x="15" y="-4" class="nodelabel cell_gen_reg_1bit[4].u_reg_1bit" s:attribute="ref">program_counter_reg_1bit</text>
    <rect width="30" height="60" s:generic="body" class="cell_gen_reg_1bit[4].u_reg_1bit"/>
    <g transform="translate(0,10)" s:x="0" s:y="10" s:pid="in0" id="port_gen_reg_1bit[4].u_reg_1bit~i_clk">
      <text x="-3" y="-4" class="inputPortLabel cell_gen_reg_1bit[4].u_reg_1bit">i_clk</text>
    </g>
    <g transform="translate(0,30)" s:x="0" s:y="10" s:pid="in0" id="port_gen_reg_1bit[4].u_reg_1bit~i_d">
      <text x="-3" y="-4" class="inputPortLabel cell_gen_reg_1bit[4].u_reg_1bit">i_d</text>
    </g>
    <g transform="translate(0,50)" s:x="0" s:y="10" s:pid="in0" id="port_gen_reg_1bit[4].u_reg_1bit~i_rst_n">
      <text x="-3" y="-4" class="inputPortLabel cell_gen_reg_1bit[4].u_reg_1bit">i_rst_n</text>
    </g>
    <g transform="translate(30,10)" s:x="30" s:y="10" s:pid="out0" id="port_gen_reg_1bit[4].u_reg_1bit~o_q">
      <text x="5" y="-4" style="fill:#000; stroke:none" class="cell_gen_reg_1bit[4].u_reg_1bit">o_q</text>
    </g>
  </g>
  <g s:type="generic" transform="translate(314,1234.5)" s:width="30" s:height="40" id="cell_gen_reg_1bit[5].u_reg_1bit">
    <text x="15" y="-4" class="nodelabel cell_gen_reg_1bit[5].u_reg_1bit" s:attribute="ref">program_counter_reg_1bit</text>
    <rect width="30" height="60" s:generic="body" class="cell_gen_reg_1bit[5].u_reg_1bit"/>
    <g transform="translate(0,10)" s:x="0" s:y="10" s:pid="in0" id="port_gen_reg_1bit[5].u_reg_1bit~i_clk">
      <text x="-3" y="-4" class="inputPortLabel cell_gen_reg_1bit[5].u_reg_1bit">i_clk</text>
    </g>
    <g transform="translate(0,30)" s:x="0" s:y="10" s:pid="in0" id="port_gen_reg_1bit[5].u_reg_1bit~i_d">
      <text x="-3" y="-4" class="inputPortLabel cell_gen_reg_1bit[5].u_reg_1bit">i_d</text>
    </g>
    <g transform="translate(0,50)" s:x="0" s:y="10" s:pid="in0" id="port_gen_reg_1bit[5].u_reg_1bit~i_rst_n">
      <text x="-3" y="-4" class="inputPortLabel cell_gen_reg_1bit[5].u_reg_1bit">i_rst_n</text>
    </g>
    <g transform="translate(30,10)" s:x="30" s:y="10" s:pid="out0" id="port_gen_reg_1bit[5].u_reg_1bit~o_q">
      <text x="5" y="-4" style="fill:#000; stroke:none" class="cell_gen_reg_1bit[5].u_reg_1bit">o_q</text>
    </g>
  </g>
  <g s:type="generic" transform="translate(314,1342.5)" s:width="30" s:height="40" id="cell_gen_reg_1bit[6].u_reg_1bit">
    <text x="15" y="-4" class="nodelabel cell_gen_reg_1bit[6].u_reg_1bit" s:attribute="ref">program_counter_reg_1bit</text>
    <rect width="30" height="60" s:generic="body" class="cell_gen_reg_1bit[6].u_reg_1bit"/>
    <g transform="translate(0,10)" s:x="0" s:y="10" s:pid="in0" id="port_gen_reg_1bit[6].u_reg_1bit~i_clk">
      <text x="-3" y="-4" class="inputPortLabel cell_gen_reg_1bit[6].u_reg_1bit">i_clk</text>
    </g>
    <g transform="translate(0,30)" s:x="0" s:y="10" s:pid="in0" id="port_gen_reg_1bit[6].u_reg_1bit~i_d">
      <text x="-3" y="-4" class="inputPortLabel cell_gen_reg_1bit[6].u_reg_1bit">i_d</text>
    </g>
    <g transform="translate(0,50)" s:x="0" s:y="10" s:pid="in0" id="port_gen_reg_1bit[6].u_reg_1bit~i_rst_n">
      <text x="-3" y="-4" class="inputPortLabel cell_gen_reg_1bit[6].u_reg_1bit">i_rst_n</text>
    </g>
    <g transform="translate(30,10)" s:x="30" s:y="10" s:pid="out0" id="port_gen_reg_1bit[6].u_reg_1bit~o_q">
      <text x="5" y="-4" style="fill:#000; stroke:none" class="cell_gen_reg_1bit[6].u_reg_1bit">o_q</text>
    </g>
  </g>
  <g s:type="generic" transform="translate(314,1450.5)" s:width="30" s:height="40" id="cell_gen_reg_1bit[7].u_reg_1bit">
    <text x="15" y="-4" class="nodelabel cell_gen_reg_1bit[7].u_reg_1bit" s:attribute="ref">program_counter_reg_1bit</text>
    <rect width="30" height="60" s:generic="body" class="cell_gen_reg_1bit[7].u_reg_1bit"/>
    <g transform="translate(0,10)" s:x="0" s:y="10" s:pid="in0" id="port_gen_reg_1bit[7].u_reg_1bit~i_clk">
      <text x="-3" y="-4" class="inputPortLabel cell_gen_reg_1bit[7].u_reg_1bit">i_clk</text>
    </g>
    <g transform="translate(0,30)" s:x="0" s:y="10" s:pid="in0" id="port_gen_reg_1bit[7].u_reg_1bit~i_d">
      <text x="-3" y="-4" class="inputPortLabel cell_gen_reg_1bit[7].u_reg_1bit">i_d</text>
    </g>
    <g transform="translate(0,50)" s:x="0" s:y="10" s:pid="in0" id="port_gen_reg_1bit[7].u_reg_1bit~i_rst_n">
      <text x="-3" y="-4" class="inputPortLabel cell_gen_reg_1bit[7].u_reg_1bit">i_rst_n</text>
    </g>
    <g transform="translate(30,10)" s:x="30" s:y="10" s:pid="out0" id="port_gen_reg_1bit[7].u_reg_1bit~o_q">
      <text x="5" y="-4" style="fill:#000; stroke:none" class="cell_gen_reg_1bit[7].u_reg_1bit">o_q</text>
    </g>
  </g>
  <g s:type="generic" transform="translate(314,1666.5)" s:width="30" s:height="40" id="cell_gen_reg_1bit[8].u_reg_1bit">
    <text x="15" y="-4" class="nodelabel cell_gen_reg_1bit[8].u_reg_1bit" s:attribute="ref">program_counter_reg_1bit</text>
    <rect width="30" height="60" s:generic="body" class="cell_gen_reg_1bit[8].u_reg_1bit"/>
    <g transform="translate(0,10)" s:x="0" s:y="10" s:pid="in0" id="port_gen_reg_1bit[8].u_reg_1bit~i_clk">
      <text x="-3" y="-4" class="inputPortLabel cell_gen_reg_1bit[8].u_reg_1bit">i_clk</text>
    </g>
    <g transform="translate(0,30)" s:x="0" s:y="10" s:pid="in0" id="port_gen_reg_1bit[8].u_reg_1bit~i_d">
      <text x="-3" y="-4" class="inputPortLabel cell_gen_reg_1bit[8].u_reg_1bit">i_d</text>
    </g>
    <g transform="translate(0,50)" s:x="0" s:y="10" s:pid="in0" id="port_gen_reg_1bit[8].u_reg_1bit~i_rst_n">
      <text x="-3" y="-4" class="inputPortLabel cell_gen_reg_1bit[8].u_reg_1bit">i_rst_n</text>
    </g>
    <g transform="translate(30,10)" s:x="30" s:y="10" s:pid="out0" id="port_gen_reg_1bit[8].u_reg_1bit~o_q">
      <text x="5" y="-4" style="fill:#000; stroke:none" class="cell_gen_reg_1bit[8].u_reg_1bit">o_q</text>
    </g>
  </g>
  <g s:type="generic" transform="translate(314,1558.5)" s:width="30" s:height="40" id="cell_gen_reg_1bit[9].u_reg_1bit">
    <text x="15" y="-4" class="nodelabel cell_gen_reg_1bit[9].u_reg_1bit" s:attribute="ref">program_counter_reg_1bit</text>
    <rect width="30" height="60" s:generic="body" class="cell_gen_reg_1bit[9].u_reg_1bit"/>
    <g transform="translate(0,10)" s:x="0" s:y="10" s:pid="in0" id="port_gen_reg_1bit[9].u_reg_1bit~i_clk">
      <text x="-3" y="-4" class="inputPortLabel cell_gen_reg_1bit[9].u_reg_1bit">i_clk</text>
    </g>
    <g transform="translate(0,30)" s:x="0" s:y="10" s:pid="in0" id="port_gen_reg_1bit[9].u_reg_1bit~i_d">
      <text x="-3" y="-4" class="inputPortLabel cell_gen_reg_1bit[9].u_reg_1bit">i_d</text>
    </g>
    <g transform="translate(0,50)" s:x="0" s:y="10" s:pid="in0" id="port_gen_reg_1bit[9].u_reg_1bit~i_rst_n">
      <text x="-3" y="-4" class="inputPortLabel cell_gen_reg_1bit[9].u_reg_1bit">i_rst_n</text>
    </g>
    <g transform="translate(30,10)" s:x="30" s:y="10" s:pid="out0" id="port_gen_reg_1bit[9].u_reg_1bit~o_q">
      <text x="5" y="-4" style="fill:#000; stroke:none" class="cell_gen_reg_1bit[9].u_reg_1bit">o_q</text>
    </g>
  </g>
  <g s:type="inputExt" transform="translate(83,22)" s:width="30" s:height="20" id="cell_i_clk">
    <text x="15" y="-4" class="nodelabel cell_i_clk" s:attribute="ref">i_clk</text>
    <s:alias val="$_inputExt_"/>
    <path d="M0,0 L0,20 L15,20 L30,10 L15,0 Z" class="cell_i_clk"/>
    <g s:x="28" s:y="10" s:pid="Y"/>
  </g>
  <g s:type="inputExt" transform="translate(83,87)" s:width="30" s:height="20" id="cell_i_rst_n">
    <text x="15" y="-4" class="nodelabel cell_i_rst_n" s:attribute="ref">i_rst_n</text>
    <s:alias val="$_inputExt_"/>
    <path d="M0,0 L0,20 L15,20 L30,10 L15,0 Z" class="cell_i_rst_n"/>
    <g s:x="28" s:y="10" s:pid="Y"/>
  </g>
  <g s:type="inputExt" transform="translate(12,127)" s:width="30" s:height="20" id="cell_i_data">
    <text x="15" y="-4" class="nodelabel cell_i_data" s:attribute="ref">i_data</text>
    <s:alias val="$_inputExt_"/>
    <path d="M0,0 L0,20 L15,20 L30,10 L15,0 Z" class="cell_i_data"/>
    <g s:x="28" s:y="10" s:pid="Y"/>
  </g>
  <g s:type="outputExt" transform="translate(648,969)" s:width="30" s:height="20" id="cell_o_data">
    <text x="15" y="-4" class="nodelabel cell_o_data" s:attribute="ref">o_data</text>
    <s:alias val="$_outputExt_"/>
    <path d="M30,0 L30,20 L15,20 L0,10 L15,0 Z" class="cell_o_data"/>
    <g s:x="0" s:y="10" s:pid="A"/>
  </g>
  <g s:type="join" transform="translate(607,958.5)" s:width="4" s:height="40" id="cell_$join$,20,21,22,23,24,25,26,27,28,29,30,31,32,33,34,35,">
    <rect width="5" height="320" class="splitjoinBody" s:generic="body"/>
    <s:alias val="$_join_"/>
    <g s:x="5" s:y="20" s:pid="out"/>
    <g transform="translate(0,10)" s:x="0" s:y="10" s:pid="in0">
      <text x="-3" y="-4" class="inputPortLabel">0</text>
    </g>
    <g transform="translate(0,30)" s:x="0" s:y="10" s:pid="in0">
      <text x="-3" y="-4" class="inputPortLabel">1</text>
    </g>
    <g transform="translate(0,50)" s:x="0" s:y="10" s:pid="in0">
      <text x="-3" y="-4" class="inputPortLabel">2</text>
    </g>
    <g transform="translate(0,70)" s:x="0" s:y="10" s:pid="in0">
      <text x="-3" y="-4" class="inputPortLabel">3</text>
    </g>
    <g transform="translate(0,90)" s:x="0" s:y="10" s:pid="in0">
      <text x="-3" y="-4" class="inputPortLabel">4</text>
    </g>
    <g transform="translate(0,110)" s:x="0" s:y="10" s:pid="in0">
      <text x="-3" y="-4" class="inputPortLabel">5</text>
    </g>
    <g transform="translate(0,130)" s:x="0" s:y="10" s:pid="in0">
      <text x="-3" y="-4" class="inputPortLabel">6</text>
    </g>
    <g transform="translate(0,150)" s:x="0" s:y="10" s:pid="in0">
      <text x="-3" y="-4" class="inputPortLabel">7</text>
    </g>
    <g transform="translate(0,170)" s:x="0" s:y="10" s:pid="in0">
      <text x="-3" y="-4" class="inputPortLabel">8</text>
    </g>
    <g transform="translate(0,190)" s:x="0" s:y="10" s:pid="in0">
      <text x="-3" y="-4" class="inputPortLabel">9</text>
    </g>
    <g transform="translate(0,210)" s:x="0" s:y="10" s:pid="in0">
      <text x="-3" y="-4" class="inputPortLabel">10</text>
    </g>
    <g transform="translate(0,230)" s:x="0" s:y="10" s:pid="in0">
      <text x="-3" y="-4" class="inputPortLabel">11</text>
    </g>
    <g transform="translate(0,250)" s:x="0" s:y="10" s:pid="in0">
      <text x="-3" y="-4" class="inputPortLabel">12</text>
    </g>
    <g transform="translate(0,270)" s:x="0" s:y="10" s:pid="in0">
      <text x="-3" y="-4" class="inputPortLabel">13</text>
    </g>
    <g transform="translate(0,290)" s:x="0" s:y="10" s:pid="in0">
      <text x="-3" y="-4" class="inputPortLabel">14</text>
    </g>
    <g transform="translate(0,310)" s:x="0" s:y="10" s:pid="in0">
      <text x="-3" y="-4" class="inputPortLabel">15</text>
    </g>
  </g>
  <g s:type="split" transform="translate(108,242.5)" s:width="5" s:height="40" id="cell_$split$,4,5,6,7,8,9,10,11,12,13,14,15,16,17,18,19,">
    <rect width="5" height="320" class="splitjoinBody" s:generic="body"/>
    <s:alias val="$_split_"/>
    <g s:x="0" s:y="20" s:pid="in"/>
    <g transform="translate(4,10)" s:x="4" s:y="10" s:pid="out0">
      <text x="5" y="-4">0</text>
    </g>
    <g transform="translate(4,30)" s:x="4" s:y="10" s:pid="out0">
      <text x="5" y="-4">10</text>
    </g>
    <g transform="translate(4,50)" s:x="4" s:y="10" s:pid="out0">
      <text x="5" y="-4">11</text>
    </g>
    <g transform="translate(4,70)" s:x="4" s:y="10" s:pid="out0">
      <text x="5" y="-4">12</text>
    </g>
    <g transform="translate(4,90)" s:x="4" s:y="10" s:pid="out0">
      <text x="5" y="-4">13</text>
    </g>
    <g transform="translate(4,110)" s:x="4" s:y="10" s:pid="out0">
      <text x="5" y="-4">14</text>
    </g>
    <g transform="translate(4,130)" s:x="4" s:y="10" s:pid="out0">
      <text x="5" y="-4">15</text>
    </g>
    <g transform="translate(4,150)" s:x="4" s:y="10" s:pid="out0">
      <text x="5" y="-4">1</text>
    </g>
    <g transform="translate(4,170)" s:x="4" s:y="10" s:pid="out0">
      <text x="5" y="-4">2</text>
    </g>
    <g transform="translate(4,190)" s:x="4" s:y="10" s:pid="out0">
      <text x="5" y="-4">3</text>
    </g>
    <g transform="translate(4,210)" s:x="4" s:y="10" s:pid="out0">
      <text x="5" y="-4">4</text>
    </g>
    <g transform="translate(4,230)" s:x="4" s:y="10" s:pid="out0">
      <text x="5" y="-4">5</text>
    </g>
    <g transform="translate(4,250)" s:x="4" s:y="10" s:pid="out0">
      <text x="5" y="-4">6</text>
    </g>
    <g transform="translate(4,270)" s:x="4" s:y="10" s:pid="out0">
      <text x="5" y="-4">7</text>
    </g>
    <g transform="translate(4,290)" s:x="4" s:y="10" s:pid="out0">
      <text x="5" y="-4">8</text>
    </g>
    <g transform="translate(4,310)" s:x="4" s:y="10" s:pid="out0">
      <text x="5" y="-4">9</text>
    </g>
  </g>
  <line x1="111" x2="255" y1="32" y2="32" class="net_2"/>
  <line x1="255" x2="255" y1="32" y2="165" class="net_2"/>
  <circle cx="255" cy="165" r="2" style="fill:#000" class="net_2"/>
  <line x1="255" x2="314" y1="165" y2="165" class="net_2"/>
  <line x1="111" x2="255" y1="32" y2="32" class="net_2"/>
  <line x1="255" x2="255" y1="32" y2="57" class="net_2"/>
  <circle cx="255" cy="57" r="2" style="fill:#000" class="net_2"/>
  <line x1="255" x2="308" y1="57" y2="57" class="net_2"/>
  <line x1="111" x2="255" y1="32" y2="32" class="net_2"/>
  <line x1="255" x2="255" y1="32" y2="273" class="net_2"/>
  <circle cx="255" cy="273" r="2" style="fill:#000" class="net_2"/>
  <line x1="255" x2="308" y1="273" y2="273" class="net_2"/>
  <line x1="111" x2="255" y1="32" y2="32" class="net_2"/>
  <line x1="255" x2="255" y1="32" y2="381" class="net_2"/>
  <circle cx="255" cy="381" r="2" style="fill:#000" class="net_2"/>
  <line x1="255" x2="308" y1="381" y2="381" class="net_2"/>
  <line x1="111" x2="255" y1="32" y2="32" class="net_2"/>
  <line x1="255" x2="255" y1="32" y2="489" class="net_2"/>
  <circle cx="255" cy="489" r="2" style="fill:#000" class="net_2"/>
  <line x1="255" x2="308" y1="489" y2="489" class="net_2"/>
  <line x1="111" x2="255" y1="32" y2="32" class="net_2"/>
  <line x1="255" x2="255" y1="32" y2="597" class="net_2"/>
  <circle cx="255" cy="597" r="2" style="fill:#000" class="net_2"/>
  <line x1="255" x2="308" y1="597" y2="597" class="net_2"/>
  <line x1="111" x2="255" y1="32" y2="32" class="net_2"/>
  <line x1="255" x2="255" y1="32" y2="705" class="net_2"/>
  <circle cx="255" cy="705" r="2" style="fill:#000" class="net_2"/>
  <line x1="255" x2="308" y1="705" y2="705" class="net_2"/>
  <line x1="111" x2="255" y1="32" y2="32" class="net_2"/>
  <line x1="255" x2="255" y1="32" y2="813" class="net_2"/>
  <circle cx="255" cy="813" r="2" style="fill:#000" class="net_2"/>
  <line x1="255" x2="314" y1="813" y2="813" class="net_2"/>
  <line x1="111" x2="255" y1="32" y2="32" class="net_2"/>
  <line x1="255" x2="255" y1="32" y2="921" class="net_2"/>
  <circle cx="255" cy="921" r="2" style="fill:#000" class="net_2"/>
  <line x1="255" x2="314" y1="921" y2="921" class="net_2"/>
  <line x1="111" x2="255" y1="32" y2="32" class="net_2"/>
  <line x1="255" x2="255" y1="32" y2="1029" class="net_2"/>
  <circle cx="255" cy="1029" r="2" style="fill:#000" class="net_2"/>
  <line x1="255" x2="314" y1="1029" y2="1029" class="net_2"/>
  <line x1="111" x2="255" y1="32" y2="32" class="net_2"/>
  <line x1="255" x2="255" y1="32" y2="1137" class="net_2"/>
  <circle cx="255" cy="1137" r="2" style="fill:#000" class="net_2"/>
  <line x1="255" x2="314" y1="1137" y2="1137" class="net_2"/>
  <line x1="111" x2="255" y1="32" y2="32" class="net_2"/>
  <line x1="255" x2="255" y1="32" y2="1245" class="net_2"/>
  <circle cx="255" cy="1245" r="2" style="fill:#000" class="net_2"/>
  <line x1="255" x2="314" y1="1245" y2="1245" class="net_2"/>
  <line x1="111" x2="255" y1="32" y2="32" class="net_2"/>
  <line x1="255" x2="255" y1="32" y2="1353" class="net_2"/>
  <circle cx="255" cy="1353" r="2" style="fill:#000" class="net_2"/>
  <line x1="255" x2="314" y1="1353" y2="1353" class="net_2"/>
  <line x1="111" x2="255" y1="32" y2="32" class="net_2"/>
  <line x1="255" x2="255" y1="32" y2="1461" class="net_2"/>
  <circle cx="255" cy="1461" r="2" style="fill:#000" class="net_2"/>
  <line x1="255" x2="314" y1="1461" y2="1461" class="net_2"/>
  <line x1="111" x2="255" y1="32" y2="32" class="net_2"/>
  <line x1="255" x2="255" y1="32" y2="1677" class="net_2"/>
  <line x1="255" x2="314" y1="1677" y2="1677" class="net_2"/>
  <line x1="111" x2="255" y1="32" y2="32" class="net_2"/>
  <line x1="255" x2="255" y1="32" y2="1569" class="net_2"/>
  <circle cx="255" cy="1569" r="2" style="fill:#000" class="net_2"/>
  <line x1="255" x2="314" y1="1569" y2="1569" class="net_2"/>
  <line x1="112.5" x2="112.5" y1="252.5" y2="127" class="net_4"/>
  <line x1="112.5" x2="135" y1="127" y2="127" class="net_4"/>
  <line x1="135" x2="135" y1="127" y2="185" class="net_4"/>
  <line x1="135" x2="314" y1="185" y2="185" class="net_4"/>
  <line x1="111" x2="245" y1="97" y2="97" class="net_3"/>
  <line x1="245" x2="245" y1="97" y2="205" class="net_3"/>
  <circle cx="245" cy="97" r="2" style="fill:#000" class="net_3"/>
  <circle cx="245" cy="205" r="2" style="fill:#000" class="net_3"/>
  <line x1="245" x2="314" y1="205" y2="205" class="net_3"/>
  <line x1="111" x2="308" y1="97" y2="97" class="net_3"/>
  <line x1="111" x2="245" y1="97" y2="97" class="net_3"/>
  <line x1="245" x2="245" y1="97" y2="313" class="net_3"/>
  <circle cx="245" cy="313" r="2" style="fill:#000" class="net_3"/>
  <line x1="245" x2="308" y1="313" y2="313" class="net_3"/>
  <line x1="111" x2="245" y1="97" y2="97" class="net_3"/>
  <line x1="245" x2="245" y1="97" y2="421" class="net_3"/>
  <circle cx="245" cy="421" r="2" style="fill:#000" class="net_3"/>
  <line x1="245" x2="308" y1="421" y2="421" class="net_3"/>
  <line x1="111" x2="245" y1="97" y2="97" class="net_3"/>
  <line x1="245" x2="245" y1="97" y2="529" class="net_3"/>
  <circle cx="245" cy="529" r="2" style="fill:#000" class="net_3"/>
  <line x1="245" x2="308" y1="529" y2="529" class="net_3"/>
  <line x1="111" x2="245" y1="97" y2="97" class="net_3"/>
  <line x1="245" x2="245" y1="97" y2="637" class="net_3"/>
  <circle cx="245" cy="637" r="2" style="fill:#000" class="net_3"/>
  <line x1="245" x2="308" y1="637" y2="637" class="net_3"/>
  <line x1="111" x2="245" y1="97" y2="97" class="net_3"/>
  <line x1="245" x2="245" y1="97" y2="745" class="net_3"/>
  <circle cx="245" cy="745" r="2" style="fill:#000" class="net_3"/>
  <line x1="245" x2="308" y1="745" y2="745" class="net_3"/>
  <line x1="111" x2="245" y1="97" y2="97" class="net_3"/>
  <line x1="245" x2="245" y1="97" y2="853" class="net_3"/>
  <circle cx="245" cy="853" r="2" style="fill:#000" class="net_3"/>
  <line x1="245" x2="314" y1="853" y2="853" class="net_3"/>
  <line x1="111" x2="245" y1="97" y2="97" class="net_3"/>
  <line x1="245" x2="245" y1="97" y2="961" class="net_3"/>
  <circle cx="245" cy="961" r="2" style="fill:#000" class="net_3"/>
  <line x1="245" x2="314" y1="961" y2="961" class="net_3"/>
  <line x1="111" x2="245" y1="97" y2="97" class="net_3"/>
  <line x1="245" x2="245" y1="97" y2="1069" class="net_3"/>
  <circle cx="245" cy="1069" r="2" style="fill:#000" class="net_3"/>
  <line x1="245" x2="314" y1="1069" y2="1069" class="net_3"/>
  <line x1="111" x2="245" y1="97" y2="97" class="net_3"/>
  <line x1="245" x2="245" y1="97" y2="1177" class="net_3"/>
  <circle cx="245" cy="1177" r="2" style="fill:#000" class="net_3"/>
  <line x1="245" x2="314" y1="1177" y2="1177" class="net_3"/>
  <line x1="111" x2="245" y1="97" y2="97" class="net_3"/>
  <line x1="245" x2="245" y1="97" y2="1285" class="net_3"/>
  <circle cx="245" cy="1285" r="2" style="fill:#000" class="net_3"/>
  <line x1="245" x2="314" y1="1285" y2="1285" class="net_3"/>
  <line x1="111" x2="245" y1="97" y2="97" class="net_3"/>
  <line x1="245" x2="245" y1="97" y2="1393" class="net_3"/>
  <circle cx="245" cy="1393" r="2" style="fill:#000" class="net_3"/>
  <line x1="245" x2="314" y1="1393" y2="1393" class="net_3"/>
  <line x1="111" x2="245" y1="97" y2="97" class="net_3"/>
  <line x1="245" x2="245" y1="97" y2="1501" class="net_3"/>
  <circle cx="245" cy="1501" r="2" style="fill:#000" class="net_3"/>
  <line x1="245" x2="314" y1="1501" y2="1501" class="net_3"/>
  <line x1="111" x2="245" y1="97" y2="97" class="net_3"/>
  <line x1="245" x2="245" y1="97" y2="1717" class="net_3"/>
  <line x1="245" x2="314" y1="1717" y2="1717" class="net_3"/>
  <line x1="111" x2="245" y1="97" y2="97" class="net_3"/>
  <line x1="245" x2="245" y1="97" y2="1609" class="net_3"/>
  <circle cx="245" cy="1609" r="2" style="fill:#000" class="net_3"/>
  <line x1="245" x2="314" y1="1609" y2="1609" class="net_3"/>
  <line x1="112.5" x2="112.5" y1="272.5" y2="117" class="net_14"/>
  <line x1="112.5" x2="135" y1="117" y2="117" class="net_14"/>
  <line x1="135" x2="135" y1="117" y2="77" class="net_14"/>
  <line x1="135" x2="308" y1="77" y2="77" class="net_14"/>
  <line x1="113" x2="308" y1="293" y2="293" class="net_15"/>
  <line x1="113" x2="235" y1="313" y2="313" class="net_16"/>
  <line x1="235" x2="235" y1="313" y2="401" class="net_16"/>
  <line x1="235" x2="308" y1="401" y2="401" class="net_16"/>
  <line x1="113" x2="225" y1="333" y2="333" class="net_17"/>
  <line x1="225" x2="225" y1="333" y2="509" class="net_17"/>
  <line x1="225" x2="308" y1="509" y2="509" class="net_17"/>
  <line x1="113" x2="215" y1="353" y2="353" class="net_18"/>
  <line x1="215" x2="215" y1="353" y2="617" class="net_18"/>
  <line x1="215" x2="308" y1="617" y2="617" class="net_18"/>
  <line x1="113" x2="205" y1="373" y2="373" class="net_19"/>
  <line x1="205" x2="205" y1="373" y2="725" class="net_19"/>
  <line x1="205" x2="308" y1="725" y2="725" class="net_19"/>
  <line x1="113" x2="195" y1="393" y2="393" class="net_5"/>
  <line x1="195" x2="195" y1="393" y2="833" class="net_5"/>
  <line x1="195" x2="314" y1="833" y2="833" class="net_5"/>
  <line x1="113" x2="185" y1="413" y2="413" class="net_6"/>
  <line x1="185" x2="185" y1="413" y2="941" class="net_6"/>
  <line x1="185" x2="314" y1="941" y2="941" class="net_6"/>
  <line x1="113" x2="175" y1="433" y2="433" class="net_7"/>
  <line x1="175" x2="175" y1="433" y2="1049" class="net_7"/>
  <line x1="175" x2="314" y1="1049" y2="1049" class="net_7"/>
  <line x1="113" x2="165" y1="453" y2="453" class="net_8"/>
  <line x1="165" x2="165" y1="453" y2="1157" class="net_8"/>
  <line x1="165" x2="314" y1="1157" y2="1157" class="net_8"/>
  <line x1="113" x2="155" y1="473" y2="473" class="net_9"/>
  <line x1="155" x2="155" y1="473" y2="1265" class="net_9"/>
  <line x1="155" x2="314" y1="1265" y2="1265" class="net_9"/>
  <line x1="113" x2="145" y1="493" y2="493" class="net_10"/>
  <line x1="145" x2="145" y1="493" y2="1373" class="net_10"/>
  <line x1="145" x2="314" y1="1373" y2="1373" class="net_10"/>
  <line x1="113" x2="135" y1="513" y2="513" class="net_11"/>
  <line x1="135" x2="135" y1="513" y2="1481" class="net_11"/>
  <line x1="135" x2="314" y1="1481" y2="1481" class="net_11"/>
  <line x1="112.5" x2="112.5" y1="533.5" y2="1697" class="net_12"/>
  <line x1="112.5" x2="314" y1="1697" y2="1697" class="net_12"/>
  <line x1="112.5" x2="112.5" y1="553.5" y2="1589" class="net_13"/>
  <line x1="112.5" x2="314" y1="1589" y2="1589" class="net_13"/>
  <line x1="613" x2="648" y1="979" y2="979" class="net_20,21,22,23,24,25,26,27,28,29,30,31,32,33,34,35"/>
  <line x1="345" x2="607.5" y1="165" y2="165" class="net_20"/>
  <line x1="607.5" x2="607.5" y1="165" y2="968.5" class="net_20"/>
  <line x1="345" x2="607.5" y1="813" y2="813" class="net_21"/>
  <line x1="607.5" x2="607.5" y1="813" y2="988.5" class="net_21"/>
  <line x1="345" x2="570" y1="921" y2="921" class="net_22"/>
  <line x1="570" x2="570" y1="921" y2="1009" class="net_22"/>
  <line x1="570" x2="607" y1="1009" y2="1009" class="net_22"/>
  <line x1="345" x2="607" y1="1029" y2="1029" class="net_23"/>
  <line x1="345" x2="500" y1="1137" y2="1137" class="net_24"/>
  <line x1="500" x2="500" y1="1137" y2="1049" class="net_24"/>
  <line x1="500" x2="607" y1="1049" y2="1049" class="net_24"/>
  <line x1="345" x2="510" y1="1245" y2="1245" class="net_25"/>
  <line x1="510" x2="510" y1="1245" y2="1069" class="net_25"/>
  <line x1="510" x2="607" y1="1069" y2="1069" class="net_25"/>
  <line x1="345" x2="530" y1="1353" y2="1353" class="net_26"/>
  <line x1="530" x2="530" y1="1353" y2="1089" class="net_26"/>
  <line x1="530" x2="607" y1="1089" y2="1089" class="net_26"/>
  <line x1="345" x2="550" y1="1461" y2="1461" class="net_27"/>
  <line x1="550" x2="550" y1="1461" y2="1109" class="net_27"/>
  <line x1="550" x2="607" y1="1109" y2="1109" class="net_27"/>
  <line x1="345" x2="570" y1="1677" y2="1677" class="net_28"/>
  <line x1="570" x2="570" y1="1677" y2="1129" class="net_28"/>
  <line x1="570" x2="607" y1="1129" y2="1129" class="net_28"/>
  <line x1="345" x2="580" y1="1569" y2="1569" class="net_29"/>
  <line x1="580" x2="580" y1="1569" y2="1149" class="net_29"/>
  <line x1="580" x2="607" y1="1149" y2="1149" class="net_29"/>
  <line x1="339" x2="590" y1="57" y2="57" class="net_30"/>
  <line x1="590" x2="590" y1="57" y2="1169" class="net_30"/>
  <line x1="590" x2="607" y1="1169" y2="1169" class="net_30"/>
  <line x1="339" x2="560" y1="273" y2="273" class="net_31"/>
  <line x1="560" x2="560" y1="273" y2="1189" class="net_31"/>
  <line x1="560" x2="607" y1="1189" y2="1189" class="net_31"/>
  <line x1="339" x2="540" y1="381" y2="381" class="net_32"/>
  <line x1="540" x2="540" y1="381" y2="1209" class="net_32"/>
  <line x1="540" x2="607" y1="1209" y2="1209" class="net_32"/>
  <line x1="339" x2="520" y1="489" y2="489" class="net_33"/>
  <line x1="520" x2="520" y1="489" y2="1229" class="net_33"/>
  <line x1="520" x2="607" y1="1229" y2="1229" class="net_33"/>
  <line x1="339" x2="480" y1="597" y2="597" class="net_34"/>
  <line x1="480" x2="480" y1="597" y2="1298.5" class="net_34"/>
  <line x1="480" x2="607.5" y1="1298.5" y2="1298.5" class="net_34"/>
  <line x1="607.5" x2="607.5" y1="1298.5" y2="1249.5" class="net_34"/>
  <line x1="339" x2="490" y1="705" y2="705" class="net_35"/>
  <line x1="490" x2="490" y1="705" y2="1288.5" class="net_35"/>
  <line x1="490" x2="607.5" y1="1288.5" y2="1288.5" class="net_35"/>
  <line x1="607.5" x2="607.5" y1="1288.5" y2="1269.5" class="net_35"/>
  <line x1="40" x2="108.5" y1="137" y2="137" class="net_4,5,6,7,8,9,10,11,12,13,14,15,16,17,18,19"/>
  <line x1="108.5" x2="108.5" y1="137" y2="262.5" class="net_4,5,6,7,8,9,10,11,12,13,14,15,16,17,18,19"/>
</svg>
