<svg xmlns="http://www.w3.org/2000/svg" xmlns:xlink="http://www.w3.org/1999/xlink" xmlns:s="https://github.com/nturley/netlistsvg" width="538" height="475.5">
  <style>svg {
    stroke:#000;
    fill:none;
  }
  text {
    fill:#000;
    stroke:none;
    font-size:10px;
    font-weight: bold;
    font-family: "Courier New", monospace;
  }
  .nodelabel {
    text-anchor: middle;
  }
  .inputPortLabel {
    text-anchor: end;
  }
  .splitjoinBody {
    fill:#000;
  }</style>
  <g s:type="generic" transform="translate(271,227.5)" s:width="30" s:height="40" id="cell_u_adder_branch">
    <text x="15" y="-4" class="nodelabel cell_u_adder_branch" s:attribute="ref">program_counter_adder_nbit</text>
    <rect width="30" height="60" s:generic="body" class="cell_u_adder_branch"/>
    <g transform="translate(0,10)" s:x="0" s:y="10" s:pid="in0" id="port_u_adder_branch~i_a">
      <text x="-3" y="-4" class="inputPortLabel cell_u_adder_branch">i_a</text>
    </g>
    <g transform="translate(0,30)" s:x="0" s:y="10" s:pid="in0" id="port_u_adder_branch~i_b">
      <text x="-3" y="-4" class="inputPortLabel cell_u_adder_branch">i_b</text>
    </g>
    <g transform="translate(0,50)" s:x="0" s:y="10" s:pid="in0" id="port_u_adder_branch~i_cin">
      <text x="-3" y="-4" class="inputPortLabel cell_u_adder_branch">i_cin</text>
    </g>
    <g transform="translate(30,10)" s:x="30" s:y="10" s:pid="out0" id="port_u_adder_branch~o_cout">
      <text x="5" y="-4" style="fill:#000; stroke:none" class="cell_u_adder_branch">o_cout</text>
    </g>
    <g transform="translate(30,30)" s:x="30" s:y="10" s:pid="out0" id="port_u_adder_branch~o_sum">
      <text x="5" y="-4" style="fill:#000; stroke:none" class="cell_u_adder_branch">o_sum</text>
    </g>
  </g>
  <g s:type="generic" transform="translate(280.2,119.5)" s:width="30" s:height="40" id="cell_u_adder_inc">
    <text x="15" y="-4" class="nodelabel cell_u_adder_inc" s:attribute="ref">program_counter_adder_nbit</text>
    <rect width="30" height="60" s:generic="body" class="cell_u_adder_inc"/>
    <g transform="translate(0,10)" s:x="0" s:y="10" s:pid="in0" id="port_u_adder_inc~i_a">
      <text x="-3" y="-4" class="inputPortLabel cell_u_adder_inc">i_a</text>
    </g>
    <g transform="translate(0,30)" s:x="0" s:y="10" s:pid="in0" id="port_u_adder_inc~i_b">
      <text x="-3" y="-4" class="inputPortLabel cell_u_adder_inc">i_b</text>
    </g>
    <g transform="translate(0,50)" s:x="0" s:y="10" s:pid="in0" id="port_u_adder_inc~i_cin">
      <text x="-3" y="-4" class="inputPortLabel cell_u_adder_inc">i_cin</text>
    </g>
    <g transform="translate(30,10)" s:x="30" s:y="10" s:pid="out0" id="port_u_adder_inc~o_cout">
      <text x="5" y="-4" style="fill:#000; stroke:none" class="cell_u_adder_inc">o_cout</text>
    </g>
    <g transform="translate(30,30)" s:x="30" s:y="10" s:pid="out0" id="port_u_adder_inc~o_sum">
      <text x="5" y="-4" style="fill:#000; stroke:none" class="cell_u_adder_inc">o_sum</text>
    </g>
  </g>
  <g s:type="generic" transform="translate(280.2,335.5)" s:width="30" s:height="40" id="cell_u_adder_jalr">
    <text x="15" y="-4" class="nodelabel cell_u_adder_jalr" s:attribute="ref">program_counter_adder_nbit</text>
    <rect width="30" height="60" s:generic="body" class="cell_u_adder_jalr"/>
    <g transform="translate(0,10)" s:x="0" s:y="10" s:pid="in0" id="port_u_adder_jalr~i_a">
      <text x="-3" y="-4" class="inputPortLabel cell_u_adder_jalr">i_a</text>
    </g>
    <g transform="translate(0,30)" s:x="0" s:y="10" s:pid="in0" id="port_u_adder_jalr~i_b">
      <text x="-3" y="-4" class="inputPortLabel cell_u_adder_jalr">i_b</text>
    </g>
    <g transform="translate(0,50)" s:x="0" s:y="10" s:pid="in0" id="port_u_adder_jalr~i_cin">
      <text x="-3" y="-4" class="inputPortLabel cell_u_adder_jalr">i_cin</text>
    </g>
    <g transform="translate(30,10)" s:x="30" s:y="10" s:pid="out0" id="port_u_adder_jalr~o_cout">
      <text x="5" y="-4" style="fill:#000; stroke:none" class="cell_u_adder_jalr">o_cout</text>
    </g>
    <g transform="translate(30,30)" s:x="30" s:y="10" s:pid="out0" id="port_u_adder_jalr~o_sum">
      <text x="5" y="-4" style="fill:#000; stroke:none" class="cell_u_adder_jalr">o_sum</text>
    </g>
  </g>
  <g s:type="generic" transform="translate(438,315.5)" s:width="30" s:height="40" id="cell_u_pc_mux_next">
    <text x="15" y="-4" class="nodelabel cell_u_pc_mux_next" s:attribute="ref">program_counter_mux_3to1_nbit</text>
    <rect width="30" height="80" s:generic="body" class="cell_u_pc_mux_next"/>
    <g transform="translate(0,10)" s:x="0" s:y="10" s:pid="in0" id="port_u_pc_mux_next~i_data0">
      <text x="-3" y="-4" class="inputPortLabel cell_u_pc_mux_next">i_data0</text>
    </g>
    <g transform="translate(0,30)" s:x="0" s:y="10" s:pid="in0" id="port_u_pc_mux_next~i_data1">
      <text x="-3" y="-4" class="inputPortLabel cell_u_pc_mux_next">i_data1</text>
    </g>
    <g transform="translate(0,50)" s:x="0" s:y="10" s:pid="in0" id="port_u_pc_mux_next~i_data2">
      <text x="-3" y="-4" class="inputPortLabel cell_u_pc_mux_next">i_data2</text>
    </g>
    <g transform="translate(0,70)" s:x="0" s:y="10" s:pid="in0" id="port_u_pc_mux_next~i_sel">
      <text x="-3" y="-4" class="inputPortLabel cell_u_pc_mux_next">i_sel</text>
    </g>
    <g transform="translate(30,10)" s:x="30" s:y="10" s:pid="out0" id="port_u_pc_mux_next~o_data">
      <text x="5" y="-4" style="fill:#000; stroke:none" class="cell_u_pc_mux_next">o_data</text>
    </g>
  </g>
  <g s:type="generic" transform="translate(132,32)" s:width="30" s:height="40" id="cell_u_pc_reg">
    <text x="15" y="-4" class="nodelabel cell_u_pc_reg" s:attribute="ref">program_counter_reg_nbit</text>
    <rect width="30" height="60" s:generic="body" class="cell_u_pc_reg"/>
    <g transform="translate(0,10)" s:x="0" s:y="10" s:pid="in0" id="port_u_pc_reg~i_clk">
      <text x="-3" y="-4" class="inputPortLabel cell_u_pc_reg">i_clk</text>
    </g>
    <g transform="translate(0,30)" s:x="0" s:y="10" s:pid="in0" id="port_u_pc_reg~i_data">
      <text x="-3" y="-4" class="inputPortLabel cell_u_pc_reg">i_data</text>
    </g>
    <g transform="translate(0,50)" s:x="0" s:y="10" s:pid="in0" id="port_u_pc_reg~i_rst_n">
      <text x="-3" y="-4" class="inputPortLabel cell_u_pc_reg">i_rst_n</text>
    </g>
    <g transform="translate(30,10)" s:x="30" s:y="10" s:pid="out0" id="port_u_pc_reg~o_data">
      <text x="5" y="-4" style="fill:#000; stroke:none" class="cell_u_pc_reg">o_data</text>
    </g>
  </g>
  <g s:type="inputExt" transform="translate(12,32.5)" s:width="30" s:height="20" id="cell_i_clk">
    <text x="15" y="-4" class="nodelabel cell_i_clk" s:attribute="ref">i_clk</text>
    <s:alias val="$_inputExt_"/>
    <path d="M0,0 L0,20 L15,20 L30,10 L15,0 Z" class="cell_i_clk"/>
    <g s:x="28" s:y="10" s:pid="Y"/>
  </g>
  <g s:type="inputExt" transform="translate(12,97.5)" s:width="30" s:height="20" id="cell_i_rst_n">
    <text x="15" y="-4" class="nodelabel cell_i_rst_n" s:attribute="ref">i_rst_n</text>
    <s:alias val="$_inputExt_"/>
    <path d="M0,0 L0,20 L15,20 L30,10 L15,0 Z" class="cell_i_rst_n"/>
    <g s:x="28" s:y="10" s:pid="Y"/>
  </g>
  <g s:type="inputExt" transform="translate(271,443.5)" s:width="30" s:height="20" id="cell_i_pc_sel">
    <text x="15" y="-4" class="nodelabel cell_i_pc_sel" s:attribute="ref">i_pc_sel</text>
    <s:alias val="$_inputExt_"/>
    <path d="M0,0 L0,20 L15,20 L30,10 L15,0 Z" class="cell_i_pc_sel"/>
    <g s:x="28" s:y="10" s:pid="Y"/>
  </g>
  <g s:type="inputExt" transform="translate(132,356)" s:width="30" s:height="20" id="cell_i_imm">
    <text x="15" y="-4" class="nodelabel cell_i_imm" s:attribute="ref">i_imm</text>
    <s:alias val="$_inputExt_"/>
    <path d="M0,0 L0,20 L15,20 L30,10 L15,0 Z" class="cell_i_imm"/>
    <g s:x="28" s:y="10" s:pid="Y"/>
  </g>
  <g s:type="inputExt" transform="translate(132,421)" s:width="30" s:height="20" id="cell_i_rs1_data">
    <text x="15" y="-4" class="nodelabel cell_i_rs1_data" s:attribute="ref">i_rs1_data</text>
    <s:alias val="$_inputExt_"/>
    <path d="M0,0 L0,20 L15,20 L30,10 L15,0 Z" class="cell_i_rs1_data"/>
    <g s:x="28" s:y="10" s:pid="Y"/>
  </g>
  <g s:type="outputExt" transform="translate(438,32.5)" s:width="30" s:height="20" id="cell_o_pc_current">
    <text x="15" y="-4" class="nodelabel cell_o_pc_current" s:attribute="ref">o_pc_current</text>
    <s:alias val="$_outputExt_"/>
    <path d="M30,0 L30,20 L15,20 L0,10 L15,0 Z" class="cell_o_pc_current"/>
    <g s:x="0" s:y="10" s:pid="A"/>
  </g>
  <g s:type="outputExt" transform="translate(438,140)" s:width="30" s:height="20" id="cell_o_pc_plus_1">
    <text x="15" y="-4" class="nodelabel cell_o_pc_plus_1" s:attribute="ref">o_pc_plus_1</text>
    <s:alias val="$_outputExt_"/>
    <path d="M30,0 L30,20 L15,20 L0,10 L15,0 Z" class="cell_o_pc_plus_1"/>
    <g s:x="0" s:y="10" s:pid="A"/>
  </g>
  <g s:type="constant" transform="translate(132,268)" s:width="30" s:height="20" id="cell_0">
    <text x="15" y="-4" class="nodelabel cell_0" s:attribute="ref">0</text>
    <s:alias val="$_constant_"/>
    <rect width="30" height="20" class="cell_0"/>
    <g s:x="30" s:y="10" s:pid="Y"/>
  </g>
  <g s:type="constant" transform="translate(132,140)" s:width="30" s:height="20" id="cell_0000000000000001">
    <text x="15" y="-4" class="nodelabel cell_0000000000000001" s:attribute="ref">0x1</text>
    <s:alias val="$_constant_"/>
    <rect width="30" height="20" class="cell_0000000000000001"/>
    <g s:x="30" s:y="10" s:pid="Y"/>
  </g>
  <line x1="163" x2="220" y1="42.5" y2="42.5" class="net_38,39,40,41,42,43,44,45,46,47,48,49,50,51,52,53"/>
  <line x1="220" x2="220" y1="42.5" y2="238" class="net_38,39,40,41,42,43,44,45,46,47,48,49,50,51,52,53"/>
  <circle cx="220" cy="42.5" r="2" style="fill:#000" class="net_38,39,40,41,42,43,44,45,46,47,48,49,50,51,52,53"/>
  <line x1="220" x2="271" y1="238" y2="238" class="net_38,39,40,41,42,43,44,45,46,47,48,49,50,51,52,53"/>
  <line x1="163" x2="220" y1="42.5" y2="42.5" class="net_38,39,40,41,42,43,44,45,46,47,48,49,50,51,52,53"/>
  <line x1="220" x2="220" y1="42.5" y2="130" class="net_38,39,40,41,42,43,44,45,46,47,48,49,50,51,52,53"/>
  <circle cx="220" cy="130" r="2" style="fill:#000" class="net_38,39,40,41,42,43,44,45,46,47,48,49,50,51,52,53"/>
  <line x1="220" x2="280.2" y1="130" y2="130" class="net_38,39,40,41,42,43,44,45,46,47,48,49,50,51,52,53"/>
  <line x1="163" x2="438" y1="42.5" y2="42.5" class="net_38,39,40,41,42,43,44,45,46,47,48,49,50,51,52,53"/>
  <line x1="160" x2="220" y1="366" y2="366" class="net_6,7,8,9,10,11,12,13,14,15,16,17,18,19,20,21"/>
  <line x1="220" x2="220" y1="366" y2="258" class="net_6,7,8,9,10,11,12,13,14,15,16,17,18,19,20,21"/>
  <circle cx="220" cy="366" r="2" style="fill:#000" class="net_6,7,8,9,10,11,12,13,14,15,16,17,18,19,20,21"/>
  <line x1="220" x2="271" y1="258" y2="258" class="net_6,7,8,9,10,11,12,13,14,15,16,17,18,19,20,21"/>
  <line x1="160" x2="280.2" y1="366" y2="366" class="net_6,7,8,9,10,11,12,13,14,15,16,17,18,19,20,21"/>
  <line x1="162" x2="271" y1="278" y2="278" class="net_118"/>
  <line x1="162" x2="210" y1="278" y2="278" class="net_118"/>
  <line x1="210" x2="210" y1="278" y2="170" class="net_118"/>
  <circle cx="210" cy="278" r="2" style="fill:#000" class="net_118"/>
  <line x1="210" x2="280.2" y1="170" y2="170" class="net_118"/>
  <line x1="162" x2="210" y1="278" y2="278" class="net_118"/>
  <line x1="210" x2="210" y1="278" y2="386" class="net_118"/>
  <line x1="210" x2="280.2" y1="386" y2="386" class="net_118"/>
  <line x1="162" x2="280.2" y1="150" y2="150" class="net_119,120,121,122,123,124,125,126,127,128,129,130,131,132,133,134"/>
  <line x1="160" x2="230" y1="431" y2="431" class="net_22,23,24,25,26,27,28,29,30,31,32,33,34,35,36,37"/>
  <line x1="230" x2="230" y1="431" y2="346" class="net_22,23,24,25,26,27,28,29,30,31,32,33,34,35,36,37"/>
  <line x1="230" x2="280.2" y1="346" y2="346" class="net_22,23,24,25,26,27,28,29,30,31,32,33,34,35,36,37"/>
  <line x1="311.2" x2="385" y1="150" y2="150" class="net_54,55,56,57,58,59,60,61,62,63,64,65,66,67,68,69"/>
  <line x1="385" x2="385" y1="150" y2="326" class="net_54,55,56,57,58,59,60,61,62,63,64,65,66,67,68,69"/>
  <circle cx="385" cy="150" r="2" style="fill:#000" class="net_54,55,56,57,58,59,60,61,62,63,64,65,66,67,68,69"/>
  <line x1="385" x2="438" y1="326" y2="326" class="net_54,55,56,57,58,59,60,61,62,63,64,65,66,67,68,69"/>
  <line x1="311.2" x2="438" y1="150" y2="150" class="net_54,55,56,57,58,59,60,61,62,63,64,65,66,67,68,69"/>
  <line x1="302" x2="375" y1="258" y2="258" class="net_70,71,72,73,74,75,76,77,78,79,80,81,82,83,84,85"/>
  <line x1="375" x2="375" y1="258" y2="346" class="net_70,71,72,73,74,75,76,77,78,79,80,81,82,83,84,85"/>
  <line x1="375" x2="438" y1="346" y2="346" class="net_70,71,72,73,74,75,76,77,78,79,80,81,82,83,84,85"/>
  <line x1="311.2" x2="438" y1="366" y2="366" class="net_86,87,88,89,90,91,92,93,94,95,96,97,98,99,100,101"/>
  <line x1="299" x2="365" y1="453.5" y2="453.5" class="net_4,5"/>
  <line x1="365" x2="365" y1="453.5" y2="386" class="net_4,5"/>
  <line x1="365" x2="438" y1="386" y2="386" class="net_4,5"/>
  <line x1="40" x2="132" y1="42.5" y2="42.5" class="net_2"/>
  <line x1="469" x2="526" y1="326" y2="326" class="net_102,103,104,105,106,107,108,109,110,111,112,113,114,115,116,117"/>
  <line x1="526" x2="526" y1="326" y2="12" class="net_102,103,104,105,106,107,108,109,110,111,112,113,114,115,116,117"/>
  <line x1="526" x2="64" y1="12" y2="12" class="net_102,103,104,105,106,107,108,109,110,111,112,113,114,115,116,117"/>
  <line x1="64" x2="64" y1="12" y2="62.5" class="net_102,103,104,105,106,107,108,109,110,111,112,113,114,115,116,117"/>
  <line x1="64" x2="132" y1="62.5" y2="62.5" class="net_102,103,104,105,106,107,108,109,110,111,112,113,114,115,116,117"/>
  <line x1="40" x2="64" y1="107.5" y2="107.5" class="net_3"/>
  <line x1="64" x2="64" y1="107.5" y2="82.5" class="net_3"/>
  <line x1="64" x2="132" y1="82.5" y2="82.5" class="net_3"/>
  <line x1="302" x2="365" y1="238" y2="238" class="net_"/>
  <line x1="311.2" x2="365" y1="130" y2="130" class="net_"/>
  <circle cx="365" cy="238" r="2" style="fill:#000" class="net_"/>
  <line x1="365" x2="365" y1="130" y2="238" class="net_"/>
  <line x1="311.2" x2="365" y1="346" y2="346" class="net_"/>
  <line x1="365" x2="365" y1="346" y2="238" class="net_"/>
</svg>
