<svg xmlns="http://www.w3.org/2000/svg" xmlns:xlink="http://www.w3.org/1999/xlink" xmlns:s="https://github.com/nturley/netlistsvg" width="627" height="352.5">
  <style>svg {
    stroke:#000;
    fill:none;
  }
  text {
    fill:#000;
    stroke:none;
    font-size:10px;
    font-weight: bold;
    font-family: "Courier New", monospace;
  }
  .nodelabel {
    text-anchor: middle;
  }
  .inputPortLabel {
    text-anchor: end;
  }
  .splitjoinBody {
    fill:#000;
  }</style>
  <g s:type="reduce_xor" transform="translate(157,33)" s:width="33" s:height="25" id="cell_$auto$simplemap.cc:106:simplemap_bitop$106">
    <s:alias val="$xor"/>
    <s:alias val="$reduce_xor"/>
    <s:alias val="$_XOR_"/>
    <path d="M3,0 A30 25 0 0 1 3,25 A30 25 0 0 0 33,12.5 A30 25 0 0 0 3,0" class="cell_$auto$simplemap.cc:106:simplemap_bitop$106"/>
    <path d="M0,0 A30 25 0 0 1 0,25" class="cell_$auto$simplemap.cc:106:simplemap_bitop$106"/>
    <g s:x="3" s:y="5" s:pid="A"/>
    <g s:x="3" s:y="20" s:pid="B"/>
    <g s:x="33" s:y="12.5" s:pid="Y"/>
  </g>
  <g s:type="reduce_xor" transform="translate(157,93)" s:width="33" s:height="25" id="cell_$auto$simplemap.cc:106:simplemap_bitop$107">
    <s:alias val="$xor"/>
    <s:alias val="$reduce_xor"/>
    <s:alias val="$_XOR_"/>
    <path d="M3,0 A30 25 0 0 1 3,25 A30 25 0 0 0 33,12.5 A30 25 0 0 0 3,0" class="cell_$auto$simplemap.cc:106:simplemap_bitop$107"/>
    <path d="M0,0 A30 25 0 0 1 0,25" class="cell_$auto$simplemap.cc:106:simplemap_bitop$107"/>
    <g s:x="3" s:y="5" s:pid="A"/>
    <g s:x="3" s:y="20" s:pid="B"/>
    <g s:x="33" s:y="12.5" s:pid="Y"/>
  </g>
  <g s:type="reduce_xor" transform="translate(225,145.5)" s:width="33" s:height="25" id="cell_$auto$simplemap.cc:106:simplemap_bitop$96">
    <s:alias val="$xor"/>
    <s:alias val="$reduce_xor"/>
    <s:alias val="$_XOR_"/>
    <path d="M3,0 A30 25 0 0 1 3,25 A30 25 0 0 0 33,12.5 A30 25 0 0 0 3,0" class="cell_$auto$simplemap.cc:106:simplemap_bitop$96"/>
    <path d="M0,0 A30 25 0 0 1 0,25" class="cell_$auto$simplemap.cc:106:simplemap_bitop$96"/>
    <g s:x="3" s:y="5" s:pid="A"/>
    <g s:x="3" s:y="20" s:pid="B"/>
    <g s:x="33" s:y="12.5" s:pid="Y"/>
  </g>
  <g s:type="reduce_xor" transform="translate(225,238)" s:width="33" s:height="25" id="cell_$auto$simplemap.cc:106:simplemap_bitop$97">
    <s:alias val="$xor"/>
    <s:alias val="$reduce_xor"/>
    <s:alias val="$_XOR_"/>
    <path d="M3,0 A30 25 0 0 1 3,25 A30 25 0 0 0 33,12.5 A30 25 0 0 0 3,0" class="cell_$auto$simplemap.cc:106:simplemap_bitop$97"/>
    <path d="M0,0 A30 25 0 0 1 0,25" class="cell_$auto$simplemap.cc:106:simplemap_bitop$97"/>
    <g s:x="3" s:y="5" s:pid="A"/>
    <g s:x="3" s:y="20" s:pid="B"/>
    <g s:x="33" s:y="12.5" s:pid="Y"/>
  </g>
  <g s:type="or" transform="translate(297,230.5)" s:width="30" s:height="25" id="cell_$auto$simplemap.cc:157:simplemap_reduce$101">
    <s:alias val="$or"/>
    <s:alias val="$logic_or"/>
    <s:alias val="$_OR_"/>
    <path d="M0,25 L0,25 L15,25 A15 12.5 0 0 0 15,0 L0,0" class="cell_$auto$simplemap.cc:157:simplemap_reduce$101"/>
    <path d="M0,0 A30 25 0 0 1 0,25" class="cell_$auto$simplemap.cc:157:simplemap_reduce$101"/>
    <g s:x="3" s:y="5" s:pid="A"/>
    <g s:x="3" s:y="20" s:pid="B"/>
    <g s:x="30" s:y="12.5" s:pid="Y"/>
  </g>
  <g s:type="or" transform="translate(226,85.5)" s:width="30" s:height="25" id="cell_$auto$simplemap.cc:157:simplemap_reduce$111">
    <s:alias val="$or"/>
    <s:alias val="$logic_or"/>
    <s:alias val="$_OR_"/>
    <path d="M0,25 L0,25 L15,25 A15 12.5 0 0 0 15,0 L0,0" class="cell_$auto$simplemap.cc:157:simplemap_reduce$111"/>
    <path d="M0,0 A30 25 0 0 1 0,25" class="cell_$auto$simplemap.cc:157:simplemap_reduce$111"/>
    <g s:x="3" s:y="5" s:pid="A"/>
    <g s:x="3" s:y="20" s:pid="B"/>
    <g s:x="30" s:y="12.5" s:pid="Y"/>
  </g>
  <g s:type="or" transform="translate(374,315.5)" s:width="30" s:height="25" id="cell_$auto$simplemap.cc:198:logic_reduce$92">
    <s:alias val="$or"/>
    <s:alias val="$logic_or"/>
    <s:alias val="$_OR_"/>
    <path d="M0,25 L0,25 L15,25 A15 12.5 0 0 0 15,0 L0,0" class="cell_$auto$simplemap.cc:198:logic_reduce$92"/>
    <path d="M0,0 A30 25 0 0 1 0,25" class="cell_$auto$simplemap.cc:198:logic_reduce$92"/>
    <g s:x="3" s:y="5" s:pid="A"/>
    <g s:x="3" s:y="20" s:pid="B"/>
    <g s:x="30" s:y="12.5" s:pid="Y"/>
  </g>
  <g s:type="not" transform="translate(376,233)" s:width="30" s:height="20" id="cell_$auto$simplemap.cc:227:simplemap_lognot$103">
    <s:alias val="$_NOT_"/>
    <s:alias val="$not"/>
    <s:alias val="$logic_not"/>
    <path d="M0,0 L0,20 L20,10 Z" class="cell_$auto$simplemap.cc:227:simplemap_lognot$103"/>
    <circle cx="23" cy="10" r="3" class="cell_$auto$simplemap.cc:227:simplemap_lognot$103"/>
    <g s:x="0" s:y="10" s:pid="A"/>
    <g s:x="25" s:y="10" s:pid="Y"/>
  </g>
  <g s:type="not" transform="translate(299,88)" s:width="30" s:height="20" id="cell_$auto$simplemap.cc:227:simplemap_lognot$113">
    <s:alias val="$_NOT_"/>
    <s:alias val="$not"/>
    <s:alias val="$logic_not"/>
    <path d="M0,0 L0,20 L20,10 Z" class="cell_$auto$simplemap.cc:227:simplemap_lognot$113"/>
    <circle cx="23" cy="10" r="3" class="cell_$auto$simplemap.cc:227:simplemap_lognot$113"/>
    <g s:x="0" s:y="10" s:pid="A"/>
    <g s:x="25" s:y="10" s:pid="Y"/>
  </g>
  <g s:type="not" transform="translate(453,318)" s:width="30" s:height="20" id="cell_$auto$simplemap.cc:227:simplemap_lognot$93">
    <s:alias val="$_NOT_"/>
    <s:alias val="$not"/>
    <s:alias val="$logic_not"/>
    <path d="M0,0 L0,20 L20,10 Z" class="cell_$auto$simplemap.cc:227:simplemap_lognot$93"/>
    <circle cx="23" cy="10" r="3" class="cell_$auto$simplemap.cc:227:simplemap_lognot$93"/>
    <g s:x="0" s:y="10" s:pid="A"/>
    <g s:x="25" s:y="10" s:pid="Y"/>
  </g>
  <g s:type="mux" transform="translate(377.3333333333333,13)" s:width="20" s:height="40" id="cell_$auto$simplemap.cc:298:simplemap_mux$114">
    <s:alias val="$pmux"/>
    <s:alias val="$mux"/>
    <s:alias val="$_MUX_"/>
    <path d="M0,0 L20,10 L20,30 L0,40 Z" class="cell_$auto$simplemap.cc:298:simplemap_mux$114"/>
    <g s:x="0" s:y="10" s:pid="A"/>
    <g s:x="0" s:y="30" s:pid="B"/>
    <g s:x="10" s:y="35" s:pid="S"/>
    <g s:x="20" s:y="20" s:pid="Y"/>
  </g>
  <g s:type="mux" transform="translate(454.3333333333333,158)" s:width="20" s:height="40" id="cell_$auto$simplemap.cc:298:simplemap_mux$115">
    <s:alias val="$pmux"/>
    <s:alias val="$mux"/>
    <s:alias val="$_MUX_"/>
    <path d="M0,0 L20,10 L20,30 L0,40 Z" class="cell_$auto$simplemap.cc:298:simplemap_mux$115"/>
    <g s:x="0" s:y="10" s:pid="A"/>
    <g s:x="0" s:y="30" s:pid="B"/>
    <g s:x="10" s:y="35" s:pid="S"/>
    <g s:x="20" s:y="20" s:pid="Y"/>
  </g>
  <g s:type="mux" transform="translate(524,243)" s:width="20" s:height="40" id="cell_$auto$simplemap.cc:298:simplemap_mux$116">
    <s:alias val="$pmux"/>
    <s:alias val="$mux"/>
    <s:alias val="$_MUX_"/>
    <path d="M0,0 L20,10 L20,30 L0,40 Z" class="cell_$auto$simplemap.cc:298:simplemap_mux$116"/>
    <g s:x="0" s:y="10" s:pid="A"/>
    <g s:x="0" s:y="30" s:pid="B"/>
    <g s:x="10" s:y="35" s:pid="S"/>
    <g s:x="20" s:y="20" s:pid="Y"/>
  </g>
  <g s:type="inputExt" transform="translate(12,223)" s:width="30" s:height="20" id="cell_i_sel">
    <text x="15" y="-4" class="nodelabel cell_i_sel" s:attribute="ref">i_sel</text>
    <s:alias val="$_inputExt_"/>
    <path d="M0,0 L0,20 L15,20 L30,10 L15,0 Z" class="cell_i_sel"/>
    <g s:x="28" s:y="10" s:pid="Y"/>
  </g>
  <g s:type="inputExt" transform="translate(447,263)" s:width="30" s:height="20" id="cell_i_data0">
    <text x="15" y="-4" class="nodelabel cell_i_data0" s:attribute="ref">i_data0</text>
    <s:alias val="$_inputExt_"/>
    <path d="M0,0 L0,20 L15,20 L30,10 L15,0 Z" class="cell_i_data0"/>
    <g s:x="28" s:y="10" s:pid="Y"/>
  </g>
  <g s:type="inputExt" transform="translate(370,178)" s:width="30" s:height="20" id="cell_i_data1">
    <text x="15" y="-4" class="nodelabel cell_i_data1" s:attribute="ref">i_data1</text>
    <s:alias val="$_inputExt_"/>
    <path d="M0,0 L0,20 L15,20 L30,10 L15,0 Z" class="cell_i_data1"/>
    <g s:x="28" s:y="10" s:pid="Y"/>
  </g>
  <g s:type="inputExt" transform="translate(293,33)" s:width="30" s:height="20" id="cell_i_data2">
    <text x="15" y="-4" class="nodelabel cell_i_data2" s:attribute="ref">i_data2</text>
    <s:alias val="$_inputExt_"/>
    <path d="M0,0 L0,20 L15,20 L30,10 L15,0 Z" class="cell_i_data2"/>
    <g s:x="28" s:y="10" s:pid="Y"/>
  </g>
  <g s:type="outputExt" transform="translate(579,253)" s:width="30" s:height="20" id="cell_o_data">
    <text x="15" y="-4" class="nodelabel cell_o_data" s:attribute="ref">o_data</text>
    <s:alias val="$_outputExt_"/>
    <path d="M30,0 L30,20 L15,20 L0,10 L15,0 Z" class="cell_o_data"/>
    <g s:x="0" s:y="10" s:pid="A"/>
  </g>
  <g s:type="constant" transform="translate(77,43)" s:width="30" s:height="20" id="cell_0">
    <text x="15" y="-4" class="nodelabel cell_0" s:attribute="ref">0</text>
    <s:alias val="$_constant_"/>
    <rect width="30" height="20" class="cell_0"/>
    <g s:x="30" s:y="10" s:pid="Y"/>
  </g>
  <g s:type="constant" transform="translate(77,155.5)" s:width="30" s:height="20" id="cell_1">
    <text x="15" y="-4" class="nodelabel cell_1" s:attribute="ref">1</text>
    <s:alias val="$_constant_"/>
    <rect width="30" height="20" class="cell_1"/>
    <g s:x="30" s:y="10" s:pid="Y"/>
  </g>
  <g s:type="split" transform="translate(91.33333333333333,212.5)" s:width="5" s:height="40" id="cell_$split$,2,3,">
    <rect width="5" height="40" class="splitjoinBody" s:generic="body"/>
    <s:alias val="$_split_"/>
    <g s:x="0" s:y="20" s:pid="in"/>
    <g transform="translate(4,10)" s:x="4" s:y="10" s:pid="out0">
      <text x="5" y="-4">0</text>
    </g>
    <g transform="translate(4,30)" s:x="4" s:y="10" s:pid="out0">
      <text x="5" y="-4">1</text>
    </g>
  </g>
  <line x1="96.33333333333333" x2="137" y1="223" y2="223" class="net_2"/>
  <line x1="137" x2="137" y1="223" y2="38" class="net_2"/>
  <circle cx="137" cy="223" r="2" style="fill:#000" class="net_2"/>
  <line x1="137" x2="160" y1="38" y2="38" class="net_2"/>
  <line x1="96.33333333333333" x2="137" y1="223" y2="223" class="net_2"/>
  <line x1="137" x2="137" y1="223" y2="150.5" class="net_2"/>
  <circle cx="137" cy="150.5" r="2" style="fill:#000" class="net_2"/>
  <line x1="137" x2="228" y1="150.5" y2="150.5" class="net_2"/>
  <line x1="96.33333333333333" x2="137" y1="223" y2="223" class="net_2"/>
  <line x1="137" x2="137" y1="223" y2="320.5" class="net_2"/>
  <line x1="137" x2="377" y1="320.5" y2="320.5" class="net_2"/>
  <line x1="107" x2="160" y1="53" y2="53" class="net_20"/>
  <line x1="107" x2="117" y1="53" y2="53" class="net_20"/>
  <line x1="117" x2="117" y1="53" y2="258" class="net_20"/>
  <circle cx="117" cy="53" r="2" style="fill:#000" class="net_20"/>
  <line x1="117" x2="228" y1="258" y2="258" class="net_20"/>
  <line x1="107" x2="117" y1="53" y2="53" class="net_20"/>
  <line x1="117" x2="117" y1="53" y2="12" class="net_20"/>
  <line x1="117" x2="345" y1="12" y2="12" class="net_20"/>
  <line x1="345" x2="345" y1="12" y2="23" class="net_20"/>
  <line x1="345" x2="377.3333333333333" y1="23" y2="23" class="net_20"/>
  <line x1="96.33333333333333" x2="127" y1="243" y2="243" class="net_3"/>
  <line x1="127" x2="127" y1="243" y2="98" class="net_3"/>
  <circle cx="127" cy="243" r="2" style="fill:#000" class="net_3"/>
  <line x1="127" x2="160" y1="98" y2="98" class="net_3"/>
  <line x1="96.33333333333333" x2="228" y1="243" y2="243" class="net_3"/>
  <line x1="96.33333333333333" x2="127" y1="243" y2="243" class="net_3"/>
  <line x1="127" x2="127" y1="243" y2="335.5" class="net_3"/>
  <line x1="127" x2="377" y1="335.5" y2="335.5" class="net_3"/>
  <line x1="107" x2="147" y1="165.5" y2="165.5" class="net_21"/>
  <line x1="147" x2="147" y1="165.5" y2="113" class="net_21"/>
  <circle cx="147" cy="165.5" r="2" style="fill:#000" class="net_21"/>
  <line x1="147" x2="160" y1="113" y2="113" class="net_21"/>
  <line x1="107" x2="228" y1="165.5" y2="165.5" class="net_21"/>
  <line x1="258" x2="268" y1="158" y2="158" class="net_10"/>
  <line x1="268" x2="268" y1="158" y2="235.5" class="net_10"/>
  <line x1="268" x2="300" y1="235.5" y2="235.5" class="net_10"/>
  <line x1="258" x2="300" y1="250.5" y2="250.5" class="net_11"/>
  <line x1="190" x2="200" y1="45.5" y2="45.5" class="net_8"/>
  <line x1="200" x2="200" y1="45.5" y2="90.5" class="net_8"/>
  <line x1="200" x2="229" y1="90.5" y2="90.5" class="net_8"/>
  <line x1="190" x2="229" y1="105.5" y2="105.5" class="net_9"/>
  <line x1="327" x2="376" y1="243" y2="243" class="net_12"/>
  <line x1="256" x2="299" y1="98" y2="98" class="net_13"/>
  <line x1="404" x2="453" y1="328" y2="328" class="net_14"/>
  <line x1="321" x2="377.3333333333333" y1="43" y2="43" class="net_6"/>
  <line x1="324" x2="387.3333333333333" y1="98" y2="98" class="net_16"/>
  <line x1="387.3333333333333" x2="387.3333333333333" y1="98" y2="48" class="net_16"/>
  <line x1="397.3333333333333" x2="422" y1="33" y2="33" class="net_18"/>
  <line x1="422" x2="422" y1="33" y2="168" class="net_18"/>
  <line x1="422" x2="454.3333333333333" y1="168" y2="168" class="net_18"/>
  <line x1="398" x2="454.3333333333333" y1="188" y2="188" class="net_5"/>
  <line x1="401" x2="464.3333333333333" y1="243" y2="243" class="net_15"/>
  <line x1="464.3333333333333" x2="464.3333333333333" y1="243" y2="193" class="net_15"/>
  <line x1="474.3333333333333" x2="499" y1="178" y2="178" class="net_19"/>
  <line x1="499" x2="499" y1="178" y2="253" class="net_19"/>
  <line x1="499" x2="524" y1="253" y2="253" class="net_19"/>
  <line x1="475" x2="524" y1="273" y2="273" class="net_4"/>
  <line x1="478" x2="534" y1="328" y2="328" class="net_17"/>
  <line x1="534" x2="534" y1="328" y2="278" class="net_17"/>
  <line x1="544" x2="579" y1="263" y2="263" class="net_7"/>
  <line x1="40" x2="91.33333333333333" y1="233" y2="233" class="net_2,3"/>
</svg>
