<svg xmlns="http://www.w3.org/2000/svg" xmlns:xlink="http://www.w3.org/1999/xlink" xmlns:s="https://github.com/nturley/netlistsvg" width="564" height="200">
  <style>svg {
    stroke:#000;
    fill:none;
  }
  text {
    fill:#000;
    stroke:none;
    font-size:10px;
    font-weight: bold;
    font-family: "Courier New", monospace;
  }
  .nodelabel {
    text-anchor: middle;
  }
  .inputPortLabel {
    text-anchor: end;
  }
  .splitjoinBody {
    fill:#000;
  }</style>
  <g s:type="or" transform="translate(184,137)" s:width="30" s:height="25" id="cell_$auto$simplemap.cc:106:simplemap_bitop$100">
    <s:alias val="$or"/>
    <s:alias val="$logic_or"/>
    <s:alias val="$_OR_"/>
    <path d="M0,25 L0,25 L15,25 A15 12.5 0 0 0 15,0 L0,0" class="cell_$auto$simplemap.cc:106:simplemap_bitop$100"/>
    <path d="M0,0 A30 25 0 0 1 0,25" class="cell_$auto$simplemap.cc:106:simplemap_bitop$100"/>
    <g s:x="3" s:y="5" s:pid="A"/>
    <g s:x="3" s:y="20" s:pid="B"/>
    <g s:x="30" s:y="12.5" s:pid="Y"/>
  </g>
  <g s:type="and" transform="translate(265,27)" s:width="30" s:height="25" id="cell_$auto$simplemap.cc:106:simplemap_bitop$101">
    <s:alias val="$and"/>
    <s:alias val="$logic_and"/>
    <s:alias val="$_AND_"/>
    <path d="M0,0 L0,25 L15,25 A15 12.5 0 0 0 15,0 Z" class="cell_$auto$simplemap.cc:106:simplemap_bitop$101"/>
    <g s:x="0" s:y="5" s:pid="A"/>
    <g s:x="0" s:y="20" s:pid="B"/>
    <g s:x="30" s:y="12.5" s:pid="Y"/>
  </g>
  <g s:type="and" transform="translate(265,87)" s:width="30" s:height="25" id="cell_$auto$simplemap.cc:106:simplemap_bitop$102">
    <s:alias val="$and"/>
    <s:alias val="$logic_and"/>
    <s:alias val="$_AND_"/>
    <path d="M0,0 L0,25 L15,25 A15 12.5 0 0 0 15,0 Z" class="cell_$auto$simplemap.cc:106:simplemap_bitop$102"/>
    <g s:x="0" s:y="5" s:pid="A"/>
    <g s:x="0" s:y="20" s:pid="B"/>
    <g s:x="30" s:y="12.5" s:pid="Y"/>
  </g>
  <g s:type="and" transform="translate(338,162)" s:width="30" s:height="25" id="cell_$auto$simplemap.cc:106:simplemap_bitop$103">
    <s:alias val="$and"/>
    <s:alias val="$logic_and"/>
    <s:alias val="$_AND_"/>
    <path d="M0,0 L0,25 L15,25 A15 12.5 0 0 0 15,0 Z" class="cell_$auto$simplemap.cc:106:simplemap_bitop$103"/>
    <g s:x="0" s:y="5" s:pid="A"/>
    <g s:x="0" s:y="20" s:pid="B"/>
    <g s:x="30" s:y="12.5" s:pid="Y"/>
  </g>
  <g s:type="or" transform="translate(338,34.5)" s:width="30" s:height="25" id="cell_$auto$simplemap.cc:106:simplemap_bitop$104">
    <s:alias val="$or"/>
    <s:alias val="$logic_or"/>
    <s:alias val="$_OR_"/>
    <path d="M0,25 L0,25 L15,25 A15 12.5 0 0 0 15,0 L0,0" class="cell_$auto$simplemap.cc:106:simplemap_bitop$104"/>
    <path d="M0,0 A30 25 0 0 1 0,25" class="cell_$auto$simplemap.cc:106:simplemap_bitop$104"/>
    <g s:x="3" s:y="5" s:pid="A"/>
    <g s:x="3" s:y="20" s:pid="B"/>
    <g s:x="30" s:y="12.5" s:pid="Y"/>
  </g>
  <g s:type="or" transform="translate(403,42)" s:width="30" s:height="25" id="cell_$auto$simplemap.cc:106:simplemap_bitop$105">
    <s:alias val="$or"/>
    <s:alias val="$logic_or"/>
    <s:alias val="$_OR_"/>
    <path d="M0,25 L0,25 L15,25 A15 12.5 0 0 0 15,0 L0,0" class="cell_$auto$simplemap.cc:106:simplemap_bitop$105"/>
    <path d="M0,0 A30 25 0 0 1 0,25" class="cell_$auto$simplemap.cc:106:simplemap_bitop$105"/>
    <g s:x="3" s:y="5" s:pid="A"/>
    <g s:x="3" s:y="20" s:pid="B"/>
    <g s:x="30" s:y="12.5" s:pid="Y"/>
  </g>
  <g s:type="reduce_xor" transform="translate(100,39.5)" s:width="33" s:height="25" id="cell_$auto$simplemap.cc:106:simplemap_bitop$99">
    <s:alias val="$xor"/>
    <s:alias val="$reduce_xor"/>
    <s:alias val="$_XOR_"/>
    <path d="M3,0 A30 25 0 0 1 3,25 A30 25 0 0 0 33,12.5 A30 25 0 0 0 3,0" class="cell_$auto$simplemap.cc:106:simplemap_bitop$99"/>
    <path d="M0,0 A30 25 0 0 1 0,25" class="cell_$auto$simplemap.cc:106:simplemap_bitop$99"/>
    <g s:x="3" s:y="5" s:pid="A"/>
    <g s:x="3" s:y="20" s:pid="B"/>
    <g s:x="33" s:y="12.5" s:pid="Y"/>
  </g>
  <g s:type="inputExt" transform="translate(95,147)" s:width="30" s:height="20" id="cell_i_flag_z">
    <text x="15" y="-4" class="nodelabel cell_i_flag_z" s:attribute="ref">i_flag_z</text>
    <s:alias val="$_inputExt_"/>
    <path d="M0,0 L0,20 L15,20 L30,10 L15,0 Z" class="cell_i_flag_z"/>
    <g s:x="28" s:y="10" s:pid="Y"/>
  </g>
  <g s:type="inputExt" transform="translate(12,34.5)" s:width="30" s:height="20" id="cell_i_flag_n">
    <text x="15" y="-4" class="nodelabel cell_i_flag_n" s:attribute="ref">i_flag_n</text>
    <s:alias val="$_inputExt_"/>
    <path d="M0,0 L0,20 L15,20 L30,10 L15,0 Z" class="cell_i_flag_n"/>
    <g s:x="28" s:y="10" s:pid="Y"/>
  </g>
  <g s:type="inputExt" transform="translate(12,99.5)" s:width="30" s:height="20" id="cell_i_flag_v">
    <text x="15" y="-4" class="nodelabel cell_i_flag_v" s:attribute="ref">i_flag_v</text>
    <s:alias val="$_inputExt_"/>
    <path d="M0,0 L0,20 L15,20 L30,10 L15,0 Z" class="cell_i_flag_v"/>
    <g s:x="28" s:y="10" s:pid="Y"/>
  </g>
  <g s:type="inputExt" transform="translate(178,22)" s:width="30" s:height="20" id="cell_i_is_blt">
    <text x="15" y="-4" class="nodelabel cell_i_is_blt" s:attribute="ref">i_is_blt</text>
    <s:alias val="$_inputExt_"/>
    <path d="M0,0 L0,20 L15,20 L30,10 L15,0 Z" class="cell_i_is_blt"/>
    <g s:x="28" s:y="10" s:pid="Y"/>
  </g>
  <g s:type="inputExt" transform="translate(178,82)" s:width="30" s:height="20" id="cell_i_is_ble">
    <text x="15" y="-4" class="nodelabel cell_i_is_ble" s:attribute="ref">i_is_ble</text>
    <s:alias val="$_inputExt_"/>
    <path d="M0,0 L0,20 L15,20 L30,10 L15,0 Z" class="cell_i_is_ble"/>
    <g s:x="28" s:y="10" s:pid="Y"/>
  </g>
  <g s:type="inputExt" transform="translate(261,157)" s:width="30" s:height="20" id="cell_i_is_bz">
    <text x="15" y="-4" class="nodelabel cell_i_is_bz" s:attribute="ref">i_is_bz</text>
    <s:alias val="$_inputExt_"/>
    <path d="M0,0 L0,20 L15,20 L30,10 L15,0 Z" class="cell_i_is_bz"/>
    <g s:x="28" s:y="10" s:pid="Y"/>
  </g>
  <g s:type="outputExt" transform="translate(468,44.5)" s:width="30" s:height="20" id="cell_o_branch_taken">
    <text x="15" y="-4" class="nodelabel cell_o_branch_taken" s:attribute="ref">o_branch_taken</text>
    <s:alias val="$_outputExt_"/>
    <path d="M30,0 L30,20 L15,20 L0,10 L15,0 Z" class="cell_o_branch_taken"/>
    <g s:x="0" s:y="10" s:pid="A"/>
  </g>
  <line x1="133" x2="153" y1="52" y2="52" class="net_9"/>
  <line x1="153" x2="153" y1="52" y2="142" class="net_9"/>
  <circle cx="153" cy="52" r="2" style="fill:#000" class="net_9"/>
  <line x1="153" x2="187" y1="142" y2="142" class="net_9"/>
  <line x1="133" x2="236" y1="52" y2="52" class="net_9"/>
  <line x1="236" x2="236" y1="52" y2="47" class="net_9"/>
  <line x1="236" x2="265" y1="47" y2="47" class="net_9"/>
  <line x1="123" x2="187" y1="157" y2="157" class="net_2"/>
  <line x1="123" x2="153" y1="157" y2="157" class="net_2"/>
  <line x1="153" x2="153" y1="157" y2="187" class="net_2"/>
  <line x1="153" x2="313" y1="187" y2="187" class="net_2"/>
  <line x1="313" x2="313" y1="187" y2="182" class="net_2"/>
  <circle cx="153" cy="157" r="2" style="fill:#000" class="net_2"/>
  <line x1="313" x2="338" y1="182" y2="182" class="net_2"/>
  <line x1="206" x2="265" y1="32" y2="32" class="net_5"/>
  <line x1="206" x2="265" y1="92" y2="92" class="net_6"/>
  <line x1="214" x2="236" y1="149.5" y2="149.5" class="net_10"/>
  <line x1="236" x2="236" y1="149.5" y2="107" class="net_10"/>
  <line x1="236" x2="265" y1="107" y2="107" class="net_10"/>
  <line x1="289" x2="338" y1="167" y2="167" class="net_7"/>
  <line x1="295" x2="341" y1="39.5" y2="39.5" class="net_11"/>
  <line x1="295" x2="313" y1="99.5" y2="99.5" class="net_12"/>
  <line x1="313" x2="313" y1="99.5" y2="54.5" class="net_12"/>
  <line x1="313" x2="341" y1="54.5" y2="54.5" class="net_12"/>
  <line x1="368" x2="406" y1="47" y2="47" class="net_14"/>
  <line x1="368" x2="378" y1="174.5" y2="174.5" class="net_13"/>
  <line x1="378" x2="378" y1="174.5" y2="62" class="net_13"/>
  <line x1="378" x2="406" y1="62" y2="62" class="net_13"/>
  <line x1="40" x2="103" y1="44.5" y2="44.5" class="net_3"/>
  <line x1="40" x2="70" y1="109.5" y2="109.5" class="net_4"/>
  <line x1="70" x2="70" y1="109.5" y2="59.5" class="net_4"/>
  <line x1="70" x2="103" y1="59.5" y2="59.5" class="net_4"/>
  <line x1="433" x2="468" y1="54.5" y2="54.5" class="net_8"/>
</svg>
