<svg xmlns="http://www.w3.org/2000/svg" xmlns:xlink="http://www.w3.org/1999/xlink" xmlns:s="https://github.com/nturley/netlistsvg" width="952" height="2650">
  <style>svg {
    stroke:#000;
    fill:none;
  }
  text {
    fill:#000;
    stroke:none;
    font-size:10px;
    font-weight: bold;
    font-family: "Courier New", monospace;
  }
  .nodelabel {
    text-anchor: middle;
  }
  .inputPortLabel {
    text-anchor: end;
  }
  .splitjoinBody {
    fill:#000;
  }</style>
  <g s:type="generic" transform="translate(588,159.5)" s:width="30" s:height="40" id="cell_gen_pc_mux[0].u_mux_bit">
    <text x="15" y="-4" class="nodelabel cell_gen_pc_mux[0].u_mux_bit" s:attribute="ref">pc_logic_mux_3to1_1bit</text>
    <rect width="30" height="80" s:generic="body" class="cell_gen_pc_mux[0].u_mux_bit"/>
    <g transform="translate(0,10)" s:x="0" s:y="10" s:pid="in0" id="port_gen_pc_mux[0].u_mux_bit~i_data0">
      <text x="-3" y="-4" class="inputPortLabel cell_gen_pc_mux[0].u_mux_bit">i_data0</text>
    </g>
    <g transform="translate(0,30)" s:x="0" s:y="10" s:pid="in0" id="port_gen_pc_mux[0].u_mux_bit~i_data1">
      <text x="-3" y="-4" class="inputPortLabel cell_gen_pc_mux[0].u_mux_bit">i_data1</text>
    </g>
    <g transform="translate(0,50)" s:x="0" s:y="10" s:pid="in0" id="port_gen_pc_mux[0].u_mux_bit~i_data2">
      <text x="-3" y="-4" class="inputPortLabel cell_gen_pc_mux[0].u_mux_bit">i_data2</text>
    </g>
    <g transform="translate(0,70)" s:x="0" s:y="10" s:pid="in0" id="port_gen_pc_mux[0].u_mux_bit~i_sel">
      <text x="-3" y="-4" class="inputPortLabel cell_gen_pc_mux[0].u_mux_bit">i_sel</text>
    </g>
    <g transform="translate(30,10)" s:x="30" s:y="10" s:pid="out0" id="port_gen_pc_mux[0].u_mux_bit~o_data">
      <text x="5" y="-4" style="fill:#000; stroke:none" class="cell_gen_pc_mux[0].u_mux_bit">o_data</text>
    </g>
  </g>
  <g s:type="generic" transform="translate(582,31.5)" s:width="30" s:height="40" id="cell_gen_pc_mux[10].u_mux_bit">
    <text x="15" y="-4" class="nodelabel cell_gen_pc_mux[10].u_mux_bit" s:attribute="ref">pc_logic_mux_3to1_1bit</text>
    <rect width="30" height="80" s:generic="body" class="cell_gen_pc_mux[10].u_mux_bit"/>
    <g transform="translate(0,10)" s:x="0" s:y="10" s:pid="in0" id="port_gen_pc_mux[10].u_mux_bit~i_data0">
      <text x="-3" y="-4" class="inputPortLabel cell_gen_pc_mux[10].u_mux_bit">i_data0</text>
    </g>
    <g transform="translate(0,30)" s:x="0" s:y="10" s:pid="in0" id="port_gen_pc_mux[10].u_mux_bit~i_data1">
      <text x="-3" y="-4" class="inputPortLabel cell_gen_pc_mux[10].u_mux_bit">i_data1</text>
    </g>
    <g transform="translate(0,50)" s:x="0" s:y="10" s:pid="in0" id="port_gen_pc_mux[10].u_mux_bit~i_data2">
      <text x="-3" y="-4" class="inputPortLabel cell_gen_pc_mux[10].u_mux_bit">i_data2</text>
    </g>
    <g transform="translate(0,70)" s:x="0" s:y="10" s:pid="in0" id="port_gen_pc_mux[10].u_mux_bit~i_sel">
      <text x="-3" y="-4" class="inputPortLabel cell_gen_pc_mux[10].u_mux_bit">i_sel</text>
    </g>
    <g transform="translate(30,10)" s:x="30" s:y="10" s:pid="out0" id="port_gen_pc_mux[10].u_mux_bit~o_data">
      <text x="5" y="-4" style="fill:#000; stroke:none" class="cell_gen_pc_mux[10].u_mux_bit">o_data</text>
    </g>
  </g>
  <g s:type="generic" transform="translate(582,287.5)" s:width="30" s:height="40" id="cell_gen_pc_mux[11].u_mux_bit">
    <text x="15" y="-4" class="nodelabel cell_gen_pc_mux[11].u_mux_bit" s:attribute="ref">pc_logic_mux_3to1_1bit</text>
    <rect width="30" height="80" s:generic="body" class="cell_gen_pc_mux[11].u_mux_bit"/>
    <g transform="translate(0,10)" s:x="0" s:y="10" s:pid="in0" id="port_gen_pc_mux[11].u_mux_bit~i_data0">
      <text x="-3" y="-4" class="inputPortLabel cell_gen_pc_mux[11].u_mux_bit">i_data0</text>
    </g>
    <g transform="translate(0,30)" s:x="0" s:y="10" s:pid="in0" id="port_gen_pc_mux[11].u_mux_bit~i_data1">
      <text x="-3" y="-4" class="inputPortLabel cell_gen_pc_mux[11].u_mux_bit">i_data1</text>
    </g>
    <g transform="translate(0,50)" s:x="0" s:y="10" s:pid="in0" id="port_gen_pc_mux[11].u_mux_bit~i_data2">
      <text x="-3" y="-4" class="inputPortLabel cell_gen_pc_mux[11].u_mux_bit">i_data2</text>
    </g>
    <g transform="translate(0,70)" s:x="0" s:y="10" s:pid="in0" id="port_gen_pc_mux[11].u_mux_bit~i_sel">
      <text x="-3" y="-4" class="inputPortLabel cell_gen_pc_mux[11].u_mux_bit">i_sel</text>
    </g>
    <g transform="translate(30,10)" s:x="30" s:y="10" s:pid="out0" id="port_gen_pc_mux[11].u_mux_bit~o_data">
      <text x="5" y="-4" style="fill:#000; stroke:none" class="cell_gen_pc_mux[11].u_mux_bit">o_data</text>
    </g>
  </g>
  <g s:type="generic" transform="translate(582,709.5)" s:width="30" s:height="40" id="cell_gen_pc_mux[12].u_mux_bit">
    <text x="15" y="-4" class="nodelabel cell_gen_pc_mux[12].u_mux_bit" s:attribute="ref">pc_logic_mux_3to1_1bit</text>
    <rect width="30" height="80" s:generic="body" class="cell_gen_pc_mux[12].u_mux_bit"/>
    <g transform="translate(0,10)" s:x="0" s:y="10" s:pid="in0" id="port_gen_pc_mux[12].u_mux_bit~i_data0">
      <text x="-3" y="-4" class="inputPortLabel cell_gen_pc_mux[12].u_mux_bit">i_data0</text>
    </g>
    <g transform="translate(0,30)" s:x="0" s:y="10" s:pid="in0" id="port_gen_pc_mux[12].u_mux_bit~i_data1">
      <text x="-3" y="-4" class="inputPortLabel cell_gen_pc_mux[12].u_mux_bit">i_data1</text>
    </g>
    <g transform="translate(0,50)" s:x="0" s:y="10" s:pid="in0" id="port_gen_pc_mux[12].u_mux_bit~i_data2">
      <text x="-3" y="-4" class="inputPortLabel cell_gen_pc_mux[12].u_mux_bit">i_data2</text>
    </g>
    <g transform="translate(0,70)" s:x="0" s:y="10" s:pid="in0" id="port_gen_pc_mux[12].u_mux_bit~i_sel">
      <text x="-3" y="-4" class="inputPortLabel cell_gen_pc_mux[12].u_mux_bit">i_sel</text>
    </g>
    <g transform="translate(30,10)" s:x="30" s:y="10" s:pid="out0" id="port_gen_pc_mux[12].u_mux_bit~o_data">
      <text x="5" y="-4" style="fill:#000; stroke:none" class="cell_gen_pc_mux[12].u_mux_bit">o_data</text>
    </g>
  </g>
  <g s:type="generic" transform="translate(582,837.5)" s:width="30" s:height="40" id="cell_gen_pc_mux[13].u_mux_bit">
    <text x="15" y="-4" class="nodelabel cell_gen_pc_mux[13].u_mux_bit" s:attribute="ref">pc_logic_mux_3to1_1bit</text>
    <rect width="30" height="80" s:generic="body" class="cell_gen_pc_mux[13].u_mux_bit"/>
    <g transform="translate(0,10)" s:x="0" s:y="10" s:pid="in0" id="port_gen_pc_mux[13].u_mux_bit~i_data0">
      <text x="-3" y="-4" class="inputPortLabel cell_gen_pc_mux[13].u_mux_bit">i_data0</text>
    </g>
    <g transform="translate(0,30)" s:x="0" s:y="10" s:pid="in0" id="port_gen_pc_mux[13].u_mux_bit~i_data1">
      <text x="-3" y="-4" class="inputPortLabel cell_gen_pc_mux[13].u_mux_bit">i_data1</text>
    </g>
    <g transform="translate(0,50)" s:x="0" s:y="10" s:pid="in0" id="port_gen_pc_mux[13].u_mux_bit~i_data2">
      <text x="-3" y="-4" class="inputPortLabel cell_gen_pc_mux[13].u_mux_bit">i_data2</text>
    </g>
    <g transform="translate(0,70)" s:x="0" s:y="10" s:pid="in0" id="port_gen_pc_mux[13].u_mux_bit~i_sel">
      <text x="-3" y="-4" class="inputPortLabel cell_gen_pc_mux[13].u_mux_bit">i_sel</text>
    </g>
    <g transform="translate(30,10)" s:x="30" s:y="10" s:pid="out0" id="port_gen_pc_mux[13].u_mux_bit~o_data">
      <text x="5" y="-4" style="fill:#000; stroke:none" class="cell_gen_pc_mux[13].u_mux_bit">o_data</text>
    </g>
  </g>
  <g s:type="generic" transform="translate(582,965.5)" s:width="30" s:height="40" id="cell_gen_pc_mux[14].u_mux_bit">
    <text x="15" y="-4" class="nodelabel cell_gen_pc_mux[14].u_mux_bit" s:attribute="ref">pc_logic_mux_3to1_1bit</text>
    <rect width="30" height="80" s:generic="body" class="cell_gen_pc_mux[14].u_mux_bit"/>
    <g transform="translate(0,10)" s:x="0" s:y="10" s:pid="in0" id="port_gen_pc_mux[14].u_mux_bit~i_data0">
      <text x="-3" y="-4" class="inputPortLabel cell_gen_pc_mux[14].u_mux_bit">i_data0</text>
    </g>
    <g transform="translate(0,30)" s:x="0" s:y="10" s:pid="in0" id="port_gen_pc_mux[14].u_mux_bit~i_data1">
      <text x="-3" y="-4" class="inputPortLabel cell_gen_pc_mux[14].u_mux_bit">i_data1</text>
    </g>
    <g transform="translate(0,50)" s:x="0" s:y="10" s:pid="in0" id="port_gen_pc_mux[14].u_mux_bit~i_data2">
      <text x="-3" y="-4" class="inputPortLabel cell_gen_pc_mux[14].u_mux_bit">i_data2</text>
    </g>
    <g transform="translate(0,70)" s:x="0" s:y="10" s:pid="in0" id="port_gen_pc_mux[14].u_mux_bit~i_sel">
      <text x="-3" y="-4" class="inputPortLabel cell_gen_pc_mux[14].u_mux_bit">i_sel</text>
    </g>
    <g transform="translate(30,10)" s:x="30" s:y="10" s:pid="out0" id="port_gen_pc_mux[14].u_mux_bit~o_data">
      <text x="5" y="-4" style="fill:#000; stroke:none" class="cell_gen_pc_mux[14].u_mux_bit">o_data</text>
    </g>
  </g>
  <g s:type="generic" transform="translate(582,1093.5)" s:width="30" s:height="40" id="cell_gen_pc_mux[15].u_mux_bit">
    <text x="15" y="-4" class="nodelabel cell_gen_pc_mux[15].u_mux_bit" s:attribute="ref">pc_logic_mux_3to1_1bit</text>
    <rect width="30" height="80" s:generic="body" class="cell_gen_pc_mux[15].u_mux_bit"/>
    <g transform="translate(0,10)" s:x="0" s:y="10" s:pid="in0" id="port_gen_pc_mux[15].u_mux_bit~i_data0">
      <text x="-3" y="-4" class="inputPortLabel cell_gen_pc_mux[15].u_mux_bit">i_data0</text>
    </g>
    <g transform="translate(0,30)" s:x="0" s:y="10" s:pid="in0" id="port_gen_pc_mux[15].u_mux_bit~i_data1">
      <text x="-3" y="-4" class="inputPortLabel cell_gen_pc_mux[15].u_mux_bit">i_data1</text>
    </g>
    <g transform="translate(0,50)" s:x="0" s:y="10" s:pid="in0" id="port_gen_pc_mux[15].u_mux_bit~i_data2">
      <text x="-3" y="-4" class="inputPortLabel cell_gen_pc_mux[15].u_mux_bit">i_data2</text>
    </g>
    <g transform="translate(0,70)" s:x="0" s:y="10" s:pid="in0" id="port_gen_pc_mux[15].u_mux_bit~i_sel">
      <text x="-3" y="-4" class="inputPortLabel cell_gen_pc_mux[15].u_mux_bit">i_sel</text>
    </g>
    <g transform="translate(30,10)" s:x="30" s:y="10" s:pid="out0" id="port_gen_pc_mux[15].u_mux_bit~o_data">
      <text x="5" y="-4" style="fill:#000; stroke:none" class="cell_gen_pc_mux[15].u_mux_bit">o_data</text>
    </g>
  </g>
  <g s:type="generic" transform="translate(588,1221.5)" s:width="30" s:height="40" id="cell_gen_pc_mux[1].u_mux_bit">
    <text x="15" y="-4" class="nodelabel cell_gen_pc_mux[1].u_mux_bit" s:attribute="ref">pc_logic_mux_3to1_1bit</text>
    <rect width="30" height="80" s:generic="body" class="cell_gen_pc_mux[1].u_mux_bit"/>
    <g transform="translate(0,10)" s:x="0" s:y="10" s:pid="in0" id="port_gen_pc_mux[1].u_mux_bit~i_data0">
      <text x="-3" y="-4" class="inputPortLabel cell_gen_pc_mux[1].u_mux_bit">i_data0</text>
    </g>
    <g transform="translate(0,30)" s:x="0" s:y="10" s:pid="in0" id="port_gen_pc_mux[1].u_mux_bit~i_data1">
      <text x="-3" y="-4" class="inputPortLabel cell_gen_pc_mux[1].u_mux_bit">i_data1</text>
    </g>
    <g transform="translate(0,50)" s:x="0" s:y="10" s:pid="in0" id="port_gen_pc_mux[1].u_mux_bit~i_data2">
      <text x="-3" y="-4" class="inputPortLabel cell_gen_pc_mux[1].u_mux_bit">i_data2</text>
    </g>
    <g transform="translate(0,70)" s:x="0" s:y="10" s:pid="in0" id="port_gen_pc_mux[1].u_mux_bit~i_sel">
      <text x="-3" y="-4" class="inputPortLabel cell_gen_pc_mux[1].u_mux_bit">i_sel</text>
    </g>
    <g transform="translate(30,10)" s:x="30" s:y="10" s:pid="out0" id="port_gen_pc_mux[1].u_mux_bit~o_data">
      <text x="5" y="-4" style="fill:#000; stroke:none" class="cell_gen_pc_mux[1].u_mux_bit">o_data</text>
    </g>
  </g>
  <g s:type="generic" transform="translate(588,1349.5)" s:width="30" s:height="40" id="cell_gen_pc_mux[2].u_mux_bit">
    <text x="15" y="-4" class="nodelabel cell_gen_pc_mux[2].u_mux_bit" s:attribute="ref">pc_logic_mux_3to1_1bit</text>
    <rect width="30" height="80" s:generic="body" class="cell_gen_pc_mux[2].u_mux_bit"/>
    <g transform="translate(0,10)" s:x="0" s:y="10" s:pid="in0" id="port_gen_pc_mux[2].u_mux_bit~i_data0">
      <text x="-3" y="-4" class="inputPortLabel cell_gen_pc_mux[2].u_mux_bit">i_data0</text>
    </g>
    <g transform="translate(0,30)" s:x="0" s:y="10" s:pid="in0" id="port_gen_pc_mux[2].u_mux_bit~i_data1">
      <text x="-3" y="-4" class="inputPortLabel cell_gen_pc_mux[2].u_mux_bit">i_data1</text>
    </g>
    <g transform="translate(0,50)" s:x="0" s:y="10" s:pid="in0" id="port_gen_pc_mux[2].u_mux_bit~i_data2">
      <text x="-3" y="-4" class="inputPortLabel cell_gen_pc_mux[2].u_mux_bit">i_data2</text>
    </g>
    <g transform="translate(0,70)" s:x="0" s:y="10" s:pid="in0" id="port_gen_pc_mux[2].u_mux_bit~i_sel">
      <text x="-3" y="-4" class="inputPortLabel cell_gen_pc_mux[2].u_mux_bit">i_sel</text>
    </g>
    <g transform="translate(30,10)" s:x="30" s:y="10" s:pid="out0" id="port_gen_pc_mux[2].u_mux_bit~o_data">
      <text x="5" y="-4" style="fill:#000; stroke:none" class="cell_gen_pc_mux[2].u_mux_bit">o_data</text>
    </g>
  </g>
  <g s:type="generic" transform="translate(588,1477.5)" s:width="30" s:height="40" id="cell_gen_pc_mux[3].u_mux_bit">
    <text x="15" y="-4" class="nodelabel cell_gen_pc_mux[3].u_mux_bit" s:attribute="ref">pc_logic_mux_3to1_1bit</text>
    <rect width="30" height="80" s:generic="body" class="cell_gen_pc_mux[3].u_mux_bit"/>
    <g transform="translate(0,10)" s:x="0" s:y="10" s:pid="in0" id="port_gen_pc_mux[3].u_mux_bit~i_data0">
      <text x="-3" y="-4" class="inputPortLabel cell_gen_pc_mux[3].u_mux_bit">i_data0</text>
    </g>
    <g transform="translate(0,30)" s:x="0" s:y="10" s:pid="in0" id="port_gen_pc_mux[3].u_mux_bit~i_data1">
      <text x="-3" y="-4" class="inputPortLabel cell_gen_pc_mux[3].u_mux_bit">i_data1</text>
    </g>
    <g transform="translate(0,50)" s:x="0" s:y="10" s:pid="in0" id="port_gen_pc_mux[3].u_mux_bit~i_data2">
      <text x="-3" y="-4" class="inputPortLabel cell_gen_pc_mux[3].u_mux_bit">i_data2</text>
    </g>
    <g transform="translate(0,70)" s:x="0" s:y="10" s:pid="in0" id="port_gen_pc_mux[3].u_mux_bit~i_sel">
      <text x="-3" y="-4" class="inputPortLabel cell_gen_pc_mux[3].u_mux_bit">i_sel</text>
    </g>
    <g transform="translate(30,10)" s:x="30" s:y="10" s:pid="out0" id="port_gen_pc_mux[3].u_mux_bit~o_data">
      <text x="5" y="-4" style="fill:#000; stroke:none" class="cell_gen_pc_mux[3].u_mux_bit">o_data</text>
    </g>
  </g>
  <g s:type="generic" transform="translate(588,1605.5)" s:width="30" s:height="40" id="cell_gen_pc_mux[4].u_mux_bit">
    <text x="15" y="-4" class="nodelabel cell_gen_pc_mux[4].u_mux_bit" s:attribute="ref">pc_logic_mux_3to1_1bit</text>
    <rect width="30" height="80" s:generic="body" class="cell_gen_pc_mux[4].u_mux_bit"/>
    <g transform="translate(0,10)" s:x="0" s:y="10" s:pid="in0" id="port_gen_pc_mux[4].u_mux_bit~i_data0">
      <text x="-3" y="-4" class="inputPortLabel cell_gen_pc_mux[4].u_mux_bit">i_data0</text>
    </g>
    <g transform="translate(0,30)" s:x="0" s:y="10" s:pid="in0" id="port_gen_pc_mux[4].u_mux_bit~i_data1">
      <text x="-3" y="-4" class="inputPortLabel cell_gen_pc_mux[4].u_mux_bit">i_data1</text>
    </g>
    <g transform="translate(0,50)" s:x="0" s:y="10" s:pid="in0" id="port_gen_pc_mux[4].u_mux_bit~i_data2">
      <text x="-3" y="-4" class="inputPortLabel cell_gen_pc_mux[4].u_mux_bit">i_data2</text>
    </g>
    <g transform="translate(0,70)" s:x="0" s:y="10" s:pid="in0" id="port_gen_pc_mux[4].u_mux_bit~i_sel">
      <text x="-3" y="-4" class="inputPortLabel cell_gen_pc_mux[4].u_mux_bit">i_sel</text>
    </g>
    <g transform="translate(30,10)" s:x="30" s:y="10" s:pid="out0" id="port_gen_pc_mux[4].u_mux_bit~o_data">
      <text x="5" y="-4" style="fill:#000; stroke:none" class="cell_gen_pc_mux[4].u_mux_bit">o_data</text>
    </g>
  </g>
  <g s:type="generic" transform="translate(588,1733.5)" s:width="30" s:height="40" id="cell_gen_pc_mux[5].u_mux_bit">
    <text x="15" y="-4" class="nodelabel cell_gen_pc_mux[5].u_mux_bit" s:attribute="ref">pc_logic_mux_3to1_1bit</text>
    <rect width="30" height="80" s:generic="body" class="cell_gen_pc_mux[5].u_mux_bit"/>
    <g transform="translate(0,10)" s:x="0" s:y="10" s:pid="in0" id="port_gen_pc_mux[5].u_mux_bit~i_data0">
      <text x="-3" y="-4" class="inputPortLabel cell_gen_pc_mux[5].u_mux_bit">i_data0</text>
    </g>
    <g transform="translate(0,30)" s:x="0" s:y="10" s:pid="in0" id="port_gen_pc_mux[5].u_mux_bit~i_data1">
      <text x="-3" y="-4" class="inputPortLabel cell_gen_pc_mux[5].u_mux_bit">i_data1</text>
    </g>
    <g transform="translate(0,50)" s:x="0" s:y="10" s:pid="in0" id="port_gen_pc_mux[5].u_mux_bit~i_data2">
      <text x="-3" y="-4" class="inputPortLabel cell_gen_pc_mux[5].u_mux_bit">i_data2</text>
    </g>
    <g transform="translate(0,70)" s:x="0" s:y="10" s:pid="in0" id="port_gen_pc_mux[5].u_mux_bit~i_sel">
      <text x="-3" y="-4" class="inputPortLabel cell_gen_pc_mux[5].u_mux_bit">i_sel</text>
    </g>
    <g transform="translate(30,10)" s:x="30" s:y="10" s:pid="out0" id="port_gen_pc_mux[5].u_mux_bit~o_data">
      <text x="5" y="-4" style="fill:#000; stroke:none" class="cell_gen_pc_mux[5].u_mux_bit">o_data</text>
    </g>
  </g>
  <g s:type="generic" transform="translate(588,1861.5)" s:width="30" s:height="40" id="cell_gen_pc_mux[6].u_mux_bit">
    <text x="15" y="-4" class="nodelabel cell_gen_pc_mux[6].u_mux_bit" s:attribute="ref">pc_logic_mux_3to1_1bit</text>
    <rect width="30" height="80" s:generic="body" class="cell_gen_pc_mux[6].u_mux_bit"/>
    <g transform="translate(0,10)" s:x="0" s:y="10" s:pid="in0" id="port_gen_pc_mux[6].u_mux_bit~i_data0">
      <text x="-3" y="-4" class="inputPortLabel cell_gen_pc_mux[6].u_mux_bit">i_data0</text>
    </g>
    <g transform="translate(0,30)" s:x="0" s:y="10" s:pid="in0" id="port_gen_pc_mux[6].u_mux_bit~i_data1">
      <text x="-3" y="-4" class="inputPortLabel cell_gen_pc_mux[6].u_mux_bit">i_data1</text>
    </g>
    <g transform="translate(0,50)" s:x="0" s:y="10" s:pid="in0" id="port_gen_pc_mux[6].u_mux_bit~i_data2">
      <text x="-3" y="-4" class="inputPortLabel cell_gen_pc_mux[6].u_mux_bit">i_data2</text>
    </g>
    <g transform="translate(0,70)" s:x="0" s:y="10" s:pid="in0" id="port_gen_pc_mux[6].u_mux_bit~i_sel">
      <text x="-3" y="-4" class="inputPortLabel cell_gen_pc_mux[6].u_mux_bit">i_sel</text>
    </g>
    <g transform="translate(30,10)" s:x="30" s:y="10" s:pid="out0" id="port_gen_pc_mux[6].u_mux_bit~o_data">
      <text x="5" y="-4" style="fill:#000; stroke:none" class="cell_gen_pc_mux[6].u_mux_bit">o_data</text>
    </g>
  </g>
  <g s:type="generic" transform="translate(588,1989.5)" s:width="30" s:height="40" id="cell_gen_pc_mux[7].u_mux_bit">
    <text x="15" y="-4" class="nodelabel cell_gen_pc_mux[7].u_mux_bit" s:attribute="ref">pc_logic_mux_3to1_1bit</text>
    <rect width="30" height="80" s:generic="body" class="cell_gen_pc_mux[7].u_mux_bit"/>
    <g transform="translate(0,10)" s:x="0" s:y="10" s:pid="in0" id="port_gen_pc_mux[7].u_mux_bit~i_data0">
      <text x="-3" y="-4" class="inputPortLabel cell_gen_pc_mux[7].u_mux_bit">i_data0</text>
    </g>
    <g transform="translate(0,30)" s:x="0" s:y="10" s:pid="in0" id="port_gen_pc_mux[7].u_mux_bit~i_data1">
      <text x="-3" y="-4" class="inputPortLabel cell_gen_pc_mux[7].u_mux_bit">i_data1</text>
    </g>
    <g transform="translate(0,50)" s:x="0" s:y="10" s:pid="in0" id="port_gen_pc_mux[7].u_mux_bit~i_data2">
      <text x="-3" y="-4" class="inputPortLabel cell_gen_pc_mux[7].u_mux_bit">i_data2</text>
    </g>
    <g transform="translate(0,70)" s:x="0" s:y="10" s:pid="in0" id="port_gen_pc_mux[7].u_mux_bit~i_sel">
      <text x="-3" y="-4" class="inputPortLabel cell_gen_pc_mux[7].u_mux_bit">i_sel</text>
    </g>
    <g transform="translate(30,10)" s:x="30" s:y="10" s:pid="out0" id="port_gen_pc_mux[7].u_mux_bit~o_data">
      <text x="5" y="-4" style="fill:#000; stroke:none" class="cell_gen_pc_mux[7].u_mux_bit">o_data</text>
    </g>
  </g>
  <g s:type="generic" transform="translate(588,2245.5)" s:width="30" s:height="40" id="cell_gen_pc_mux[8].u_mux_bit">
    <text x="15" y="-4" class="nodelabel cell_gen_pc_mux[8].u_mux_bit" s:attribute="ref">pc_logic_mux_3to1_1bit</text>
    <rect width="30" height="80" s:generic="body" class="cell_gen_pc_mux[8].u_mux_bit"/>
    <g transform="translate(0,10)" s:x="0" s:y="10" s:pid="in0" id="port_gen_pc_mux[8].u_mux_bit~i_data0">
      <text x="-3" y="-4" class="inputPortLabel cell_gen_pc_mux[8].u_mux_bit">i_data0</text>
    </g>
    <g transform="translate(0,30)" s:x="0" s:y="10" s:pid="in0" id="port_gen_pc_mux[8].u_mux_bit~i_data1">
      <text x="-3" y="-4" class="inputPortLabel cell_gen_pc_mux[8].u_mux_bit">i_data1</text>
    </g>
    <g transform="translate(0,50)" s:x="0" s:y="10" s:pid="in0" id="port_gen_pc_mux[8].u_mux_bit~i_data2">
      <text x="-3" y="-4" class="inputPortLabel cell_gen_pc_mux[8].u_mux_bit">i_data2</text>
    </g>
    <g transform="translate(0,70)" s:x="0" s:y="10" s:pid="in0" id="port_gen_pc_mux[8].u_mux_bit~i_sel">
      <text x="-3" y="-4" class="inputPortLabel cell_gen_pc_mux[8].u_mux_bit">i_sel</text>
    </g>
    <g transform="translate(30,10)" s:x="30" s:y="10" s:pid="out0" id="port_gen_pc_mux[8].u_mux_bit~o_data">
      <text x="5" y="-4" style="fill:#000; stroke:none" class="cell_gen_pc_mux[8].u_mux_bit">o_data</text>
    </g>
  </g>
  <g s:type="generic" transform="translate(588,2117.5)" s:width="30" s:height="40" id="cell_gen_pc_mux[9].u_mux_bit">
    <text x="15" y="-4" class="nodelabel cell_gen_pc_mux[9].u_mux_bit" s:attribute="ref">pc_logic_mux_3to1_1bit</text>
    <rect width="30" height="80" s:generic="body" class="cell_gen_pc_mux[9].u_mux_bit"/>
    <g transform="translate(0,10)" s:x="0" s:y="10" s:pid="in0" id="port_gen_pc_mux[9].u_mux_bit~i_data0">
      <text x="-3" y="-4" class="inputPortLabel cell_gen_pc_mux[9].u_mux_bit">i_data0</text>
    </g>
    <g transform="translate(0,30)" s:x="0" s:y="10" s:pid="in0" id="port_gen_pc_mux[9].u_mux_bit~i_data1">
      <text x="-3" y="-4" class="inputPortLabel cell_gen_pc_mux[9].u_mux_bit">i_data1</text>
    </g>
    <g transform="translate(0,50)" s:x="0" s:y="10" s:pid="in0" id="port_gen_pc_mux[9].u_mux_bit~i_data2">
      <text x="-3" y="-4" class="inputPortLabel cell_gen_pc_mux[9].u_mux_bit">i_data2</text>
    </g>
    <g transform="translate(0,70)" s:x="0" s:y="10" s:pid="in0" id="port_gen_pc_mux[9].u_mux_bit~i_sel">
      <text x="-3" y="-4" class="inputPortLabel cell_gen_pc_mux[9].u_mux_bit">i_sel</text>
    </g>
    <g transform="translate(30,10)" s:x="30" s:y="10" s:pid="out0" id="port_gen_pc_mux[9].u_mux_bit~o_data">
      <text x="5" y="-4" style="fill:#000; stroke:none" class="cell_gen_pc_mux[9].u_mux_bit">o_data</text>
    </g>
  </g>
  <g s:type="inputExt" transform="translate(89,22)" s:width="30" s:height="20" id="cell_i_sel">
    <text x="15" y="-4" class="nodelabel cell_i_sel" s:attribute="ref">i_sel</text>
    <s:alias val="$_inputExt_"/>
    <path d="M0,0 L0,20 L15,20 L30,10 L15,0 Z" class="cell_i_sel"/>
    <g s:x="28" s:y="10" s:pid="Y"/>
  </g>
  <g s:type="inputExt" transform="translate(12,627.5)" s:width="30" s:height="20" id="cell_i_data0">
    <text x="15" y="-4" class="nodelabel cell_i_data0" s:attribute="ref">i_data0</text>
    <s:alias val="$_inputExt_"/>
    <path d="M0,0 L0,20 L15,20 L30,10 L15,0 Z" class="cell_i_data0"/>
    <g s:x="28" s:y="10" s:pid="Y"/>
  </g>
  <g s:type="inputExt" transform="translate(12,42)" s:width="30" s:height="20" id="cell_i_data1">
    <text x="15" y="-4" class="nodelabel cell_i_data1" s:attribute="ref">i_data1</text>
    <s:alias val="$_inputExt_"/>
    <path d="M0,0 L0,20 L15,20 L30,10 L15,0 Z" class="cell_i_data1"/>
    <g s:x="28" s:y="10" s:pid="Y"/>
  </g>
  <g s:type="inputExt" transform="translate(12,2266)" s:width="30" s:height="20" id="cell_i_data2">
    <text x="15" y="-4" class="nodelabel cell_i_data2" s:attribute="ref">i_data2</text>
    <s:alias val="$_inputExt_"/>
    <path d="M0,0 L0,20 L15,20 L30,10 L15,0 Z" class="cell_i_data2"/>
    <g s:x="28" s:y="10" s:pid="Y"/>
  </g>
  <g s:type="outputExt" transform="translate(904,1428)" s:width="30" s:height="20" id="cell_o_data">
    <text x="15" y="-4" class="nodelabel cell_o_data" s:attribute="ref">o_data</text>
    <s:alias val="$_outputExt_"/>
    <path d="M30,0 L30,20 L15,20 L0,10 L15,0 Z" class="cell_o_data"/>
    <g s:x="0" s:y="10" s:pid="A"/>
  </g>
  <g s:type="join" transform="translate(863,1417.5)" s:width="4" s:height="40" id="cell_$join$,52,53,54,55,56,57,58,59,60,61,62,63,64,65,66,67,">
    <rect width="5" height="320" class="splitjoinBody" s:generic="body"/>
    <s:alias val="$_join_"/>
    <g s:x="5" s:y="20" s:pid="out"/>
    <g transform="translate(0,10)" s:x="0" s:y="10" s:pid="in0">
      <text x="-3" y="-4" class="inputPortLabel">0</text>
    </g>
    <g transform="translate(0,30)" s:x="0" s:y="10" s:pid="in0">
      <text x="-3" y="-4" class="inputPortLabel">1</text>
    </g>
    <g transform="translate(0,50)" s:x="0" s:y="10" s:pid="in0">
      <text x="-3" y="-4" class="inputPortLabel">2</text>
    </g>
    <g transform="translate(0,70)" s:x="0" s:y="10" s:pid="in0">
      <text x="-3" y="-4" class="inputPortLabel">3</text>
    </g>
    <g transform="translate(0,90)" s:x="0" s:y="10" s:pid="in0">
      <text x="-3" y="-4" class="inputPortLabel">4</text>
    </g>
    <g transform="translate(0,110)" s:x="0" s:y="10" s:pid="in0">
      <text x="-3" y="-4" class="inputPortLabel">5</text>
    </g>
    <g transform="translate(0,130)" s:x="0" s:y="10" s:pid="in0">
      <text x="-3" y="-4" class="inputPortLabel">6</text>
    </g>
    <g transform="translate(0,150)" s:x="0" s:y="10" s:pid="in0">
      <text x="-3" y="-4" class="inputPortLabel">7</text>
    </g>
    <g transform="translate(0,170)" s:x="0" s:y="10" s:pid="in0">
      <text x="-3" y="-4" class="inputPortLabel">8</text>
    </g>
    <g transform="translate(0,190)" s:x="0" s:y="10" s:pid="in0">
      <text x="-3" y="-4" class="inputPortLabel">9</text>
    </g>
    <g transform="translate(0,210)" s:x="0" s:y="10" s:pid="in0">
      <text x="-3" y="-4" class="inputPortLabel">10</text>
    </g>
    <g transform="translate(0,230)" s:x="0" s:y="10" s:pid="in0">
      <text x="-3" y="-4" class="inputPortLabel">11</text>
    </g>
    <g transform="translate(0,250)" s:x="0" s:y="10" s:pid="in0">
      <text x="-3" y="-4" class="inputPortLabel">12</text>
    </g>
    <g transform="translate(0,270)" s:x="0" s:y="10" s:pid="in0">
      <text x="-3" y="-4" class="inputPortLabel">13</text>
    </g>
    <g transform="translate(0,290)" s:x="0" s:y="10" s:pid="in0">
      <text x="-3" y="-4" class="inputPortLabel">14</text>
    </g>
    <g transform="translate(0,310)" s:x="0" s:y="10" s:pid="in0">
      <text x="-3" y="-4" class="inputPortLabel">15</text>
    </g>
  </g>
  <g s:type="split" transform="translate(107,649.5)" s:width="5" s:height="40" id="cell_$split$,4,5,6,7,8,9,10,11,12,13,14,15,16,17,18,19,">
    <rect width="5" height="320" class="splitjoinBody" s:generic="body"/>
    <s:alias val="$_split_"/>
    <g s:x="0" s:y="20" s:pid="in"/>
    <g transform="translate(4,10)" s:x="4" s:y="10" s:pid="out0">
      <text x="5" y="-4">0</text>
    </g>
    <g transform="translate(4,30)" s:x="4" s:y="10" s:pid="out0">
      <text x="5" y="-4">10</text>
    </g>
    <g transform="translate(4,50)" s:x="4" s:y="10" s:pid="out0">
      <text x="5" y="-4">11</text>
    </g>
    <g transform="translate(4,70)" s:x="4" s:y="10" s:pid="out0">
      <text x="5" y="-4">12</text>
    </g>
    <g transform="translate(4,90)" s:x="4" s:y="10" s:pid="out0">
      <text x="5" y="-4">13</text>
    </g>
    <g transform="translate(4,110)" s:x="4" s:y="10" s:pid="out0">
      <text x="5" y="-4">14</text>
    </g>
    <g transform="translate(4,130)" s:x="4" s:y="10" s:pid="out0">
      <text x="5" y="-4">15</text>
    </g>
    <g transform="translate(4,150)" s:x="4" s:y="10" s:pid="out0">
      <text x="5" y="-4">1</text>
    </g>
    <g transform="translate(4,170)" s:x="4" s:y="10" s:pid="out0">
      <text x="5" y="-4">2</text>
    </g>
    <g transform="translate(4,190)" s:x="4" s:y="10" s:pid="out0">
      <text x="5" y="-4">3</text>
    </g>
    <g transform="translate(4,210)" s:x="4" s:y="10" s:pid="out0">
      <text x="5" y="-4">4</text>
    </g>
    <g transform="translate(4,230)" s:x="4" s:y="10" s:pid="out0">
      <text x="5" y="-4">5</text>
    </g>
    <g transform="translate(4,250)" s:x="4" s:y="10" s:pid="out0">
      <text x="5" y="-4">6</text>
    </g>
    <g transform="translate(4,270)" s:x="4" s:y="10" s:pid="out0">
      <text x="5" y="-4">7</text>
    </g>
    <g transform="translate(4,290)" s:x="4" s:y="10" s:pid="out0">
      <text x="5" y="-4">8</text>
    </g>
    <g transform="translate(4,310)" s:x="4" s:y="10" s:pid="out0">
      <text x="5" y="-4">9</text>
    </g>
  </g>
  <g s:type="split" transform="translate(107,267.5)" s:width="5" s:height="40" id="cell_$split$,20,21,22,23,24,25,26,27,28,29,30,31,32,33,34,35,">
    <rect width="5" height="320" class="splitjoinBody" s:generic="body"/>
    <s:alias val="$_split_"/>
    <g s:x="0" s:y="20" s:pid="in"/>
    <g transform="translate(4,10)" s:x="4" s:y="10" s:pid="out0">
      <text x="5" y="-4">0</text>
    </g>
    <g transform="translate(4,30)" s:x="4" s:y="10" s:pid="out0">
      <text x="5" y="-4">10</text>
    </g>
    <g transform="translate(4,50)" s:x="4" s:y="10" s:pid="out0">
      <text x="5" y="-4">11</text>
    </g>
    <g transform="translate(4,70)" s:x="4" s:y="10" s:pid="out0">
      <text x="5" y="-4">12</text>
    </g>
    <g transform="translate(4,90)" s:x="4" s:y="10" s:pid="out0">
      <text x="5" y="-4">13</text>
    </g>
    <g transform="translate(4,110)" s:x="4" s:y="10" s:pid="out0">
      <text x="5" y="-4">14</text>
    </g>
    <g transform="translate(4,130)" s:x="4" s:y="10" s:pid="out0">
      <text x="5" y="-4">15</text>
    </g>
    <g transform="translate(4,150)" s:x="4" s:y="10" s:pid="out0">
      <text x="5" y="-4">1</text>
    </g>
    <g transform="translate(4,170)" s:x="4" s:y="10" s:pid="out0">
      <text x="5" y="-4">2</text>
    </g>
    <g transform="translate(4,190)" s:x="4" s:y="10" s:pid="out0">
      <text x="5" y="-4">3</text>
    </g>
    <g transform="translate(4,210)" s:x="4" s:y="10" s:pid="out0">
      <text x="5" y="-4">4</text>
    </g>
    <g transform="translate(4,230)" s:x="4" s:y="10" s:pid="out0">
      <text x="5" y="-4">5</text>
    </g>
    <g transform="translate(4,250)" s:x="4" s:y="10" s:pid="out0">
      <text x="5" y="-4">6</text>
    </g>
    <g transform="translate(4,270)" s:x="4" s:y="10" s:pid="out0">
      <text x="5" y="-4">7</text>
    </g>
    <g transform="translate(4,290)" s:x="4" s:y="10" s:pid="out0">
      <text x="5" y="-4">8</text>
    </g>
    <g transform="translate(4,310)" s:x="4" s:y="10" s:pid="out0">
      <text x="5" y="-4">9</text>
    </g>
  </g>
  <g s:type="split" transform="translate(107,2298)" s:width="5" s:height="40" id="cell_$split$,36,37,38,39,40,41,42,43,44,45,46,47,48,49,50,51,">
    <rect width="5" height="320" class="splitjoinBody" s:generic="body"/>
    <s:alias val="$_split_"/>
    <g s:x="0" s:y="20" s:pid="in"/>
    <g transform="translate(4,10)" s:x="4" s:y="10" s:pid="out0">
      <text x="5" y="-4">0</text>
    </g>
    <g transform="translate(4,30)" s:x="4" s:y="10" s:pid="out0">
      <text x="5" y="-4">10</text>
    </g>
    <g transform="translate(4,50)" s:x="4" s:y="10" s:pid="out0">
      <text x="5" y="-4">11</text>
    </g>
    <g transform="translate(4,70)" s:x="4" s:y="10" s:pid="out0">
      <text x="5" y="-4">12</text>
    </g>
    <g transform="translate(4,90)" s:x="4" s:y="10" s:pid="out0">
      <text x="5" y="-4">13</text>
    </g>
    <g transform="translate(4,110)" s:x="4" s:y="10" s:pid="out0">
      <text x="5" y="-4">14</text>
    </g>
    <g transform="translate(4,130)" s:x="4" s:y="10" s:pid="out0">
      <text x="5" y="-4">15</text>
    </g>
    <g transform="translate(4,150)" s:x="4" s:y="10" s:pid="out0">
      <text x="5" y="-4">1</text>
    </g>
    <g transform="translate(4,170)" s:x="4" s:y="10" s:pid="out0">
      <text x="5" y="-4">2</text>
    </g>
    <g transform="translate(4,190)" s:x="4" s:y="10" s:pid="out0">
      <text x="5" y="-4">3</text>
    </g>
    <g transform="translate(4,210)" s:x="4" s:y="10" s:pid="out0">
      <text x="5" y="-4">4</text>
    </g>
    <g transform="translate(4,230)" s:x="4" s:y="10" s:pid="out0">
      <text x="5" y="-4">5</text>
    </g>
    <g transform="translate(4,250)" s:x="4" s:y="10" s:pid="out0">
      <text x="5" y="-4">6</text>
    </g>
    <g transform="translate(4,270)" s:x="4" s:y="10" s:pid="out0">
      <text x="5" y="-4">7</text>
    </g>
    <g transform="translate(4,290)" s:x="4" s:y="10" s:pid="out0">
      <text x="5" y="-4">8</text>
    </g>
    <g transform="translate(4,310)" s:x="4" s:y="10" s:pid="out0">
      <text x="5" y="-4">9</text>
    </g>
  </g>
  <line x1="111.5" x2="111.5" y1="659.5" y2="627.5" class="net_4"/>
  <line x1="111.5" x2="329" y1="627.5" y2="627.5" class="net_4"/>
  <line x1="329" x2="329" y1="627.5" y2="170" class="net_4"/>
  <line x1="329" x2="588" y1="170" y2="170" class="net_4"/>
  <line x1="111.5" x2="111.5" y1="277.5" y2="190" class="net_20"/>
  <line x1="111.5" x2="588" y1="190" y2="190" class="net_20"/>
  <line x1="111.5" x2="111.5" y1="2308" y2="2266" class="net_36"/>
  <line x1="111.5" x2="359" y1="2266" y2="2266" class="net_36"/>
  <line x1="359" x2="359" y1="2266" y2="210" class="net_36"/>
  <line x1="359" x2="588" y1="210" y2="210" class="net_36"/>
  <line x1="117" x2="529" y1="32" y2="32" class="net_2,3"/>
  <line x1="529" x2="529" y1="32" y2="230" class="net_2,3"/>
  <circle cx="529" cy="230" r="2" style="fill:#000" class="net_2,3"/>
  <line x1="529" x2="588" y1="230" y2="230" class="net_2,3"/>
  <line x1="117" x2="529" y1="32" y2="32" class="net_2,3"/>
  <line x1="529" x2="529" y1="32" y2="102" class="net_2,3"/>
  <circle cx="529" cy="102" r="2" style="fill:#000" class="net_2,3"/>
  <line x1="529" x2="582" y1="102" y2="102" class="net_2,3"/>
  <line x1="117" x2="529" y1="32" y2="32" class="net_2,3"/>
  <line x1="529" x2="529" y1="32" y2="358" class="net_2,3"/>
  <circle cx="529" cy="358" r="2" style="fill:#000" class="net_2,3"/>
  <line x1="529" x2="582" y1="358" y2="358" class="net_2,3"/>
  <line x1="117" x2="529" y1="32" y2="32" class="net_2,3"/>
  <line x1="529" x2="529" y1="32" y2="780" class="net_2,3"/>
  <circle cx="529" cy="780" r="2" style="fill:#000" class="net_2,3"/>
  <line x1="529" x2="582" y1="780" y2="780" class="net_2,3"/>
  <line x1="117" x2="529" y1="32" y2="32" class="net_2,3"/>
  <line x1="529" x2="529" y1="32" y2="908" class="net_2,3"/>
  <circle cx="529" cy="908" r="2" style="fill:#000" class="net_2,3"/>
  <line x1="529" x2="582" y1="908" y2="908" class="net_2,3"/>
  <line x1="117" x2="529" y1="32" y2="32" class="net_2,3"/>
  <line x1="529" x2="529" y1="32" y2="1036" class="net_2,3"/>
  <circle cx="529" cy="1036" r="2" style="fill:#000" class="net_2,3"/>
  <line x1="529" x2="582" y1="1036" y2="1036" class="net_2,3"/>
  <line x1="117" x2="529" y1="32" y2="32" class="net_2,3"/>
  <line x1="529" x2="529" y1="32" y2="1164" class="net_2,3"/>
  <circle cx="529" cy="1164" r="2" style="fill:#000" class="net_2,3"/>
  <line x1="529" x2="582" y1="1164" y2="1164" class="net_2,3"/>
  <line x1="117" x2="529" y1="32" y2="32" class="net_2,3"/>
  <line x1="529" x2="529" y1="32" y2="1292" class="net_2,3"/>
  <circle cx="529" cy="1292" r="2" style="fill:#000" class="net_2,3"/>
  <line x1="529" x2="588" y1="1292" y2="1292" class="net_2,3"/>
  <line x1="117" x2="529" y1="32" y2="32" class="net_2,3"/>
  <line x1="529" x2="529" y1="32" y2="1420" class="net_2,3"/>
  <circle cx="529" cy="1420" r="2" style="fill:#000" class="net_2,3"/>
  <line x1="529" x2="588" y1="1420" y2="1420" class="net_2,3"/>
  <line x1="117" x2="529" y1="32" y2="32" class="net_2,3"/>
  <line x1="529" x2="529" y1="32" y2="1548" class="net_2,3"/>
  <circle cx="529" cy="1548" r="2" style="fill:#000" class="net_2,3"/>
  <line x1="529" x2="588" y1="1548" y2="1548" class="net_2,3"/>
  <line x1="117" x2="529" y1="32" y2="32" class="net_2,3"/>
  <line x1="529" x2="529" y1="32" y2="1676" class="net_2,3"/>
  <circle cx="529" cy="1676" r="2" style="fill:#000" class="net_2,3"/>
  <line x1="529" x2="588" y1="1676" y2="1676" class="net_2,3"/>
  <line x1="117" x2="529" y1="32" y2="32" class="net_2,3"/>
  <line x1="529" x2="529" y1="32" y2="1804" class="net_2,3"/>
  <circle cx="529" cy="1804" r="2" style="fill:#000" class="net_2,3"/>
  <line x1="529" x2="588" y1="1804" y2="1804" class="net_2,3"/>
  <line x1="117" x2="529" y1="32" y2="32" class="net_2,3"/>
  <line x1="529" x2="529" y1="32" y2="1932" class="net_2,3"/>
  <circle cx="529" cy="1932" r="2" style="fill:#000" class="net_2,3"/>
  <line x1="529" x2="588" y1="1932" y2="1932" class="net_2,3"/>
  <line x1="117" x2="529" y1="32" y2="32" class="net_2,3"/>
  <line x1="529" x2="529" y1="32" y2="2060" class="net_2,3"/>
  <circle cx="529" cy="2060" r="2" style="fill:#000" class="net_2,3"/>
  <line x1="529" x2="588" y1="2060" y2="2060" class="net_2,3"/>
  <line x1="117" x2="529" y1="32" y2="32" class="net_2,3"/>
  <line x1="529" x2="529" y1="32" y2="2316" class="net_2,3"/>
  <line x1="529" x2="588" y1="2316" y2="2316" class="net_2,3"/>
  <line x1="117" x2="529" y1="32" y2="32" class="net_2,3"/>
  <line x1="529" x2="529" y1="32" y2="2188" class="net_2,3"/>
  <circle cx="529" cy="2188" r="2" style="fill:#000" class="net_2,3"/>
  <line x1="529" x2="588" y1="2188" y2="2188" class="net_2,3"/>
  <line x1="111.5" x2="111.5" y1="679.5" y2="617.5" class="net_14"/>
  <line x1="111.5" x2="149" y1="617.5" y2="617.5" class="net_14"/>
  <line x1="149" x2="149" y1="617.5" y2="42" class="net_14"/>
  <line x1="149" x2="582" y1="42" y2="42" class="net_14"/>
  <line x1="111.5" x2="111.5" y1="297.5" y2="62" class="net_30"/>
  <line x1="111.5" x2="582" y1="62" y2="62" class="net_30"/>
  <line x1="111.5" x2="111.5" y1="2328" y2="2286" class="net_46"/>
  <line x1="111.5" x2="349" y1="2286" y2="2286" class="net_46"/>
  <line x1="349" x2="349" y1="2286" y2="82" class="net_46"/>
  <line x1="349" x2="582" y1="82" y2="82" class="net_46"/>
  <line x1="112" x2="369" y1="700" y2="700" class="net_15"/>
  <line x1="369" x2="369" y1="700" y2="298" class="net_15"/>
  <line x1="369" x2="582" y1="298" y2="298" class="net_15"/>
  <line x1="112" x2="582" y1="318" y2="318" class="net_31"/>
  <line x1="112" x2="389" y1="2348.5" y2="2348.5" class="net_47"/>
  <line x1="389" x2="389" y1="2348.5" y2="338" class="net_47"/>
  <line x1="389" x2="582" y1="338" y2="338" class="net_47"/>
  <line x1="112" x2="582" y1="720" y2="720" class="net_16"/>
  <line x1="112" x2="379" y1="338" y2="338" class="net_32"/>
  <line x1="379" x2="379" y1="338" y2="740" class="net_32"/>
  <line x1="379" x2="582" y1="740" y2="740" class="net_32"/>
  <line x1="112" x2="399" y1="2368.5" y2="2368.5" class="net_48"/>
  <line x1="399" x2="399" y1="2368.5" y2="760" class="net_48"/>
  <line x1="399" x2="582" y1="760" y2="760" class="net_48"/>
  <line x1="112" x2="329" y1="740" y2="740" class="net_17"/>
  <line x1="329" x2="329" y1="740" y2="848" class="net_17"/>
  <line x1="329" x2="582" y1="848" y2="848" class="net_17"/>
  <line x1="112" x2="339" y1="358" y2="358" class="net_33"/>
  <line x1="339" x2="339" y1="358" y2="868" class="net_33"/>
  <line x1="339" x2="582" y1="868" y2="868" class="net_33"/>
  <line x1="112" x2="409" y1="2388.5" y2="2388.5" class="net_49"/>
  <line x1="409" x2="409" y1="2388.5" y2="888" class="net_49"/>
  <line x1="409" x2="582" y1="888" y2="888" class="net_49"/>
  <line x1="112" x2="309" y1="760" y2="760" class="net_18"/>
  <line x1="309" x2="309" y1="760" y2="976" class="net_18"/>
  <line x1="309" x2="582" y1="976" y2="976" class="net_18"/>
  <line x1="112" x2="319" y1="378" y2="378" class="net_34"/>
  <line x1="319" x2="319" y1="378" y2="996" class="net_34"/>
  <line x1="319" x2="582" y1="996" y2="996" class="net_34"/>
  <line x1="112" x2="419" y1="2408.5" y2="2408.5" class="net_50"/>
  <line x1="419" x2="419" y1="2408.5" y2="1016" class="net_50"/>
  <line x1="419" x2="582" y1="1016" y2="1016" class="net_50"/>
  <line x1="112" x2="289" y1="780" y2="780" class="net_19"/>
  <line x1="289" x2="289" y1="780" y2="1104" class="net_19"/>
  <line x1="289" x2="582" y1="1104" y2="1104" class="net_19"/>
  <line x1="112" x2="299" y1="398" y2="398" class="net_35"/>
  <line x1="299" x2="299" y1="398" y2="1124" class="net_35"/>
  <line x1="299" x2="582" y1="1124" y2="1124" class="net_35"/>
  <line x1="112" x2="429" y1="2428.5" y2="2428.5" class="net_51"/>
  <line x1="429" x2="429" y1="2428.5" y2="1144" class="net_51"/>
  <line x1="429" x2="582" y1="1144" y2="1144" class="net_51"/>
  <line x1="112" x2="269" y1="800" y2="800" class="net_5"/>
  <line x1="269" x2="269" y1="800" y2="1232" class="net_5"/>
  <line x1="269" x2="588" y1="1232" y2="1232" class="net_5"/>
  <line x1="112" x2="279" y1="418" y2="418" class="net_21"/>
  <line x1="279" x2="279" y1="418" y2="1252" class="net_21"/>
  <line x1="279" x2="588" y1="1252" y2="1252" class="net_21"/>
  <line x1="112" x2="439" y1="2448.5" y2="2448.5" class="net_37"/>
  <line x1="439" x2="439" y1="2448.5" y2="1272" class="net_37"/>
  <line x1="439" x2="588" y1="1272" y2="1272" class="net_37"/>
  <line x1="112" x2="249" y1="820" y2="820" class="net_6"/>
  <line x1="249" x2="249" y1="820" y2="1360" class="net_6"/>
  <line x1="249" x2="588" y1="1360" y2="1360" class="net_6"/>
  <line x1="112" x2="259" y1="438" y2="438" class="net_22"/>
  <line x1="259" x2="259" y1="438" y2="1380" class="net_22"/>
  <line x1="259" x2="588" y1="1380" y2="1380" class="net_22"/>
  <line x1="112" x2="449" y1="2468.5" y2="2468.5" class="net_38"/>
  <line x1="449" x2="449" y1="2468.5" y2="1400" class="net_38"/>
  <line x1="449" x2="588" y1="1400" y2="1400" class="net_38"/>
  <line x1="112" x2="229" y1="840" y2="840" class="net_7"/>
  <line x1="229" x2="229" y1="840" y2="1488" class="net_7"/>
  <line x1="229" x2="588" y1="1488" y2="1488" class="net_7"/>
  <line x1="112" x2="239" y1="458" y2="458" class="net_23"/>
  <line x1="239" x2="239" y1="458" y2="1508" class="net_23"/>
  <line x1="239" x2="588" y1="1508" y2="1508" class="net_23"/>
  <line x1="112" x2="459" y1="2488.5" y2="2488.5" class="net_39"/>
  <line x1="459" x2="459" y1="2488.5" y2="1528" class="net_39"/>
  <line x1="459" x2="588" y1="1528" y2="1528" class="net_39"/>
  <line x1="112" x2="209" y1="860" y2="860" class="net_8"/>
  <line x1="209" x2="209" y1="860" y2="1616" class="net_8"/>
  <line x1="209" x2="588" y1="1616" y2="1616" class="net_8"/>
  <line x1="112" x2="219" y1="478" y2="478" class="net_24"/>
  <line x1="219" x2="219" y1="478" y2="1636" class="net_24"/>
  <line x1="219" x2="588" y1="1636" y2="1636" class="net_24"/>
  <line x1="112" x2="469" y1="2508.5" y2="2508.5" class="net_40"/>
  <line x1="469" x2="469" y1="2508.5" y2="1656" class="net_40"/>
  <line x1="469" x2="588" y1="1656" y2="1656" class="net_40"/>
  <line x1="112" x2="189" y1="880" y2="880" class="net_9"/>
  <line x1="189" x2="189" y1="880" y2="1744" class="net_9"/>
  <line x1="189" x2="588" y1="1744" y2="1744" class="net_9"/>
  <line x1="112" x2="199" y1="498" y2="498" class="net_25"/>
  <line x1="199" x2="199" y1="498" y2="1764" class="net_25"/>
  <line x1="199" x2="588" y1="1764" y2="1764" class="net_25"/>
  <line x1="112" x2="479" y1="2528.5" y2="2528.5" class="net_41"/>
  <line x1="479" x2="479" y1="2528.5" y2="1784" class="net_41"/>
  <line x1="479" x2="588" y1="1784" y2="1784" class="net_41"/>
  <line x1="112" x2="169" y1="900" y2="900" class="net_10"/>
  <line x1="169" x2="169" y1="900" y2="1872" class="net_10"/>
  <line x1="169" x2="588" y1="1872" y2="1872" class="net_10"/>
  <line x1="112" x2="179" y1="518" y2="518" class="net_26"/>
  <line x1="179" x2="179" y1="518" y2="1892" class="net_26"/>
  <line x1="179" x2="588" y1="1892" y2="1892" class="net_26"/>
  <line x1="112" x2="489" y1="2548.5" y2="2548.5" class="net_42"/>
  <line x1="489" x2="489" y1="2548.5" y2="1912" class="net_42"/>
  <line x1="489" x2="588" y1="1912" y2="1912" class="net_42"/>
  <line x1="112" x2="149" y1="920" y2="920" class="net_11"/>
  <line x1="149" x2="149" y1="920" y2="2000" class="net_11"/>
  <line x1="149" x2="588" y1="2000" y2="2000" class="net_11"/>
  <line x1="112" x2="159" y1="538" y2="538" class="net_27"/>
  <line x1="159" x2="159" y1="538" y2="2020" class="net_27"/>
  <line x1="159" x2="588" y1="2020" y2="2020" class="net_27"/>
  <line x1="112" x2="499" y1="2568.5" y2="2568.5" class="net_43"/>
  <line x1="499" x2="499" y1="2568.5" y2="2040" class="net_43"/>
  <line x1="499" x2="588" y1="2040" y2="2040" class="net_43"/>
  <line x1="111.5" x2="111.5" y1="940.5" y2="2256" class="net_12"/>
  <line x1="111.5" x2="588" y1="2256" y2="2256" class="net_12"/>
  <line x1="111.5" x2="111.5" y1="558.5" y2="597.5" class="net_28"/>
  <line x1="111.5" x2="129" y1="597.5" y2="597.5" class="net_28"/>
  <line x1="129" x2="129" y1="597.5" y2="2276" class="net_28"/>
  <line x1="129" x2="588" y1="2276" y2="2276" class="net_28"/>
  <line x1="111.5" x2="111.5" y1="2589" y2="2638" class="net_44"/>
  <line x1="111.5" x2="519" y1="2638" y2="2638" class="net_44"/>
  <line x1="519" x2="519" y1="2638" y2="2296" class="net_44"/>
  <line x1="519" x2="588" y1="2296" y2="2296" class="net_44"/>
  <line x1="111.5" x2="111.5" y1="960.5" y2="2128" class="net_13"/>
  <line x1="111.5" x2="588" y1="2128" y2="2128" class="net_13"/>
  <line x1="111.5" x2="111.5" y1="578.5" y2="607.5" class="net_29"/>
  <line x1="111.5" x2="139" y1="607.5" y2="607.5" class="net_29"/>
  <line x1="139" x2="139" y1="607.5" y2="2148" class="net_29"/>
  <line x1="139" x2="588" y1="2148" y2="2148" class="net_29"/>
  <line x1="111.5" x2="111.5" y1="2609" y2="2628" class="net_45"/>
  <line x1="111.5" x2="509" y1="2628" y2="2628" class="net_45"/>
  <line x1="509" x2="509" y1="2628" y2="2168" class="net_45"/>
  <line x1="509" x2="588" y1="2168" y2="2168" class="net_45"/>
  <line x1="869" x2="904" y1="1438" y2="1438" class="net_52,53,54,55,56,57,58,59,60,61,62,63,64,65,66,67"/>
  <line x1="619" x2="863.5" y1="170" y2="170" class="net_52"/>
  <line x1="863.5" x2="863.5" y1="170" y2="1427.5" class="net_52"/>
  <line x1="619" x2="863.5" y1="1232" y2="1232" class="net_53"/>
  <line x1="863.5" x2="863.5" y1="1232" y2="1447.5" class="net_53"/>
  <line x1="619" x2="826" y1="1360" y2="1360" class="net_54"/>
  <line x1="826" x2="826" y1="1360" y2="1468" class="net_54"/>
  <line x1="826" x2="863" y1="1468" y2="1468" class="net_54"/>
  <line x1="619" x2="863" y1="1488" y2="1488" class="net_55"/>
  <line x1="619" x2="756" y1="1616" y2="1616" class="net_56"/>
  <line x1="756" x2="756" y1="1616" y2="1508" class="net_56"/>
  <line x1="756" x2="863" y1="1508" y2="1508" class="net_56"/>
  <line x1="619" x2="766" y1="1744" y2="1744" class="net_57"/>
  <line x1="766" x2="766" y1="1744" y2="1528" class="net_57"/>
  <line x1="766" x2="863" y1="1528" y2="1528" class="net_57"/>
  <line x1="619" x2="786" y1="1872" y2="1872" class="net_58"/>
  <line x1="786" x2="786" y1="1872" y2="1548" class="net_58"/>
  <line x1="786" x2="863" y1="1548" y2="1548" class="net_58"/>
  <line x1="619" x2="806" y1="2000" y2="2000" class="net_59"/>
  <line x1="806" x2="806" y1="2000" y2="1568" class="net_59"/>
  <line x1="806" x2="863" y1="1568" y2="1568" class="net_59"/>
  <line x1="619" x2="826" y1="2256" y2="2256" class="net_60"/>
  <line x1="826" x2="826" y1="2256" y2="1588" class="net_60"/>
  <line x1="826" x2="863" y1="1588" y2="1588" class="net_60"/>
  <line x1="619" x2="836" y1="2128" y2="2128" class="net_61"/>
  <line x1="836" x2="836" y1="2128" y2="1608" class="net_61"/>
  <line x1="836" x2="863" y1="1608" y2="1608" class="net_61"/>
  <line x1="613" x2="846" y1="42" y2="42" class="net_62"/>
  <line x1="846" x2="846" y1="42" y2="1628" class="net_62"/>
  <line x1="846" x2="863" y1="1628" y2="1628" class="net_62"/>
  <line x1="613" x2="816" y1="298" y2="298" class="net_63"/>
  <line x1="816" x2="816" y1="298" y2="1648" class="net_63"/>
  <line x1="816" x2="863" y1="1648" y2="1648" class="net_63"/>
  <line x1="613" x2="796" y1="720" y2="720" class="net_64"/>
  <line x1="796" x2="796" y1="720" y2="1668" class="net_64"/>
  <line x1="796" x2="863" y1="1668" y2="1668" class="net_64"/>
  <line x1="613" x2="776" y1="848" y2="848" class="net_65"/>
  <line x1="776" x2="776" y1="848" y2="1688" class="net_65"/>
  <line x1="776" x2="863" y1="1688" y2="1688" class="net_65"/>
  <line x1="613" x2="736" y1="976" y2="976" class="net_66"/>
  <line x1="736" x2="736" y1="976" y2="1757.5" class="net_66"/>
  <line x1="736" x2="863.5" y1="1757.5" y2="1757.5" class="net_66"/>
  <line x1="863.5" x2="863.5" y1="1757.5" y2="1708.5" class="net_66"/>
  <line x1="613" x2="746" y1="1104" y2="1104" class="net_67"/>
  <line x1="746" x2="746" y1="1104" y2="1747.5" class="net_67"/>
  <line x1="746" x2="863.5" y1="1747.5" y2="1747.5" class="net_67"/>
  <line x1="863.5" x2="863.5" y1="1747.5" y2="1728.5" class="net_67"/>
  <line x1="40" x2="107.5" y1="637.5" y2="637.5" class="net_4,5,6,7,8,9,10,11,12,13,14,15,16,17,18,19"/>
  <line x1="107.5" x2="107.5" y1="637.5" y2="669.5" class="net_4,5,6,7,8,9,10,11,12,13,14,15,16,17,18,19"/>
  <line x1="40" x2="107.5" y1="52" y2="52" class="net_20,21,22,23,24,25,26,27,28,29,30,31,32,33,34,35"/>
  <line x1="107.5" x2="107.5" y1="52" y2="287.5" class="net_20,21,22,23,24,25,26,27,28,29,30,31,32,33,34,35"/>
  <line x1="40" x2="107.5" y1="2276" y2="2276" class="net_36,37,38,39,40,41,42,43,44,45,46,47,48,49,50,51"/>
  <line x1="107.5" x2="107.5" y1="2276" y2="2318" class="net_36,37,38,39,40,41,42,43,44,45,46,47,48,49,50,51"/>
</svg>
