<svg xmlns="http://www.w3.org/2000/svg" xmlns:xlink="http://www.w3.org/1999/xlink" xmlns:s="https://github.com/nturley/netlistsvg" width="978" height="567">
  <style>svg {
    stroke:#000;
    fill:none;
  }
  text {
    fill:#000;
    stroke:none;
    font-size:10px;
    font-weight: bold;
    font-family: "Courier New", monospace;
  }
  .nodelabel {
    text-anchor: middle;
  }
  .inputPortLabel {
    text-anchor: end;
  }
  .splitjoinBody {
    fill:#000;
  }</style>
  <g s:type="or" transform="translate(320,422.5)" s:width="30" s:height="25" id="cell_$auto$simplemap.cc:106:simplemap_bitop$139">
    <s:alias val="$or"/>
    <s:alias val="$logic_or"/>
    <s:alias val="$_OR_"/>
    <path d="M0,25 L0,25 L15,25 A15 12.5 0 0 0 15,0 L0,0" class="cell_$auto$simplemap.cc:106:simplemap_bitop$139"/>
    <path d="M0,0 A30 25 0 0 1 0,25" class="cell_$auto$simplemap.cc:106:simplemap_bitop$139"/>
    <g s:x="3" s:y="5" s:pid="A"/>
    <g s:x="3" s:y="20" s:pid="B"/>
    <g s:x="30" s:y="12.5" s:pid="Y"/>
  </g>
  <g s:type="mux" transform="translate(401.3333333333333,314)" s:width="20" s:height="40" id="cell_$auto$simplemap.cc:298:simplemap_mux$140">
    <s:alias val="$pmux"/>
    <s:alias val="$mux"/>
    <s:alias val="$_MUX_"/>
    <path d="M0,0 L20,10 L20,30 L0,40 Z" class="cell_$auto$simplemap.cc:298:simplemap_mux$140"/>
    <g s:x="0" s:y="10" s:pid="A"/>
    <g s:x="0" s:y="30" s:pid="B"/>
    <g s:x="10" s:y="35" s:pid="S"/>
    <g s:x="20" s:y="20" s:pid="Y"/>
  </g>
  <g s:type="mux" transform="translate(401.3333333333333,385)" s:width="20" s:height="40" id="cell_$auto$simplemap.cc:298:simplemap_mux$141">
    <s:alias val="$pmux"/>
    <s:alias val="$mux"/>
    <s:alias val="$_MUX_"/>
    <path d="M0,0 L20,10 L20,30 L0,40 Z" class="cell_$auto$simplemap.cc:298:simplemap_mux$141"/>
    <g s:x="0" s:y="10" s:pid="A"/>
    <g s:x="0" s:y="30" s:pid="B"/>
    <g s:x="10" s:y="35" s:pid="S"/>
    <g s:x="20" s:y="20" s:pid="Y"/>
  </g>
  <g s:type="mux" transform="translate(496.3333333333333,344)" s:width="20" s:height="40" id="cell_$auto$simplemap.cc:298:simplemap_mux$142">
    <s:alias val="$pmux"/>
    <s:alias val="$mux"/>
    <s:alias val="$_MUX_"/>
    <path d="M0,0 L20,10 L20,30 L0,40 Z" class="cell_$auto$simplemap.cc:298:simplemap_mux$142"/>
    <g s:x="0" s:y="10" s:pid="A"/>
    <g s:x="0" s:y="30" s:pid="B"/>
    <g s:x="10" s:y="35" s:pid="S"/>
    <g s:x="20" s:y="20" s:pid="Y"/>
  </g>
  <g s:type="mux" transform="translate(496.3333333333333,475)" s:width="20" s:height="40" id="cell_$auto$simplemap.cc:298:simplemap_mux$143">
    <s:alias val="$pmux"/>
    <s:alias val="$mux"/>
    <s:alias val="$_MUX_"/>
    <path d="M0,0 L20,10 L20,30 L0,40 Z" class="cell_$auto$simplemap.cc:298:simplemap_mux$143"/>
    <g s:x="0" s:y="10" s:pid="A"/>
    <g s:x="0" s:y="30" s:pid="B"/>
    <g s:x="10" s:y="35" s:pid="S"/>
    <g s:x="20" s:y="20" s:pid="Y"/>
  </g>
  <g s:type="generic" transform="translate(636,174.5)" s:width="30" s:height="40" id="cell_u_adder_imm">
    <text x="15" y="-4" class="nodelabel cell_u_adder_imm" s:attribute="ref">pc_logic_adder_nbit</text>
    <rect width="30" height="60" s:generic="body" class="cell_u_adder_imm"/>
    <g transform="translate(0,10)" s:x="0" s:y="10" s:pid="in0" id="port_u_adder_imm~i_a">
      <text x="-3" y="-4" class="inputPortLabel cell_u_adder_imm">i_a</text>
    </g>
    <g transform="translate(0,30)" s:x="0" s:y="10" s:pid="in0" id="port_u_adder_imm~i_b">
      <text x="-3" y="-4" class="inputPortLabel cell_u_adder_imm">i_b</text>
    </g>
    <g transform="translate(0,50)" s:x="0" s:y="10" s:pid="in0" id="port_u_adder_imm~i_cin">
      <text x="-3" y="-4" class="inputPortLabel cell_u_adder_imm">i_cin</text>
    </g>
    <g transform="translate(30,10)" s:x="30" s:y="10" s:pid="out0" id="port_u_adder_imm~o_cout">
      <text x="5" y="-4" style="fill:#000; stroke:none" class="cell_u_adder_imm">o_cout</text>
    </g>
    <g transform="translate(30,30)" s:x="30" s:y="10" s:pid="out0" id="port_u_adder_imm~o_sum">
      <text x="5" y="-4" style="fill:#000; stroke:none" class="cell_u_adder_imm">o_sum</text>
    </g>
  </g>
  <g s:type="generic" transform="translate(636,66.5)" s:width="30" s:height="40" id="cell_u_adder_inc">
    <text x="15" y="-4" class="nodelabel cell_u_adder_inc" s:attribute="ref">pc_logic_adder_nbit</text>
    <rect width="30" height="60" s:generic="body" class="cell_u_adder_inc"/>
    <g transform="translate(0,10)" s:x="0" s:y="10" s:pid="in0" id="port_u_adder_inc~i_a">
      <text x="-3" y="-4" class="inputPortLabel cell_u_adder_inc">i_a</text>
    </g>
    <g transform="translate(0,30)" s:x="0" s:y="10" s:pid="in0" id="port_u_adder_inc~i_b">
      <text x="-3" y="-4" class="inputPortLabel cell_u_adder_inc">i_b</text>
    </g>
    <g transform="translate(0,50)" s:x="0" s:y="10" s:pid="in0" id="port_u_adder_inc~i_cin">
      <text x="-3" y="-4" class="inputPortLabel cell_u_adder_inc">i_cin</text>
    </g>
    <g transform="translate(30,10)" s:x="30" s:y="10" s:pid="out0" id="port_u_adder_inc~o_cout">
      <text x="5" y="-4" style="fill:#000; stroke:none" class="cell_u_adder_inc">o_cout</text>
    </g>
    <g transform="translate(30,30)" s:x="30" s:y="10" s:pid="out0" id="port_u_adder_inc~o_sum">
      <text x="5" y="-4" style="fill:#000; stroke:none" class="cell_u_adder_inc">o_sum</text>
    </g>
  </g>
  <g s:type="generic" transform="translate(632,282.5)" s:width="30" s:height="40" id="cell_u_adder_jalr">
    <text x="15" y="-4" class="nodelabel cell_u_adder_jalr" s:attribute="ref">pc_logic_adder_nbit</text>
    <rect width="30" height="60" s:generic="body" class="cell_u_adder_jalr"/>
    <g transform="translate(0,10)" s:x="0" s:y="10" s:pid="in0" id="port_u_adder_jalr~i_a">
      <text x="-3" y="-4" class="inputPortLabel cell_u_adder_jalr">i_a</text>
    </g>
    <g transform="translate(0,30)" s:x="0" s:y="10" s:pid="in0" id="port_u_adder_jalr~i_b">
      <text x="-3" y="-4" class="inputPortLabel cell_u_adder_jalr">i_b</text>
    </g>
    <g transform="translate(0,50)" s:x="0" s:y="10" s:pid="in0" id="port_u_adder_jalr~i_cin">
      <text x="-3" y="-4" class="inputPortLabel cell_u_adder_jalr">i_cin</text>
    </g>
    <g transform="translate(30,10)" s:x="30" s:y="10" s:pid="out0" id="port_u_adder_jalr~o_cout">
      <text x="5" y="-4" style="fill:#000; stroke:none" class="cell_u_adder_jalr">o_cout</text>
    </g>
    <g transform="translate(30,30)" s:x="30" s:y="10" s:pid="out0" id="port_u_adder_jalr~o_sum">
      <text x="5" y="-4" style="fill:#000; stroke:none" class="cell_u_adder_jalr">o_sum</text>
    </g>
  </g>
  <g s:type="generic" transform="translate(169,432)" s:width="30" s:height="40" id="cell_u_branch_eval">
    <text x="15" y="-4" class="nodelabel cell_u_branch_eval" s:attribute="ref">pc_logic_branch_eval</text>
    <rect width="30" height="120" s:generic="body" class="cell_u_branch_eval"/>
    <g transform="translate(0,10)" s:x="0" s:y="10" s:pid="in0" id="port_u_branch_eval~i_flag_n">
      <text x="-3" y="-4" class="inputPortLabel cell_u_branch_eval">i_flag_n</text>
    </g>
    <g transform="translate(0,30)" s:x="0" s:y="10" s:pid="in0" id="port_u_branch_eval~i_flag_v">
      <text x="-3" y="-4" class="inputPortLabel cell_u_branch_eval">i_flag_v</text>
    </g>
    <g transform="translate(0,50)" s:x="0" s:y="10" s:pid="in0" id="port_u_branch_eval~i_flag_z">
      <text x="-3" y="-4" class="inputPortLabel cell_u_branch_eval">i_flag_z</text>
    </g>
    <g transform="translate(0,70)" s:x="0" s:y="10" s:pid="in0" id="port_u_branch_eval~i_is_ble">
      <text x="-3" y="-4" class="inputPortLabel cell_u_branch_eval">i_is_ble</text>
    </g>
    <g transform="translate(0,90)" s:x="0" s:y="10" s:pid="in0" id="port_u_branch_eval~i_is_blt">
      <text x="-3" y="-4" class="inputPortLabel cell_u_branch_eval">i_is_blt</text>
    </g>
    <g transform="translate(0,110)" s:x="0" s:y="10" s:pid="in0" id="port_u_branch_eval~i_is_bz">
      <text x="-3" y="-4" class="inputPortLabel cell_u_branch_eval">i_is_bz</text>
    </g>
    <g transform="translate(30,10)" s:x="30" s:y="10" s:pid="out0" id="port_u_branch_eval~o_branch_taken">
      <text x="5" y="-4" style="fill:#000; stroke:none" class="cell_u_branch_eval">o_branch_taken</text>
    </g>
  </g>
  <g s:type="generic" transform="translate(797,414.5)" s:width="30" s:height="40" id="cell_u_pc_mux">
    <text x="15" y="-4" class="nodelabel cell_u_pc_mux" s:attribute="ref">pc_logic_mux_3to1_nbit</text>
    <rect width="30" height="80" s:generic="body" class="cell_u_pc_mux"/>
    <g transform="translate(0,10)" s:x="0" s:y="10" s:pid="in0" id="port_u_pc_mux~i_data0">
      <text x="-3" y="-4" class="inputPortLabel cell_u_pc_mux">i_data0</text>
    </g>
    <g transform="translate(0,30)" s:x="0" s:y="10" s:pid="in0" id="port_u_pc_mux~i_data1">
      <text x="-3" y="-4" class="inputPortLabel cell_u_pc_mux">i_data1</text>
    </g>
    <g transform="translate(0,50)" s:x="0" s:y="10" s:pid="in0" id="port_u_pc_mux~i_data2">
      <text x="-3" y="-4" class="inputPortLabel cell_u_pc_mux">i_data2</text>
    </g>
    <g transform="translate(0,70)" s:x="0" s:y="10" s:pid="in0" id="port_u_pc_mux~i_sel">
      <text x="-3" y="-4" class="inputPortLabel cell_u_pc_mux">i_sel</text>
    </g>
    <g transform="translate(30,10)" s:x="30" s:y="10" s:pid="out0" id="port_u_pc_mux~o_data">
      <text x="5" y="-4" style="fill:#000; stroke:none" class="cell_u_pc_mux">o_data</text>
    </g>
  </g>
  <g s:type="inputExt" transform="translate(479,87)" s:width="30" s:height="20" id="cell_i_pc_current">
    <text x="15" y="-4" class="nodelabel cell_i_pc_current" s:attribute="ref">i_pc_current</text>
    <s:alias val="$_inputExt_"/>
    <path d="M0,0 L0,20 L15,20 L30,10 L15,0 Z" class="cell_i_pc_current"/>
    <g s:x="28" s:y="10" s:pid="Y"/>
  </g>
  <g s:type="inputExt" transform="translate(479,195)" s:width="30" s:height="20" id="cell_i_imm">
    <text x="15" y="-4" class="nodelabel cell_i_imm" s:attribute="ref">i_imm</text>
    <s:alias val="$_inputExt_"/>
    <path d="M0,0 L0,20 L15,20 L30,10 L15,0 Z" class="cell_i_imm"/>
    <g s:x="28" s:y="10" s:pid="Y"/>
  </g>
  <g s:type="inputExt" transform="translate(479,283)" s:width="30" s:height="20" id="cell_i_rs1_data">
    <text x="15" y="-4" class="nodelabel cell_i_rs1_data" s:attribute="ref">i_rs1_data</text>
    <s:alias val="$_inputExt_"/>
    <path d="M0,0 L0,20 L15,20 L30,10 L15,0 Z" class="cell_i_rs1_data"/>
    <g s:x="28" s:y="10" s:pid="Y"/>
  </g>
  <g s:type="inputExt" transform="translate(12,337.5)" s:width="30" s:height="20" id="cell_i_flag_z">
    <text x="15" y="-4" class="nodelabel cell_i_flag_z" s:attribute="ref">i_flag_z</text>
    <s:alias val="$_inputExt_"/>
    <path d="M0,0 L0,20 L15,20 L30,10 L15,0 Z" class="cell_i_flag_z"/>
    <g s:x="28" s:y="10" s:pid="Y"/>
  </g>
  <g s:type="inputExt" transform="translate(12,207.5)" s:width="30" s:height="20" id="cell_i_flag_n">
    <text x="15" y="-4" class="nodelabel cell_i_flag_n" s:attribute="ref">i_flag_n</text>
    <s:alias val="$_inputExt_"/>
    <path d="M0,0 L0,20 L15,20 L30,10 L15,0 Z" class="cell_i_flag_n"/>
    <g s:x="28" s:y="10" s:pid="Y"/>
  </g>
  <g s:type="inputExt" transform="translate(12,272.5)" s:width="30" s:height="20" id="cell_i_flag_v">
    <text x="15" y="-4" class="nodelabel cell_i_flag_v" s:attribute="ref">i_flag_v</text>
    <s:alias val="$_inputExt_"/>
    <path d="M0,0 L0,20 L15,20 L30,10 L15,0 Z" class="cell_i_flag_v"/>
    <g s:x="28" s:y="10" s:pid="Y"/>
  </g>
  <g s:type="inputExt" transform="translate(12,467.5)" s:width="30" s:height="20" id="cell_i_is_blt">
    <text x="15" y="-4" class="nodelabel cell_i_is_blt" s:attribute="ref">i_is_blt</text>
    <s:alias val="$_inputExt_"/>
    <path d="M0,0 L0,20 L15,20 L30,10 L15,0 Z" class="cell_i_is_blt"/>
    <g s:x="28" s:y="10" s:pid="Y"/>
  </g>
  <g s:type="inputExt" transform="translate(12,402.5)" s:width="30" s:height="20" id="cell_i_is_ble">
    <text x="15" y="-4" class="nodelabel cell_i_is_ble" s:attribute="ref">i_is_ble</text>
    <s:alias val="$_inputExt_"/>
    <path d="M0,0 L0,20 L15,20 L30,10 L15,0 Z" class="cell_i_is_ble"/>
    <g s:x="28" s:y="10" s:pid="Y"/>
  </g>
  <g s:type="inputExt" transform="translate(12,532.5)" s:width="30" s:height="20" id="cell_i_is_bz">
    <text x="15" y="-4" class="nodelabel cell_i_is_bz" s:attribute="ref">i_is_bz</text>
    <s:alias val="$_inputExt_"/>
    <path d="M0,0 L0,20 L15,20 L30,10 L15,0 Z" class="cell_i_is_bz"/>
    <g s:x="28" s:y="10" s:pid="Y"/>
  </g>
  <g s:type="inputExt" transform="translate(169,367)" s:width="30" s:height="20" id="cell_i_is_jal">
    <text x="15" y="-4" class="nodelabel cell_i_is_jal" s:attribute="ref">i_is_jal</text>
    <s:alias val="$_inputExt_"/>
    <path d="M0,0 L0,20 L15,20 L30,10 L15,0 Z" class="cell_i_is_jal"/>
    <g s:x="28" s:y="10" s:pid="Y"/>
  </g>
  <g s:type="inputExt" transform="translate(390,455)" s:width="30" s:height="20" id="cell_i_is_jalr">
    <text x="15" y="-4" class="nodelabel cell_i_is_jalr" s:attribute="ref">i_is_jalr</text>
    <s:alias val="$_inputExt_"/>
    <path d="M0,0 L0,20 L15,20 L30,10 L15,0 Z" class="cell_i_is_jalr"/>
    <g s:x="28" s:y="10" s:pid="Y"/>
  </g>
  <g s:type="outputExt" transform="translate(900,415)" s:width="30" s:height="20" id="cell_o_pc_next">
    <text x="15" y="-4" class="nodelabel cell_o_pc_next" s:attribute="ref">o_pc_next</text>
    <s:alias val="$_outputExt_"/>
    <path d="M30,0 L30,20 L15,20 L0,10 L15,0 Z" class="cell_o_pc_next"/>
    <g s:x="0" s:y="10" s:pid="A"/>
  </g>
  <g s:type="outputExt" transform="translate(900,87)" s:width="30" s:height="20" id="cell_o_pc_plus_1">
    <text x="15" y="-4" class="nodelabel cell_o_pc_plus_1" s:attribute="ref">o_pc_plus_1</text>
    <s:alias val="$_outputExt_"/>
    <path d="M30,0 L30,20 L15,20 L0,10 L15,0 Z" class="cell_o_pc_plus_1"/>
    <g s:x="0" s:y="10" s:pid="A"/>
  </g>
  <g s:type="constant" transform="translate(320,314)" s:width="30" s:height="20" id="cell_0">
    <text x="15" y="-4" class="nodelabel cell_0" s:attribute="ref">0</text>
    <s:alias val="$_constant_"/>
    <rect width="30" height="20" class="cell_0"/>
    <g s:x="30" s:y="10" s:pid="Y"/>
  </g>
  <g s:type="constant" transform="translate(320,495)" s:width="30" s:height="20" id="cell_1">
    <text x="15" y="-4" class="nodelabel cell_1" s:attribute="ref">1</text>
    <s:alias val="$_constant_"/>
    <rect width="30" height="20" class="cell_1"/>
    <g s:x="30" s:y="10" s:pid="Y"/>
  </g>
  <g s:type="constant" transform="translate(479,22)" s:width="30" s:height="20" id="cell_0000000000000001">
    <text x="15" y="-4" class="nodelabel cell_0000000000000001" s:attribute="ref">0x1</text>
    <s:alias val="$_constant_"/>
    <rect width="30" height="20" class="cell_0000000000000001"/>
    <g s:x="30" s:y="10" s:pid="Y"/>
  </g>
  <g s:type="join" transform="translate(644.3333333333334,464.5)" s:width="4" s:height="40" id="cell_$join$,94,95,">
    <rect width="5" height="40" class="splitjoinBody" s:generic="body"/>
    <s:alias val="$_join_"/>
    <g s:x="5" s:y="20" s:pid="out"/>
    <g transform="translate(0,10)" s:x="0" s:y="10" s:pid="in0">
      <text x="-3" y="-4" class="inputPortLabel">0</text>
    </g>
    <g transform="translate(0,30)" s:x="0" s:y="10" s:pid="in0">
      <text x="-3" y="-4" class="inputPortLabel">1</text>
    </g>
  </g>
  <line x1="197" x2="295" y1="377" y2="377" class="net_56"/>
  <line x1="295" x2="295" y1="377" y2="427.5" class="net_56"/>
  <line x1="295" x2="323" y1="427.5" y2="427.5" class="net_56"/>
  <line x1="200" x2="323" y1="442.5" y2="442.5" class="net_90"/>
  <line x1="350" x2="401.3333333333333" y1="324" y2="324" class="net_128"/>
  <line x1="350" x2="380" y1="324" y2="324" class="net_128"/>
  <line x1="380" x2="380" y1="324" y2="395" class="net_128"/>
  <circle cx="380" cy="324" r="2" style="fill:#000" class="net_128"/>
  <circle cx="380" cy="395" r="2" style="fill:#000" class="net_128"/>
  <line x1="380" x2="401.3333333333333" y1="395" y2="395" class="net_128"/>
  <line x1="350" x2="380" y1="324" y2="324" class="net_128"/>
  <line x1="380" x2="380" y1="324" y2="415" class="net_128"/>
  <line x1="380" x2="401.3333333333333" y1="415" y2="415" class="net_128"/>
  <line x1="350" x2="380" y1="324" y2="324" class="net_128"/>
  <line x1="380" x2="380" y1="324" y2="374" class="net_128"/>
  <circle cx="380" cy="374" r="2" style="fill:#000" class="net_128"/>
  <line x1="380" x2="496.3333333333333" y1="374" y2="374" class="net_128"/>
  <line x1="350" x2="380" y1="324" y2="324" class="net_128"/>
  <line x1="380" x2="380" y1="324" y2="117" class="net_128"/>
  <line x1="380" x2="571" y1="117" y2="117" class="net_128"/>
  <line x1="571" x2="571" y1="117" y2="225" class="net_128"/>
  <circle cx="571" cy="117" r="2" style="fill:#000" class="net_128"/>
  <line x1="571" x2="636" y1="225" y2="225" class="net_128"/>
  <line x1="350" x2="380" y1="324" y2="324" class="net_128"/>
  <line x1="380" x2="380" y1="324" y2="117" class="net_128"/>
  <line x1="380" x2="636" y1="117" y2="117" class="net_128"/>
  <line x1="350" x2="380" y1="324" y2="324" class="net_128"/>
  <line x1="380" x2="380" y1="324" y2="117" class="net_128"/>
  <line x1="380" x2="464" y1="117" y2="117" class="net_128"/>
  <line x1="464" x2="464" y1="117" y2="333" class="net_128"/>
  <circle cx="464" cy="117" r="2" style="fill:#000" class="net_128"/>
  <line x1="464" x2="632" y1="333" y2="333" class="net_128"/>
  <line x1="350" x2="360" y1="505" y2="505" class="net_129"/>
  <line x1="360" x2="360" y1="505" y2="344" class="net_129"/>
  <circle cx="360" cy="505" r="2" style="fill:#000" class="net_129"/>
  <line x1="360" x2="401.3333333333333" y1="344" y2="344" class="net_129"/>
  <line x1="350" x2="496.3333333333333" y1="505" y2="505" class="net_129"/>
  <line x1="350" x2="370" y1="435" y2="435" class="net_91"/>
  <line x1="370" x2="370" y1="435" y2="364" class="net_91"/>
  <line x1="370" x2="411.3333333333333" y1="364" y2="364" class="net_91"/>
  <circle cx="370" cy="435" r="2" style="fill:#000" class="net_91"/>
  <line x1="411.3333333333333" x2="411.3333333333333" y1="364" y2="349" class="net_91"/>
  <line x1="350" x2="411.3333333333333" y1="435" y2="435" class="net_91"/>
  <line x1="411.3333333333333" x2="411.3333333333333" y1="435" y2="420" class="net_91"/>
  <line x1="421.3333333333333" x2="454" y1="334" y2="334" class="net_92"/>
  <line x1="454" x2="454" y1="334" y2="354" class="net_92"/>
  <line x1="454" x2="496.3333333333333" y1="354" y2="354" class="net_92"/>
  <line x1="418" x2="506.3333333333333" y1="465" y2="465" class="net_57"/>
  <line x1="506.3333333333333" x2="506.3333333333333" y1="465" y2="379" class="net_57"/>
  <line x1="418" x2="454" y1="465" y2="465" class="net_57"/>
  <line x1="454" x2="454" y1="465" y2="525" class="net_57"/>
  <line x1="454" x2="506.3333333333333" y1="525" y2="525" class="net_57"/>
  <circle cx="454" cy="465" r="2" style="fill:#000" class="net_57"/>
  <line x1="506.3333333333333" x2="506.3333333333333" y1="525" y2="510" class="net_57"/>
  <line x1="421.3333333333333" x2="464" y1="405" y2="405" class="net_93"/>
  <line x1="464" x2="464" y1="405" y2="485" class="net_93"/>
  <line x1="464" x2="496.3333333333333" y1="485" y2="485" class="net_93"/>
  <line x1="507" x2="581" y1="97" y2="97" class="net_2,3,4,5,6,7,8,9,10,11,12,13,14,15,16,17"/>
  <line x1="581" x2="581" y1="97" y2="185" class="net_2,3,4,5,6,7,8,9,10,11,12,13,14,15,16,17"/>
  <circle cx="581" cy="97" r="2" style="fill:#000" class="net_2,3,4,5,6,7,8,9,10,11,12,13,14,15,16,17"/>
  <line x1="581" x2="636" y1="185" y2="185" class="net_2,3,4,5,6,7,8,9,10,11,12,13,14,15,16,17"/>
  <line x1="507" x2="581" y1="97" y2="97" class="net_2,3,4,5,6,7,8,9,10,11,12,13,14,15,16,17"/>
  <line x1="581" x2="581" y1="97" y2="77" class="net_2,3,4,5,6,7,8,9,10,11,12,13,14,15,16,17"/>
  <line x1="581" x2="636" y1="77" y2="77" class="net_2,3,4,5,6,7,8,9,10,11,12,13,14,15,16,17"/>
  <line x1="507" x2="636" y1="205" y2="205" class="net_18,19,20,21,22,23,24,25,26,27,28,29,30,31,32,33"/>
  <line x1="507" x2="561" y1="205" y2="205" class="net_18,19,20,21,22,23,24,25,26,27,28,29,30,31,32,33"/>
  <line x1="561" x2="561" y1="205" y2="313" class="net_18,19,20,21,22,23,24,25,26,27,28,29,30,31,32,33"/>
  <circle cx="561" cy="205" r="2" style="fill:#000" class="net_18,19,20,21,22,23,24,25,26,27,28,29,30,31,32,33"/>
  <line x1="561" x2="632" y1="313" y2="313" class="net_18,19,20,21,22,23,24,25,26,27,28,29,30,31,32,33"/>
  <line x1="509" x2="591" y1="32" y2="32" class="net_135,136,137,138,139,140,141,142,143,144,145,146,147,148,149,150"/>
  <line x1="591" x2="591" y1="32" y2="97" class="net_135,136,137,138,139,140,141,142,143,144,145,146,147,148,149,150"/>
  <line x1="591" x2="636" y1="97" y2="97" class="net_135,136,137,138,139,140,141,142,143,144,145,146,147,148,149,150"/>
  <line x1="507" x2="632" y1="293" y2="293" class="net_34,35,36,37,38,39,40,41,42,43,44,45,46,47,48,49"/>
  <line x1="40" x2="110" y1="217.5" y2="217.5" class="net_51"/>
  <line x1="110" x2="110" y1="217.5" y2="442.5" class="net_51"/>
  <line x1="110" x2="169" y1="442.5" y2="442.5" class="net_51"/>
  <line x1="40" x2="100" y1="282.5" y2="282.5" class="net_52"/>
  <line x1="100" x2="100" y1="282.5" y2="462.5" class="net_52"/>
  <line x1="100" x2="169" y1="462.5" y2="462.5" class="net_52"/>
  <line x1="40" x2="90" y1="347.5" y2="347.5" class="net_50"/>
  <line x1="90" x2="90" y1="347.5" y2="482.5" class="net_50"/>
  <line x1="90" x2="169" y1="482.5" y2="482.5" class="net_50"/>
  <line x1="40" x2="80" y1="412.5" y2="412.5" class="net_54"/>
  <line x1="80" x2="80" y1="412.5" y2="502.5" class="net_54"/>
  <line x1="80" x2="169" y1="502.5" y2="502.5" class="net_54"/>
  <line x1="40" x2="70" y1="477.5" y2="477.5" class="net_53"/>
  <line x1="70" x2="70" y1="477.5" y2="522.5" class="net_53"/>
  <line x1="70" x2="169" y1="522.5" y2="522.5" class="net_53"/>
  <line x1="40" x2="169" y1="542.5" y2="542.5" class="net_55"/>
  <line x1="667" x2="744" y1="97" y2="97" class="net_74,75,76,77,78,79,80,81,82,83,84,85,86,87,88,89"/>
  <line x1="744" x2="744" y1="97" y2="425" class="net_74,75,76,77,78,79,80,81,82,83,84,85,86,87,88,89"/>
  <circle cx="744" cy="97" r="2" style="fill:#000" class="net_74,75,76,77,78,79,80,81,82,83,84,85,86,87,88,89"/>
  <line x1="744" x2="797" y1="425" y2="425" class="net_74,75,76,77,78,79,80,81,82,83,84,85,86,87,88,89"/>
  <line x1="667" x2="900" y1="97" y2="97" class="net_74,75,76,77,78,79,80,81,82,83,84,85,86,87,88,89"/>
  <line x1="667" x2="724" y1="205" y2="205" class="net_96,97,98,99,100,101,102,103,104,105,106,107,108,109,110,111"/>
  <line x1="724" x2="724" y1="205" y2="445" class="net_96,97,98,99,100,101,102,103,104,105,106,107,108,109,110,111"/>
  <line x1="724" x2="797" y1="445" y2="445" class="net_96,97,98,99,100,101,102,103,104,105,106,107,108,109,110,111"/>
  <line x1="663" x2="714" y1="313" y2="313" class="net_112,113,114,115,116,117,118,119,120,121,122,123,124,125,126,127"/>
  <line x1="714" x2="714" y1="313" y2="465" class="net_112,113,114,115,116,117,118,119,120,121,122,123,124,125,126,127"/>
  <line x1="714" x2="797" y1="465" y2="465" class="net_112,113,114,115,116,117,118,119,120,121,122,123,124,125,126,127"/>
  <line x1="650.3333333333334" x2="797" y1="485" y2="485" class="net_94,95"/>
  <line x1="828" x2="900" y1="425" y2="425" class="net_58,59,60,61,62,63,64,65,66,67,68,69,70,71,72,73"/>
  <line x1="516.3333333333333" x2="561" y1="364" y2="364" class="net_94"/>
  <line x1="561" x2="561" y1="364" y2="475" class="net_94"/>
  <line x1="561" x2="644.3333333333334" y1="475" y2="475" class="net_94"/>
  <line x1="516.3333333333333" x2="644.3333333333334" y1="495" y2="495" class="net_95"/>
  <line x1="667" x2="734" y1="185" y2="185" class="net_"/>
  <circle cx="734" cy="185" r="2" style="fill:#000" class="net_"/>
  <line x1="734" x2="734" y1="185" y2="293" class="net_"/>
  <line x1="667" x2="734" y1="77" y2="77" class="net_"/>
  <line x1="734" x2="734" y1="77" y2="293" class="net_"/>
  <line x1="663" x2="734" y1="293" y2="293" class="net_"/>
</svg>
