<svg xmlns="http://www.w3.org/2000/svg" xmlns:xlink="http://www.w3.org/1999/xlink" xmlns:s="https://github.com/nturley/netlistsvg" width="1206" height="934">
  <style>svg {
    stroke:#000;
    fill:none;
  }
  text {
    fill:#000;
    stroke:none;
    font-size:10px;
    font-weight: bold;
    font-family: "Courier New", monospace;
  }
  .nodelabel {
    text-anchor: middle;
  }
  .inputPortLabel {
    text-anchor: end;
  }
  .splitjoinBody {
    fill:#000;
  }</style>
  <g s:type="reduce_xor" transform="translate(185,116.5)" s:width="33" s:height="25" id="cell_$auto$simplemap.cc:106:simplemap_bitop$167">
    <s:alias val="$xor"/>
    <s:alias val="$reduce_xor"/>
    <s:alias val="$_XOR_"/>
    <path d="M3,0 A30 25 0 0 1 3,25 A30 25 0 0 0 33,12.5 A30 25 0 0 0 3,0" class="cell_$auto$simplemap.cc:106:simplemap_bitop$167"/>
    <path d="M0,0 A30 25 0 0 1 0,25" class="cell_$auto$simplemap.cc:106:simplemap_bitop$167"/>
    <g s:x="3" s:y="5" s:pid="A"/>
    <g s:x="3" s:y="20" s:pid="B"/>
    <g s:x="33" s:y="12.5" s:pid="Y"/>
  </g>
  <g s:type="reduce_xor" transform="translate(185,241.5)" s:width="33" s:height="25" id="cell_$auto$simplemap.cc:106:simplemap_bitop$168">
    <s:alias val="$xor"/>
    <s:alias val="$reduce_xor"/>
    <s:alias val="$_XOR_"/>
    <path d="M3,0 A30 25 0 0 1 3,25 A30 25 0 0 0 33,12.5 A30 25 0 0 0 3,0" class="cell_$auto$simplemap.cc:106:simplemap_bitop$168"/>
    <path d="M0,0 A30 25 0 0 1 0,25" class="cell_$auto$simplemap.cc:106:simplemap_bitop$168"/>
    <g s:x="3" s:y="5" s:pid="A"/>
    <g s:x="3" s:y="20" s:pid="B"/>
    <g s:x="33" s:y="12.5" s:pid="Y"/>
  </g>
  <g s:type="reduce_xor" transform="translate(185,301.5)" s:width="33" s:height="25" id="cell_$auto$simplemap.cc:106:simplemap_bitop$169">
    <s:alias val="$xor"/>
    <s:alias val="$reduce_xor"/>
    <s:alias val="$_XOR_"/>
    <path d="M3,0 A30 25 0 0 1 3,25 A30 25 0 0 0 33,12.5 A30 25 0 0 0 3,0" class="cell_$auto$simplemap.cc:106:simplemap_bitop$169"/>
    <path d="M0,0 A30 25 0 0 1 0,25" class="cell_$auto$simplemap.cc:106:simplemap_bitop$169"/>
    <g s:x="3" s:y="5" s:pid="A"/>
    <g s:x="3" s:y="20" s:pid="B"/>
    <g s:x="33" s:y="12.5" s:pid="Y"/>
  </g>
  <g s:type="reduce_xor" transform="translate(185,361.5)" s:width="33" s:height="25" id="cell_$auto$simplemap.cc:106:simplemap_bitop$170">
    <s:alias val="$xor"/>
    <s:alias val="$reduce_xor"/>
    <s:alias val="$_XOR_"/>
    <path d="M3,0 A30 25 0 0 1 3,25 A30 25 0 0 0 33,12.5 A30 25 0 0 0 3,0" class="cell_$auto$simplemap.cc:106:simplemap_bitop$170"/>
    <path d="M0,0 A30 25 0 0 1 0,25" class="cell_$auto$simplemap.cc:106:simplemap_bitop$170"/>
    <g s:x="3" s:y="5" s:pid="A"/>
    <g s:x="3" s:y="20" s:pid="B"/>
    <g s:x="33" s:y="12.5" s:pid="Y"/>
  </g>
  <g s:type="and" transform="translate(886,12)" s:width="30" s:height="25" id="cell_$auto$simplemap.cc:106:simplemap_bitop$200">
    <s:alias val="$and"/>
    <s:alias val="$logic_and"/>
    <s:alias val="$_AND_"/>
    <path d="M0,0 L0,25 L15,25 A15 12.5 0 0 0 15,0 Z" class="cell_$auto$simplemap.cc:106:simplemap_bitop$200"/>
    <g s:x="0" s:y="5" s:pid="A"/>
    <g s:x="0" s:y="20" s:pid="B"/>
    <g s:x="30" s:y="12.5" s:pid="Y"/>
  </g>
  <g s:type="and" transform="translate(951,62)" s:width="30" s:height="25" id="cell_$auto$simplemap.cc:106:simplemap_bitop$202">
    <s:alias val="$and"/>
    <s:alias val="$logic_and"/>
    <s:alias val="$_AND_"/>
    <path d="M0,0 L0,25 L15,25 A15 12.5 0 0 0 15,0 Z" class="cell_$auto$simplemap.cc:106:simplemap_bitop$202"/>
    <g s:x="0" s:y="5" s:pid="A"/>
    <g s:x="0" s:y="20" s:pid="B"/>
    <g s:x="30" s:y="12.5" s:pid="Y"/>
  </g>
  <g s:type="and" transform="translate(886,138)" s:width="30" s:height="25" id="cell_$auto$simplemap.cc:106:simplemap_bitop$205">
    <s:alias val="$and"/>
    <s:alias val="$logic_and"/>
    <s:alias val="$_AND_"/>
    <path d="M0,0 L0,25 L15,25 A15 12.5 0 0 0 15,0 Z" class="cell_$auto$simplemap.cc:106:simplemap_bitop$205"/>
    <g s:x="0" s:y="5" s:pid="A"/>
    <g s:x="0" s:y="20" s:pid="B"/>
    <g s:x="30" s:y="12.5" s:pid="Y"/>
  </g>
  <g s:type="and" transform="translate(951,158)" s:width="30" s:height="25" id="cell_$auto$simplemap.cc:106:simplemap_bitop$206">
    <s:alias val="$and"/>
    <s:alias val="$logic_and"/>
    <s:alias val="$_AND_"/>
    <path d="M0,0 L0,25 L15,25 A15 12.5 0 0 0 15,0 Z" class="cell_$auto$simplemap.cc:106:simplemap_bitop$206"/>
    <g s:x="0" s:y="5" s:pid="A"/>
    <g s:x="0" s:y="20" s:pid="B"/>
    <g s:x="30" s:y="12.5" s:pid="Y"/>
  </g>
  <g s:type="or" transform="translate(1016,150.5)" s:width="30" s:height="25" id="cell_$auto$simplemap.cc:106:simplemap_bitop$207">
    <s:alias val="$or"/>
    <s:alias val="$logic_or"/>
    <s:alias val="$_OR_"/>
    <path d="M0,25 L0,25 L15,25 A15 12.5 0 0 0 15,0 L0,0" class="cell_$auto$simplemap.cc:106:simplemap_bitop$207"/>
    <path d="M0,0 A30 25 0 0 1 0,25" class="cell_$auto$simplemap.cc:106:simplemap_bitop$207"/>
    <g s:x="3" s:y="5" s:pid="A"/>
    <g s:x="3" s:y="20" s:pid="B"/>
    <g s:x="30" s:y="12.5" s:pid="Y"/>
  </g>
  <g s:type="and" transform="translate(886,222)" s:width="30" s:height="25" id="cell_$auto$simplemap.cc:106:simplemap_bitop$209">
    <s:alias val="$and"/>
    <s:alias val="$logic_and"/>
    <s:alias val="$_AND_"/>
    <path d="M0,0 L0,25 L15,25 A15 12.5 0 0 0 15,0 Z" class="cell_$auto$simplemap.cc:106:simplemap_bitop$209"/>
    <g s:x="0" s:y="5" s:pid="A"/>
    <g s:x="0" s:y="20" s:pid="B"/>
    <g s:x="30" s:y="12.5" s:pid="Y"/>
  </g>
  <g s:type="and" transform="translate(951,237)" s:width="30" s:height="25" id="cell_$auto$simplemap.cc:106:simplemap_bitop$210">
    <s:alias val="$and"/>
    <s:alias val="$logic_and"/>
    <s:alias val="$_AND_"/>
    <path d="M0,0 L0,25 L15,25 A15 12.5 0 0 0 15,0 Z" class="cell_$auto$simplemap.cc:106:simplemap_bitop$210"/>
    <g s:x="0" s:y="5" s:pid="A"/>
    <g s:x="0" s:y="20" s:pid="B"/>
    <g s:x="30" s:y="12.5" s:pid="Y"/>
  </g>
  <g s:type="and" transform="translate(886,269)" s:width="30" s:height="25" id="cell_$auto$simplemap.cc:106:simplemap_bitop$212">
    <s:alias val="$and"/>
    <s:alias val="$logic_and"/>
    <s:alias val="$_AND_"/>
    <path d="M0,0 L0,25 L15,25 A15 12.5 0 0 0 15,0 Z" class="cell_$auto$simplemap.cc:106:simplemap_bitop$212"/>
    <g s:x="0" s:y="5" s:pid="A"/>
    <g s:x="0" s:y="20" s:pid="B"/>
    <g s:x="30" s:y="12.5" s:pid="Y"/>
  </g>
  <g s:type="and" transform="translate(951,319)" s:width="30" s:height="25" id="cell_$auto$simplemap.cc:106:simplemap_bitop$214">
    <s:alias val="$and"/>
    <s:alias val="$logic_and"/>
    <s:alias val="$_AND_"/>
    <path d="M0,0 L0,25 L15,25 A15 12.5 0 0 0 15,0 Z" class="cell_$auto$simplemap.cc:106:simplemap_bitop$214"/>
    <g s:x="0" s:y="5" s:pid="A"/>
    <g s:x="0" s:y="20" s:pid="B"/>
    <g s:x="30" s:y="12.5" s:pid="Y"/>
  </g>
  <g s:type="or" transform="translate(1016,311.5)" s:width="30" s:height="25" id="cell_$auto$simplemap.cc:106:simplemap_bitop$215">
    <s:alias val="$or"/>
    <s:alias val="$logic_or"/>
    <s:alias val="$_OR_"/>
    <path d="M0,25 L0,25 L15,25 A15 12.5 0 0 0 15,0 L0,0" class="cell_$auto$simplemap.cc:106:simplemap_bitop$215"/>
    <path d="M0,0 A30 25 0 0 1 0,25" class="cell_$auto$simplemap.cc:106:simplemap_bitop$215"/>
    <g s:x="3" s:y="5" s:pid="A"/>
    <g s:x="3" s:y="20" s:pid="B"/>
    <g s:x="30" s:y="12.5" s:pid="Y"/>
  </g>
  <g s:type="or" transform="translate(253,234)" s:width="30" s:height="25" id="cell_$auto$simplemap.cc:157:simplemap_reduce$174">
    <s:alias val="$or"/>
    <s:alias val="$logic_or"/>
    <s:alias val="$_OR_"/>
    <path d="M0,25 L0,25 L15,25 A15 12.5 0 0 0 15,0 L0,0" class="cell_$auto$simplemap.cc:157:simplemap_reduce$174"/>
    <path d="M0,0 A30 25 0 0 1 0,25" class="cell_$auto$simplemap.cc:157:simplemap_reduce$174"/>
    <g s:x="3" s:y="5" s:pid="A"/>
    <g s:x="3" s:y="20" s:pid="B"/>
    <g s:x="30" s:y="12.5" s:pid="Y"/>
  </g>
  <g s:type="or" transform="translate(253,354)" s:width="30" s:height="25" id="cell_$auto$simplemap.cc:157:simplemap_reduce$175">
    <s:alias val="$or"/>
    <s:alias val="$logic_or"/>
    <s:alias val="$_OR_"/>
    <path d="M0,25 L0,25 L15,25 A15 12.5 0 0 0 15,0 L0,0" class="cell_$auto$simplemap.cc:157:simplemap_reduce$175"/>
    <path d="M0,0 A30 25 0 0 1 0,25" class="cell_$auto$simplemap.cc:157:simplemap_reduce$175"/>
    <g s:x="3" s:y="5" s:pid="A"/>
    <g s:x="3" s:y="20" s:pid="B"/>
    <g s:x="30" s:y="12.5" s:pid="Y"/>
  </g>
  <g s:type="or" transform="translate(318,346.5)" s:width="30" s:height="25" id="cell_$auto$simplemap.cc:157:simplemap_reduce$177">
    <s:alias val="$or"/>
    <s:alias val="$logic_or"/>
    <s:alias val="$_OR_"/>
    <path d="M0,25 L0,25 L15,25 A15 12.5 0 0 0 15,0 L0,0" class="cell_$auto$simplemap.cc:157:simplemap_reduce$177"/>
    <path d="M0,0 A30 25 0 0 1 0,25" class="cell_$auto$simplemap.cc:157:simplemap_reduce$177"/>
    <g s:x="3" s:y="5" s:pid="A"/>
    <g s:x="3" s:y="20" s:pid="B"/>
    <g s:x="30" s:y="12.5" s:pid="Y"/>
  </g>
  <g s:type="or" transform="translate(821,477)" s:width="30" s:height="25" id="cell_$auto$simplemap.cc:198:logic_reduce$181">
    <s:alias val="$or"/>
    <s:alias val="$logic_or"/>
    <s:alias val="$_OR_"/>
    <path d="M0,25 L0,25 L15,25 A15 12.5 0 0 0 15,0 L0,0" class="cell_$auto$simplemap.cc:198:logic_reduce$181"/>
    <path d="M0,0 A30 25 0 0 1 0,25" class="cell_$auto$simplemap.cc:198:logic_reduce$181"/>
    <g s:x="3" s:y="5" s:pid="A"/>
    <g s:x="3" s:y="20" s:pid="B"/>
    <g s:x="30" s:y="12.5" s:pid="Y"/>
  </g>
  <g s:type="or" transform="translate(821,537)" s:width="30" s:height="25" id="cell_$auto$simplemap.cc:198:logic_reduce$182">
    <s:alias val="$or"/>
    <s:alias val="$logic_or"/>
    <s:alias val="$_OR_"/>
    <path d="M0,25 L0,25 L15,25 A15 12.5 0 0 0 15,0 L0,0" class="cell_$auto$simplemap.cc:198:logic_reduce$182"/>
    <path d="M0,0 A30 25 0 0 1 0,25" class="cell_$auto$simplemap.cc:198:logic_reduce$182"/>
    <g s:x="3" s:y="5" s:pid="A"/>
    <g s:x="3" s:y="20" s:pid="B"/>
    <g s:x="30" s:y="12.5" s:pid="Y"/>
  </g>
  <g s:type="or" transform="translate(821,597)" s:width="30" s:height="25" id="cell_$auto$simplemap.cc:198:logic_reduce$183">
    <s:alias val="$or"/>
    <s:alias val="$logic_or"/>
    <s:alias val="$_OR_"/>
    <path d="M0,25 L0,25 L15,25 A15 12.5 0 0 0 15,0 L0,0" class="cell_$auto$simplemap.cc:198:logic_reduce$183"/>
    <path d="M0,0 A30 25 0 0 1 0,25" class="cell_$auto$simplemap.cc:198:logic_reduce$183"/>
    <g s:x="3" s:y="5" s:pid="A"/>
    <g s:x="3" s:y="20" s:pid="B"/>
    <g s:x="30" s:y="12.5" s:pid="Y"/>
  </g>
  <g s:type="or" transform="translate(821,657)" s:width="30" s:height="25" id="cell_$auto$simplemap.cc:198:logic_reduce$184">
    <s:alias val="$or"/>
    <s:alias val="$logic_or"/>
    <s:alias val="$_OR_"/>
    <path d="M0,25 L0,25 L15,25 A15 12.5 0 0 0 15,0 L0,0" class="cell_$auto$simplemap.cc:198:logic_reduce$184"/>
    <path d="M0,0 A30 25 0 0 1 0,25" class="cell_$auto$simplemap.cc:198:logic_reduce$184"/>
    <g s:x="3" s:y="5" s:pid="A"/>
    <g s:x="3" s:y="20" s:pid="B"/>
    <g s:x="30" s:y="12.5" s:pid="Y"/>
  </g>
  <g s:type="or" transform="translate(821,717)" s:width="30" s:height="25" id="cell_$auto$simplemap.cc:198:logic_reduce$185">
    <s:alias val="$or"/>
    <s:alias val="$logic_or"/>
    <s:alias val="$_OR_"/>
    <path d="M0,25 L0,25 L15,25 A15 12.5 0 0 0 15,0 L0,0" class="cell_$auto$simplemap.cc:198:logic_reduce$185"/>
    <path d="M0,0 A30 25 0 0 1 0,25" class="cell_$auto$simplemap.cc:198:logic_reduce$185"/>
    <g s:x="3" s:y="5" s:pid="A"/>
    <g s:x="3" s:y="20" s:pid="B"/>
    <g s:x="30" s:y="12.5" s:pid="Y"/>
  </g>
  <g s:type="or" transform="translate(821,777)" s:width="30" s:height="25" id="cell_$auto$simplemap.cc:198:logic_reduce$186">
    <s:alias val="$or"/>
    <s:alias val="$logic_or"/>
    <s:alias val="$_OR_"/>
    <path d="M0,25 L0,25 L15,25 A15 12.5 0 0 0 15,0 L0,0" class="cell_$auto$simplemap.cc:198:logic_reduce$186"/>
    <path d="M0,0 A30 25 0 0 1 0,25" class="cell_$auto$simplemap.cc:198:logic_reduce$186"/>
    <g s:x="3" s:y="5" s:pid="A"/>
    <g s:x="3" s:y="20" s:pid="B"/>
    <g s:x="30" s:y="12.5" s:pid="Y"/>
  </g>
  <g s:type="or" transform="translate(821,837)" s:width="30" s:height="25" id="cell_$auto$simplemap.cc:198:logic_reduce$187">
    <s:alias val="$or"/>
    <s:alias val="$logic_or"/>
    <s:alias val="$_OR_"/>
    <path d="M0,25 L0,25 L15,25 A15 12.5 0 0 0 15,0 L0,0" class="cell_$auto$simplemap.cc:198:logic_reduce$187"/>
    <path d="M0,0 A30 25 0 0 1 0,25" class="cell_$auto$simplemap.cc:198:logic_reduce$187"/>
    <g s:x="3" s:y="5" s:pid="A"/>
    <g s:x="3" s:y="20" s:pid="B"/>
    <g s:x="30" s:y="12.5" s:pid="Y"/>
  </g>
  <g s:type="or" transform="translate(821,897)" s:width="30" s:height="25" id="cell_$auto$simplemap.cc:198:logic_reduce$188">
    <s:alias val="$or"/>
    <s:alias val="$logic_or"/>
    <s:alias val="$_OR_"/>
    <path d="M0,25 L0,25 L15,25 A15 12.5 0 0 0 15,0 L0,0" class="cell_$auto$simplemap.cc:198:logic_reduce$188"/>
    <path d="M0,0 A30 25 0 0 1 0,25" class="cell_$auto$simplemap.cc:198:logic_reduce$188"/>
    <g s:x="3" s:y="5" s:pid="A"/>
    <g s:x="3" s:y="20" s:pid="B"/>
    <g s:x="30" s:y="12.5" s:pid="Y"/>
  </g>
  <g s:type="or" transform="translate(886,529.5)" s:width="30" s:height="25" id="cell_$auto$simplemap.cc:198:logic_reduce$190">
    <s:alias val="$or"/>
    <s:alias val="$logic_or"/>
    <s:alias val="$_OR_"/>
    <path d="M0,25 L0,25 L15,25 A15 12.5 0 0 0 15,0 L0,0" class="cell_$auto$simplemap.cc:198:logic_reduce$190"/>
    <path d="M0,0 A30 25 0 0 1 0,25" class="cell_$auto$simplemap.cc:198:logic_reduce$190"/>
    <g s:x="3" s:y="5" s:pid="A"/>
    <g s:x="3" s:y="20" s:pid="B"/>
    <g s:x="30" s:y="12.5" s:pid="Y"/>
  </g>
  <g s:type="or" transform="translate(886,649.5)" s:width="30" s:height="25" id="cell_$auto$simplemap.cc:198:logic_reduce$191">
    <s:alias val="$or"/>
    <s:alias val="$logic_or"/>
    <s:alias val="$_OR_"/>
    <path d="M0,25 L0,25 L15,25 A15 12.5 0 0 0 15,0 L0,0" class="cell_$auto$simplemap.cc:198:logic_reduce$191"/>
    <path d="M0,0 A30 25 0 0 1 0,25" class="cell_$auto$simplemap.cc:198:logic_reduce$191"/>
    <g s:x="3" s:y="5" s:pid="A"/>
    <g s:x="3" s:y="20" s:pid="B"/>
    <g s:x="30" s:y="12.5" s:pid="Y"/>
  </g>
  <g s:type="or" transform="translate(886,769.5)" s:width="30" s:height="25" id="cell_$auto$simplemap.cc:198:logic_reduce$192">
    <s:alias val="$or"/>
    <s:alias val="$logic_or"/>
    <s:alias val="$_OR_"/>
    <path d="M0,25 L0,25 L15,25 A15 12.5 0 0 0 15,0 L0,0" class="cell_$auto$simplemap.cc:198:logic_reduce$192"/>
    <path d="M0,0 A30 25 0 0 1 0,25" class="cell_$auto$simplemap.cc:198:logic_reduce$192"/>
    <g s:x="3" s:y="5" s:pid="A"/>
    <g s:x="3" s:y="20" s:pid="B"/>
    <g s:x="30" s:y="12.5" s:pid="Y"/>
  </g>
  <g s:type="or" transform="translate(886,889.5)" s:width="30" s:height="25" id="cell_$auto$simplemap.cc:198:logic_reduce$193">
    <s:alias val="$or"/>
    <s:alias val="$logic_or"/>
    <s:alias val="$_OR_"/>
    <path d="M0,25 L0,25 L15,25 A15 12.5 0 0 0 15,0 L0,0" class="cell_$auto$simplemap.cc:198:logic_reduce$193"/>
    <path d="M0,0 A30 25 0 0 1 0,25" class="cell_$auto$simplemap.cc:198:logic_reduce$193"/>
    <g s:x="3" s:y="5" s:pid="A"/>
    <g s:x="3" s:y="20" s:pid="B"/>
    <g s:x="30" s:y="12.5" s:pid="Y"/>
  </g>
  <g s:type="or" transform="translate(951,642)" s:width="30" s:height="25" id="cell_$auto$simplemap.cc:198:logic_reduce$195">
    <s:alias val="$or"/>
    <s:alias val="$logic_or"/>
    <s:alias val="$_OR_"/>
    <path d="M0,25 L0,25 L15,25 A15 12.5 0 0 0 15,0 L0,0" class="cell_$auto$simplemap.cc:198:logic_reduce$195"/>
    <path d="M0,0 A30 25 0 0 1 0,25" class="cell_$auto$simplemap.cc:198:logic_reduce$195"/>
    <g s:x="3" s:y="5" s:pid="A"/>
    <g s:x="3" s:y="20" s:pid="B"/>
    <g s:x="30" s:y="12.5" s:pid="Y"/>
  </g>
  <g s:type="or" transform="translate(951,882)" s:width="30" s:height="25" id="cell_$auto$simplemap.cc:198:logic_reduce$196">
    <s:alias val="$or"/>
    <s:alias val="$logic_or"/>
    <s:alias val="$_OR_"/>
    <path d="M0,25 L0,25 L15,25 A15 12.5 0 0 0 15,0 L0,0" class="cell_$auto$simplemap.cc:198:logic_reduce$196"/>
    <path d="M0,0 A30 25 0 0 1 0,25" class="cell_$auto$simplemap.cc:198:logic_reduce$196"/>
    <g s:x="3" s:y="5" s:pid="A"/>
    <g s:x="3" s:y="20" s:pid="B"/>
    <g s:x="30" s:y="12.5" s:pid="Y"/>
  </g>
  <g s:type="or" transform="translate(1016,874.5)" s:width="30" s:height="25" id="cell_$auto$simplemap.cc:198:logic_reduce$198">
    <s:alias val="$or"/>
    <s:alias val="$logic_or"/>
    <s:alias val="$_OR_"/>
    <path d="M0,25 L0,25 L15,25 A15 12.5 0 0 0 15,0 L0,0" class="cell_$auto$simplemap.cc:198:logic_reduce$198"/>
    <path d="M0,0 A30 25 0 0 1 0,25" class="cell_$auto$simplemap.cc:198:logic_reduce$198"/>
    <g s:x="3" s:y="5" s:pid="A"/>
    <g s:x="3" s:y="20" s:pid="B"/>
    <g s:x="30" s:y="12.5" s:pid="Y"/>
  </g>
  <g s:type="not" transform="translate(383,349)" s:width="30" s:height="20" id="cell_$auto$simplemap.cc:227:simplemap_lognot$179">
    <s:alias val="$_NOT_"/>
    <s:alias val="$not"/>
    <s:alias val="$logic_not"/>
    <path d="M0,0 L0,20 L20,10 Z" class="cell_$auto$simplemap.cc:227:simplemap_lognot$179"/>
    <circle cx="23" cy="10" r="3" class="cell_$auto$simplemap.cc:227:simplemap_lognot$179"/>
    <g s:x="0" s:y="10" s:pid="A"/>
    <g s:x="25" s:y="10" s:pid="Y"/>
  </g>
  <g s:type="not" transform="translate(1081,877)" s:width="30" s:height="20" id="cell_$auto$simplemap.cc:227:simplemap_lognot$199">
    <s:alias val="$_NOT_"/>
    <s:alias val="$not"/>
    <s:alias val="$logic_not"/>
    <path d="M0,0 L0,20 L20,10 Z" class="cell_$auto$simplemap.cc:227:simplemap_lognot$199"/>
    <circle cx="23" cy="10" r="3" class="cell_$auto$simplemap.cc:227:simplemap_lognot$199"/>
    <g s:x="0" s:y="10" s:pid="A"/>
    <g s:x="25" s:y="10" s:pid="Y"/>
  </g>
  <g s:type="mux" transform="translate(1084.3333333333333,294)" s:width="20" s:height="40" id="cell_$auto$simplemap.cc:298:simplemap_mux$216">
    <s:alias val="$pmux"/>
    <s:alias val="$mux"/>
    <s:alias val="$_MUX_"/>
    <path d="M0,0 L20,10 L20,30 L0,40 Z" class="cell_$auto$simplemap.cc:298:simplemap_mux$216"/>
    <g s:x="0" s:y="10" s:pid="A"/>
    <g s:x="0" s:y="30" s:pid="B"/>
    <g s:x="10" s:y="35" s:pid="S"/>
    <g s:x="20" s:y="20" s:pid="Y"/>
  </g>
  <g s:type="not" transform="translate(886,72)" s:width="30" s:height="20" id="cell_$auto$simplemap.cc:46:simplemap_not$201">
    <s:alias val="$_NOT_"/>
    <s:alias val="$not"/>
    <s:alias val="$logic_not"/>
    <path d="M0,0 L0,20 L20,10 Z" class="cell_$auto$simplemap.cc:46:simplemap_not$201"/>
    <circle cx="23" cy="10" r="3" class="cell_$auto$simplemap.cc:46:simplemap_not$201"/>
    <g s:x="0" s:y="10" s:pid="A"/>
    <g s:x="25" s:y="10" s:pid="Y"/>
  </g>
  <g s:type="not" transform="translate(821,93)" s:width="30" s:height="20" id="cell_$auto$simplemap.cc:46:simplemap_not$203">
    <s:alias val="$_NOT_"/>
    <s:alias val="$not"/>
    <s:alias val="$logic_not"/>
    <path d="M0,0 L0,20 L20,10 Z" class="cell_$auto$simplemap.cc:46:simplemap_not$203"/>
    <circle cx="23" cy="10" r="3" class="cell_$auto$simplemap.cc:46:simplemap_not$203"/>
    <g s:x="0" s:y="10" s:pid="A"/>
    <g s:x="25" s:y="10" s:pid="Y"/>
  </g>
  <g s:type="not" transform="translate(821,148)" s:width="30" s:height="20" id="cell_$auto$simplemap.cc:46:simplemap_not$204">
    <s:alias val="$_NOT_"/>
    <s:alias val="$not"/>
    <s:alias val="$logic_not"/>
    <path d="M0,0 L0,20 L20,10 Z" class="cell_$auto$simplemap.cc:46:simplemap_not$204"/>
    <circle cx="23" cy="10" r="3" class="cell_$auto$simplemap.cc:46:simplemap_not$204"/>
    <g s:x="0" s:y="10" s:pid="A"/>
    <g s:x="25" s:y="10" s:pid="Y"/>
  </g>
  <g s:type="not" transform="translate(821,189)" s:width="30" s:height="20" id="cell_$auto$simplemap.cc:46:simplemap_not$208">
    <s:alias val="$_NOT_"/>
    <s:alias val="$not"/>
    <s:alias val="$logic_not"/>
    <path d="M0,0 L0,20 L20,10 Z" class="cell_$auto$simplemap.cc:46:simplemap_not$208"/>
    <circle cx="23" cy="10" r="3" class="cell_$auto$simplemap.cc:46:simplemap_not$208"/>
    <g s:x="0" s:y="10" s:pid="A"/>
    <g s:x="25" s:y="10" s:pid="Y"/>
  </g>
  <g s:type="not" transform="translate(821,279)" s:width="30" s:height="20" id="cell_$auto$simplemap.cc:46:simplemap_not$211">
    <s:alias val="$_NOT_"/>
    <s:alias val="$not"/>
    <s:alias val="$logic_not"/>
    <path d="M0,0 L0,20 L20,10 Z" class="cell_$auto$simplemap.cc:46:simplemap_not$211"/>
    <circle cx="23" cy="10" r="3" class="cell_$auto$simplemap.cc:46:simplemap_not$211"/>
    <g s:x="0" s:y="10" s:pid="A"/>
    <g s:x="25" s:y="10" s:pid="Y"/>
  </g>
  <g s:type="not" transform="translate(886,329)" s:width="30" s:height="20" id="cell_$auto$simplemap.cc:46:simplemap_not$213">
    <s:alias val="$_NOT_"/>
    <s:alias val="$not"/>
    <s:alias val="$logic_not"/>
    <path d="M0,0 L0,20 L20,10 Z" class="cell_$auto$simplemap.cc:46:simplemap_not$213"/>
    <circle cx="23" cy="10" r="3" class="cell_$auto$simplemap.cc:46:simplemap_not$213"/>
    <g s:x="0" s:y="10" s:pid="A"/>
    <g s:x="25" s:y="10" s:pid="Y"/>
  </g>
  <g s:type="generic" transform="translate(484,393.5)" s:width="30" s:height="40" id="cell_u_arith">
    <text x="15" y="-4" class="nodelabel cell_u_arith" s:attribute="ref">alu_adder_nbit</text>
    <rect width="30" height="60" s:generic="body" class="cell_u_arith"/>
    <g transform="translate(0,10)" s:x="0" s:y="10" s:pid="in0" id="port_u_arith~i_a">
      <text x="-3" y="-4" class="inputPortLabel cell_u_arith">i_a</text>
    </g>
    <g transform="translate(0,30)" s:x="0" s:y="10" s:pid="in0" id="port_u_arith~i_b">
      <text x="-3" y="-4" class="inputPortLabel cell_u_arith">i_b</text>
    </g>
    <g transform="translate(0,50)" s:x="0" s:y="10" s:pid="in0" id="port_u_arith~i_sub">
      <text x="-3" y="-4" class="inputPortLabel cell_u_arith">i_sub</text>
    </g>
    <g transform="translate(30,10)" s:x="30" s:y="10" s:pid="out0" id="port_u_arith~o_cout">
      <text x="5" y="-4" style="fill:#000; stroke:none" class="cell_u_arith">o_cout</text>
    </g>
    <g transform="translate(30,30)" s:x="30" s:y="10" s:pid="out0" id="port_u_arith~o_sum">
      <text x="5" y="-4" style="fill:#000; stroke:none" class="cell_u_arith">o_sum</text>
    </g>
  </g>
  <g s:type="generic" transform="translate(485.75,501.5)" s:width="30" s:height="40" id="cell_u_logic">
    <text x="15" y="-4" class="nodelabel cell_u_logic" s:attribute="ref">alu_logic_nbit</text>
    <rect width="30" height="60" s:generic="body" class="cell_u_logic"/>
    <g transform="translate(0,10)" s:x="0" s:y="10" s:pid="in0" id="port_u_logic~i_a">
      <text x="-3" y="-4" class="inputPortLabel cell_u_logic">i_a</text>
    </g>
    <g transform="translate(0,30)" s:x="0" s:y="10" s:pid="in0" id="port_u_logic~i_b">
      <text x="-3" y="-4" class="inputPortLabel cell_u_logic">i_b</text>
    </g>
    <g transform="translate(0,50)" s:x="0" s:y="10" s:pid="in0" id="port_u_logic~i_sel">
      <text x="-3" y="-4" class="inputPortLabel cell_u_logic">i_sel</text>
    </g>
    <g transform="translate(30,10)" s:x="30" s:y="10" s:pid="out0" id="port_u_logic~o_res">
      <text x="5" y="-4" style="fill:#000; stroke:none" class="cell_u_logic">o_res</text>
    </g>
  </g>
  <g s:type="generic" transform="translate(630,484)" s:width="30" s:height="40" id="cell_u_mux">
    <text x="15" y="-4" class="nodelabel cell_u_mux" s:attribute="ref">alu_mux_4to1_nbit</text>
    <rect width="30" height="100" s:generic="body" class="cell_u_mux"/>
    <g transform="translate(0,10)" s:x="0" s:y="10" s:pid="in0" id="port_u_mux~i_data0">
      <text x="-3" y="-4" class="inputPortLabel cell_u_mux">i_data0</text>
    </g>
    <g transform="translate(0,30)" s:x="0" s:y="10" s:pid="in0" id="port_u_mux~i_data1">
      <text x="-3" y="-4" class="inputPortLabel cell_u_mux">i_data1</text>
    </g>
    <g transform="translate(0,50)" s:x="0" s:y="10" s:pid="in0" id="port_u_mux~i_data2">
      <text x="-3" y="-4" class="inputPortLabel cell_u_mux">i_data2</text>
    </g>
    <g transform="translate(0,70)" s:x="0" s:y="10" s:pid="in0" id="port_u_mux~i_data3">
      <text x="-3" y="-4" class="inputPortLabel cell_u_mux">i_data3</text>
    </g>
    <g transform="translate(0,90)" s:x="0" s:y="10" s:pid="in0" id="port_u_mux~i_sel">
      <text x="-3" y="-4" class="inputPortLabel cell_u_mux">i_sel</text>
    </g>
    <g transform="translate(30,10)" s:x="30" s:y="10" s:pid="out0" id="port_u_mux~o_data">
      <text x="5" y="-4" style="fill:#000; stroke:none" class="cell_u_mux">o_data</text>
    </g>
  </g>
  <g s:type="inputExt" transform="translate(383,294)" s:width="30" s:height="20" id="cell_i_a">
    <text x="15" y="-4" class="nodelabel cell_i_a" s:attribute="ref">i_a</text>
    <s:alias val="$_inputExt_"/>
    <path d="M0,0 L0,20 L15,20 L30,10 L15,0 Z" class="cell_i_a"/>
    <g s:x="28" s:y="10" s:pid="Y"/>
  </g>
  <g s:type="inputExt" transform="translate(383,414)" s:width="30" s:height="20" id="cell_i_b">
    <text x="15" y="-4" class="nodelabel cell_i_b" s:attribute="ref">i_b</text>
    <s:alias val="$_inputExt_"/>
    <path d="M0,0 L0,20 L15,20 L30,10 L15,0 Z" class="cell_i_b"/>
    <g s:x="28" s:y="10" s:pid="Y"/>
  </g>
  <g s:type="inputExt" transform="translate(12,192)" s:width="30" s:height="20" id="cell_i_alu_op">
    <text x="15" y="-4" class="nodelabel cell_i_alu_op" s:attribute="ref">i_alu_op</text>
    <s:alias val="$_inputExt_"/>
    <path d="M0,0 L0,20 L15,20 L30,10 L15,0 Z" class="cell_i_alu_op"/>
    <g s:x="28" s:y="10" s:pid="Y"/>
  </g>
  <g s:type="outputExt" transform="translate(1146,456)" s:width="30" s:height="20" id="cell_o_result">
    <text x="15" y="-4" class="nodelabel cell_o_result" s:attribute="ref">o_result</text>
    <s:alias val="$_outputExt_"/>
    <path d="M30,0 L30,20 L15,20 L0,10 L15,0 Z" class="cell_o_result"/>
    <g s:x="0" s:y="10" s:pid="A"/>
  </g>
  <g s:type="outputExt" transform="translate(1146,877)" s:width="30" s:height="20" id="cell_o_flag_z">
    <text x="15" y="-4" class="nodelabel cell_o_flag_z" s:attribute="ref">o_flag_z</text>
    <s:alias val="$_outputExt_"/>
    <path d="M30,0 L30,20 L15,20 L0,10 L15,0 Z" class="cell_o_flag_z"/>
    <g s:x="0" s:y="10" s:pid="A"/>
  </g>
  <g s:type="outputExt" transform="translate(1146,369)" s:width="30" s:height="20" id="cell_o_flag_n">
    <text x="15" y="-4" class="nodelabel cell_o_flag_n" s:attribute="ref">o_flag_n</text>
    <s:alias val="$_outputExt_"/>
    <path d="M30,0 L30,20 L15,20 L0,10 L15,0 Z" class="cell_o_flag_n"/>
    <g s:x="0" s:y="10" s:pid="A"/>
  </g>
  <g s:type="outputExt" transform="translate(1146,304)" s:width="30" s:height="20" id="cell_o_flag_v">
    <text x="15" y="-4" class="nodelabel cell_o_flag_v" s:attribute="ref">o_flag_v</text>
    <s:alias val="$_outputExt_"/>
    <path d="M30,0 L30,20 L15,20 L0,10 L15,0 Z" class="cell_o_flag_v"/>
    <g s:x="0" s:y="10" s:pid="A"/>
  </g>
  <g s:type="constant" transform="translate(95,126.5)" s:width="30" s:height="20" id="cell_1">
    <text x="15" y="-4" class="nodelabel cell_1" s:attribute="ref">1</text>
    <s:alias val="$_constant_"/>
    <rect width="30" height="20" class="cell_1"/>
    <g s:x="30" s:y="10" s:pid="Y"/>
  </g>
  <g s:type="constant" transform="translate(95,311.5)" s:width="30" s:height="20" id="cell_0">
    <text x="15" y="-4" class="nodelabel cell_0" s:attribute="ref">0</text>
    <s:alias val="$_constant_"/>
    <rect width="30" height="20" class="cell_0"/>
    <g s:x="30" s:y="10" s:pid="Y"/>
  </g>
  <g s:type="split" transform="translate(110.8,181.5)" s:width="5" s:height="40" id="cell_$split$,34,35,36,37,">
    <rect width="5" height="100" class="splitjoinBody" s:generic="body"/>
    <s:alias val="$_split_"/>
    <g s:x="0" s:y="20" s:pid="in"/>
    <g transform="translate(4,10)" s:x="4" s:y="10" s:pid="out0">
      <text x="5" y="-4">0</text>
    </g>
    <g transform="translate(4,30)" s:x="4" s:y="10" s:pid="out0">
      <text x="5" y="-4">1</text>
    </g>
    <g transform="translate(4,50)" s:x="4" s:y="10" s:pid="out0">
      <text x="5" y="-4">2</text>
    </g>
    <g transform="translate(4,70)" s:x="4" s:y="10" s:pid="out0">
      <text x="5" y="-4">3</text>
    </g>
    <g transform="translate(4,90)" s:x="4" s:y="10" s:pid="out0">
      <text x="5" y="-4">0:1</text>
    </g>
  </g>
  <g s:type="split" transform="translate(733,188.5)" s:width="5" s:height="40" id="cell_$split$,2,3,4,5,6,7,8,9,10,11,12,13,14,15,16,17,">
    <rect width="5" height="20" class="splitjoinBody" s:generic="body"/>
    <s:alias val="$_split_"/>
    <g s:x="0" s:y="20" s:pid="in"/>
    <g transform="translate(4,10)" s:x="4" s:y="10" s:pid="out0">
      <text x="5" y="-4">15</text>
    </g>
  </g>
  <g s:type="split" transform="translate(733,231.5)" s:width="5" s:height="40" id="cell_$split$,18,19,20,21,22,23,24,25,26,27,28,29,30,31,32,33,">
    <rect width="5" height="20" class="splitjoinBody" s:generic="body"/>
    <s:alias val="$_split_"/>
    <g s:x="0" s:y="20" s:pid="in"/>
    <g transform="translate(4,10)" s:x="4" s:y="10" s:pid="out0">
      <text x="5" y="-4">15</text>
    </g>
  </g>
  <g s:type="split" transform="translate(733,506.5)" s:width="5" s:height="40" id="cell_$split$,38,39,40,41,42,43,44,45,46,47,48,49,50,51,52,53,">
    <rect width="5" height="320" class="splitjoinBody" s:generic="body"/>
    <s:alias val="$_split_"/>
    <g s:x="0" s:y="20" s:pid="in"/>
    <g transform="translate(4,10)" s:x="4" s:y="10" s:pid="out0">
      <text x="5" y="-4">15</text>
    </g>
    <g transform="translate(4,30)" s:x="4" s:y="10" s:pid="out0">
      <text x="5" y="-4">0</text>
    </g>
    <g transform="translate(4,50)" s:x="4" s:y="10" s:pid="out0">
      <text x="5" y="-4">1</text>
    </g>
    <g transform="translate(4,70)" s:x="4" s:y="10" s:pid="out0">
      <text x="5" y="-4">2</text>
    </g>
    <g transform="translate(4,90)" s:x="4" s:y="10" s:pid="out0">
      <text x="5" y="-4">3</text>
    </g>
    <g transform="translate(4,110)" s:x="4" s:y="10" s:pid="out0">
      <text x="5" y="-4">4</text>
    </g>
    <g transform="translate(4,130)" s:x="4" s:y="10" s:pid="out0">
      <text x="5" y="-4">5</text>
    </g>
    <g transform="translate(4,150)" s:x="4" s:y="10" s:pid="out0">
      <text x="5" y="-4">6</text>
    </g>
    <g transform="translate(4,170)" s:x="4" s:y="10" s:pid="out0">
      <text x="5" y="-4">7</text>
    </g>
    <g transform="translate(4,190)" s:x="4" s:y="10" s:pid="out0">
      <text x="5" y="-4">8</text>
    </g>
    <g transform="translate(4,210)" s:x="4" s:y="10" s:pid="out0">
      <text x="5" y="-4">9</text>
    </g>
    <g transform="translate(4,230)" s:x="4" s:y="10" s:pid="out0">
      <text x="5" y="-4">10</text>
    </g>
    <g transform="translate(4,250)" s:x="4" s:y="10" s:pid="out0">
      <text x="5" y="-4">11</text>
    </g>
    <g transform="translate(4,270)" s:x="4" s:y="10" s:pid="out0">
      <text x="5" y="-4">12</text>
    </g>
    <g transform="translate(4,290)" s:x="4" s:y="10" s:pid="out0">
      <text x="5" y="-4">13</text>
    </g>
    <g transform="translate(4,310)" s:x="4" s:y="10" s:pid="out0">
      <text x="5" y="-4">14</text>
    </g>
  </g>
  <line x1="115.8" x2="155" y1="192" y2="192" class="net_34"/>
  <line x1="155" x2="155" y1="192" y2="121.5" class="net_34"/>
  <circle cx="155" cy="192" r="2" style="fill:#000" class="net_34"/>
  <line x1="155" x2="188" y1="121.5" y2="121.5" class="net_34"/>
  <line x1="115.8" x2="155" y1="192" y2="192" class="net_34"/>
  <line x1="155" x2="155" y1="192" y2="552" class="net_34"/>
  <line x1="155" x2="485.75" y1="552" y2="552" class="net_34"/>
  <line x1="125" x2="188" y1="136.5" y2="136.5" class="net_127"/>
  <line x1="115.8" x2="175" y1="212" y2="212" class="net_35"/>
  <line x1="175" x2="175" y1="212" y2="246.5" class="net_35"/>
  <line x1="175" x2="188" y1="246.5" y2="246.5" class="net_35"/>
  <line x1="125" x2="175" y1="321.5" y2="321.5" class="net_128"/>
  <line x1="175" x2="175" y1="321.5" y2="261.5" class="net_128"/>
  <circle cx="175" cy="321.5" r="2" style="fill:#000" class="net_128"/>
  <line x1="175" x2="188" y1="261.5" y2="261.5" class="net_128"/>
  <line x1="125" x2="188" y1="321.5" y2="321.5" class="net_128"/>
  <line x1="125" x2="175" y1="321.5" y2="321.5" class="net_128"/>
  <line x1="175" x2="175" y1="321.5" y2="381.5" class="net_128"/>
  <line x1="175" x2="188" y1="381.5" y2="381.5" class="net_128"/>
  <line x1="115.8" x2="165" y1="232" y2="232" class="net_36"/>
  <line x1="165" x2="165" y1="232" y2="306.5" class="net_36"/>
  <line x1="165" x2="188" y1="306.5" y2="306.5" class="net_36"/>
  <line x1="115.8" x2="145" y1="252" y2="252" class="net_37"/>
  <line x1="145" x2="145" y1="252" y2="366.5" class="net_37"/>
  <line x1="145" x2="188" y1="366.5" y2="366.5" class="net_37"/>
  <line x1="738" x2="761" y1="199" y2="199" class="net_17"/>
  <line x1="761" x2="761" y1="199" y2="17" class="net_17"/>
  <circle cx="761" cy="199" r="2" style="fill:#000" class="net_17"/>
  <line x1="761" x2="886" y1="17" y2="17" class="net_17"/>
  <line x1="738" x2="761" y1="199" y2="199" class="net_17"/>
  <line x1="761" x2="761" y1="199" y2="268" class="net_17"/>
  <line x1="761" x2="861" y1="268" y2="268" class="net_17"/>
  <line x1="861" x2="861" y1="268" y2="274" class="net_17"/>
  <line x1="861" x2="886" y1="274" y2="274" class="net_17"/>
  <line x1="738" x2="761" y1="199" y2="199" class="net_17"/>
  <line x1="761" x2="761" y1="199" y2="103" class="net_17"/>
  <circle cx="761" cy="103" r="2" style="fill:#000" class="net_17"/>
  <line x1="761" x2="821" y1="103" y2="103" class="net_17"/>
  <line x1="738" x2="821" y1="199" y2="199" class="net_17"/>
  <line x1="738" x2="771" y1="242" y2="242" class="net_33"/>
  <line x1="771" x2="771" y1="242" y2="32" class="net_33"/>
  <circle cx="771" cy="242" r="2" style="fill:#000" class="net_33"/>
  <line x1="771" x2="886" y1="32" y2="32" class="net_33"/>
  <line x1="738" x2="886" y1="242" y2="242" class="net_33"/>
  <line x1="738" x2="771" y1="242" y2="242" class="net_33"/>
  <line x1="771" x2="771" y1="242" y2="158" class="net_33"/>
  <circle cx="771" cy="158" r="2" style="fill:#000" class="net_33"/>
  <line x1="771" x2="821" y1="158" y2="158" class="net_33"/>
  <line x1="738" x2="771" y1="242" y2="242" class="net_33"/>
  <line x1="771" x2="771" y1="242" y2="289" class="net_33"/>
  <line x1="771" x2="821" y1="289" y2="289" class="net_33"/>
  <line x1="916" x2="926" y1="24.5" y2="24.5" class="net_60"/>
  <line x1="926" x2="926" y1="24.5" y2="67" class="net_60"/>
  <line x1="926" x2="951" y1="67" y2="67" class="net_60"/>
  <line x1="911" x2="951" y1="82" y2="82" class="net_61"/>
  <line x1="846" x2="861" y1="103" y2="103" class="net_63"/>
  <line x1="861" x2="861" y1="103" y2="143" class="net_63"/>
  <line x1="861" x2="886" y1="143" y2="143" class="net_63"/>
  <line x1="846" x2="886" y1="158" y2="158" class="net_64"/>
  <line x1="916" x2="926" y1="150.5" y2="150.5" class="net_65"/>
  <line x1="926" x2="926" y1="150.5" y2="163" class="net_65"/>
  <line x1="926" x2="951" y1="163" y2="163" class="net_65"/>
  <line x1="737.5" x2="737.5" y1="516.5" y2="339" class="net_53"/>
  <line x1="737.5" x2="811" y1="339" y2="339" class="net_53"/>
  <line x1="811" x2="811" y1="339" y2="178" class="net_53"/>
  <circle cx="811" cy="339" r="2" style="fill:#000" class="net_53"/>
  <circle cx="811" cy="178" r="2" style="fill:#000" class="net_53"/>
  <line x1="811" x2="951" y1="178" y2="178" class="net_53"/>
  <line x1="737.5" x2="737.5" y1="516.5" y2="339" class="net_53"/>
  <line x1="737.5" x2="811" y1="339" y2="339" class="net_53"/>
  <line x1="811" x2="811" y1="339" y2="257" class="net_53"/>
  <circle cx="811" cy="257" r="2" style="fill:#000" class="net_53"/>
  <line x1="811" x2="951" y1="257" y2="257" class="net_53"/>
  <line x1="737.5" x2="737.5" y1="516.5" y2="339" class="net_53"/>
  <line x1="737.5" x2="811" y1="339" y2="339" class="net_53"/>
  <line x1="811" x2="811" y1="339" y2="917" class="net_53"/>
  <line x1="811" x2="824" y1="917" y2="917" class="net_53"/>
  <line x1="737.5" x2="737.5" y1="516.5" y2="339" class="net_53"/>
  <line x1="737.5" x2="811" y1="339" y2="339" class="net_53"/>
  <line x1="811" x2="811" y1="339" y2="82" class="net_53"/>
  <line x1="811" x2="886" y1="82" y2="82" class="net_53"/>
  <line x1="737.5" x2="737.5" y1="516.5" y2="339" class="net_53"/>
  <line x1="737.5" x2="886" y1="339" y2="339" class="net_53"/>
  <line x1="737.5" x2="737.5" y1="516.5" y2="339" class="net_53"/>
  <line x1="737.5" x2="811" y1="339" y2="339" class="net_53"/>
  <line x1="811" x2="811" y1="339" y2="379" class="net_53"/>
  <circle cx="811" cy="379" r="2" style="fill:#000" class="net_53"/>
  <line x1="811" x2="1146" y1="379" y2="379" class="net_53"/>
  <line x1="981" x2="991" y1="74.5" y2="74.5" class="net_62"/>
  <line x1="991" x2="991" y1="74.5" y2="155.5" class="net_62"/>
  <line x1="991" x2="1019" y1="155.5" y2="155.5" class="net_62"/>
  <line x1="981" x2="1019" y1="170.5" y2="170.5" class="net_66"/>
  <line x1="846" x2="861" y1="199" y2="199" class="net_68"/>
  <line x1="861" x2="861" y1="199" y2="227" class="net_68"/>
  <line x1="861" x2="886" y1="227" y2="227" class="net_68"/>
  <line x1="916" x2="926" y1="234.5" y2="234.5" class="net_69"/>
  <line x1="926" x2="926" y1="234.5" y2="242" class="net_69"/>
  <line x1="926" x2="951" y1="242" y2="242" class="net_69"/>
  <line x1="846" x2="886" y1="289" y2="289" class="net_71"/>
  <line x1="916" x2="926" y1="281.5" y2="281.5" class="net_72"/>
  <line x1="926" x2="926" y1="281.5" y2="324" class="net_72"/>
  <line x1="926" x2="951" y1="324" y2="324" class="net_72"/>
  <line x1="911" x2="951" y1="339" y2="339" class="net_73"/>
  <line x1="981" x2="991" y1="249.5" y2="249.5" class="net_70"/>
  <line x1="991" x2="991" y1="249.5" y2="316.5" class="net_70"/>
  <line x1="991" x2="1019" y1="316.5" y2="316.5" class="net_70"/>
  <line x1="981" x2="1019" y1="331.5" y2="331.5" class="net_74"/>
  <line x1="218" x2="228" y1="129" y2="129" class="net_56"/>
  <line x1="228" x2="228" y1="129" y2="239" class="net_56"/>
  <line x1="228" x2="256" y1="239" y2="239" class="net_56"/>
  <line x1="218" x2="256" y1="254" y2="254" class="net_57"/>
  <line x1="218" x2="228" y1="314" y2="314" class="net_58"/>
  <line x1="228" x2="228" y1="314" y2="359" class="net_58"/>
  <line x1="228" x2="256" y1="359" y2="359" class="net_58"/>
  <line x1="218" x2="256" y1="374" y2="374" class="net_59"/>
  <line x1="283" x2="293" y1="246.5" y2="246.5" class="net_76"/>
  <line x1="293" x2="293" y1="246.5" y2="351.5" class="net_76"/>
  <line x1="293" x2="321" y1="351.5" y2="351.5" class="net_76"/>
  <line x1="283" x2="321" y1="366.5" y2="366.5" class="net_77"/>
  <line x1="737.5" x2="737.5" y1="536.5" y2="482" class="net_38"/>
  <line x1="737.5" x2="824" y1="482" y2="482" class="net_38"/>
  <line x1="738" x2="761" y1="557" y2="557" class="net_39"/>
  <line x1="761" x2="761" y1="557" y2="497" class="net_39"/>
  <line x1="761" x2="824" y1="497" y2="497" class="net_39"/>
  <line x1="738" x2="771" y1="577" y2="577" class="net_40"/>
  <line x1="771" x2="771" y1="577" y2="542" class="net_40"/>
  <line x1="771" x2="824" y1="542" y2="542" class="net_40"/>
  <line x1="738" x2="781" y1="597" y2="597" class="net_41"/>
  <line x1="781" x2="781" y1="597" y2="557" class="net_41"/>
  <line x1="781" x2="824" y1="557" y2="557" class="net_41"/>
  <line x1="738" x2="761" y1="617" y2="617" class="net_42"/>
  <line x1="761" x2="761" y1="617" y2="602" class="net_42"/>
  <line x1="761" x2="824" y1="602" y2="602" class="net_42"/>
  <line x1="738" x2="771" y1="637" y2="637" class="net_43"/>
  <line x1="771" x2="771" y1="637" y2="617" class="net_43"/>
  <line x1="771" x2="824" y1="617" y2="617" class="net_43"/>
  <line x1="738" x2="761" y1="657" y2="657" class="net_44"/>
  <line x1="761" x2="761" y1="657" y2="662" class="net_44"/>
  <line x1="761" x2="824" y1="662" y2="662" class="net_44"/>
  <line x1="738" x2="824" y1="677" y2="677" class="net_45"/>
  <line x1="738" x2="801" y1="697" y2="697" class="net_46"/>
  <line x1="801" x2="801" y1="697" y2="722" class="net_46"/>
  <line x1="801" x2="824" y1="722" y2="722" class="net_46"/>
  <line x1="738" x2="791" y1="717" y2="717" class="net_47"/>
  <line x1="791" x2="791" y1="717" y2="737" class="net_47"/>
  <line x1="791" x2="824" y1="737" y2="737" class="net_47"/>
  <line x1="738" x2="781" y1="737" y2="737" class="net_48"/>
  <line x1="781" x2="781" y1="737" y2="782" class="net_48"/>
  <line x1="781" x2="824" y1="782" y2="782" class="net_48"/>
  <line x1="738" x2="771" y1="757" y2="757" class="net_49"/>
  <line x1="771" x2="771" y1="757" y2="797" class="net_49"/>
  <line x1="771" x2="824" y1="797" y2="797" class="net_49"/>
  <line x1="738" x2="761" y1="777" y2="777" class="net_50"/>
  <line x1="761" x2="761" y1="777" y2="842" class="net_50"/>
  <line x1="761" x2="824" y1="842" y2="842" class="net_50"/>
  <line x1="737.5" x2="737.5" y1="797.5" y2="857" class="net_51"/>
  <line x1="737.5" x2="824" y1="857" y2="857" class="net_51"/>
  <line x1="737.5" x2="737.5" y1="817.5" y2="902" class="net_52"/>
  <line x1="737.5" x2="824" y1="902" y2="902" class="net_52"/>
  <line x1="851" x2="861" y1="489.5" y2="489.5" class="net_79"/>
  <line x1="861" x2="861" y1="489.5" y2="534.5" class="net_79"/>
  <line x1="861" x2="889" y1="534.5" y2="534.5" class="net_79"/>
  <line x1="851" x2="889" y1="549.5" y2="549.5" class="net_80"/>
  <line x1="851" x2="861" y1="609.5" y2="609.5" class="net_81"/>
  <line x1="861" x2="861" y1="609.5" y2="654.5" class="net_81"/>
  <line x1="861" x2="889" y1="654.5" y2="654.5" class="net_81"/>
  <line x1="851" x2="889" y1="669.5" y2="669.5" class="net_82"/>
  <line x1="851" x2="861" y1="729.5" y2="729.5" class="net_83"/>
  <line x1="861" x2="861" y1="729.5" y2="774.5" class="net_83"/>
  <line x1="861" x2="889" y1="774.5" y2="774.5" class="net_83"/>
  <line x1="851" x2="889" y1="789.5" y2="789.5" class="net_84"/>
  <line x1="851" x2="861" y1="849.5" y2="849.5" class="net_85"/>
  <line x1="861" x2="861" y1="849.5" y2="894.5" class="net_85"/>
  <line x1="861" x2="889" y1="894.5" y2="894.5" class="net_85"/>
  <line x1="851" x2="889" y1="909.5" y2="909.5" class="net_86"/>
  <line x1="916" x2="926" y1="542" y2="542" class="net_87"/>
  <line x1="926" x2="926" y1="542" y2="647" class="net_87"/>
  <line x1="926" x2="954" y1="647" y2="647" class="net_87"/>
  <line x1="916" x2="954" y1="662" y2="662" class="net_88"/>
  <line x1="916" x2="926" y1="782" y2="782" class="net_89"/>
  <line x1="926" x2="926" y1="782" y2="887" class="net_89"/>
  <line x1="926" x2="954" y1="887" y2="887" class="net_89"/>
  <line x1="916" x2="954" y1="902" y2="902" class="net_90"/>
  <line x1="981" x2="991" y1="654.5" y2="654.5" class="net_91"/>
  <line x1="991" x2="991" y1="654.5" y2="879.5" class="net_91"/>
  <line x1="991" x2="1019" y1="879.5" y2="879.5" class="net_91"/>
  <line x1="981" x2="1019" y1="894.5" y2="894.5" class="net_92"/>
  <line x1="348" x2="383" y1="359" y2="359" class="net_78"/>
  <line x1="1046" x2="1081" y1="887" y2="887" class="net_93"/>
  <line x1="1046" x2="1056" y1="163" y2="163" class="net_67"/>
  <line x1="1056" x2="1056" y1="163" y2="304" class="net_67"/>
  <line x1="1056" x2="1084.3333333333333" y1="304" y2="304" class="net_67"/>
  <line x1="1046" x2="1084.3333333333333" y1="324" y2="324" class="net_75"/>
  <line x1="408" x2="1094.3333333333333" y1="359" y2="359" class="net_94"/>
  <line x1="1094.3333333333333" x2="1094.3333333333333" y1="359" y2="329" class="net_94"/>
  <line x1="408" x2="433" y1="359" y2="359" class="net_94"/>
  <line x1="433" x2="433" y1="359" y2="444" class="net_94"/>
  <circle cx="433" cy="359" r="2" style="fill:#000" class="net_94"/>
  <line x1="433" x2="484" y1="444" y2="444" class="net_94"/>
  <line x1="411" x2="443" y1="304" y2="304" class="net_2,3,4,5,6,7,8,9,10,11,12,13,14,15,16,17"/>
  <line x1="443" x2="443" y1="304" y2="404" class="net_2,3,4,5,6,7,8,9,10,11,12,13,14,15,16,17"/>
  <circle cx="443" cy="304" r="2" style="fill:#000" class="net_2,3,4,5,6,7,8,9,10,11,12,13,14,15,16,17"/>
  <circle cx="443" cy="404" r="2" style="fill:#000" class="net_2,3,4,5,6,7,8,9,10,11,12,13,14,15,16,17"/>
  <line x1="443" x2="484" y1="404" y2="404" class="net_2,3,4,5,6,7,8,9,10,11,12,13,14,15,16,17"/>
  <line x1="411" x2="443" y1="304" y2="304" class="net_2,3,4,5,6,7,8,9,10,11,12,13,14,15,16,17"/>
  <line x1="443" x2="443" y1="304" y2="512" class="net_2,3,4,5,6,7,8,9,10,11,12,13,14,15,16,17"/>
  <line x1="443" x2="485.75" y1="512" y2="512" class="net_2,3,4,5,6,7,8,9,10,11,12,13,14,15,16,17"/>
  <line x1="411" x2="443" y1="304" y2="304" class="net_2,3,4,5,6,7,8,9,10,11,12,13,14,15,16,17"/>
  <line x1="443" x2="443" y1="304" y2="221.5" class="net_2,3,4,5,6,7,8,9,10,11,12,13,14,15,16,17"/>
  <line x1="443" x2="733.5" y1="221.5" y2="221.5" class="net_2,3,4,5,6,7,8,9,10,11,12,13,14,15,16,17"/>
  <line x1="733.5" x2="733.5" y1="221.5" y2="209.5" class="net_2,3,4,5,6,7,8,9,10,11,12,13,14,15,16,17"/>
  <line x1="411" x2="484" y1="424" y2="424" class="net_18,19,20,21,22,23,24,25,26,27,28,29,30,31,32,33"/>
  <line x1="411" x2="423" y1="424" y2="424" class="net_18,19,20,21,22,23,24,25,26,27,28,29,30,31,32,33"/>
  <line x1="423" x2="423" y1="424" y2="532" class="net_18,19,20,21,22,23,24,25,26,27,28,29,30,31,32,33"/>
  <circle cx="423" cy="424" r="2" style="fill:#000" class="net_18,19,20,21,22,23,24,25,26,27,28,29,30,31,32,33"/>
  <line x1="423" x2="485.75" y1="532" y2="532" class="net_18,19,20,21,22,23,24,25,26,27,28,29,30,31,32,33"/>
  <line x1="411" x2="423" y1="424" y2="424" class="net_18,19,20,21,22,23,24,25,26,27,28,29,30,31,32,33"/>
  <line x1="423" x2="423" y1="424" y2="329" class="net_18,19,20,21,22,23,24,25,26,27,28,29,30,31,32,33"/>
  <line x1="423" x2="733.5" y1="329" y2="329" class="net_18,19,20,21,22,23,24,25,26,27,28,29,30,31,32,33"/>
  <line x1="733.5" x2="733.5" y1="329" y2="252.5" class="net_18,19,20,21,22,23,24,25,26,27,28,29,30,31,32,33"/>
  <line x1="515" x2="572" y1="424" y2="424" class="net_95,96,97,98,99,100,101,102,103,104,105,106,107,108,109,110"/>
  <line x1="572" x2="572" y1="424" y2="494.5" class="net_95,96,97,98,99,100,101,102,103,104,105,106,107,108,109,110"/>
  <circle cx="572" cy="494.5" r="2" style="fill:#000" class="net_95,96,97,98,99,100,101,102,103,104,105,106,107,108,109,110"/>
  <line x1="572" x2="630" y1="494.5" y2="494.5" class="net_95,96,97,98,99,100,101,102,103,104,105,106,107,108,109,110"/>
  <line x1="515" x2="572" y1="424" y2="424" class="net_95,96,97,98,99,100,101,102,103,104,105,106,107,108,109,110"/>
  <line x1="572" x2="572" y1="424" y2="514.5" class="net_95,96,97,98,99,100,101,102,103,104,105,106,107,108,109,110"/>
  <line x1="572" x2="630" y1="514.5" y2="514.5" class="net_95,96,97,98,99,100,101,102,103,104,105,106,107,108,109,110"/>
  <line x1="516.75" x2="562" y1="512" y2="512" class="net_111,112,113,114,115,116,117,118,119,120,121,122,123,124,125,126"/>
  <line x1="562" x2="562" y1="512" y2="534.5" class="net_111,112,113,114,115,116,117,118,119,120,121,122,123,124,125,126"/>
  <circle cx="562" cy="534.5" r="2" style="fill:#000" class="net_111,112,113,114,115,116,117,118,119,120,121,122,123,124,125,126"/>
  <line x1="562" x2="630" y1="534.5" y2="534.5" class="net_111,112,113,114,115,116,117,118,119,120,121,122,123,124,125,126"/>
  <line x1="516.75" x2="562" y1="512" y2="512" class="net_111,112,113,114,115,116,117,118,119,120,121,122,123,124,125,126"/>
  <line x1="562" x2="562" y1="512" y2="554.5" class="net_111,112,113,114,115,116,117,118,119,120,121,122,123,124,125,126"/>
  <line x1="562" x2="630" y1="554.5" y2="554.5" class="net_111,112,113,114,115,116,117,118,119,120,121,122,123,124,125,126"/>
  <line x1="115.3" x2="115.3" y1="272.5" y2="291.5" class="net_34,35"/>
  <line x1="115.3" x2="135" y1="291.5" y2="291.5" class="net_34,35"/>
  <line x1="135" x2="135" y1="291.5" y2="574.5" class="net_34,35"/>
  <line x1="135" x2="630" y1="574.5" y2="574.5" class="net_34,35"/>
  <line x1="661" x2="708" y1="494.5" y2="494.5" class="net_38,39,40,41,42,43,44,45,46,47,48,49,50,51,52,53"/>
  <line x1="708" x2="708" y1="494.5" y2="466" class="net_38,39,40,41,42,43,44,45,46,47,48,49,50,51,52,53"/>
  <circle cx="708" cy="494.5" r="2" style="fill:#000" class="net_38,39,40,41,42,43,44,45,46,47,48,49,50,51,52,53"/>
  <line x1="708" x2="1146" y1="466" y2="466" class="net_38,39,40,41,42,43,44,45,46,47,48,49,50,51,52,53"/>
  <line x1="661" x2="733.5" y1="494.5" y2="494.5" class="net_38,39,40,41,42,43,44,45,46,47,48,49,50,51,52,53"/>
  <line x1="733.5" x2="733.5" y1="494.5" y2="526.5" class="net_38,39,40,41,42,43,44,45,46,47,48,49,50,51,52,53"/>
  <line x1="1106" x2="1146" y1="887" y2="887" class="net_54"/>
  <line x1="1104.3333333333333" x2="1146" y1="314" y2="314" class="net_55"/>
  <line x1="40" x2="110.8" y1="202" y2="202" class="net_34,35,36,37"/>
</svg>
