<svg xmlns="http://www.w3.org/2000/svg" xmlns:xlink="http://www.w3.org/1999/xlink" xmlns:s="https://github.com/nturley/netlistsvg" width="627" height="399">
  <style>svg {
    stroke:#000;
    fill:none;
  }
  text {
    fill:#000;
    stroke:none;
    font-size:10px;
    font-weight: bold;
    font-family: "Courier New", monospace;
  }
  .nodelabel {
    text-anchor: middle;
  }
  .inputPortLabel {
    text-anchor: end;
  }
  .splitjoinBody {
    fill:#000;
  }</style>
  <g s:type="reduce_xor" transform="translate(225,269.5)" s:width="33" s:height="25" id="cell_$auto$simplemap.cc:106:simplemap_bitop$118">
    <s:alias val="$xor"/>
    <s:alias val="$reduce_xor"/>
    <s:alias val="$_XOR_"/>
    <path d="M3,0 A30 25 0 0 1 3,25 A30 25 0 0 0 33,12.5 A30 25 0 0 0 3,0" class="cell_$auto$simplemap.cc:106:simplemap_bitop$118"/>
    <path d="M0,0 A30 25 0 0 1 0,25" class="cell_$auto$simplemap.cc:106:simplemap_bitop$118"/>
    <g s:x="3" s:y="5" s:pid="A"/>
    <g s:x="3" s:y="20" s:pid="B"/>
    <g s:x="33" s:y="12.5" s:pid="Y"/>
  </g>
  <g s:type="reduce_xor" transform="translate(225,329.5)" s:width="33" s:height="25" id="cell_$auto$simplemap.cc:106:simplemap_bitop$119">
    <s:alias val="$xor"/>
    <s:alias val="$reduce_xor"/>
    <s:alias val="$_XOR_"/>
    <path d="M3,0 A30 25 0 0 1 3,25 A30 25 0 0 0 33,12.5 A30 25 0 0 0 3,0" class="cell_$auto$simplemap.cc:106:simplemap_bitop$119"/>
    <path d="M0,0 A30 25 0 0 1 0,25" class="cell_$auto$simplemap.cc:106:simplemap_bitop$119"/>
    <g s:x="3" s:y="5" s:pid="A"/>
    <g s:x="3" s:y="20" s:pid="B"/>
    <g s:x="33" s:y="12.5" s:pid="Y"/>
  </g>
  <g s:type="reduce_xor" transform="translate(157,132)" s:width="33" s:height="25" id="cell_$auto$simplemap.cc:106:simplemap_bitop$128">
    <s:alias val="$xor"/>
    <s:alias val="$reduce_xor"/>
    <s:alias val="$_XOR_"/>
    <path d="M3,0 A30 25 0 0 1 3,25 A30 25 0 0 0 33,12.5 A30 25 0 0 0 3,0" class="cell_$auto$simplemap.cc:106:simplemap_bitop$128"/>
    <path d="M0,0 A30 25 0 0 1 0,25" class="cell_$auto$simplemap.cc:106:simplemap_bitop$128"/>
    <g s:x="3" s:y="5" s:pid="A"/>
    <g s:x="3" s:y="20" s:pid="B"/>
    <g s:x="33" s:y="12.5" s:pid="Y"/>
  </g>
  <g s:type="reduce_xor" transform="translate(157,197)" s:width="33" s:height="25" id="cell_$auto$simplemap.cc:106:simplemap_bitop$129">
    <s:alias val="$xor"/>
    <s:alias val="$reduce_xor"/>
    <s:alias val="$_XOR_"/>
    <path d="M3,0 A30 25 0 0 1 3,25 A30 25 0 0 0 33,12.5 A30 25 0 0 0 3,0" class="cell_$auto$simplemap.cc:106:simplemap_bitop$129"/>
    <path d="M0,0 A30 25 0 0 1 0,25" class="cell_$auto$simplemap.cc:106:simplemap_bitop$129"/>
    <g s:x="3" s:y="5" s:pid="A"/>
    <g s:x="3" s:y="20" s:pid="B"/>
    <g s:x="33" s:y="12.5" s:pid="Y"/>
  </g>
  <g s:type="or" transform="translate(297,277)" s:width="30" s:height="25" id="cell_$auto$simplemap.cc:157:simplemap_reduce$123">
    <s:alias val="$or"/>
    <s:alias val="$logic_or"/>
    <s:alias val="$_OR_"/>
    <path d="M0,25 L0,25 L15,25 A15 12.5 0 0 0 15,0 L0,0" class="cell_$auto$simplemap.cc:157:simplemap_reduce$123"/>
    <path d="M0,0 A30 25 0 0 1 0,25" class="cell_$auto$simplemap.cc:157:simplemap_reduce$123"/>
    <g s:x="3" s:y="5" s:pid="A"/>
    <g s:x="3" s:y="20" s:pid="B"/>
    <g s:x="30" s:y="12.5" s:pid="Y"/>
  </g>
  <g s:type="or" transform="translate(226,139.5)" s:width="30" s:height="25" id="cell_$auto$simplemap.cc:157:simplemap_reduce$133">
    <s:alias val="$or"/>
    <s:alias val="$logic_or"/>
    <s:alias val="$_OR_"/>
    <path d="M0,25 L0,25 L15,25 A15 12.5 0 0 0 15,0 L0,0" class="cell_$auto$simplemap.cc:157:simplemap_reduce$133"/>
    <path d="M0,0 A30 25 0 0 1 0,25" class="cell_$auto$simplemap.cc:157:simplemap_reduce$133"/>
    <g s:x="3" s:y="5" s:pid="A"/>
    <g s:x="3" s:y="20" s:pid="B"/>
    <g s:x="30" s:y="12.5" s:pid="Y"/>
  </g>
  <g s:type="or" transform="translate(374,362)" s:width="30" s:height="25" id="cell_$auto$simplemap.cc:198:logic_reduce$114">
    <s:alias val="$or"/>
    <s:alias val="$logic_or"/>
    <s:alias val="$_OR_"/>
    <path d="M0,25 L0,25 L15,25 A15 12.5 0 0 0 15,0 L0,0" class="cell_$auto$simplemap.cc:198:logic_reduce$114"/>
    <path d="M0,0 A30 25 0 0 1 0,25" class="cell_$auto$simplemap.cc:198:logic_reduce$114"/>
    <g s:x="3" s:y="5" s:pid="A"/>
    <g s:x="3" s:y="20" s:pid="B"/>
    <g s:x="30" s:y="12.5" s:pid="Y"/>
  </g>
  <g s:type="not" transform="translate(453,364.5)" s:width="30" s:height="20" id="cell_$auto$simplemap.cc:227:simplemap_lognot$115">
    <s:alias val="$_NOT_"/>
    <s:alias val="$not"/>
    <s:alias val="$logic_not"/>
    <path d="M0,0 L0,20 L20,10 Z" class="cell_$auto$simplemap.cc:227:simplemap_lognot$115"/>
    <circle cx="23" cy="10" r="3" class="cell_$auto$simplemap.cc:227:simplemap_lognot$115"/>
    <g s:x="0" s:y="10" s:pid="A"/>
    <g s:x="25" s:y="10" s:pid="Y"/>
  </g>
  <g s:type="not" transform="translate(376,279.5)" s:width="30" s:height="20" id="cell_$auto$simplemap.cc:227:simplemap_lognot$125">
    <s:alias val="$_NOT_"/>
    <s:alias val="$not"/>
    <s:alias val="$logic_not"/>
    <path d="M0,0 L0,20 L20,10 Z" class="cell_$auto$simplemap.cc:227:simplemap_lognot$125"/>
    <circle cx="23" cy="10" r="3" class="cell_$auto$simplemap.cc:227:simplemap_lognot$125"/>
    <g s:x="0" s:y="10" s:pid="A"/>
    <g s:x="25" s:y="10" s:pid="Y"/>
  </g>
  <g s:type="not" transform="translate(299,142)" s:width="30" s:height="20" id="cell_$auto$simplemap.cc:227:simplemap_lognot$135">
    <s:alias val="$_NOT_"/>
    <s:alias val="$not"/>
    <s:alias val="$logic_not"/>
    <path d="M0,0 L0,20 L20,10 Z" class="cell_$auto$simplemap.cc:227:simplemap_lognot$135"/>
    <circle cx="23" cy="10" r="3" class="cell_$auto$simplemap.cc:227:simplemap_lognot$135"/>
    <g s:x="0" s:y="10" s:pid="A"/>
    <g s:x="25" s:y="10" s:pid="Y"/>
  </g>
  <g s:type="mux" transform="translate(377.3333333333333,22)" s:width="20" s:height="40" id="cell_$auto$simplemap.cc:298:simplemap_mux$136">
    <s:alias val="$pmux"/>
    <s:alias val="$mux"/>
    <s:alias val="$_MUX_"/>
    <path d="M0,0 L20,10 L20,30 L0,40 Z" class="cell_$auto$simplemap.cc:298:simplemap_mux$136"/>
    <g s:x="0" s:y="10" s:pid="A"/>
    <g s:x="0" s:y="30" s:pid="B"/>
    <g s:x="10" s:y="35" s:pid="S"/>
    <g s:x="20" s:y="20" s:pid="Y"/>
  </g>
  <g s:type="mux" transform="translate(454.3333333333333,32)" s:width="20" s:height="40" id="cell_$auto$simplemap.cc:298:simplemap_mux$137">
    <s:alias val="$pmux"/>
    <s:alias val="$mux"/>
    <s:alias val="$_MUX_"/>
    <path d="M0,0 L20,10 L20,30 L0,40 Z" class="cell_$auto$simplemap.cc:298:simplemap_mux$137"/>
    <g s:x="0" s:y="10" s:pid="A"/>
    <g s:x="0" s:y="30" s:pid="B"/>
    <g s:x="10" s:y="35" s:pid="S"/>
    <g s:x="20" s:y="20" s:pid="Y"/>
  </g>
  <g s:type="mux" transform="translate(524,42)" s:width="20" s:height="40" id="cell_$auto$simplemap.cc:298:simplemap_mux$138">
    <s:alias val="$pmux"/>
    <s:alias val="$mux"/>
    <s:alias val="$_MUX_"/>
    <path d="M0,0 L20,10 L20,30 L0,40 Z" class="cell_$auto$simplemap.cc:298:simplemap_mux$138"/>
    <g s:x="0" s:y="10" s:pid="A"/>
    <g s:x="0" s:y="30" s:pid="B"/>
    <g s:x="10" s:y="35" s:pid="S"/>
    <g s:x="20" s:y="20" s:pid="Y"/>
  </g>
  <g s:type="inputExt" transform="translate(12,274.5)" s:width="30" s:height="20" id="cell_i_sel">
    <text x="15" y="-4" class="nodelabel cell_i_sel" s:attribute="ref">i_sel</text>
    <s:alias val="$_inputExt_"/>
    <path d="M0,0 L0,20 L15,20 L30,10 L15,0 Z" class="cell_i_sel"/>
    <g s:x="28" s:y="10" s:pid="Y"/>
  </g>
  <g s:type="inputExt" transform="translate(447,309.5)" s:width="30" s:height="20" id="cell_i_data0">
    <text x="15" y="-4" class="nodelabel cell_i_data0" s:attribute="ref">i_data0</text>
    <s:alias val="$_inputExt_"/>
    <path d="M0,0 L0,20 L15,20 L30,10 L15,0 Z" class="cell_i_data0"/>
    <g s:x="28" s:y="10" s:pid="Y"/>
  </g>
  <g s:type="inputExt" transform="translate(370,172)" s:width="30" s:height="20" id="cell_i_data1">
    <text x="15" y="-4" class="nodelabel cell_i_data1" s:attribute="ref">i_data1</text>
    <s:alias val="$_inputExt_"/>
    <path d="M0,0 L0,20 L15,20 L30,10 L15,0 Z" class="cell_i_data1"/>
    <g s:x="28" s:y="10" s:pid="Y"/>
  </g>
  <g s:type="inputExt" transform="translate(293,87)" s:width="30" s:height="20" id="cell_i_data2">
    <text x="15" y="-4" class="nodelabel cell_i_data2" s:attribute="ref">i_data2</text>
    <s:alias val="$_inputExt_"/>
    <path d="M0,0 L0,20 L15,20 L30,10 L15,0 Z" class="cell_i_data2"/>
    <g s:x="28" s:y="10" s:pid="Y"/>
  </g>
  <g s:type="inputExt" transform="translate(293,22)" s:width="30" s:height="20" id="cell_i_data3">
    <text x="15" y="-4" class="nodelabel cell_i_data3" s:attribute="ref">i_data3</text>
    <s:alias val="$_inputExt_"/>
    <path d="M0,0 L0,20 L15,20 L30,10 L15,0 Z" class="cell_i_data3"/>
    <g s:x="28" s:y="10" s:pid="Y"/>
  </g>
  <g s:type="outputExt" transform="translate(579,52)" s:width="30" s:height="20" id="cell_o_data">
    <text x="15" y="-4" class="nodelabel cell_o_data" s:attribute="ref">o_data</text>
    <s:alias val="$_outputExt_"/>
    <path d="M30,0 L30,20 L15,20 L0,10 L15,0 Z" class="cell_o_data"/>
    <g s:x="0" s:y="10" s:pid="A"/>
  </g>
  <g s:type="constant" transform="translate(77,207)" s:width="30" s:height="20" id="cell_1">
    <text x="15" y="-4" class="nodelabel cell_1" s:attribute="ref">1</text>
    <s:alias val="$_constant_"/>
    <rect width="30" height="20" class="cell_1"/>
    <g s:x="30" s:y="10" s:pid="Y"/>
  </g>
  <g s:type="constant" transform="translate(77,142)" s:width="30" s:height="20" id="cell_0">
    <text x="15" y="-4" class="nodelabel cell_0" s:attribute="ref">0</text>
    <s:alias val="$_constant_"/>
    <rect width="30" height="20" class="cell_0"/>
    <g s:x="30" s:y="10" s:pid="Y"/>
  </g>
  <g s:type="split" transform="translate(91.33333333333333,264)" s:width="5" s:height="40" id="cell_$split$,2,3,">
    <rect width="5" height="40" class="splitjoinBody" s:generic="body"/>
    <s:alias val="$_split_"/>
    <g s:x="0" s:y="20" s:pid="in"/>
    <g transform="translate(4,10)" s:x="4" s:y="10" s:pid="out0">
      <text x="5" y="-4">0</text>
    </g>
    <g transform="translate(4,30)" s:x="4" s:y="10" s:pid="out0">
      <text x="5" y="-4">1</text>
    </g>
  </g>
  <line x1="96.33333333333333" x2="228" y1="274.5" y2="274.5" class="net_2"/>
  <line x1="96.33333333333333" x2="117" y1="274.5" y2="274.5" class="net_2"/>
  <line x1="117" x2="117" y1="274.5" y2="137" class="net_2"/>
  <circle cx="117" cy="274.5" r="2" style="fill:#000" class="net_2"/>
  <line x1="117" x2="160" y1="137" y2="137" class="net_2"/>
  <line x1="96.33333333333333" x2="117" y1="274.5" y2="274.5" class="net_2"/>
  <line x1="117" x2="117" y1="274.5" y2="367" class="net_2"/>
  <line x1="117" x2="377" y1="367" y2="367" class="net_2"/>
  <line x1="107" x2="147" y1="217" y2="217" class="net_21"/>
  <line x1="147" x2="147" y1="217" y2="285.5" class="net_21"/>
  <line x1="147" x2="200" y1="285.5" y2="285.5" class="net_21"/>
  <line x1="200" x2="200" y1="285.5" y2="289.5" class="net_21"/>
  <circle cx="147" cy="217" r="2" style="fill:#000" class="net_21"/>
  <line x1="200" x2="228" y1="289.5" y2="289.5" class="net_21"/>
  <line x1="107" x2="160" y1="217" y2="217" class="net_21"/>
  <line x1="96.33333333333333" x2="127" y1="294.5" y2="294.5" class="net_3"/>
  <line x1="127" x2="127" y1="294.5" y2="334.5" class="net_3"/>
  <circle cx="127" cy="294.5" r="2" style="fill:#000" class="net_3"/>
  <circle cx="127" cy="334.5" r="2" style="fill:#000" class="net_3"/>
  <line x1="127" x2="228" y1="334.5" y2="334.5" class="net_3"/>
  <line x1="96.33333333333333" x2="127" y1="294.5" y2="294.5" class="net_3"/>
  <line x1="127" x2="127" y1="294.5" y2="202" class="net_3"/>
  <line x1="127" x2="160" y1="202" y2="202" class="net_3"/>
  <line x1="96.33333333333333" x2="127" y1="294.5" y2="294.5" class="net_3"/>
  <line x1="127" x2="127" y1="294.5" y2="378" class="net_3"/>
  <line x1="127" x2="345" y1="378" y2="378" class="net_3"/>
  <line x1="345" x2="345" y1="378" y2="382" class="net_3"/>
  <line x1="345" x2="377" y1="382" y2="382" class="net_3"/>
  <line x1="107" x2="137" y1="152" y2="152" class="net_22"/>
  <line x1="137" x2="137" y1="152" y2="345.5" class="net_22"/>
  <line x1="137" x2="200" y1="345.5" y2="345.5" class="net_22"/>
  <line x1="200" x2="200" y1="345.5" y2="349.5" class="net_22"/>
  <circle cx="137" cy="152" r="2" style="fill:#000" class="net_22"/>
  <line x1="200" x2="228" y1="349.5" y2="349.5" class="net_22"/>
  <line x1="107" x2="160" y1="152" y2="152" class="net_22"/>
  <line x1="258" x2="300" y1="282" y2="282" class="net_9"/>
  <line x1="258" x2="268" y1="342" y2="342" class="net_10"/>
  <line x1="268" x2="268" y1="342" y2="297" class="net_10"/>
  <line x1="268" x2="300" y1="297" y2="297" class="net_10"/>
  <line x1="190" x2="229" y1="144.5" y2="144.5" class="net_11"/>
  <line x1="190" x2="200" y1="209.5" y2="209.5" class="net_12"/>
  <line x1="200" x2="200" y1="209.5" y2="159.5" class="net_12"/>
  <line x1="200" x2="229" y1="159.5" y2="159.5" class="net_12"/>
  <line x1="404" x2="453" y1="374.5" y2="374.5" class="net_15"/>
  <line x1="327" x2="376" y1="289.5" y2="289.5" class="net_13"/>
  <line x1="256" x2="299" y1="152" y2="152" class="net_14"/>
  <line x1="321" x2="377.3333333333333" y1="32" y2="32" class="net_7"/>
  <line x1="321" x2="345" y1="97" y2="97" class="net_6"/>
  <line x1="345" x2="345" y1="97" y2="52" class="net_6"/>
  <line x1="345" x2="377.3333333333333" y1="52" y2="52" class="net_6"/>
  <line x1="324" x2="387.3333333333333" y1="152" y2="152" class="net_18"/>
  <line x1="387.3333333333333" x2="387.3333333333333" y1="152" y2="57" class="net_18"/>
  <line x1="397.3333333333333" x2="454.3333333333333" y1="42" y2="42" class="net_19"/>
  <line x1="398" x2="422" y1="182" y2="182" class="net_5"/>
  <line x1="422" x2="422" y1="182" y2="62" class="net_5"/>
  <line x1="422" x2="454.3333333333333" y1="62" y2="62" class="net_5"/>
  <line x1="401" x2="464.3333333333333" y1="289.5" y2="289.5" class="net_17"/>
  <line x1="464.3333333333333" x2="464.3333333333333" y1="289.5" y2="67" class="net_17"/>
  <line x1="474.3333333333333" x2="524" y1="52" y2="52" class="net_20"/>
  <line x1="475" x2="499" y1="319.5" y2="319.5" class="net_4"/>
  <line x1="499" x2="499" y1="319.5" y2="72" class="net_4"/>
  <line x1="499" x2="524" y1="72" y2="72" class="net_4"/>
  <line x1="478" x2="534" y1="374.5" y2="374.5" class="net_16"/>
  <line x1="534" x2="534" y1="374.5" y2="77" class="net_16"/>
  <line x1="544" x2="579" y1="62" y2="62" class="net_8"/>
  <line x1="40" x2="91.33333333333333" y1="284.5" y2="284.5" class="net_2,3"/>
</svg>
