<svg xmlns="http://www.w3.org/2000/svg" xmlns:xlink="http://www.w3.org/1999/xlink" xmlns:s="https://github.com/nturley/netlistsvg" width="798" height="2066">
  <style>svg {
    stroke:#000;
    fill:none;
  }
  text {
    fill:#000;
    stroke:none;
    font-size:10px;
    font-weight: bold;
    font-family: "Courier New", monospace;
  }
  .nodelabel {
    text-anchor: middle;
  }
  .inputPortLabel {
    text-anchor: end;
  }
  .splitjoinBody {
    fill:#000;
  }</style>
  <g s:type="generic" transform="translate(434,149.5)" s:width="30" s:height="40" id="cell_gen_logic[0].u_logic_bit">
    <text x="15" y="-4" class="nodelabel cell_gen_logic[0].u_logic_bit" s:attribute="ref">alu_logic_1bit</text>
    <rect width="30" height="60" s:generic="body" class="cell_gen_logic[0].u_logic_bit"/>
    <g transform="translate(0,10)" s:x="0" s:y="10" s:pid="in0" id="port_gen_logic[0].u_logic_bit~i_a">
      <text x="-3" y="-4" class="inputPortLabel cell_gen_logic[0].u_logic_bit">i_a</text>
    </g>
    <g transform="translate(0,30)" s:x="0" s:y="10" s:pid="in0" id="port_gen_logic[0].u_logic_bit~i_b">
      <text x="-3" y="-4" class="inputPortLabel cell_gen_logic[0].u_logic_bit">i_b</text>
    </g>
    <g transform="translate(0,50)" s:x="0" s:y="10" s:pid="in0" id="port_gen_logic[0].u_logic_bit~i_sel">
      <text x="-3" y="-4" class="inputPortLabel cell_gen_logic[0].u_logic_bit">i_sel</text>
    </g>
    <g transform="translate(30,10)" s:x="30" s:y="10" s:pid="out0" id="port_gen_logic[0].u_logic_bit~o_res">
      <text x="5" y="-4" style="fill:#000; stroke:none" class="cell_gen_logic[0].u_logic_bit">o_res</text>
    </g>
  </g>
  <g s:type="generic" transform="translate(428,41.5)" s:width="30" s:height="40" id="cell_gen_logic[10].u_logic_bit">
    <text x="15" y="-4" class="nodelabel cell_gen_logic[10].u_logic_bit" s:attribute="ref">alu_logic_1bit</text>
    <rect width="30" height="60" s:generic="body" class="cell_gen_logic[10].u_logic_bit"/>
    <g transform="translate(0,10)" s:x="0" s:y="10" s:pid="in0" id="port_gen_logic[10].u_logic_bit~i_a">
      <text x="-3" y="-4" class="inputPortLabel cell_gen_logic[10].u_logic_bit">i_a</text>
    </g>
    <g transform="translate(0,30)" s:x="0" s:y="10" s:pid="in0" id="port_gen_logic[10].u_logic_bit~i_b">
      <text x="-3" y="-4" class="inputPortLabel cell_gen_logic[10].u_logic_bit">i_b</text>
    </g>
    <g transform="translate(0,50)" s:x="0" s:y="10" s:pid="in0" id="port_gen_logic[10].u_logic_bit~i_sel">
      <text x="-3" y="-4" class="inputPortLabel cell_gen_logic[10].u_logic_bit">i_sel</text>
    </g>
    <g transform="translate(30,10)" s:x="30" s:y="10" s:pid="out0" id="port_gen_logic[10].u_logic_bit~o_res">
      <text x="5" y="-4" style="fill:#000; stroke:none" class="cell_gen_logic[10].u_logic_bit">o_res</text>
    </g>
  </g>
  <g s:type="generic" transform="translate(428,257.5)" s:width="30" s:height="40" id="cell_gen_logic[11].u_logic_bit">
    <text x="15" y="-4" class="nodelabel cell_gen_logic[11].u_logic_bit" s:attribute="ref">alu_logic_1bit</text>
    <rect width="30" height="60" s:generic="body" class="cell_gen_logic[11].u_logic_bit"/>
    <g transform="translate(0,10)" s:x="0" s:y="10" s:pid="in0" id="port_gen_logic[11].u_logic_bit~i_a">
      <text x="-3" y="-4" class="inputPortLabel cell_gen_logic[11].u_logic_bit">i_a</text>
    </g>
    <g transform="translate(0,30)" s:x="0" s:y="10" s:pid="in0" id="port_gen_logic[11].u_logic_bit~i_b">
      <text x="-3" y="-4" class="inputPortLabel cell_gen_logic[11].u_logic_bit">i_b</text>
    </g>
    <g transform="translate(0,50)" s:x="0" s:y="10" s:pid="in0" id="port_gen_logic[11].u_logic_bit~i_sel">
      <text x="-3" y="-4" class="inputPortLabel cell_gen_logic[11].u_logic_bit">i_sel</text>
    </g>
    <g transform="translate(30,10)" s:x="30" s:y="10" s:pid="out0" id="port_gen_logic[11].u_logic_bit~o_res">
      <text x="5" y="-4" style="fill:#000; stroke:none" class="cell_gen_logic[11].u_logic_bit">o_res</text>
    </g>
  </g>
  <g s:type="generic" transform="translate(428,365.5)" s:width="30" s:height="40" id="cell_gen_logic[12].u_logic_bit">
    <text x="15" y="-4" class="nodelabel cell_gen_logic[12].u_logic_bit" s:attribute="ref">alu_logic_1bit</text>
    <rect width="30" height="60" s:generic="body" class="cell_gen_logic[12].u_logic_bit"/>
    <g transform="translate(0,10)" s:x="0" s:y="10" s:pid="in0" id="port_gen_logic[12].u_logic_bit~i_a">
      <text x="-3" y="-4" class="inputPortLabel cell_gen_logic[12].u_logic_bit">i_a</text>
    </g>
    <g transform="translate(0,30)" s:x="0" s:y="10" s:pid="in0" id="port_gen_logic[12].u_logic_bit~i_b">
      <text x="-3" y="-4" class="inputPortLabel cell_gen_logic[12].u_logic_bit">i_b</text>
    </g>
    <g transform="translate(0,50)" s:x="0" s:y="10" s:pid="in0" id="port_gen_logic[12].u_logic_bit~i_sel">
      <text x="-3" y="-4" class="inputPortLabel cell_gen_logic[12].u_logic_bit">i_sel</text>
    </g>
    <g transform="translate(30,10)" s:x="30" s:y="10" s:pid="out0" id="port_gen_logic[12].u_logic_bit~o_res">
      <text x="5" y="-4" style="fill:#000; stroke:none" class="cell_gen_logic[12].u_logic_bit">o_res</text>
    </g>
  </g>
  <g s:type="generic" transform="translate(428,473.5)" s:width="30" s:height="40" id="cell_gen_logic[13].u_logic_bit">
    <text x="15" y="-4" class="nodelabel cell_gen_logic[13].u_logic_bit" s:attribute="ref">alu_logic_1bit</text>
    <rect width="30" height="60" s:generic="body" class="cell_gen_logic[13].u_logic_bit"/>
    <g transform="translate(0,10)" s:x="0" s:y="10" s:pid="in0" id="port_gen_logic[13].u_logic_bit~i_a">
      <text x="-3" y="-4" class="inputPortLabel cell_gen_logic[13].u_logic_bit">i_a</text>
    </g>
    <g transform="translate(0,30)" s:x="0" s:y="10" s:pid="in0" id="port_gen_logic[13].u_logic_bit~i_b">
      <text x="-3" y="-4" class="inputPortLabel cell_gen_logic[13].u_logic_bit">i_b</text>
    </g>
    <g transform="translate(0,50)" s:x="0" s:y="10" s:pid="in0" id="port_gen_logic[13].u_logic_bit~i_sel">
      <text x="-3" y="-4" class="inputPortLabel cell_gen_logic[13].u_logic_bit">i_sel</text>
    </g>
    <g transform="translate(30,10)" s:x="30" s:y="10" s:pid="out0" id="port_gen_logic[13].u_logic_bit~o_res">
      <text x="5" y="-4" style="fill:#000; stroke:none" class="cell_gen_logic[13].u_logic_bit">o_res</text>
    </g>
  </g>
  <g s:type="generic" transform="translate(428,581.5)" s:width="30" s:height="40" id="cell_gen_logic[14].u_logic_bit">
    <text x="15" y="-4" class="nodelabel cell_gen_logic[14].u_logic_bit" s:attribute="ref">alu_logic_1bit</text>
    <rect width="30" height="60" s:generic="body" class="cell_gen_logic[14].u_logic_bit"/>
    <g transform="translate(0,10)" s:x="0" s:y="10" s:pid="in0" id="port_gen_logic[14].u_logic_bit~i_a">
      <text x="-3" y="-4" class="inputPortLabel cell_gen_logic[14].u_logic_bit">i_a</text>
    </g>
    <g transform="translate(0,30)" s:x="0" s:y="10" s:pid="in0" id="port_gen_logic[14].u_logic_bit~i_b">
      <text x="-3" y="-4" class="inputPortLabel cell_gen_logic[14].u_logic_bit">i_b</text>
    </g>
    <g transform="translate(0,50)" s:x="0" s:y="10" s:pid="in0" id="port_gen_logic[14].u_logic_bit~i_sel">
      <text x="-3" y="-4" class="inputPortLabel cell_gen_logic[14].u_logic_bit">i_sel</text>
    </g>
    <g transform="translate(30,10)" s:x="30" s:y="10" s:pid="out0" id="port_gen_logic[14].u_logic_bit~o_res">
      <text x="5" y="-4" style="fill:#000; stroke:none" class="cell_gen_logic[14].u_logic_bit">o_res</text>
    </g>
  </g>
  <g s:type="generic" transform="translate(428,689.5)" s:width="30" s:height="40" id="cell_gen_logic[15].u_logic_bit">
    <text x="15" y="-4" class="nodelabel cell_gen_logic[15].u_logic_bit" s:attribute="ref">alu_logic_1bit</text>
    <rect width="30" height="60" s:generic="body" class="cell_gen_logic[15].u_logic_bit"/>
    <g transform="translate(0,10)" s:x="0" s:y="10" s:pid="in0" id="port_gen_logic[15].u_logic_bit~i_a">
      <text x="-3" y="-4" class="inputPortLabel cell_gen_logic[15].u_logic_bit">i_a</text>
    </g>
    <g transform="translate(0,30)" s:x="0" s:y="10" s:pid="in0" id="port_gen_logic[15].u_logic_bit~i_b">
      <text x="-3" y="-4" class="inputPortLabel cell_gen_logic[15].u_logic_bit">i_b</text>
    </g>
    <g transform="translate(0,50)" s:x="0" s:y="10" s:pid="in0" id="port_gen_logic[15].u_logic_bit~i_sel">
      <text x="-3" y="-4" class="inputPortLabel cell_gen_logic[15].u_logic_bit">i_sel</text>
    </g>
    <g transform="translate(30,10)" s:x="30" s:y="10" s:pid="out0" id="port_gen_logic[15].u_logic_bit~o_res">
      <text x="5" y="-4" style="fill:#000; stroke:none" class="cell_gen_logic[15].u_logic_bit">o_res</text>
    </g>
  </g>
  <g s:type="generic" transform="translate(434,797.5)" s:width="30" s:height="40" id="cell_gen_logic[1].u_logic_bit">
    <text x="15" y="-4" class="nodelabel cell_gen_logic[1].u_logic_bit" s:attribute="ref">alu_logic_1bit</text>
    <rect width="30" height="60" s:generic="body" class="cell_gen_logic[1].u_logic_bit"/>
    <g transform="translate(0,10)" s:x="0" s:y="10" s:pid="in0" id="port_gen_logic[1].u_logic_bit~i_a">
      <text x="-3" y="-4" class="inputPortLabel cell_gen_logic[1].u_logic_bit">i_a</text>
    </g>
    <g transform="translate(0,30)" s:x="0" s:y="10" s:pid="in0" id="port_gen_logic[1].u_logic_bit~i_b">
      <text x="-3" y="-4" class="inputPortLabel cell_gen_logic[1].u_logic_bit">i_b</text>
    </g>
    <g transform="translate(0,50)" s:x="0" s:y="10" s:pid="in0" id="port_gen_logic[1].u_logic_bit~i_sel">
      <text x="-3" y="-4" class="inputPortLabel cell_gen_logic[1].u_logic_bit">i_sel</text>
    </g>
    <g transform="translate(30,10)" s:x="30" s:y="10" s:pid="out0" id="port_gen_logic[1].u_logic_bit~o_res">
      <text x="5" y="-4" style="fill:#000; stroke:none" class="cell_gen_logic[1].u_logic_bit">o_res</text>
    </g>
  </g>
  <g s:type="generic" transform="translate(434,905.5)" s:width="30" s:height="40" id="cell_gen_logic[2].u_logic_bit">
    <text x="15" y="-4" class="nodelabel cell_gen_logic[2].u_logic_bit" s:attribute="ref">alu_logic_1bit</text>
    <rect width="30" height="60" s:generic="body" class="cell_gen_logic[2].u_logic_bit"/>
    <g transform="translate(0,10)" s:x="0" s:y="10" s:pid="in0" id="port_gen_logic[2].u_logic_bit~i_a">
      <text x="-3" y="-4" class="inputPortLabel cell_gen_logic[2].u_logic_bit">i_a</text>
    </g>
    <g transform="translate(0,30)" s:x="0" s:y="10" s:pid="in0" id="port_gen_logic[2].u_logic_bit~i_b">
      <text x="-3" y="-4" class="inputPortLabel cell_gen_logic[2].u_logic_bit">i_b</text>
    </g>
    <g transform="translate(0,50)" s:x="0" s:y="10" s:pid="in0" id="port_gen_logic[2].u_logic_bit~i_sel">
      <text x="-3" y="-4" class="inputPortLabel cell_gen_logic[2].u_logic_bit">i_sel</text>
    </g>
    <g transform="translate(30,10)" s:x="30" s:y="10" s:pid="out0" id="port_gen_logic[2].u_logic_bit~o_res">
      <text x="5" y="-4" style="fill:#000; stroke:none" class="cell_gen_logic[2].u_logic_bit">o_res</text>
    </g>
  </g>
  <g s:type="generic" transform="translate(434,1013.5)" s:width="30" s:height="40" id="cell_gen_logic[3].u_logic_bit">
    <text x="15" y="-4" class="nodelabel cell_gen_logic[3].u_logic_bit" s:attribute="ref">alu_logic_1bit</text>
    <rect width="30" height="60" s:generic="body" class="cell_gen_logic[3].u_logic_bit"/>
    <g transform="translate(0,10)" s:x="0" s:y="10" s:pid="in0" id="port_gen_logic[3].u_logic_bit~i_a">
      <text x="-3" y="-4" class="inputPortLabel cell_gen_logic[3].u_logic_bit">i_a</text>
    </g>
    <g transform="translate(0,30)" s:x="0" s:y="10" s:pid="in0" id="port_gen_logic[3].u_logic_bit~i_b">
      <text x="-3" y="-4" class="inputPortLabel cell_gen_logic[3].u_logic_bit">i_b</text>
    </g>
    <g transform="translate(0,50)" s:x="0" s:y="10" s:pid="in0" id="port_gen_logic[3].u_logic_bit~i_sel">
      <text x="-3" y="-4" class="inputPortLabel cell_gen_logic[3].u_logic_bit">i_sel</text>
    </g>
    <g transform="translate(30,10)" s:x="30" s:y="10" s:pid="out0" id="port_gen_logic[3].u_logic_bit~o_res">
      <text x="5" y="-4" style="fill:#000; stroke:none" class="cell_gen_logic[3].u_logic_bit">o_res</text>
    </g>
  </g>
  <g s:type="generic" transform="translate(434,1121.5)" s:width="30" s:height="40" id="cell_gen_logic[4].u_logic_bit">
    <text x="15" y="-4" class="nodelabel cell_gen_logic[4].u_logic_bit" s:attribute="ref">alu_logic_1bit</text>
    <rect width="30" height="60" s:generic="body" class="cell_gen_logic[4].u_logic_bit"/>
    <g transform="translate(0,10)" s:x="0" s:y="10" s:pid="in0" id="port_gen_logic[4].u_logic_bit~i_a">
      <text x="-3" y="-4" class="inputPortLabel cell_gen_logic[4].u_logic_bit">i_a</text>
    </g>
    <g transform="translate(0,30)" s:x="0" s:y="10" s:pid="in0" id="port_gen_logic[4].u_logic_bit~i_b">
      <text x="-3" y="-4" class="inputPortLabel cell_gen_logic[4].u_logic_bit">i_b</text>
    </g>
    <g transform="translate(0,50)" s:x="0" s:y="10" s:pid="in0" id="port_gen_logic[4].u_logic_bit~i_sel">
      <text x="-3" y="-4" class="inputPortLabel cell_gen_logic[4].u_logic_bit">i_sel</text>
    </g>
    <g transform="translate(30,10)" s:x="30" s:y="10" s:pid="out0" id="port_gen_logic[4].u_logic_bit~o_res">
      <text x="5" y="-4" style="fill:#000; stroke:none" class="cell_gen_logic[4].u_logic_bit">o_res</text>
    </g>
  </g>
  <g s:type="generic" transform="translate(434,1229.5)" s:width="30" s:height="40" id="cell_gen_logic[5].u_logic_bit">
    <text x="15" y="-4" class="nodelabel cell_gen_logic[5].u_logic_bit" s:attribute="ref">alu_logic_1bit</text>
    <rect width="30" height="60" s:generic="body" class="cell_gen_logic[5].u_logic_bit"/>
    <g transform="translate(0,10)" s:x="0" s:y="10" s:pid="in0" id="port_gen_logic[5].u_logic_bit~i_a">
      <text x="-3" y="-4" class="inputPortLabel cell_gen_logic[5].u_logic_bit">i_a</text>
    </g>
    <g transform="translate(0,30)" s:x="0" s:y="10" s:pid="in0" id="port_gen_logic[5].u_logic_bit~i_b">
      <text x="-3" y="-4" class="inputPortLabel cell_gen_logic[5].u_logic_bit">i_b</text>
    </g>
    <g transform="translate(0,50)" s:x="0" s:y="10" s:pid="in0" id="port_gen_logic[5].u_logic_bit~i_sel">
      <text x="-3" y="-4" class="inputPortLabel cell_gen_logic[5].u_logic_bit">i_sel</text>
    </g>
    <g transform="translate(30,10)" s:x="30" s:y="10" s:pid="out0" id="port_gen_logic[5].u_logic_bit~o_res">
      <text x="5" y="-4" style="fill:#000; stroke:none" class="cell_gen_logic[5].u_logic_bit">o_res</text>
    </g>
  </g>
  <g s:type="generic" transform="translate(434,1337.5)" s:width="30" s:height="40" id="cell_gen_logic[6].u_logic_bit">
    <text x="15" y="-4" class="nodelabel cell_gen_logic[6].u_logic_bit" s:attribute="ref">alu_logic_1bit</text>
    <rect width="30" height="60" s:generic="body" class="cell_gen_logic[6].u_logic_bit"/>
    <g transform="translate(0,10)" s:x="0" s:y="10" s:pid="in0" id="port_gen_logic[6].u_logic_bit~i_a">
      <text x="-3" y="-4" class="inputPortLabel cell_gen_logic[6].u_logic_bit">i_a</text>
    </g>
    <g transform="translate(0,30)" s:x="0" s:y="10" s:pid="in0" id="port_gen_logic[6].u_logic_bit~i_b">
      <text x="-3" y="-4" class="inputPortLabel cell_gen_logic[6].u_logic_bit">i_b</text>
    </g>
    <g transform="translate(0,50)" s:x="0" s:y="10" s:pid="in0" id="port_gen_logic[6].u_logic_bit~i_sel">
      <text x="-3" y="-4" class="inputPortLabel cell_gen_logic[6].u_logic_bit">i_sel</text>
    </g>
    <g transform="translate(30,10)" s:x="30" s:y="10" s:pid="out0" id="port_gen_logic[6].u_logic_bit~o_res">
      <text x="5" y="-4" style="fill:#000; stroke:none" class="cell_gen_logic[6].u_logic_bit">o_res</text>
    </g>
  </g>
  <g s:type="generic" transform="translate(434,1445.5)" s:width="30" s:height="40" id="cell_gen_logic[7].u_logic_bit">
    <text x="15" y="-4" class="nodelabel cell_gen_logic[7].u_logic_bit" s:attribute="ref">alu_logic_1bit</text>
    <rect width="30" height="60" s:generic="body" class="cell_gen_logic[7].u_logic_bit"/>
    <g transform="translate(0,10)" s:x="0" s:y="10" s:pid="in0" id="port_gen_logic[7].u_logic_bit~i_a">
      <text x="-3" y="-4" class="inputPortLabel cell_gen_logic[7].u_logic_bit">i_a</text>
    </g>
    <g transform="translate(0,30)" s:x="0" s:y="10" s:pid="in0" id="port_gen_logic[7].u_logic_bit~i_b">
      <text x="-3" y="-4" class="inputPortLabel cell_gen_logic[7].u_logic_bit">i_b</text>
    </g>
    <g transform="translate(0,50)" s:x="0" s:y="10" s:pid="in0" id="port_gen_logic[7].u_logic_bit~i_sel">
      <text x="-3" y="-4" class="inputPortLabel cell_gen_logic[7].u_logic_bit">i_sel</text>
    </g>
    <g transform="translate(30,10)" s:x="30" s:y="10" s:pid="out0" id="port_gen_logic[7].u_logic_bit~o_res">
      <text x="5" y="-4" style="fill:#000; stroke:none" class="cell_gen_logic[7].u_logic_bit">o_res</text>
    </g>
  </g>
  <g s:type="generic" transform="translate(434,1661.5)" s:width="30" s:height="40" id="cell_gen_logic[8].u_logic_bit">
    <text x="15" y="-4" class="nodelabel cell_gen_logic[8].u_logic_bit" s:attribute="ref">alu_logic_1bit</text>
    <rect width="30" height="60" s:generic="body" class="cell_gen_logic[8].u_logic_bit"/>
    <g transform="translate(0,10)" s:x="0" s:y="10" s:pid="in0" id="port_gen_logic[8].u_logic_bit~i_a">
      <text x="-3" y="-4" class="inputPortLabel cell_gen_logic[8].u_logic_bit">i_a</text>
    </g>
    <g transform="translate(0,30)" s:x="0" s:y="10" s:pid="in0" id="port_gen_logic[8].u_logic_bit~i_b">
      <text x="-3" y="-4" class="inputPortLabel cell_gen_logic[8].u_logic_bit">i_b</text>
    </g>
    <g transform="translate(0,50)" s:x="0" s:y="10" s:pid="in0" id="port_gen_logic[8].u_logic_bit~i_sel">
      <text x="-3" y="-4" class="inputPortLabel cell_gen_logic[8].u_logic_bit">i_sel</text>
    </g>
    <g transform="translate(30,10)" s:x="30" s:y="10" s:pid="out0" id="port_gen_logic[8].u_logic_bit~o_res">
      <text x="5" y="-4" style="fill:#000; stroke:none" class="cell_gen_logic[8].u_logic_bit">o_res</text>
    </g>
  </g>
  <g s:type="generic" transform="translate(434,1553.5)" s:width="30" s:height="40" id="cell_gen_logic[9].u_logic_bit">
    <text x="15" y="-4" class="nodelabel cell_gen_logic[9].u_logic_bit" s:attribute="ref">alu_logic_1bit</text>
    <rect width="30" height="60" s:generic="body" class="cell_gen_logic[9].u_logic_bit"/>
    <g transform="translate(0,10)" s:x="0" s:y="10" s:pid="in0" id="port_gen_logic[9].u_logic_bit~i_a">
      <text x="-3" y="-4" class="inputPortLabel cell_gen_logic[9].u_logic_bit">i_a</text>
    </g>
    <g transform="translate(0,30)" s:x="0" s:y="10" s:pid="in0" id="port_gen_logic[9].u_logic_bit~i_b">
      <text x="-3" y="-4" class="inputPortLabel cell_gen_logic[9].u_logic_bit">i_b</text>
    </g>
    <g transform="translate(0,50)" s:x="0" s:y="10" s:pid="in0" id="port_gen_logic[9].u_logic_bit~i_sel">
      <text x="-3" y="-4" class="inputPortLabel cell_gen_logic[9].u_logic_bit">i_sel</text>
    </g>
    <g transform="translate(30,10)" s:x="30" s:y="10" s:pid="out0" id="port_gen_logic[9].u_logic_bit~o_res">
      <text x="5" y="-4" style="fill:#000; stroke:none" class="cell_gen_logic[9].u_logic_bit">o_res</text>
    </g>
  </g>
  <g s:type="inputExt" transform="translate(12,160)" s:width="30" s:height="20" id="cell_i_a">
    <text x="15" y="-4" class="nodelabel cell_i_a" s:attribute="ref">i_a</text>
    <s:alias val="$_inputExt_"/>
    <path d="M0,0 L0,20 L15,20 L30,10 L15,0 Z" class="cell_i_a"/>
    <g s:x="28" s:y="10" s:pid="Y"/>
  </g>
  <g s:type="inputExt" transform="translate(12,1692)" s:width="30" s:height="20" id="cell_i_b">
    <text x="15" y="-4" class="nodelabel cell_i_b" s:attribute="ref">i_b</text>
    <s:alias val="$_inputExt_"/>
    <path d="M0,0 L0,20 L15,20 L30,10 L15,0 Z" class="cell_i_b"/>
    <g s:x="28" s:y="10" s:pid="Y"/>
  </g>
  <g s:type="inputExt" transform="translate(77,22)" s:width="30" s:height="20" id="cell_i_sel">
    <text x="15" y="-4" class="nodelabel cell_i_sel" s:attribute="ref">i_sel</text>
    <s:alias val="$_inputExt_"/>
    <path d="M0,0 L0,20 L15,20 L30,10 L15,0 Z" class="cell_i_sel"/>
    <g s:x="28" s:y="10" s:pid="Y"/>
  </g>
  <g s:type="outputExt" transform="translate(756,964)" s:width="30" s:height="20" id="cell_o_res">
    <text x="15" y="-4" class="nodelabel cell_o_res" s:attribute="ref">o_res</text>
    <s:alias val="$_outputExt_"/>
    <path d="M30,0 L30,20 L15,20 L0,10 L15,0 Z" class="cell_o_res"/>
    <g s:x="0" s:y="10" s:pid="A"/>
  </g>
  <g s:type="join" transform="translate(715,953.5)" s:width="4" s:height="40" id="cell_$join$,35,36,37,38,39,40,41,42,43,44,45,46,47,48,49,50,">
    <rect width="5" height="320" class="splitjoinBody" s:generic="body"/>
    <s:alias val="$_join_"/>
    <g s:x="5" s:y="20" s:pid="out"/>
    <g transform="translate(0,10)" s:x="0" s:y="10" s:pid="in0">
      <text x="-3" y="-4" class="inputPortLabel">0</text>
    </g>
    <g transform="translate(0,30)" s:x="0" s:y="10" s:pid="in0">
      <text x="-3" y="-4" class="inputPortLabel">1</text>
    </g>
    <g transform="translate(0,50)" s:x="0" s:y="10" s:pid="in0">
      <text x="-3" y="-4" class="inputPortLabel">2</text>
    </g>
    <g transform="translate(0,70)" s:x="0" s:y="10" s:pid="in0">
      <text x="-3" y="-4" class="inputPortLabel">3</text>
    </g>
    <g transform="translate(0,90)" s:x="0" s:y="10" s:pid="in0">
      <text x="-3" y="-4" class="inputPortLabel">4</text>
    </g>
    <g transform="translate(0,110)" s:x="0" s:y="10" s:pid="in0">
      <text x="-3" y="-4" class="inputPortLabel">5</text>
    </g>
    <g transform="translate(0,130)" s:x="0" s:y="10" s:pid="in0">
      <text x="-3" y="-4" class="inputPortLabel">6</text>
    </g>
    <g transform="translate(0,150)" s:x="0" s:y="10" s:pid="in0">
      <text x="-3" y="-4" class="inputPortLabel">7</text>
    </g>
    <g transform="translate(0,170)" s:x="0" s:y="10" s:pid="in0">
      <text x="-3" y="-4" class="inputPortLabel">8</text>
    </g>
    <g transform="translate(0,190)" s:x="0" s:y="10" s:pid="in0">
      <text x="-3" y="-4" class="inputPortLabel">9</text>
    </g>
    <g transform="translate(0,210)" s:x="0" s:y="10" s:pid="in0">
      <text x="-3" y="-4" class="inputPortLabel">10</text>
    </g>
    <g transform="translate(0,230)" s:x="0" s:y="10" s:pid="in0">
      <text x="-3" y="-4" class="inputPortLabel">11</text>
    </g>
    <g transform="translate(0,250)" s:x="0" s:y="10" s:pid="in0">
      <text x="-3" y="-4" class="inputPortLabel">12</text>
    </g>
    <g transform="translate(0,270)" s:x="0" s:y="10" s:pid="in0">
      <text x="-3" y="-4" class="inputPortLabel">13</text>
    </g>
    <g transform="translate(0,290)" s:x="0" s:y="10" s:pid="in0">
      <text x="-3" y="-4" class="inputPortLabel">14</text>
    </g>
    <g transform="translate(0,310)" s:x="0" s:y="10" s:pid="in0">
      <text x="-3" y="-4" class="inputPortLabel">15</text>
    </g>
  </g>
  <g s:type="split" transform="translate(95,217.5)" s:width="5" s:height="40" id="cell_$split$,2,3,4,5,6,7,8,9,10,11,12,13,14,15,16,17,">
    <rect width="5" height="320" class="splitjoinBody" s:generic="body"/>
    <s:alias val="$_split_"/>
    <g s:x="0" s:y="20" s:pid="in"/>
    <g transform="translate(4,10)" s:x="4" s:y="10" s:pid="out0">
      <text x="5" y="-4">0</text>
    </g>
    <g transform="translate(4,30)" s:x="4" s:y="10" s:pid="out0">
      <text x="5" y="-4">10</text>
    </g>
    <g transform="translate(4,50)" s:x="4" s:y="10" s:pid="out0">
      <text x="5" y="-4">11</text>
    </g>
    <g transform="translate(4,70)" s:x="4" s:y="10" s:pid="out0">
      <text x="5" y="-4">12</text>
    </g>
    <g transform="translate(4,90)" s:x="4" s:y="10" s:pid="out0">
      <text x="5" y="-4">13</text>
    </g>
    <g transform="translate(4,110)" s:x="4" s:y="10" s:pid="out0">
      <text x="5" y="-4">14</text>
    </g>
    <g transform="translate(4,130)" s:x="4" s:y="10" s:pid="out0">
      <text x="5" y="-4">15</text>
    </g>
    <g transform="translate(4,150)" s:x="4" s:y="10" s:pid="out0">
      <text x="5" y="-4">1</text>
    </g>
    <g transform="translate(4,170)" s:x="4" s:y="10" s:pid="out0">
      <text x="5" y="-4">2</text>
    </g>
    <g transform="translate(4,190)" s:x="4" s:y="10" s:pid="out0">
      <text x="5" y="-4">3</text>
    </g>
    <g transform="translate(4,210)" s:x="4" s:y="10" s:pid="out0">
      <text x="5" y="-4">4</text>
    </g>
    <g transform="translate(4,230)" s:x="4" s:y="10" s:pid="out0">
      <text x="5" y="-4">5</text>
    </g>
    <g transform="translate(4,250)" s:x="4" s:y="10" s:pid="out0">
      <text x="5" y="-4">6</text>
    </g>
    <g transform="translate(4,270)" s:x="4" s:y="10" s:pid="out0">
      <text x="5" y="-4">7</text>
    </g>
    <g transform="translate(4,290)" s:x="4" s:y="10" s:pid="out0">
      <text x="5" y="-4">8</text>
    </g>
    <g transform="translate(4,310)" s:x="4" s:y="10" s:pid="out0">
      <text x="5" y="-4">9</text>
    </g>
  </g>
  <g s:type="split" transform="translate(95,1714)" s:width="5" s:height="40" id="cell_$split$,18,19,20,21,22,23,24,25,26,27,28,29,30,31,32,33,">
    <rect width="5" height="320" class="splitjoinBody" s:generic="body"/>
    <s:alias val="$_split_"/>
    <g s:x="0" s:y="20" s:pid="in"/>
    <g transform="translate(4,10)" s:x="4" s:y="10" s:pid="out0">
      <text x="5" y="-4">0</text>
    </g>
    <g transform="translate(4,30)" s:x="4" s:y="10" s:pid="out0">
      <text x="5" y="-4">10</text>
    </g>
    <g transform="translate(4,50)" s:x="4" s:y="10" s:pid="out0">
      <text x="5" y="-4">11</text>
    </g>
    <g transform="translate(4,70)" s:x="4" s:y="10" s:pid="out0">
      <text x="5" y="-4">12</text>
    </g>
    <g transform="translate(4,90)" s:x="4" s:y="10" s:pid="out0">
      <text x="5" y="-4">13</text>
    </g>
    <g transform="translate(4,110)" s:x="4" s:y="10" s:pid="out0">
      <text x="5" y="-4">14</text>
    </g>
    <g transform="translate(4,130)" s:x="4" s:y="10" s:pid="out0">
      <text x="5" y="-4">15</text>
    </g>
    <g transform="translate(4,150)" s:x="4" s:y="10" s:pid="out0">
      <text x="5" y="-4">1</text>
    </g>
    <g transform="translate(4,170)" s:x="4" s:y="10" s:pid="out0">
      <text x="5" y="-4">2</text>
    </g>
    <g transform="translate(4,190)" s:x="4" s:y="10" s:pid="out0">
      <text x="5" y="-4">3</text>
    </g>
    <g transform="translate(4,210)" s:x="4" s:y="10" s:pid="out0">
      <text x="5" y="-4">4</text>
    </g>
    <g transform="translate(4,230)" s:x="4" s:y="10" s:pid="out0">
      <text x="5" y="-4">5</text>
    </g>
    <g transform="translate(4,250)" s:x="4" s:y="10" s:pid="out0">
      <text x="5" y="-4">6</text>
    </g>
    <g transform="translate(4,270)" s:x="4" s:y="10" s:pid="out0">
      <text x="5" y="-4">7</text>
    </g>
    <g transform="translate(4,290)" s:x="4" s:y="10" s:pid="out0">
      <text x="5" y="-4">8</text>
    </g>
    <g transform="translate(4,310)" s:x="4" s:y="10" s:pid="out0">
      <text x="5" y="-4">9</text>
    </g>
  </g>
  <line x1="99.5" x2="99.5" y1="227.5" y2="160" class="net_2"/>
  <line x1="99.5" x2="434" y1="160" y2="160" class="net_2"/>
  <line x1="99.5" x2="99.5" y1="1724" y2="1692" class="net_18"/>
  <line x1="99.5" x2="227" y1="1692" y2="1692" class="net_18"/>
  <line x1="227" x2="227" y1="1692" y2="180" class="net_18"/>
  <line x1="227" x2="434" y1="180" y2="180" class="net_18"/>
  <line x1="105" x2="387" y1="32" y2="32" class="net_34"/>
  <line x1="387" x2="387" y1="32" y2="200" class="net_34"/>
  <circle cx="387" cy="200" r="2" style="fill:#000" class="net_34"/>
  <line x1="387" x2="434" y1="200" y2="200" class="net_34"/>
  <line x1="105" x2="387" y1="32" y2="32" class="net_34"/>
  <line x1="387" x2="387" y1="32" y2="92" class="net_34"/>
  <circle cx="387" cy="92" r="2" style="fill:#000" class="net_34"/>
  <line x1="387" x2="428" y1="92" y2="92" class="net_34"/>
  <line x1="105" x2="387" y1="32" y2="32" class="net_34"/>
  <line x1="387" x2="387" y1="32" y2="308" class="net_34"/>
  <circle cx="387" cy="308" r="2" style="fill:#000" class="net_34"/>
  <line x1="387" x2="428" y1="308" y2="308" class="net_34"/>
  <line x1="105" x2="387" y1="32" y2="32" class="net_34"/>
  <line x1="387" x2="387" y1="32" y2="416" class="net_34"/>
  <circle cx="387" cy="416" r="2" style="fill:#000" class="net_34"/>
  <line x1="387" x2="428" y1="416" y2="416" class="net_34"/>
  <line x1="105" x2="387" y1="32" y2="32" class="net_34"/>
  <line x1="387" x2="387" y1="32" y2="524" class="net_34"/>
  <circle cx="387" cy="524" r="2" style="fill:#000" class="net_34"/>
  <line x1="387" x2="428" y1="524" y2="524" class="net_34"/>
  <line x1="105" x2="387" y1="32" y2="32" class="net_34"/>
  <line x1="387" x2="387" y1="32" y2="632" class="net_34"/>
  <circle cx="387" cy="632" r="2" style="fill:#000" class="net_34"/>
  <line x1="387" x2="428" y1="632" y2="632" class="net_34"/>
  <line x1="105" x2="387" y1="32" y2="32" class="net_34"/>
  <line x1="387" x2="387" y1="32" y2="740" class="net_34"/>
  <circle cx="387" cy="740" r="2" style="fill:#000" class="net_34"/>
  <line x1="387" x2="428" y1="740" y2="740" class="net_34"/>
  <line x1="105" x2="387" y1="32" y2="32" class="net_34"/>
  <line x1="387" x2="387" y1="32" y2="848" class="net_34"/>
  <circle cx="387" cy="848" r="2" style="fill:#000" class="net_34"/>
  <line x1="387" x2="434" y1="848" y2="848" class="net_34"/>
  <line x1="105" x2="387" y1="32" y2="32" class="net_34"/>
  <line x1="387" x2="387" y1="32" y2="956" class="net_34"/>
  <circle cx="387" cy="956" r="2" style="fill:#000" class="net_34"/>
  <line x1="387" x2="434" y1="956" y2="956" class="net_34"/>
  <line x1="105" x2="387" y1="32" y2="32" class="net_34"/>
  <line x1="387" x2="387" y1="32" y2="1064" class="net_34"/>
  <circle cx="387" cy="1064" r="2" style="fill:#000" class="net_34"/>
  <line x1="387" x2="434" y1="1064" y2="1064" class="net_34"/>
  <line x1="105" x2="387" y1="32" y2="32" class="net_34"/>
  <line x1="387" x2="387" y1="32" y2="1172" class="net_34"/>
  <circle cx="387" cy="1172" r="2" style="fill:#000" class="net_34"/>
  <line x1="387" x2="434" y1="1172" y2="1172" class="net_34"/>
  <line x1="105" x2="387" y1="32" y2="32" class="net_34"/>
  <line x1="387" x2="387" y1="32" y2="1280" class="net_34"/>
  <circle cx="387" cy="1280" r="2" style="fill:#000" class="net_34"/>
  <line x1="387" x2="434" y1="1280" y2="1280" class="net_34"/>
  <line x1="105" x2="387" y1="32" y2="32" class="net_34"/>
  <line x1="387" x2="387" y1="32" y2="1388" class="net_34"/>
  <circle cx="387" cy="1388" r="2" style="fill:#000" class="net_34"/>
  <line x1="387" x2="434" y1="1388" y2="1388" class="net_34"/>
  <line x1="105" x2="387" y1="32" y2="32" class="net_34"/>
  <line x1="387" x2="387" y1="32" y2="1496" class="net_34"/>
  <circle cx="387" cy="1496" r="2" style="fill:#000" class="net_34"/>
  <line x1="387" x2="434" y1="1496" y2="1496" class="net_34"/>
  <line x1="105" x2="387" y1="32" y2="32" class="net_34"/>
  <line x1="387" x2="387" y1="32" y2="1712" class="net_34"/>
  <line x1="387" x2="434" y1="1712" y2="1712" class="net_34"/>
  <line x1="105" x2="387" y1="32" y2="32" class="net_34"/>
  <line x1="387" x2="387" y1="32" y2="1604" class="net_34"/>
  <circle cx="387" cy="1604" r="2" style="fill:#000" class="net_34"/>
  <line x1="387" x2="434" y1="1604" y2="1604" class="net_34"/>
  <line x1="99.5" x2="99.5" y1="247.5" y2="52" class="net_12"/>
  <line x1="99.5" x2="428" y1="52" y2="52" class="net_12"/>
  <line x1="99.5" x2="99.5" y1="1744" y2="1682" class="net_28"/>
  <line x1="99.5" x2="127" y1="1682" y2="1682" class="net_28"/>
  <line x1="127" x2="127" y1="1682" y2="72" class="net_28"/>
  <line x1="127" x2="428" y1="72" y2="72" class="net_28"/>
  <line x1="100" x2="428" y1="268" y2="268" class="net_13"/>
  <line x1="100" x2="247" y1="1764.5" y2="1764.5" class="net_29"/>
  <line x1="247" x2="247" y1="1764.5" y2="288" class="net_29"/>
  <line x1="247" x2="428" y1="288" y2="288" class="net_29"/>
  <line x1="100" x2="237" y1="288" y2="288" class="net_14"/>
  <line x1="237" x2="237" y1="288" y2="376" class="net_14"/>
  <line x1="237" x2="428" y1="376" y2="376" class="net_14"/>
  <line x1="100" x2="257" y1="1784.5" y2="1784.5" class="net_30"/>
  <line x1="257" x2="257" y1="1784.5" y2="396" class="net_30"/>
  <line x1="257" x2="428" y1="396" y2="396" class="net_30"/>
  <line x1="100" x2="217" y1="308" y2="308" class="net_15"/>
  <line x1="217" x2="217" y1="308" y2="484" class="net_15"/>
  <line x1="217" x2="428" y1="484" y2="484" class="net_15"/>
  <line x1="100" x2="267" y1="1804.5" y2="1804.5" class="net_31"/>
  <line x1="267" x2="267" y1="1804.5" y2="504" class="net_31"/>
  <line x1="267" x2="428" y1="504" y2="504" class="net_31"/>
  <line x1="100" x2="207" y1="328" y2="328" class="net_16"/>
  <line x1="207" x2="207" y1="328" y2="592" class="net_16"/>
  <line x1="207" x2="428" y1="592" y2="592" class="net_16"/>
  <line x1="100" x2="277" y1="1824.5" y2="1824.5" class="net_32"/>
  <line x1="277" x2="277" y1="1824.5" y2="612" class="net_32"/>
  <line x1="277" x2="428" y1="612" y2="612" class="net_32"/>
  <line x1="100" x2="197" y1="348" y2="348" class="net_17"/>
  <line x1="197" x2="197" y1="348" y2="700" class="net_17"/>
  <line x1="197" x2="428" y1="700" y2="700" class="net_17"/>
  <line x1="100" x2="287" y1="1844.5" y2="1844.5" class="net_33"/>
  <line x1="287" x2="287" y1="1844.5" y2="720" class="net_33"/>
  <line x1="287" x2="428" y1="720" y2="720" class="net_33"/>
  <line x1="100" x2="187" y1="368" y2="368" class="net_3"/>
  <line x1="187" x2="187" y1="368" y2="808" class="net_3"/>
  <line x1="187" x2="434" y1="808" y2="808" class="net_3"/>
  <line x1="100" x2="297" y1="1864.5" y2="1864.5" class="net_19"/>
  <line x1="297" x2="297" y1="1864.5" y2="828" class="net_19"/>
  <line x1="297" x2="434" y1="828" y2="828" class="net_19"/>
  <line x1="100" x2="177" y1="388" y2="388" class="net_4"/>
  <line x1="177" x2="177" y1="388" y2="916" class="net_4"/>
  <line x1="177" x2="434" y1="916" y2="916" class="net_4"/>
  <line x1="100" x2="307" y1="1884.5" y2="1884.5" class="net_20"/>
  <line x1="307" x2="307" y1="1884.5" y2="936" class="net_20"/>
  <line x1="307" x2="434" y1="936" y2="936" class="net_20"/>
  <line x1="100" x2="167" y1="408" y2="408" class="net_5"/>
  <line x1="167" x2="167" y1="408" y2="1024" class="net_5"/>
  <line x1="167" x2="434" y1="1024" y2="1024" class="net_5"/>
  <line x1="100" x2="317" y1="1904.5" y2="1904.5" class="net_21"/>
  <line x1="317" x2="317" y1="1904.5" y2="1044" class="net_21"/>
  <line x1="317" x2="434" y1="1044" y2="1044" class="net_21"/>
  <line x1="100" x2="157" y1="428" y2="428" class="net_6"/>
  <line x1="157" x2="157" y1="428" y2="1132" class="net_6"/>
  <line x1="157" x2="434" y1="1132" y2="1132" class="net_6"/>
  <line x1="100" x2="327" y1="1924.5" y2="1924.5" class="net_22"/>
  <line x1="327" x2="327" y1="1924.5" y2="1152" class="net_22"/>
  <line x1="327" x2="434" y1="1152" y2="1152" class="net_22"/>
  <line x1="100" x2="147" y1="448" y2="448" class="net_7"/>
  <line x1="147" x2="147" y1="448" y2="1240" class="net_7"/>
  <line x1="147" x2="434" y1="1240" y2="1240" class="net_7"/>
  <line x1="100" x2="337" y1="1944.5" y2="1944.5" class="net_23"/>
  <line x1="337" x2="337" y1="1944.5" y2="1260" class="net_23"/>
  <line x1="337" x2="434" y1="1260" y2="1260" class="net_23"/>
  <line x1="100" x2="137" y1="468" y2="468" class="net_8"/>
  <line x1="137" x2="137" y1="468" y2="1348" class="net_8"/>
  <line x1="137" x2="434" y1="1348" y2="1348" class="net_8"/>
  <line x1="100" x2="347" y1="1964.5" y2="1964.5" class="net_24"/>
  <line x1="347" x2="347" y1="1964.5" y2="1368" class="net_24"/>
  <line x1="347" x2="434" y1="1368" y2="1368" class="net_24"/>
  <line x1="100" x2="117" y1="488" y2="488" class="net_9"/>
  <line x1="117" x2="117" y1="488" y2="1456" class="net_9"/>
  <line x1="117" x2="434" y1="1456" y2="1456" class="net_9"/>
  <line x1="100" x2="357" y1="1984.5" y2="1984.5" class="net_25"/>
  <line x1="357" x2="357" y1="1984.5" y2="1476" class="net_25"/>
  <line x1="357" x2="434" y1="1476" y2="1476" class="net_25"/>
  <line x1="99.5" x2="99.5" y1="508.5" y2="1672" class="net_10"/>
  <line x1="99.5" x2="434" y1="1672" y2="1672" class="net_10"/>
  <line x1="99.5" x2="99.5" y1="2005" y2="2054" class="net_26"/>
  <line x1="99.5" x2="377" y1="2054" y2="2054" class="net_26"/>
  <line x1="377" x2="377" y1="2054" y2="1692" class="net_26"/>
  <line x1="377" x2="434" y1="1692" y2="1692" class="net_26"/>
  <line x1="99.5" x2="99.5" y1="528.5" y2="1564" class="net_11"/>
  <line x1="99.5" x2="434" y1="1564" y2="1564" class="net_11"/>
  <line x1="99.5" x2="99.5" y1="2025" y2="2044" class="net_27"/>
  <line x1="99.5" x2="367" y1="2044" y2="2044" class="net_27"/>
  <line x1="367" x2="367" y1="2044" y2="1584" class="net_27"/>
  <line x1="367" x2="434" y1="1584" y2="1584" class="net_27"/>
  <line x1="721" x2="756" y1="974" y2="974" class="net_35,36,37,38,39,40,41,42,43,44,45,46,47,48,49,50"/>
  <line x1="465" x2="715.5" y1="160" y2="160" class="net_35"/>
  <line x1="715.5" x2="715.5" y1="160" y2="963.5" class="net_35"/>
  <line x1="465" x2="715.5" y1="808" y2="808" class="net_36"/>
  <line x1="715.5" x2="715.5" y1="808" y2="983.5" class="net_36"/>
  <line x1="465" x2="678" y1="916" y2="916" class="net_37"/>
  <line x1="678" x2="678" y1="916" y2="1004" class="net_37"/>
  <line x1="678" x2="715" y1="1004" y2="1004" class="net_37"/>
  <line x1="465" x2="715" y1="1024" y2="1024" class="net_38"/>
  <line x1="465" x2="608" y1="1132" y2="1132" class="net_39"/>
  <line x1="608" x2="608" y1="1132" y2="1044" class="net_39"/>
  <line x1="608" x2="715" y1="1044" y2="1044" class="net_39"/>
  <line x1="465" x2="618" y1="1240" y2="1240" class="net_40"/>
  <line x1="618" x2="618" y1="1240" y2="1064" class="net_40"/>
  <line x1="618" x2="715" y1="1064" y2="1064" class="net_40"/>
  <line x1="465" x2="638" y1="1348" y2="1348" class="net_41"/>
  <line x1="638" x2="638" y1="1348" y2="1084" class="net_41"/>
  <line x1="638" x2="715" y1="1084" y2="1084" class="net_41"/>
  <line x1="465" x2="658" y1="1456" y2="1456" class="net_42"/>
  <line x1="658" x2="658" y1="1456" y2="1104" class="net_42"/>
  <line x1="658" x2="715" y1="1104" y2="1104" class="net_42"/>
  <line x1="465" x2="678" y1="1672" y2="1672" class="net_43"/>
  <line x1="678" x2="678" y1="1672" y2="1124" class="net_43"/>
  <line x1="678" x2="715" y1="1124" y2="1124" class="net_43"/>
  <line x1="465" x2="688" y1="1564" y2="1564" class="net_44"/>
  <line x1="688" x2="688" y1="1564" y2="1144" class="net_44"/>
  <line x1="688" x2="715" y1="1144" y2="1144" class="net_44"/>
  <line x1="459" x2="698" y1="52" y2="52" class="net_45"/>
  <line x1="698" x2="698" y1="52" y2="1164" class="net_45"/>
  <line x1="698" x2="715" y1="1164" y2="1164" class="net_45"/>
  <line x1="459" x2="668" y1="268" y2="268" class="net_46"/>
  <line x1="668" x2="668" y1="268" y2="1184" class="net_46"/>
  <line x1="668" x2="715" y1="1184" y2="1184" class="net_46"/>
  <line x1="459" x2="648" y1="376" y2="376" class="net_47"/>
  <line x1="648" x2="648" y1="376" y2="1204" class="net_47"/>
  <line x1="648" x2="715" y1="1204" y2="1204" class="net_47"/>
  <line x1="459" x2="628" y1="484" y2="484" class="net_48"/>
  <line x1="628" x2="628" y1="484" y2="1224" class="net_48"/>
  <line x1="628" x2="715" y1="1224" y2="1224" class="net_48"/>
  <line x1="459" x2="588" y1="592" y2="592" class="net_49"/>
  <line x1="588" x2="588" y1="592" y2="1293.5" class="net_49"/>
  <line x1="588" x2="715.5" y1="1293.5" y2="1293.5" class="net_49"/>
  <line x1="715.5" x2="715.5" y1="1293.5" y2="1244.5" class="net_49"/>
  <line x1="459" x2="598" y1="700" y2="700" class="net_50"/>
  <line x1="598" x2="598" y1="700" y2="1283.5" class="net_50"/>
  <line x1="598" x2="715.5" y1="1283.5" y2="1283.5" class="net_50"/>
  <line x1="715.5" x2="715.5" y1="1283.5" y2="1264.5" class="net_50"/>
  <line x1="40" x2="95.5" y1="170" y2="170" class="net_2,3,4,5,6,7,8,9,10,11,12,13,14,15,16,17"/>
  <line x1="95.5" x2="95.5" y1="170" y2="237.5" class="net_2,3,4,5,6,7,8,9,10,11,12,13,14,15,16,17"/>
  <line x1="40" x2="95.5" y1="1702" y2="1702" class="net_18,19,20,21,22,23,24,25,26,27,28,29,30,31,32,33"/>
  <line x1="95.5" x2="95.5" y1="1702" y2="1734" class="net_18,19,20,21,22,23,24,25,26,27,28,29,30,31,32,33"/>
</svg>
