<svg xmlns="http://www.w3.org/2000/svg" xmlns:xlink="http://www.w3.org/1999/xlink" xmlns:s="https://github.com/nturley/netlistsvg" width="373" height="189">
  <style>svg {
    stroke:#000;
    fill:none;
  }
  text {
    fill:#000;
    stroke:none;
    font-size:10px;
    font-weight: bold;
    font-family: "Courier New", monospace;
  }
  .nodelabel {
    text-anchor: middle;
  }
  .inputPortLabel {
    text-anchor: end;
  }
  .splitjoinBody {
    fill:#000;
  }</style>
  <g s:type="generic" transform="translate(156,64)" s:width="30" s:height="40" id="cell_u_addr_path">
    <text x="15" y="-4" class="nodelabel cell_u_addr_path" s:attribute="ref">mem_interface_addr_nbit</text>
    <rect width="30" height="20" s:generic="body" class="cell_u_addr_path"/>
    <g transform="translate(0,10)" s:x="0" s:y="10" s:pid="in0" id="port_u_addr_path~i_addr">
      <text x="-3" y="-4" class="inputPortLabel cell_u_addr_path">i_addr</text>
    </g>
    <g transform="translate(30,10)" s:x="30" s:y="10" s:pid="out0" id="port_u_addr_path~o_addr">
      <text x="5" y="-4" style="fill:#000; stroke:none" class="cell_u_addr_path">o_addr</text>
    </g>
  </g>
  <g s:type="generic" transform="translate(156,154)" s:width="30" s:height="40" id="cell_u_rdata_path">
    <text x="15" y="-4" class="nodelabel cell_u_rdata_path" s:attribute="ref">mem_interface_rdata_nbit</text>
    <rect width="30" height="20" s:generic="body" class="cell_u_rdata_path"/>
    <g transform="translate(0,10)" s:x="0" s:y="10" s:pid="in0" id="port_u_rdata_path~i_rdata">
      <text x="-3" y="-4" class="inputPortLabel cell_u_rdata_path">i_rdata</text>
    </g>
    <g transform="translate(30,10)" s:x="30" s:y="10" s:pid="out0" id="port_u_rdata_path~o_rdata">
      <text x="5" y="-4" style="fill:#000; stroke:none" class="cell_u_rdata_path">o_rdata</text>
    </g>
  </g>
  <g s:type="generic" transform="translate(150,109)" s:width="30" s:height="40" id="cell_u_wdata_path">
    <text x="15" y="-4" class="nodelabel cell_u_wdata_path" s:attribute="ref">mem_interface_wdata_nbit</text>
    <rect width="30" height="20" s:generic="body" class="cell_u_wdata_path"/>
    <g transform="translate(0,10)" s:x="0" s:y="10" s:pid="in0" id="port_u_wdata_path~i_wdata">
      <text x="-3" y="-4" class="inputPortLabel cell_u_wdata_path">i_wdata</text>
    </g>
    <g transform="translate(30,10)" s:x="30" s:y="10" s:pid="out0" id="port_u_wdata_path~o_wdata">
      <text x="5" y="-4" style="fill:#000; stroke:none" class="cell_u_wdata_path">o_wdata</text>
    </g>
  </g>
  <g s:type="inputExt" transform="translate(12,64.5)" s:width="30" s:height="20" id="cell_i_alu_result">
    <text x="15" y="-4" class="nodelabel cell_i_alu_result" s:attribute="ref">i_alu_result</text>
    <s:alias val="$_inputExt_"/>
    <path d="M0,0 L0,20 L15,20 L30,10 L15,0 Z" class="cell_i_alu_result"/>
    <g s:x="28" s:y="10" s:pid="Y"/>
  </g>
  <g s:type="inputExt" transform="translate(12,109.5)" s:width="30" s:height="20" id="cell_i_rs2_data">
    <text x="15" y="-4" class="nodelabel cell_i_rs2_data" s:attribute="ref">i_rs2_data</text>
    <s:alias val="$_inputExt_"/>
    <path d="M0,0 L0,20 L15,20 L30,10 L15,0 Z" class="cell_i_rs2_data"/>
    <g s:x="28" s:y="10" s:pid="Y"/>
  </g>
  <g s:type="inputExt" transform="translate(12,22)" s:width="30" s:height="20" id="cell_i_mem_wen">
    <text x="15" y="-4" class="nodelabel cell_i_mem_wen" s:attribute="ref">i_mem_wen</text>
    <s:alias val="$_inputExt_"/>
    <path d="M0,0 L0,20 L15,20 L30,10 L15,0 Z" class="cell_i_mem_wen"/>
    <g s:x="28" s:y="10" s:pid="Y"/>
  </g>
  <g s:type="inputExt" transform="translate(12,154.5)" s:width="30" s:height="20" id="cell_i_dmem_data">
    <text x="15" y="-4" class="nodelabel cell_i_dmem_data" s:attribute="ref">i_dmem_data</text>
    <s:alias val="$_inputExt_"/>
    <path d="M0,0 L0,20 L15,20 L30,10 L15,0 Z" class="cell_i_dmem_data"/>
    <g s:x="28" s:y="10" s:pid="Y"/>
  </g>
  <g s:type="outputExt" transform="translate(259,64.5)" s:width="30" s:height="20" id="cell_o_addr_to_dmem">
    <text x="15" y="-4" class="nodelabel cell_o_addr_to_dmem" s:attribute="ref">o_addr_to_dmem</text>
    <s:alias val="$_outputExt_"/>
    <path d="M30,0 L30,20 L15,20 L0,10 L15,0 Z" class="cell_o_addr_to_dmem"/>
    <g s:x="0" s:y="10" s:pid="A"/>
  </g>
  <g s:type="outputExt" transform="translate(259,109.5)" s:width="30" s:height="20" id="cell_o_data_to_dmem">
    <text x="15" y="-4" class="nodelabel cell_o_data_to_dmem" s:attribute="ref">o_data_to_dmem</text>
    <s:alias val="$_outputExt_"/>
    <path d="M30,0 L30,20 L15,20 L0,10 L15,0 Z" class="cell_o_data_to_dmem"/>
    <g s:x="0" s:y="10" s:pid="A"/>
  </g>
  <g s:type="outputExt" transform="translate(101,22)" s:width="30" s:height="20" id="cell_o_dmem_wen">
    <text x="15" y="-4" class="nodelabel cell_o_dmem_wen" s:attribute="ref">o_dmem_wen</text>
    <s:alias val="$_outputExt_"/>
    <path d="M30,0 L30,20 L15,20 L0,10 L15,0 Z" class="cell_o_dmem_wen"/>
    <g s:x="0" s:y="10" s:pid="A"/>
  </g>
  <g s:type="outputExt" transform="translate(265,154.5)" s:width="30" s:height="20" id="cell_o_data_from_dmem">
    <text x="15" y="-4" class="nodelabel cell_o_data_from_dmem" s:attribute="ref">o_data_from_dmem</text>
    <s:alias val="$_outputExt_"/>
    <path d="M30,0 L30,20 L15,20 L0,10 L15,0 Z" class="cell_o_data_from_dmem"/>
    <g s:x="0" s:y="10" s:pid="A"/>
  </g>
  <line x1="40" x2="156" y1="74.5" y2="74.5" class="net_2,3,4,5,6,7,8,9,10,11,12,13,14,15,16,17"/>
  <line x1="40" x2="156" y1="164.5" y2="164.5" class="net_35,36,37,38,39,40,41,42,43,44,45,46,47,48,49,50"/>
  <line x1="40" x2="150" y1="119.5" y2="119.5" class="net_18,19,20,21,22,23,24,25,26,27,28,29,30,31,32,33"/>
  <line x1="187" x2="259" y1="74.5" y2="74.5" class="net_51,52,53,54,55,56,57,58,59,60,61,62,63,64,65,66"/>
  <line x1="181" x2="259" y1="119.5" y2="119.5" class="net_67,68,69,70,71,72,73,74,75,76,77,78,79,80,81,82"/>
  <line x1="40" x2="101" y1="32" y2="32" class="net_34"/>
  <line x1="187" x2="265" y1="164.5" y2="164.5" class="net_83,84,85,86,87,88,89,90,91,92,93,94,95,96,97,98"/>
</svg>
