<svg xmlns="http://www.w3.org/2000/svg" xmlns:xlink="http://www.w3.org/1999/xlink" xmlns:s="https://github.com/nturley/netlistsvg" width="634" height="1077">
  <style>svg {
    stroke:#000;
    fill:none;
  }
  text {
    fill:#000;
    stroke:none;
    font-size:10px;
    font-weight: bold;
    font-family: "Courier New", monospace;
  }
  .nodelabel {
    text-anchor: middle;
  }
  .inputPortLabel {
    text-anchor: end;
  }
  .splitjoinBody {
    fill:#000;
  }</style>
  <g s:type="generic" transform="translate(274,22)" s:width="30" s:height="40" id="cell_gen_rdata_bus[0].u_line">
    <text x="15" y="-4" class="nodelabel cell_gen_rdata_bus[0].u_line" s:attribute="ref">mem_interface_line_1bit</text>
    <rect width="30" height="20" s:generic="body" class="cell_gen_rdata_bus[0].u_line"/>
    <g transform="translate(0,10)" s:x="0" s:y="10" s:pid="in0" id="port_gen_rdata_bus[0].u_line~i_data">
      <text x="-3" y="-4" class="inputPortLabel cell_gen_rdata_bus[0].u_line">i_data</text>
    </g>
    <g transform="translate(30,10)" s:x="30" s:y="10" s:pid="out0" id="port_gen_rdata_bus[0].u_line~o_data">
      <text x="5" y="-4" style="fill:#000; stroke:none" class="cell_gen_rdata_bus[0].u_line">o_data</text>
    </g>
  </g>
  <g s:type="generic" transform="translate(268,702)" s:width="30" s:height="40" id="cell_gen_rdata_bus[10].u_line">
    <text x="15" y="-4" class="nodelabel cell_gen_rdata_bus[10].u_line" s:attribute="ref">mem_interface_line_1bit</text>
    <rect width="30" height="20" s:generic="body" class="cell_gen_rdata_bus[10].u_line"/>
    <g transform="translate(0,10)" s:x="0" s:y="10" s:pid="in0" id="port_gen_rdata_bus[10].u_line~i_data">
      <text x="-3" y="-4" class="inputPortLabel cell_gen_rdata_bus[10].u_line">i_data</text>
    </g>
    <g transform="translate(30,10)" s:x="30" s:y="10" s:pid="out0" id="port_gen_rdata_bus[10].u_line~o_data">
      <text x="5" y="-4" style="fill:#000; stroke:none" class="cell_gen_rdata_bus[10].u_line">o_data</text>
    </g>
  </g>
  <g s:type="generic" transform="translate(268,770)" s:width="30" s:height="40" id="cell_gen_rdata_bus[11].u_line">
    <text x="15" y="-4" class="nodelabel cell_gen_rdata_bus[11].u_line" s:attribute="ref">mem_interface_line_1bit</text>
    <rect width="30" height="20" s:generic="body" class="cell_gen_rdata_bus[11].u_line"/>
    <g transform="translate(0,10)" s:x="0" s:y="10" s:pid="in0" id="port_gen_rdata_bus[11].u_line~i_data">
      <text x="-3" y="-4" class="inputPortLabel cell_gen_rdata_bus[11].u_line">i_data</text>
    </g>
    <g transform="translate(30,10)" s:x="30" s:y="10" s:pid="out0" id="port_gen_rdata_bus[11].u_line~o_data">
      <text x="5" y="-4" style="fill:#000; stroke:none" class="cell_gen_rdata_bus[11].u_line">o_data</text>
    </g>
  </g>
  <g s:type="generic" transform="translate(268,838)" s:width="30" s:height="40" id="cell_gen_rdata_bus[12].u_line">
    <text x="15" y="-4" class="nodelabel cell_gen_rdata_bus[12].u_line" s:attribute="ref">mem_interface_line_1bit</text>
    <rect width="30" height="20" s:generic="body" class="cell_gen_rdata_bus[12].u_line"/>
    <g transform="translate(0,10)" s:x="0" s:y="10" s:pid="in0" id="port_gen_rdata_bus[12].u_line~i_data">
      <text x="-3" y="-4" class="inputPortLabel cell_gen_rdata_bus[12].u_line">i_data</text>
    </g>
    <g transform="translate(30,10)" s:x="30" s:y="10" s:pid="out0" id="port_gen_rdata_bus[12].u_line~o_data">
      <text x="5" y="-4" style="fill:#000; stroke:none" class="cell_gen_rdata_bus[12].u_line">o_data</text>
    </g>
  </g>
  <g s:type="generic" transform="translate(268,906)" s:width="30" s:height="40" id="cell_gen_rdata_bus[13].u_line">
    <text x="15" y="-4" class="nodelabel cell_gen_rdata_bus[13].u_line" s:attribute="ref">mem_interface_line_1bit</text>
    <rect width="30" height="20" s:generic="body" class="cell_gen_rdata_bus[13].u_line"/>
    <g transform="translate(0,10)" s:x="0" s:y="10" s:pid="in0" id="port_gen_rdata_bus[13].u_line~i_data">
      <text x="-3" y="-4" class="inputPortLabel cell_gen_rdata_bus[13].u_line">i_data</text>
    </g>
    <g transform="translate(30,10)" s:x="30" s:y="10" s:pid="out0" id="port_gen_rdata_bus[13].u_line~o_data">
      <text x="5" y="-4" style="fill:#000; stroke:none" class="cell_gen_rdata_bus[13].u_line">o_data</text>
    </g>
  </g>
  <g s:type="generic" transform="translate(268,974)" s:width="30" s:height="40" id="cell_gen_rdata_bus[14].u_line">
    <text x="15" y="-4" class="nodelabel cell_gen_rdata_bus[14].u_line" s:attribute="ref">mem_interface_line_1bit</text>
    <rect width="30" height="20" s:generic="body" class="cell_gen_rdata_bus[14].u_line"/>
    <g transform="translate(0,10)" s:x="0" s:y="10" s:pid="in0" id="port_gen_rdata_bus[14].u_line~i_data">
      <text x="-3" y="-4" class="inputPortLabel cell_gen_rdata_bus[14].u_line">i_data</text>
    </g>
    <g transform="translate(30,10)" s:x="30" s:y="10" s:pid="out0" id="port_gen_rdata_bus[14].u_line~o_data">
      <text x="5" y="-4" style="fill:#000; stroke:none" class="cell_gen_rdata_bus[14].u_line">o_data</text>
    </g>
  </g>
  <g s:type="generic" transform="translate(268,1042)" s:width="30" s:height="40" id="cell_gen_rdata_bus[15].u_line">
    <text x="15" y="-4" class="nodelabel cell_gen_rdata_bus[15].u_line" s:attribute="ref">mem_interface_line_1bit</text>
    <rect width="30" height="20" s:generic="body" class="cell_gen_rdata_bus[15].u_line"/>
    <g transform="translate(0,10)" s:x="0" s:y="10" s:pid="in0" id="port_gen_rdata_bus[15].u_line~i_data">
      <text x="-3" y="-4" class="inputPortLabel cell_gen_rdata_bus[15].u_line">i_data</text>
    </g>
    <g transform="translate(30,10)" s:x="30" s:y="10" s:pid="out0" id="port_gen_rdata_bus[15].u_line~o_data">
      <text x="5" y="-4" style="fill:#000; stroke:none" class="cell_gen_rdata_bus[15].u_line">o_data</text>
    </g>
  </g>
  <g s:type="generic" transform="translate(274,90)" s:width="30" s:height="40" id="cell_gen_rdata_bus[1].u_line">
    <text x="15" y="-4" class="nodelabel cell_gen_rdata_bus[1].u_line" s:attribute="ref">mem_interface_line_1bit</text>
    <rect width="30" height="20" s:generic="body" class="cell_gen_rdata_bus[1].u_line"/>
    <g transform="translate(0,10)" s:x="0" s:y="10" s:pid="in0" id="port_gen_rdata_bus[1].u_line~i_data">
      <text x="-3" y="-4" class="inputPortLabel cell_gen_rdata_bus[1].u_line">i_data</text>
    </g>
    <g transform="translate(30,10)" s:x="30" s:y="10" s:pid="out0" id="port_gen_rdata_bus[1].u_line~o_data">
      <text x="5" y="-4" style="fill:#000; stroke:none" class="cell_gen_rdata_bus[1].u_line">o_data</text>
    </g>
  </g>
  <g s:type="generic" transform="translate(274,158)" s:width="30" s:height="40" id="cell_gen_rdata_bus[2].u_line">
    <text x="15" y="-4" class="nodelabel cell_gen_rdata_bus[2].u_line" s:attribute="ref">mem_interface_line_1bit</text>
    <rect width="30" height="20" s:generic="body" class="cell_gen_rdata_bus[2].u_line"/>
    <g transform="translate(0,10)" s:x="0" s:y="10" s:pid="in0" id="port_gen_rdata_bus[2].u_line~i_data">
      <text x="-3" y="-4" class="inputPortLabel cell_gen_rdata_bus[2].u_line">i_data</text>
    </g>
    <g transform="translate(30,10)" s:x="30" s:y="10" s:pid="out0" id="port_gen_rdata_bus[2].u_line~o_data">
      <text x="5" y="-4" style="fill:#000; stroke:none" class="cell_gen_rdata_bus[2].u_line">o_data</text>
    </g>
  </g>
  <g s:type="generic" transform="translate(274,226)" s:width="30" s:height="40" id="cell_gen_rdata_bus[3].u_line">
    <text x="15" y="-4" class="nodelabel cell_gen_rdata_bus[3].u_line" s:attribute="ref">mem_interface_line_1bit</text>
    <rect width="30" height="20" s:generic="body" class="cell_gen_rdata_bus[3].u_line"/>
    <g transform="translate(0,10)" s:x="0" s:y="10" s:pid="in0" id="port_gen_rdata_bus[3].u_line~i_data">
      <text x="-3" y="-4" class="inputPortLabel cell_gen_rdata_bus[3].u_line">i_data</text>
    </g>
    <g transform="translate(30,10)" s:x="30" s:y="10" s:pid="out0" id="port_gen_rdata_bus[3].u_line~o_data">
      <text x="5" y="-4" style="fill:#000; stroke:none" class="cell_gen_rdata_bus[3].u_line">o_data</text>
    </g>
  </g>
  <g s:type="generic" transform="translate(274,294)" s:width="30" s:height="40" id="cell_gen_rdata_bus[4].u_line">
    <text x="15" y="-4" class="nodelabel cell_gen_rdata_bus[4].u_line" s:attribute="ref">mem_interface_line_1bit</text>
    <rect width="30" height="20" s:generic="body" class="cell_gen_rdata_bus[4].u_line"/>
    <g transform="translate(0,10)" s:x="0" s:y="10" s:pid="in0" id="port_gen_rdata_bus[4].u_line~i_data">
      <text x="-3" y="-4" class="inputPortLabel cell_gen_rdata_bus[4].u_line">i_data</text>
    </g>
    <g transform="translate(30,10)" s:x="30" s:y="10" s:pid="out0" id="port_gen_rdata_bus[4].u_line~o_data">
      <text x="5" y="-4" style="fill:#000; stroke:none" class="cell_gen_rdata_bus[4].u_line">o_data</text>
    </g>
  </g>
  <g s:type="generic" transform="translate(274,362)" s:width="30" s:height="40" id="cell_gen_rdata_bus[5].u_line">
    <text x="15" y="-4" class="nodelabel cell_gen_rdata_bus[5].u_line" s:attribute="ref">mem_interface_line_1bit</text>
    <rect width="30" height="20" s:generic="body" class="cell_gen_rdata_bus[5].u_line"/>
    <g transform="translate(0,10)" s:x="0" s:y="10" s:pid="in0" id="port_gen_rdata_bus[5].u_line~i_data">
      <text x="-3" y="-4" class="inputPortLabel cell_gen_rdata_bus[5].u_line">i_data</text>
    </g>
    <g transform="translate(30,10)" s:x="30" s:y="10" s:pid="out0" id="port_gen_rdata_bus[5].u_line~o_data">
      <text x="5" y="-4" style="fill:#000; stroke:none" class="cell_gen_rdata_bus[5].u_line">o_data</text>
    </g>
  </g>
  <g s:type="generic" transform="translate(274,430)" s:width="30" s:height="40" id="cell_gen_rdata_bus[6].u_line">
    <text x="15" y="-4" class="nodelabel cell_gen_rdata_bus[6].u_line" s:attribute="ref">mem_interface_line_1bit</text>
    <rect width="30" height="20" s:generic="body" class="cell_gen_rdata_bus[6].u_line"/>
    <g transform="translate(0,10)" s:x="0" s:y="10" s:pid="in0" id="port_gen_rdata_bus[6].u_line~i_data">
      <text x="-3" y="-4" class="inputPortLabel cell_gen_rdata_bus[6].u_line">i_data</text>
    </g>
    <g transform="translate(30,10)" s:x="30" s:y="10" s:pid="out0" id="port_gen_rdata_bus[6].u_line~o_data">
      <text x="5" y="-4" style="fill:#000; stroke:none" class="cell_gen_rdata_bus[6].u_line">o_data</text>
    </g>
  </g>
  <g s:type="generic" transform="translate(274,498)" s:width="30" s:height="40" id="cell_gen_rdata_bus[7].u_line">
    <text x="15" y="-4" class="nodelabel cell_gen_rdata_bus[7].u_line" s:attribute="ref">mem_interface_line_1bit</text>
    <rect width="30" height="20" s:generic="body" class="cell_gen_rdata_bus[7].u_line"/>
    <g transform="translate(0,10)" s:x="0" s:y="10" s:pid="in0" id="port_gen_rdata_bus[7].u_line~i_data">
      <text x="-3" y="-4" class="inputPortLabel cell_gen_rdata_bus[7].u_line">i_data</text>
    </g>
    <g transform="translate(30,10)" s:x="30" s:y="10" s:pid="out0" id="port_gen_rdata_bus[7].u_line~o_data">
      <text x="5" y="-4" style="fill:#000; stroke:none" class="cell_gen_rdata_bus[7].u_line">o_data</text>
    </g>
  </g>
  <g s:type="generic" transform="translate(274,566)" s:width="30" s:height="40" id="cell_gen_rdata_bus[8].u_line">
    <text x="15" y="-4" class="nodelabel cell_gen_rdata_bus[8].u_line" s:attribute="ref">mem_interface_line_1bit</text>
    <rect width="30" height="20" s:generic="body" class="cell_gen_rdata_bus[8].u_line"/>
    <g transform="translate(0,10)" s:x="0" s:y="10" s:pid="in0" id="port_gen_rdata_bus[8].u_line~i_data">
      <text x="-3" y="-4" class="inputPortLabel cell_gen_rdata_bus[8].u_line">i_data</text>
    </g>
    <g transform="translate(30,10)" s:x="30" s:y="10" s:pid="out0" id="port_gen_rdata_bus[8].u_line~o_data">
      <text x="5" y="-4" style="fill:#000; stroke:none" class="cell_gen_rdata_bus[8].u_line">o_data</text>
    </g>
  </g>
  <g s:type="generic" transform="translate(274,634)" s:width="30" s:height="40" id="cell_gen_rdata_bus[9].u_line">
    <text x="15" y="-4" class="nodelabel cell_gen_rdata_bus[9].u_line" s:attribute="ref">mem_interface_line_1bit</text>
    <rect width="30" height="20" s:generic="body" class="cell_gen_rdata_bus[9].u_line"/>
    <g transform="translate(0,10)" s:x="0" s:y="10" s:pid="in0" id="port_gen_rdata_bus[9].u_line~i_data">
      <text x="-3" y="-4" class="inputPortLabel cell_gen_rdata_bus[9].u_line">i_data</text>
    </g>
    <g transform="translate(30,10)" s:x="30" s:y="10" s:pid="out0" id="port_gen_rdata_bus[9].u_line~o_data">
      <text x="5" y="-4" style="fill:#000; stroke:none" class="cell_gen_rdata_bus[9].u_line">o_data</text>
    </g>
  </g>
  <g s:type="inputExt" transform="translate(12,206)" s:width="30" s:height="20" id="cell_i_rdata">
    <text x="15" y="-4" class="nodelabel cell_i_rdata" s:attribute="ref">i_rdata</text>
    <s:alias val="$_inputExt_"/>
    <path d="M0,0 L0,20 L15,20 L30,10 L15,0 Z" class="cell_i_rdata"/>
    <g s:x="28" s:y="10" s:pid="Y"/>
  </g>
  <g s:type="outputExt" transform="translate(580,656.5)" s:width="30" s:height="20" id="cell_o_rdata">
    <text x="15" y="-4" class="nodelabel cell_o_rdata" s:attribute="ref">o_rdata</text>
    <s:alias val="$_outputExt_"/>
    <path d="M30,0 L30,20 L15,20 L0,10 L15,0 Z" class="cell_o_rdata"/>
    <g s:x="0" s:y="10" s:pid="A"/>
  </g>
  <g s:type="join" transform="translate(539,646)" s:width="4" s:height="40" id="cell_$join$,18,19,20,21,22,23,24,25,26,27,28,29,30,31,32,33,">
    <rect width="5" height="320" class="splitjoinBody" s:generic="body"/>
    <s:alias val="$_join_"/>
    <g s:x="5" s:y="20" s:pid="out"/>
    <g transform="translate(0,10)" s:x="0" s:y="10" s:pid="in0">
      <text x="-3" y="-4" class="inputPortLabel">0</text>
    </g>
    <g transform="translate(0,30)" s:x="0" s:y="10" s:pid="in0">
      <text x="-3" y="-4" class="inputPortLabel">1</text>
    </g>
    <g transform="translate(0,50)" s:x="0" s:y="10" s:pid="in0">
      <text x="-3" y="-4" class="inputPortLabel">2</text>
    </g>
    <g transform="translate(0,70)" s:x="0" s:y="10" s:pid="in0">
      <text x="-3" y="-4" class="inputPortLabel">3</text>
    </g>
    <g transform="translate(0,90)" s:x="0" s:y="10" s:pid="in0">
      <text x="-3" y="-4" class="inputPortLabel">4</text>
    </g>
    <g transform="translate(0,110)" s:x="0" s:y="10" s:pid="in0">
      <text x="-3" y="-4" class="inputPortLabel">5</text>
    </g>
    <g transform="translate(0,130)" s:x="0" s:y="10" s:pid="in0">
      <text x="-3" y="-4" class="inputPortLabel">6</text>
    </g>
    <g transform="translate(0,150)" s:x="0" s:y="10" s:pid="in0">
      <text x="-3" y="-4" class="inputPortLabel">7</text>
    </g>
    <g transform="translate(0,170)" s:x="0" s:y="10" s:pid="in0">
      <text x="-3" y="-4" class="inputPortLabel">8</text>
    </g>
    <g transform="translate(0,190)" s:x="0" s:y="10" s:pid="in0">
      <text x="-3" y="-4" class="inputPortLabel">9</text>
    </g>
    <g transform="translate(0,210)" s:x="0" s:y="10" s:pid="in0">
      <text x="-3" y="-4" class="inputPortLabel">10</text>
    </g>
    <g transform="translate(0,230)" s:x="0" s:y="10" s:pid="in0">
      <text x="-3" y="-4" class="inputPortLabel">11</text>
    </g>
    <g transform="translate(0,250)" s:x="0" s:y="10" s:pid="in0">
      <text x="-3" y="-4" class="inputPortLabel">12</text>
    </g>
    <g transform="translate(0,270)" s:x="0" s:y="10" s:pid="in0">
      <text x="-3" y="-4" class="inputPortLabel">13</text>
    </g>
    <g transform="translate(0,290)" s:x="0" s:y="10" s:pid="in0">
      <text x="-3" y="-4" class="inputPortLabel">14</text>
    </g>
    <g transform="translate(0,310)" s:x="0" s:y="10" s:pid="in0">
      <text x="-3" y="-4" class="inputPortLabel">15</text>
    </g>
  </g>
  <g s:type="split" transform="translate(89,238)" s:width="5" s:height="40" id="cell_$split$,2,3,4,5,6,7,8,9,10,11,12,13,14,15,16,17,">
    <rect width="5" height="320" class="splitjoinBody" s:generic="body"/>
    <s:alias val="$_split_"/>
    <g s:x="0" s:y="20" s:pid="in"/>
    <g transform="translate(4,10)" s:x="4" s:y="10" s:pid="out0">
      <text x="5" y="-4">0</text>
    </g>
    <g transform="translate(4,30)" s:x="4" s:y="10" s:pid="out0">
      <text x="5" y="-4">10</text>
    </g>
    <g transform="translate(4,50)" s:x="4" s:y="10" s:pid="out0">
      <text x="5" y="-4">11</text>
    </g>
    <g transform="translate(4,70)" s:x="4" s:y="10" s:pid="out0">
      <text x="5" y="-4">12</text>
    </g>
    <g transform="translate(4,90)" s:x="4" s:y="10" s:pid="out0">
      <text x="5" y="-4">13</text>
    </g>
    <g transform="translate(4,110)" s:x="4" s:y="10" s:pid="out0">
      <text x="5" y="-4">14</text>
    </g>
    <g transform="translate(4,130)" s:x="4" s:y="10" s:pid="out0">
      <text x="5" y="-4">15</text>
    </g>
    <g transform="translate(4,150)" s:x="4" s:y="10" s:pid="out0">
      <text x="5" y="-4">1</text>
    </g>
    <g transform="translate(4,170)" s:x="4" s:y="10" s:pid="out0">
      <text x="5" y="-4">2</text>
    </g>
    <g transform="translate(4,190)" s:x="4" s:y="10" s:pid="out0">
      <text x="5" y="-4">3</text>
    </g>
    <g transform="translate(4,210)" s:x="4" s:y="10" s:pid="out0">
      <text x="5" y="-4">4</text>
    </g>
    <g transform="translate(4,230)" s:x="4" s:y="10" s:pid="out0">
      <text x="5" y="-4">5</text>
    </g>
    <g transform="translate(4,250)" s:x="4" s:y="10" s:pid="out0">
      <text x="5" y="-4">6</text>
    </g>
    <g transform="translate(4,270)" s:x="4" s:y="10" s:pid="out0">
      <text x="5" y="-4">7</text>
    </g>
    <g transform="translate(4,290)" s:x="4" s:y="10" s:pid="out0">
      <text x="5" y="-4">8</text>
    </g>
    <g transform="translate(4,310)" s:x="4" s:y="10" s:pid="out0">
      <text x="5" y="-4">9</text>
    </g>
  </g>
  <line x1="93.5" x2="93.5" y1="248" y2="32.5" class="net_2"/>
  <line x1="93.5" x2="274" y1="32.5" y2="32.5" class="net_2"/>
  <line x1="93.5" x2="93.5" y1="268" y2="226" class="net_12"/>
  <line x1="93.5" x2="221" y1="226" y2="226" class="net_12"/>
  <line x1="221" x2="221" y1="226" y2="712.5" class="net_12"/>
  <line x1="221" x2="268" y1="712.5" y2="712.5" class="net_12"/>
  <line x1="94" x2="201" y1="288.5" y2="288.5" class="net_13"/>
  <line x1="201" x2="201" y1="288.5" y2="780.5" class="net_13"/>
  <line x1="201" x2="268" y1="780.5" y2="780.5" class="net_13"/>
  <line x1="94" x2="181" y1="308.5" y2="308.5" class="net_14"/>
  <line x1="181" x2="181" y1="308.5" y2="848.5" class="net_14"/>
  <line x1="181" x2="268" y1="848.5" y2="848.5" class="net_14"/>
  <line x1="94" x2="161" y1="328.5" y2="328.5" class="net_15"/>
  <line x1="161" x2="161" y1="328.5" y2="916.5" class="net_15"/>
  <line x1="161" x2="268" y1="916.5" y2="916.5" class="net_15"/>
  <line x1="94" x2="141" y1="348.5" y2="348.5" class="net_16"/>
  <line x1="141" x2="141" y1="348.5" y2="984.5" class="net_16"/>
  <line x1="141" x2="268" y1="984.5" y2="984.5" class="net_16"/>
  <line x1="94" x2="111" y1="368.5" y2="368.5" class="net_17"/>
  <line x1="111" x2="111" y1="368.5" y2="1052.5" class="net_17"/>
  <line x1="111" x2="268" y1="1052.5" y2="1052.5" class="net_17"/>
  <line x1="94" x2="121" y1="388.5" y2="388.5" class="net_3"/>
  <line x1="121" x2="121" y1="388.5" y2="100.5" class="net_3"/>
  <line x1="121" x2="274" y1="100.5" y2="100.5" class="net_3"/>
  <line x1="94" x2="131" y1="408.5" y2="408.5" class="net_4"/>
  <line x1="131" x2="131" y1="408.5" y2="168.5" class="net_4"/>
  <line x1="131" x2="274" y1="168.5" y2="168.5" class="net_4"/>
  <line x1="94" x2="151" y1="428.5" y2="428.5" class="net_5"/>
  <line x1="151" x2="151" y1="428.5" y2="236.5" class="net_5"/>
  <line x1="151" x2="274" y1="236.5" y2="236.5" class="net_5"/>
  <line x1="94" x2="171" y1="448.5" y2="448.5" class="net_6"/>
  <line x1="171" x2="171" y1="448.5" y2="304.5" class="net_6"/>
  <line x1="171" x2="274" y1="304.5" y2="304.5" class="net_6"/>
  <line x1="94" x2="191" y1="468.5" y2="468.5" class="net_7"/>
  <line x1="191" x2="191" y1="468.5" y2="372.5" class="net_7"/>
  <line x1="191" x2="274" y1="372.5" y2="372.5" class="net_7"/>
  <line x1="94" x2="211" y1="488.5" y2="488.5" class="net_8"/>
  <line x1="211" x2="211" y1="488.5" y2="440.5" class="net_8"/>
  <line x1="211" x2="274" y1="440.5" y2="440.5" class="net_8"/>
  <line x1="94" x2="274" y1="508.5" y2="508.5" class="net_9"/>
  <line x1="93.5" x2="93.5" y1="529" y2="576.5" class="net_10"/>
  <line x1="93.5" x2="274" y1="576.5" y2="576.5" class="net_10"/>
  <line x1="93.5" x2="93.5" y1="549" y2="644.5" class="net_11"/>
  <line x1="93.5" x2="274" y1="644.5" y2="644.5" class="net_11"/>
  <line x1="545" x2="580" y1="666.5" y2="666.5" class="net_18,19,20,21,22,23,24,25,26,27,28,29,30,31,32,33"/>
  <line x1="305" x2="539.5" y1="32.5" y2="32.5" class="net_18"/>
  <line x1="539.5" x2="539.5" y1="32.5" y2="656" class="net_18"/>
  <line x1="305" x2="539.5" y1="100.5" y2="100.5" class="net_19"/>
  <line x1="539.5" x2="539.5" y1="100.5" y2="676" class="net_19"/>
  <line x1="305" x2="522" y1="168.5" y2="168.5" class="net_20"/>
  <line x1="522" x2="522" y1="168.5" y2="696.5" class="net_20"/>
  <line x1="522" x2="539" y1="696.5" y2="696.5" class="net_20"/>
  <line x1="305" x2="512" y1="236.5" y2="236.5" class="net_21"/>
  <line x1="512" x2="512" y1="236.5" y2="716.5" class="net_21"/>
  <line x1="512" x2="539" y1="716.5" y2="716.5" class="net_21"/>
  <line x1="305" x2="502" y1="304.5" y2="304.5" class="net_22"/>
  <line x1="502" x2="502" y1="304.5" y2="736.5" class="net_22"/>
  <line x1="502" x2="539" y1="736.5" y2="736.5" class="net_22"/>
  <line x1="305" x2="492" y1="372.5" y2="372.5" class="net_23"/>
  <line x1="492" x2="492" y1="372.5" y2="756.5" class="net_23"/>
  <line x1="492" x2="539" y1="756.5" y2="756.5" class="net_23"/>
  <line x1="305" x2="482" y1="440.5" y2="440.5" class="net_24"/>
  <line x1="482" x2="482" y1="440.5" y2="776.5" class="net_24"/>
  <line x1="482" x2="539" y1="776.5" y2="776.5" class="net_24"/>
  <line x1="305" x2="472" y1="508.5" y2="508.5" class="net_25"/>
  <line x1="472" x2="472" y1="508.5" y2="796.5" class="net_25"/>
  <line x1="472" x2="539" y1="796.5" y2="796.5" class="net_25"/>
  <line x1="305" x2="462" y1="576.5" y2="576.5" class="net_26"/>
  <line x1="462" x2="462" y1="576.5" y2="816.5" class="net_26"/>
  <line x1="462" x2="539" y1="816.5" y2="816.5" class="net_26"/>
  <line x1="305" x2="452" y1="644.5" y2="644.5" class="net_27"/>
  <line x1="452" x2="452" y1="644.5" y2="836.5" class="net_27"/>
  <line x1="452" x2="539" y1="836.5" y2="836.5" class="net_27"/>
  <line x1="299" x2="442" y1="712.5" y2="712.5" class="net_28"/>
  <line x1="442" x2="442" y1="712.5" y2="856.5" class="net_28"/>
  <line x1="442" x2="539" y1="856.5" y2="856.5" class="net_28"/>
  <line x1="299" x2="432" y1="780.5" y2="780.5" class="net_29"/>
  <line x1="432" x2="432" y1="780.5" y2="876.5" class="net_29"/>
  <line x1="432" x2="539" y1="876.5" y2="876.5" class="net_29"/>
  <line x1="299" x2="422" y1="848.5" y2="848.5" class="net_30"/>
  <line x1="422" x2="422" y1="848.5" y2="896.5" class="net_30"/>
  <line x1="422" x2="539" y1="896.5" y2="896.5" class="net_30"/>
  <line x1="299" x2="539" y1="916.5" y2="916.5" class="net_31"/>
  <line x1="299" x2="539.5" y1="984.5" y2="984.5" class="net_32"/>
  <line x1="539.5" x2="539.5" y1="984.5" y2="937" class="net_32"/>
  <line x1="299" x2="539.5" y1="1052.5" y2="1052.5" class="net_33"/>
  <line x1="539.5" x2="539.5" y1="1052.5" y2="957" class="net_33"/>
  <line x1="40" x2="89.5" y1="216" y2="216" class="net_2,3,4,5,6,7,8,9,10,11,12,13,14,15,16,17"/>
  <line x1="89.5" x2="89.5" y1="216" y2="258" class="net_2,3,4,5,6,7,8,9,10,11,12,13,14,15,16,17"/>
</svg>
