<svg xmlns="http://www.w3.org/2000/svg" xmlns:xlink="http://www.w3.org/1999/xlink" xmlns:s="https://github.com/nturley/netlistsvg" width="599" height="407.5">
  <style>svg {
    stroke:#000;
    fill:none;
  }
  text {
    fill:#000;
    stroke:none;
    font-size:10px;
    font-weight: bold;
    font-family: "Courier New", monospace;
  }
  .nodelabel {
    text-anchor: middle;
  }
  .inputPortLabel {
    text-anchor: end;
  }
  .splitjoinBody {
    fill:#000;
  }</style>
  <g s:type="generic" transform="translate(258,22)" s:width="30" s:height="40" id="cell_gen_flag_bits[0].u_flag_bit">
    <text x="15" y="-4" class="nodelabel cell_gen_flag_bits[0].u_flag_bit" s:attribute="ref">flag_reg_bit</text>
    <rect width="30" height="80" s:generic="body" class="cell_gen_flag_bits[0].u_flag_bit"/>
    <g transform="translate(0,10)" s:x="0" s:y="10" s:pid="in0" id="port_gen_flag_bits[0].u_flag_bit~i_clk">
      <text x="-3" y="-4" class="inputPortLabel cell_gen_flag_bits[0].u_flag_bit">i_clk</text>
    </g>
    <g transform="translate(0,30)" s:x="0" s:y="10" s:pid="in0" id="port_gen_flag_bits[0].u_flag_bit~i_d">
      <text x="-3" y="-4" class="inputPortLabel cell_gen_flag_bits[0].u_flag_bit">i_d</text>
    </g>
    <g transform="translate(0,50)" s:x="0" s:y="10" s:pid="in0" id="port_gen_flag_bits[0].u_flag_bit~i_rst_n">
      <text x="-3" y="-4" class="inputPortLabel cell_gen_flag_bits[0].u_flag_bit">i_rst_n</text>
    </g>
    <g transform="translate(0,70)" s:x="0" s:y="10" s:pid="in0" id="port_gen_flag_bits[0].u_flag_bit~i_wen">
      <text x="-3" y="-4" class="inputPortLabel cell_gen_flag_bits[0].u_flag_bit">i_wen</text>
    </g>
    <g transform="translate(30,10)" s:x="30" s:y="10" s:pid="out0" id="port_gen_flag_bits[0].u_flag_bit~o_q">
      <text x="5" y="-4" style="fill:#000; stroke:none" class="cell_gen_flag_bits[0].u_flag_bit">o_q</text>
    </g>
  </g>
  <g s:type="generic" transform="translate(258,150)" s:width="30" s:height="40" id="cell_gen_flag_bits[1].u_flag_bit">
    <text x="15" y="-4" class="nodelabel cell_gen_flag_bits[1].u_flag_bit" s:attribute="ref">flag_reg_bit</text>
    <rect width="30" height="80" s:generic="body" class="cell_gen_flag_bits[1].u_flag_bit"/>
    <g transform="translate(0,10)" s:x="0" s:y="10" s:pid="in0" id="port_gen_flag_bits[1].u_flag_bit~i_clk">
      <text x="-3" y="-4" class="inputPortLabel cell_gen_flag_bits[1].u_flag_bit">i_clk</text>
    </g>
    <g transform="translate(0,30)" s:x="0" s:y="10" s:pid="in0" id="port_gen_flag_bits[1].u_flag_bit~i_d">
      <text x="-3" y="-4" class="inputPortLabel cell_gen_flag_bits[1].u_flag_bit">i_d</text>
    </g>
    <g transform="translate(0,50)" s:x="0" s:y="10" s:pid="in0" id="port_gen_flag_bits[1].u_flag_bit~i_rst_n">
      <text x="-3" y="-4" class="inputPortLabel cell_gen_flag_bits[1].u_flag_bit">i_rst_n</text>
    </g>
    <g transform="translate(0,70)" s:x="0" s:y="10" s:pid="in0" id="port_gen_flag_bits[1].u_flag_bit~i_wen">
      <text x="-3" y="-4" class="inputPortLabel cell_gen_flag_bits[1].u_flag_bit">i_wen</text>
    </g>
    <g transform="translate(30,10)" s:x="30" s:y="10" s:pid="out0" id="port_gen_flag_bits[1].u_flag_bit~o_q">
      <text x="5" y="-4" style="fill:#000; stroke:none" class="cell_gen_flag_bits[1].u_flag_bit">o_q</text>
    </g>
  </g>
  <g s:type="generic" transform="translate(258,278)" s:width="30" s:height="40" id="cell_gen_flag_bits[2].u_flag_bit">
    <text x="15" y="-4" class="nodelabel cell_gen_flag_bits[2].u_flag_bit" s:attribute="ref">flag_reg_bit</text>
    <rect width="30" height="80" s:generic="body" class="cell_gen_flag_bits[2].u_flag_bit"/>
    <g transform="translate(0,10)" s:x="0" s:y="10" s:pid="in0" id="port_gen_flag_bits[2].u_flag_bit~i_clk">
      <text x="-3" y="-4" class="inputPortLabel cell_gen_flag_bits[2].u_flag_bit">i_clk</text>
    </g>
    <g transform="translate(0,30)" s:x="0" s:y="10" s:pid="in0" id="port_gen_flag_bits[2].u_flag_bit~i_d">
      <text x="-3" y="-4" class="inputPortLabel cell_gen_flag_bits[2].u_flag_bit">i_d</text>
    </g>
    <g transform="translate(0,50)" s:x="0" s:y="10" s:pid="in0" id="port_gen_flag_bits[2].u_flag_bit~i_rst_n">
      <text x="-3" y="-4" class="inputPortLabel cell_gen_flag_bits[2].u_flag_bit">i_rst_n</text>
    </g>
    <g transform="translate(0,70)" s:x="0" s:y="10" s:pid="in0" id="port_gen_flag_bits[2].u_flag_bit~i_wen">
      <text x="-3" y="-4" class="inputPortLabel cell_gen_flag_bits[2].u_flag_bit">i_wen</text>
    </g>
    <g transform="translate(30,10)" s:x="30" s:y="10" s:pid="out0" id="port_gen_flag_bits[2].u_flag_bit~o_q">
      <text x="5" y="-4" style="fill:#000; stroke:none" class="cell_gen_flag_bits[2].u_flag_bit">o_q</text>
    </g>
  </g>
  <g s:type="inputExt" transform="translate(113,150.5)" s:width="30" s:height="20" id="cell_i_clk">
    <text x="15" y="-4" class="nodelabel cell_i_clk" s:attribute="ref">i_clk</text>
    <s:alias val="$_inputExt_"/>
    <path d="M0,0 L0,20 L15,20 L30,10 L15,0 Z" class="cell_i_clk"/>
    <g s:x="28" s:y="10" s:pid="Y"/>
  </g>
  <g s:type="inputExt" transform="translate(113,310.5)" s:width="30" s:height="20" id="cell_i_rst_n">
    <text x="15" y="-4" class="nodelabel cell_i_rst_n" s:attribute="ref">i_rst_n</text>
    <s:alias val="$_inputExt_"/>
    <path d="M0,0 L0,20 L15,20 L30,10 L15,0 Z" class="cell_i_rst_n"/>
    <g s:x="28" s:y="10" s:pid="Y"/>
  </g>
  <g s:type="inputExt" transform="translate(113,375.5)" s:width="30" s:height="20" id="cell_i_wen">
    <text x="15" y="-4" class="nodelabel cell_i_wen" s:attribute="ref">i_wen</text>
    <s:alias val="$_inputExt_"/>
    <path d="M0,0 L0,20 L15,20 L30,10 L15,0 Z" class="cell_i_wen"/>
    <g s:x="28" s:y="10" s:pid="Y"/>
  </g>
  <g s:type="inputExt" transform="translate(12,216)" s:width="30" s:height="20" id="cell_i_alu_flags">
    <text x="15" y="-4" class="nodelabel cell_i_alu_flags" s:attribute="ref">i_alu_flags</text>
    <s:alias val="$_inputExt_"/>
    <path d="M0,0 L0,20 L15,20 L30,10 L15,0 Z" class="cell_i_alu_flags"/>
    <g s:x="28" s:y="10" s:pid="Y"/>
  </g>
  <g s:type="outputExt" transform="translate(503,32.5)" s:width="30" s:height="20" id="cell_o_stored_flags">
    <text x="15" y="-4" class="nodelabel cell_o_stored_flags" s:attribute="ref">o_stored_flags</text>
    <s:alias val="$_outputExt_"/>
    <path d="M30,0 L30,20 L15,20 L0,10 L15,0 Z" class="cell_o_stored_flags"/>
    <g s:x="0" s:y="10" s:pid="A"/>
  </g>
  <g s:type="join" transform="translate(462,22)" s:width="4" s:height="40" id="cell_$join$,8,9,10,">
    <rect width="5" height="60" class="splitjoinBody" s:generic="body"/>
    <s:alias val="$_join_"/>
    <g s:x="5" s:y="20" s:pid="out"/>
    <g transform="translate(0,10)" s:x="0" s:y="10" s:pid="in0">
      <text x="-3" y="-4" class="inputPortLabel">0</text>
    </g>
    <g transform="translate(0,30)" s:x="0" s:y="10" s:pid="in0">
      <text x="-3" y="-4" class="inputPortLabel">1</text>
    </g>
    <g transform="translate(0,50)" s:x="0" s:y="10" s:pid="in0">
      <text x="-3" y="-4" class="inputPortLabel">2</text>
    </g>
  </g>
  <g s:type="split" transform="translate(134.75,205.5)" s:width="5" s:height="40" id="cell_$split$,5,6,7,">
    <rect width="5" height="60" class="splitjoinBody" s:generic="body"/>
    <s:alias val="$_split_"/>
    <g s:x="0" s:y="20" s:pid="in"/>
    <g transform="translate(4,10)" s:x="4" s:y="10" s:pid="out0">
      <text x="5" y="-4">0</text>
    </g>
    <g transform="translate(4,30)" s:x="4" s:y="10" s:pid="out0">
      <text x="5" y="-4">1</text>
    </g>
    <g transform="translate(4,50)" s:x="4" s:y="10" s:pid="out0">
      <text x="5" y="-4">2</text>
    </g>
  </g>
  <line x1="141" x2="185" y1="160.5" y2="160.5" class="net_2"/>
  <line x1="185" x2="185" y1="160.5" y2="32.5" class="net_2"/>
  <circle cx="185" cy="160.5" r="2" style="fill:#000" class="net_2"/>
  <line x1="185" x2="258" y1="32.5" y2="32.5" class="net_2"/>
  <line x1="141" x2="258" y1="160.5" y2="160.5" class="net_2"/>
  <line x1="141" x2="185" y1="160.5" y2="160.5" class="net_2"/>
  <line x1="185" x2="185" y1="160.5" y2="288.5" class="net_2"/>
  <line x1="185" x2="258" y1="288.5" y2="288.5" class="net_2"/>
  <line x1="139.75" x2="165" y1="216" y2="216" class="net_5"/>
  <line x1="165" x2="165" y1="216" y2="52.5" class="net_5"/>
  <line x1="165" x2="258" y1="52.5" y2="52.5" class="net_5"/>
  <line x1="141" x2="195" y1="320.5" y2="320.5" class="net_3"/>
  <line x1="195" x2="195" y1="320.5" y2="72.5" class="net_3"/>
  <circle cx="195" cy="320.5" r="2" style="fill:#000" class="net_3"/>
  <line x1="195" x2="258" y1="72.5" y2="72.5" class="net_3"/>
  <line x1="141" x2="195" y1="320.5" y2="320.5" class="net_3"/>
  <line x1="195" x2="195" y1="320.5" y2="200.5" class="net_3"/>
  <circle cx="195" cy="200.5" r="2" style="fill:#000" class="net_3"/>
  <line x1="195" x2="258" y1="200.5" y2="200.5" class="net_3"/>
  <line x1="141" x2="195" y1="320.5" y2="320.5" class="net_3"/>
  <line x1="195" x2="195" y1="320.5" y2="328.5" class="net_3"/>
  <line x1="195" x2="258" y1="328.5" y2="328.5" class="net_3"/>
  <line x1="141" x2="205" y1="385.5" y2="385.5" class="net_4"/>
  <line x1="205" x2="205" y1="385.5" y2="92.5" class="net_4"/>
  <line x1="205" x2="258" y1="92.5" y2="92.5" class="net_4"/>
  <line x1="141" x2="205" y1="385.5" y2="385.5" class="net_4"/>
  <line x1="205" x2="205" y1="385.5" y2="220.5" class="net_4"/>
  <circle cx="205" cy="220.5" r="2" style="fill:#000" class="net_4"/>
  <line x1="205" x2="258" y1="220.5" y2="220.5" class="net_4"/>
  <line x1="141" x2="205" y1="385.5" y2="385.5" class="net_4"/>
  <line x1="205" x2="205" y1="385.5" y2="348.5" class="net_4"/>
  <circle cx="205" cy="348.5" r="2" style="fill:#000" class="net_4"/>
  <line x1="205" x2="258" y1="348.5" y2="348.5" class="net_4"/>
  <line x1="139.75" x2="175" y1="236" y2="236" class="net_6"/>
  <line x1="175" x2="175" y1="236" y2="180.5" class="net_6"/>
  <line x1="175" x2="258" y1="180.5" y2="180.5" class="net_6"/>
  <line x1="139.75" x2="165" y1="256" y2="256" class="net_7"/>
  <line x1="165" x2="165" y1="256" y2="308.5" class="net_7"/>
  <line x1="165" x2="258" y1="308.5" y2="308.5" class="net_7"/>
  <line x1="468" x2="503" y1="42.5" y2="42.5" class="net_8,9,10"/>
  <line x1="289" x2="462" y1="32.5" y2="32.5" class="net_8"/>
  <line x1="289" x2="430" y1="160.5" y2="160.5" class="net_9"/>
  <line x1="430" x2="430" y1="160.5" y2="52.5" class="net_9"/>
  <line x1="430" x2="462" y1="52.5" y2="52.5" class="net_9"/>
  <line x1="289" x2="440" y1="288.5" y2="288.5" class="net_10"/>
  <line x1="440" x2="440" y1="288.5" y2="72.5" class="net_10"/>
  <line x1="440" x2="462" y1="72.5" y2="72.5" class="net_10"/>
  <line x1="40" x2="134.75" y1="226" y2="226" class="net_5,6,7"/>
</svg>
