<svg xmlns="http://www.w3.org/2000/svg" xmlns:xlink="http://www.w3.org/1999/xlink" xmlns:s="https://github.com/nturley/netlistsvg" width="382" height="234">
  <style>svg {
    stroke:#000;
    fill:none;
  }
  text {
    fill:#000;
    stroke:none;
    font-size:10px;
    font-weight: bold;
    font-family: "Courier New", monospace;
  }
  .nodelabel {
    text-anchor: middle;
  }
  .inputPortLabel {
    text-anchor: end;
  }
  .splitjoinBody {
    fill:#000;
  }</style>
  <g s:type="generic" transform="translate(161,76.5)" s:width="30" s:height="40" id="cell_$auto$ff.cc:337:slice$86">
    <text x="15" y="-4" class="nodelabel cell_$auto$ff.cc:337:slice$86" s:attribute="ref">$_DFF_PN0_</text>
    <rect width="30" height="60" s:generic="body" class="cell_$auto$ff.cc:337:slice$86"/>
    <g transform="translate(0,10)" s:x="0" s:y="10" s:pid="in0" id="port_$auto$ff.cc:337:slice$86~C">
      <text x="-3" y="-4" class="inputPortLabel cell_$auto$ff.cc:337:slice$86">C</text>
    </g>
    <g transform="translate(0,30)" s:x="0" s:y="10" s:pid="in0" id="port_$auto$ff.cc:337:slice$86~D">
      <text x="-3" y="-4" class="inputPortLabel cell_$auto$ff.cc:337:slice$86">D</text>
    </g>
    <g transform="translate(0,50)" s:x="0" s:y="10" s:pid="in0" id="port_$auto$ff.cc:337:slice$86~R">
      <text x="-3" y="-4" class="inputPortLabel cell_$auto$ff.cc:337:slice$86">R</text>
    </g>
    <g transform="translate(30,10)" s:x="30" s:y="10" s:pid="out0" id="port_$auto$ff.cc:337:slice$86~Q">
      <text x="5" y="-4" style="fill:#000; stroke:none" class="cell_$auto$ff.cc:337:slice$86">Q</text>
    </g>
  </g>
  <g s:type="mux" transform="translate(87.66666666666667,87)" s:width="20" s:height="40" id="cell_$auto$simplemap.cc:298:simplemap_mux$85">
    <s:alias val="$pmux"/>
    <s:alias val="$mux"/>
    <s:alias val="$_MUX_"/>
    <path d="M0,0 L20,10 L20,30 L0,40 Z" class="cell_$auto$simplemap.cc:298:simplemap_mux$85"/>
    <g s:x="0" s:y="10" s:pid="A"/>
    <g s:x="0" s:y="30" s:pid="B"/>
    <g s:x="10" s:y="35" s:pid="S"/>
    <g s:x="20" s:y="20" s:pid="Y"/>
  </g>
  <g s:type="inputExt" transform="translate(77,32)" s:width="30" s:height="20" id="cell_i_clk">
    <text x="15" y="-4" class="nodelabel cell_i_clk" s:attribute="ref">i_clk</text>
    <s:alias val="$_inputExt_"/>
    <path d="M0,0 L0,20 L15,20 L30,10 L15,0 Z" class="cell_i_clk"/>
    <g s:x="28" s:y="10" s:pid="Y"/>
  </g>
  <g s:type="inputExt" transform="translate(77,202)" s:width="30" s:height="20" id="cell_i_rst_n">
    <text x="15" y="-4" class="nodelabel cell_i_rst_n" s:attribute="ref">i_rst_n</text>
    <s:alias val="$_inputExt_"/>
    <path d="M0,0 L0,20 L15,20 L30,10 L15,0 Z" class="cell_i_rst_n"/>
    <g s:x="28" s:y="10" s:pid="Y"/>
  </g>
  <g s:type="inputExt" transform="translate(12,172)" s:width="30" s:height="20" id="cell_i_wen">
    <text x="15" y="-4" class="nodelabel cell_i_wen" s:attribute="ref">i_wen</text>
    <s:alias val="$_inputExt_"/>
    <path d="M0,0 L0,20 L15,20 L30,10 L15,0 Z" class="cell_i_wen"/>
    <g s:x="28" s:y="10" s:pid="Y"/>
  </g>
  <g s:type="inputExt" transform="translate(12,107)" s:width="30" s:height="20" id="cell_i_d">
    <text x="15" y="-4" class="nodelabel cell_i_d" s:attribute="ref">i_d</text>
    <s:alias val="$_inputExt_"/>
    <path d="M0,0 L0,20 L15,20 L30,10 L15,0 Z" class="cell_i_d"/>
    <g s:x="28" s:y="10" s:pid="Y"/>
  </g>
  <g s:type="outputExt" transform="translate(340,77)" s:width="30" s:height="20" id="cell_o_q">
    <text x="15" y="-4" class="nodelabel cell_o_q" s:attribute="ref">o_q</text>
    <s:alias val="$_outputExt_"/>
    <path d="M30,0 L30,20 L15,20 L0,10 L15,0 Z" class="cell_o_q"/>
    <g s:x="0" s:y="10" s:pid="A"/>
  </g>
  <line x1="105" x2="129" y1="42" y2="42" class="net_2"/>
  <line x1="129" x2="129" y1="42" y2="87" class="net_2"/>
  <line x1="129" x2="161" y1="87" y2="87" class="net_2"/>
  <line x1="107.66666666666667" x2="161" y1="107" y2="107" class="net_7"/>
  <line x1="105" x2="129" y1="212" y2="212" class="net_3"/>
  <line x1="129" x2="129" y1="212" y2="127" class="net_3"/>
  <line x1="129" x2="161" y1="127" y2="127" class="net_3"/>
  <line x1="192" x2="315" y1="87" y2="87" class="net_6"/>
  <line x1="315" x2="315" y1="87" y2="12" class="net_6"/>
  <line x1="315" x2="52" y1="12" y2="12" class="net_6"/>
  <line x1="52" x2="52" y1="12" y2="97" class="net_6"/>
  <circle cx="315" cy="87" r="2" style="fill:#000" class="net_6"/>
  <line x1="52" x2="87.66666666666667" y1="97" y2="97" class="net_6"/>
  <line x1="192" x2="340" y1="87" y2="87" class="net_6"/>
  <line x1="40" x2="87.66666666666667" y1="117" y2="117" class="net_5"/>
  <line x1="40" x2="97.66666666666667" y1="182" y2="182" class="net_4"/>
  <line x1="97.66666666666667" x2="97.66666666666667" y1="182" y2="122" class="net_4"/>
</svg>
